<svg width="825" height="300" viewBox="0 0 825 300" fill="none" xmlns="http://www.w3.org/2000/svg"><style>
					.header {
						font: 600 18px &#x27;Segoe UI&#x27;, Ubuntu, Sans-Serif;
						fill: #3d858f;
						animation: fadeInAnimation 0.8s ease-in-out forwards;
					}
					
	.lang-name {
		font: 400 16px &#x27;Segoe UI&#x27;, Ubuntu, Sans-Serif;
		fill: #ffffffcc;
	}
	.xp-txt {
		font: 400 12px &#x27;Segoe UI&#x27;, Ubuntu, Sans-Serif;
		fill: black;
	}
	.xp-txt-invert {
		font: 600 12px &#x27;Segoe UI&#x27;, Ubuntu, Sans-Serif;
		fill: white;
	}
	.subtitle {
		font: 400 14px &#x27;Segoe UI&#x27;, Ubuntu, Sans-Serif;
		fill: #ffffffcc;
	}


					/* Animations */
					@keyframes scaleInAnimation {
						from {
							transform: translate(-5px, 5px) scale(0);
						}
						to {
							transform: translate(-5px, 5px) scale(1);
						}
					}
					@keyframes fadeInAnimation {
						from {
							opacity: 0;
						}
						to {
							opacity: 1;
						}
					}
				</style><rect x="0.5" y="0.5" rx="4.5" height="99%" stroke="#E4E2E2" width="824" fill="#151515" stroke-opacity="0"></rect><g transform="translate(25, 35)"><g transform="translate(0, 0)"><text x="0" y="0" class="header">Coding History of the last two weeks</text></g></g><g transform="translate(0, 55)"><svg x="25"><g transform="translate(0, 0)"><g transform="translate(0, 0)"><svg x="7" y="-20" height="240"><mask id="mask-2023-09-24"><rect x="0" y="137.0288315629742" width="16" height="67.9711684370258" fill="white" rx="5"></rect></mask><rect rx="5" ry="5" x="0" y="25" width="16" height="180" fill="#ddd"></rect><rect mask="url(#mask-2023-09-24)" width="16" fill="#cb171e" y="169.4506828528073" x="0" height="35.54931714719272px"></rect><rect mask="url(#mask-2023-09-24)" width="16" fill="#2b7489" y="144.88163884673747" x="0" height="24.569044006069802px"></rect><rect mask="url(#mask-2023-09-24)" width="16" fill="#b276b2" y="137.0288315629742" x="0" height="7.852807283763278px"></rect><text transform="rotate(90, 4, 46.028831562974204)" letter-spacing="5" y="46.028831562974204" x="4" rotate="-90" class="xp-txt">4977 XP</text></svg><text x="2" y="198" class="subtitle">Sep</text><text x="6" y="214" class="subtitle">24</text></g><g transform="translate(40, 0)"><svg x="7" y="-20" height="240"><mask id="mask-2023-09-25"><rect x="0" y="123.52200303490136" width="16" height="81.47799696509864" fill="white" rx="5"></rect></mask><rect rx="5" ry="5" x="0" y="25" width="16" height="180" fill="#ddd"></rect><rect mask="url(#mask-2023-09-25)" width="16" fill="#3572A5" y="140.948406676783" x="0" height="64.05159332321699px"></rect><rect mask="url(#mask-2023-09-25)" width="16" fill="#083fa1" y="140.55235204855842" x="0" height="0.3960546282245827px"></rect><rect mask="url(#mask-2023-09-25)" width="16" fill="#b276b2" y="123.52200303490136" x="0" height="17.030349013657055px"></rect><text transform="rotate(90, 4, 32.52200303490136)" letter-spacing="5" y="32.52200303490136" x="4" rotate="-90" class="xp-txt">5966 XP</text></svg><text x="2" y="198" class="subtitle">Sep</text><text x="6" y="214" class="subtitle">25</text></g><g transform="translate(80, 0)"><svg x="7" y="-20" height="240"><mask id="mask-2023-09-26"><rect x="0" y="176.66160849772382" width="16" height="28.338391502276178" fill="white" rx="5"></rect></mask><rect rx="5" ry="5" x="0" y="25" width="16" height="180" fill="#ddd"></rect><rect mask="url(#mask-2023-09-26)" width="16" fill="#dea584" y="187.46433990895295" x="0" height="17.535660091047042px"></rect><rect mask="url(#mask-2023-09-26)" width="16" fill="#00ADD8" y="182.0834597875569" x="0" height="5.380880121396054px"></rect><rect mask="url(#mask-2023-09-26)" width="16" fill="#b276b2" y="176.66160849772382" x="0" height="5.42185128983308px"></rect><text transform="rotate(90, 4, 85.66160849772382)" letter-spacing="5" y="85.66160849772382" x="4" rotate="-90" class="xp-txt">2075 XP</text></svg><text x="2" y="198" class="subtitle">Sep</text><text x="6" y="214" class="subtitle">26</text></g><g transform="translate(120, 0)"><svg x="7" y="-20" height="240"><mask id="mask-2023-09-27"><rect x="0" y="73.82397572078906" width="16" height="131.17602427921094" fill="white" rx="5"></rect></mask><rect rx="5" ry="5" x="0" y="25" width="16" height="180" fill="#ddd"></rect><rect mask="url(#mask-2023-09-27)" width="16" fill="#3572A5" y="155.65705614567526" x="0" height="49.34294385432474px"></rect><rect mask="url(#mask-2023-09-27)" width="16" fill="#dea584" y="115.23216995447648" x="0" height="40.42488619119879px"></rect><rect mask="url(#mask-2023-09-27)" width="16" fill="#cb171e" y="115.1638846737481" x="0" height="0.06828528072837632px"></rect><rect mask="url(#mask-2023-09-27)" width="16" fill="#b276b2" y="73.82397572078906" x="0" height="41.33990895295903px"></rect><text transform="rotate(90, 4, 89.82397572078906)" letter-spacing="5" y="89.82397572078906" x="4" rotate="-90" class="xp-txt xp-txt-invert">9605 XP</text></svg><text x="2" y="198" class="subtitle">Sep</text><text x="6" y="214" class="subtitle">27</text></g><g transform="translate(160, 0)"><svg x="7" y="-20" height="240"><mask id="mask-2023-09-28"><rect x="0" y="25" width="16" height="180" fill="white" rx="5"></rect></mask><rect rx="5" ry="5" x="0" y="25" width="16" height="180" fill="#ddd"></rect><rect mask="url(#mask-2023-09-28)" width="16" fill="#3572A5" y="131.21092564491653" x="0" height="73.78907435508346px"></rect><rect mask="url(#mask-2023-09-28)" width="16" fill="#083fa1" y="111.61305007587254" x="0" height="19.597875569044007px"></rect><rect mask="url(#mask-2023-09-28)" width="16" fill="#3e4053" y="104.01972685887709" x="0" height="7.593323216995447px"></rect><rect mask="url(#mask-2023-09-28)" width="16" fill="#b276b2" y="25" x="0" height="79.01972685887709px"></rect><text transform="rotate(90, 4, 41)" letter-spacing="5" y="41" x="4" rotate="-90" class="xp-txt xp-txt-invert">13180 XP</text></svg><text x="2" y="198" class="subtitle">Sep</text><text x="6" y="214" class="subtitle">28</text></g><g transform="translate(200, 0)"><svg x="7" y="-20" height="240"><mask id="mask-2023-09-29"><rect x="0" y="198.94992412746586" width="16" height="6.050075872534142" fill="white" rx="5"></rect></mask><rect rx="5" ry="5" x="0" y="25" width="16" height="180" fill="#ddd"></rect><rect mask="url(#mask-2023-09-29)" width="16" fill="#b276b2" y="198.94992412746586" x="0" height="6.050075872534142px"></rect><text transform="rotate(90, 4, 120.94992412746586)" letter-spacing="5" y="120.94992412746586" x="4" rotate="-90" class="xp-txt">443 XP</text></svg><text x="2" y="198" class="subtitle">Sep</text><text x="6" y="214" class="subtitle">29</text></g><g transform="translate(240, 0)"><svg x="7" y="-20" height="240"><mask id="mask-2023-09-30"><rect x="0" y="166.22761760242793" width="16" height="38.77238239757208" fill="white" rx="5"></rect></mask><rect rx="5" ry="5" x="0" y="25" width="16" height="180" fill="#ddd"></rect><rect mask="url(#mask-2023-09-30)" width="16" fill="#cb171e" y="195.12594840667677" x="0" height="9.874051593323218px"></rect><rect mask="url(#mask-2023-09-30)" width="16" fill="#083fa1" y="183.21699544764795" x="0" height="11.90895295902883px"></rect><rect mask="url(#mask-2023-09-30)" width="16" fill="#2b7489" y="177.53566009104705" x="0" height="5.68133535660091px"></rect><rect mask="url(#mask-2023-09-30)" width="16" fill="#b276b2" y="166.22761760242793" x="0" height="11.30804248861912px"></rect><text transform="rotate(90, 4, 75.22761760242793)" letter-spacing="5" y="75.22761760242793" x="4" rotate="-90" class="xp-txt">2839 XP</text></svg><text x="2" y="198" class="subtitle">Sep</text><text x="6" y="214" class="subtitle">30</text></g><g transform="translate(280, 0)"><svg x="7" y="-20" height="240"><mask id="mask-2023-10-01"><rect x="0" y="205" width="16" height="0" fill="white" rx="5"></rect></mask><rect rx="5" ry="5" x="0" y="25" width="16" height="180" fill="#ddd"></rect><text transform="rotate(90, 4, 153)" letter-spacing="5" y="153" x="4" rotate="-90" class="xp-txt">0 XP</text></svg><text x="2" y="198" class="subtitle">Oct</text><text x="6" y="214" class="subtitle">01</text></g><g transform="translate(320, 0)"><svg x="7" y="-20" height="240"><mask id="mask-2023-10-02"><rect x="0" y="133.8330804248862" width="16" height="71.16691957511381" fill="white" rx="5"></rect></mask><rect rx="5" ry="5" x="0" y="25" width="16" height="180" fill="#ddd"></rect><rect mask="url(#mask-2023-10-02)" width="16" fill="#3572A5" y="188.597875569044" x="0" height="16.402124430955993px"></rect><rect mask="url(#mask-2023-10-02)" width="16" fill="#00ADD8" y="188.01062215477998" x="0" height="0.5872534142640364px"></rect><rect mask="url(#mask-2023-10-02)" width="16" fill="#083fa1" y="175.95144157814872" x="0" height="12.05918057663126px"></rect><rect mask="url(#mask-2023-10-02)" width="16" fill="#3e4053" y="163.85128983308041" x="0" height="12.100151745068285px"></rect><rect mask="url(#mask-2023-10-02)" width="16" fill="#b276b2" y="133.8330804248862" x="0" height="30.018209408194235px"></rect><text transform="rotate(90, 4, 42.83308042488619)" letter-spacing="5" y="42.83308042488619" x="4" rotate="-90" class="xp-txt">5211 XP</text></svg><text x="2" y="198" class="subtitle">Oct</text><text x="6" y="214" class="subtitle">02</text></g><g transform="translate(360, 0)"><svg x="7" y="-20" height="240"><mask id="mask-2023-10-03"><rect x="0" y="176.92109256449166" width="16" height="28.078907435508345" fill="white" rx="5"></rect></mask><rect rx="5" ry="5" x="0" y="25" width="16" height="180" fill="#ddd"></rect><rect mask="url(#mask-2023-10-03)" width="16" fill="#00ADD8" y="180.4855842185129" x="0" height="24.514415781487102px"></rect><rect mask="url(#mask-2023-10-03)" width="16" fill="#b276b2" y="176.92109256449166" x="0" height="3.564491654021244px"></rect><text transform="rotate(90, 4, 85.92109256449166)" letter-spacing="5" y="85.92109256449166" x="4" rotate="-90" class="xp-txt">2056 XP</text></svg><text x="2" y="198" class="subtitle">Oct</text><text x="6" y="214" class="subtitle">03</text></g><g transform="translate(400, 0)"><svg x="7" y="-20" height="240"><mask id="mask-2023-10-04"><rect x="0" y="205" width="16" height="0" fill="white" rx="5"></rect></mask><rect rx="5" ry="5" x="0" y="25" width="16" height="180" fill="#ddd"></rect><text transform="rotate(90, 4, 153)" letter-spacing="5" y="153" x="4" rotate="-90" class="xp-txt">0 XP</text></svg><text x="2" y="198" class="subtitle">Oct</text><text x="6" y="214" class="subtitle">04</text></g><g transform="translate(440, 0)"><svg x="7" y="-20" height="240"><mask id="mask-2023-10-05"><rect x="0" y="185.6752655538695" width="16" height="19.3247344461305" fill="white" rx="5"></rect></mask><rect rx="5" ry="5" x="0" y="25" width="16" height="180" fill="#ddd"></rect><rect mask="url(#mask-2023-10-05)" width="16" fill="#00ADD8" y="190.74203338391501" x="0" height="14.257966616084977px"></rect><rect mask="url(#mask-2023-10-05)" width="16" fill="#b276b2" y="185.6752655538695" x="0" height="5.0667678300455234px"></rect><text transform="rotate(90, 4, 94.67526555386951)" letter-spacing="5" y="94.67526555386951" x="4" rotate="-90" class="xp-txt">1415 XP</text></svg><text x="2" y="198" class="subtitle">Oct</text><text x="6" y="214" class="subtitle">05</text></g><g transform="translate(480, 0)"><svg x="7" y="-20" height="240"><mask id="mask-2023-10-06"><rect x="0" y="157.85584218512898" width="16" height="47.144157814871015" fill="white" rx="5"></rect></mask><rect rx="5" ry="5" x="0" y="25" width="16" height="180" fill="#ddd"></rect><rect mask="url(#mask-2023-10-06)" width="16" fill="#dea584" y="170.39301972685888" x="0" height="34.606980273141126px"></rect><rect mask="url(#mask-2023-10-06)" width="16" fill="#b276b2" y="157.85584218512898" x="0" height="12.537177541729895px"></rect><text transform="rotate(90, 4, 66.85584218512898)" letter-spacing="5" y="66.85584218512898" x="4" rotate="-90" class="xp-txt">3452 XP</text></svg><text x="2" y="198" class="subtitle">Oct</text><text x="6" y="214" class="subtitle">06</text></g><g transform="translate(520, 0)"><svg x="7" y="-20" height="240"><mask id="mask-2023-10-07"><rect x="0" y="177.01669195751137" width="16" height="27.98330804248862" fill="white" rx="5"></rect></mask><rect rx="5" ry="5" x="0" y="25" width="16" height="180" fill="#ddd"></rect><rect mask="url(#mask-2023-10-07)" width="16" fill="#3572A5" y="204.09863429438542" x="0" height="0.9013657056145675px"></rect><rect mask="url(#mask-2023-10-07)" width="16" fill="#dea584" y="196.80576631259484" x="0" height="7.292867981790592px"></rect><rect mask="url(#mask-2023-10-07)" width="16" fill="#b07219" y="193.06373292867983" x="0" height="3.7420333839150226px"></rect><rect mask="url(#mask-2023-10-07)" width="16" fill="#b276b2" y="177.01669195751137" x="0" height="16.047040971168435px"></rect><text transform="rotate(90, 4, 86.01669195751137)" letter-spacing="5" y="86.01669195751137" x="4" rotate="-90" class="xp-txt">2049 XP</text></svg><text x="2" y="198" class="subtitle">Oct</text><text x="6" y="214" class="subtitle">07</text></g></g><g transform="translate(600, 0)"><g transform="translate(0, 0)"><rect rx="5" x="2" y="7" height="12" width="12" fill="#3572A5"></rect><text x="18" y="18" class="lang-name">Python</text></g><g transform="translate(0, 20)"><rect rx="5" x="2" y="7" height="12" width="12" fill="#dea584"></rect><text x="18" y="18" class="lang-name">Rust</text></g><g transform="translate(0, 40)"><rect rx="5" x="2" y="7" height="12" width="12" fill="#cb171e"></rect><text x="18" y="18" class="lang-name">YAML</text></g><g transform="translate(0, 60)"><rect rx="5" x="2" y="7" height="12" width="12" fill="#00ADD8"></rect><text x="18" y="18" class="lang-name">Go</text></g><g transform="translate(0, 80)"><rect rx="5" x="2" y="7" height="12" width="12" fill="#083fa1"></rect><text x="18" y="18" class="lang-name">Markdown</text></g><g transform="translate(0, 100)"><rect rx="5" x="2" y="7" height="12" width="12" fill="#2b7489"></rect><text x="18" y="18" class="lang-name">TypeScript</text></g><g transform="translate(0, 120)"><rect rx="5" x="2" y="7" height="12" width="12" fill="#3e4053"></rect><text x="18" y="18" class="lang-name">Docker</text></g><g transform="translate(0, 140)"><rect rx="5" x="2" y="7" height="12" width="12" fill="#b07219"></rect><text x="18" y="18" class="lang-name">Java</text></g><g transform="translate(0, 160)"><rect rx="5" x="2" y="7" height="12" width="12" fill="#3e4053"></rect><text x="18" y="18" class="lang-name">Other</text></g></g></svg></g></svg>