<svg width="785" height="300" viewBox="0 0 785 300" fill="none" xmlns="http://www.w3.org/2000/svg"><style>
					.header {
						font: 600 18px &#x27;Segoe UI&#x27;, Ubuntu, Sans-Serif;
						fill: #3d858f;
						animation: fadeInAnimation 0.8s ease-in-out forwards;
					}
					
	.lang-name {
		font: 400 16px &#x27;Segoe UI&#x27;, Ubuntu, Sans-Serif;
		fill: #ffffffcc;
	}
	.xp-txt {
		font: 400 12px &#x27;Segoe UI&#x27;, Ubuntu, Sans-Serif;
		fill: black;
	}
	.xp-txt-invert {
		font: 600 12px &#x27;Segoe UI&#x27;, Ubuntu, Sans-Serif;
		fill: white;
	}
	.subtitle {
		font: 400 14px &#x27;Segoe UI&#x27;, Ubuntu, Sans-Serif;
		fill: #ffffffcc;
	}


					/* Animations */
					@keyframes scaleInAnimation {
						from {
							transform: translate(-5px, 5px) scale(0);
						}
						to {
							transform: translate(-5px, 5px) scale(1);
						}
					}
					@keyframes fadeInAnimation {
						from {
							opacity: 0;
						}
						to {
							opacity: 1;
						}
					}
				</style><rect x="0.5" y="0.5" rx="4.5" height="99%" stroke="#E4E2E2" width="784" fill="#151515" stroke-opacity="0"></rect><g transform="translate(25, 35)"><g transform="translate(0, 0)"><text x="0" y="0" class="header">Coding History of the last two weeks</text></g></g><g transform="translate(0, 55)"><svg x="25"><g transform="translate(0, 0)"><g transform="translate(0, 0)"><svg x="7" y="-20" height="240"><mask id="mask-2023-12-15"><rect x="0" y="201.95819745034095" width="16" height="3.041802549659057" fill="white" rx="5"></rect></mask><rect rx="5" ry="5" x="0" y="25" width="16" height="180" fill="#ddd"></rect><rect mask="url(#mask-2023-12-15)" width="16" fill="#b276b2" y="201.95819745034095" x="0" height="3.041802549659057px"></rect><text transform="rotate(90, 4, 136.95819745034095)" letter-spacing="5" y="136.95819745034095" x="4" rotate="-90" class="xp-txt">57 XP</text></svg><text x="2" y="198" class="subtitle">Dec</text><text x="6" y="214" class="subtitle">15</text></g><g transform="translate(40, 0)"><svg x="7" y="-20" height="240"><mask id="mask-2023-12-17"><rect x="0" y="205" width="16" height="0" fill="white" rx="5"></rect></mask><rect rx="5" ry="5" x="0" y="25" width="16" height="180" fill="#ddd"></rect><text transform="rotate(90, 4, 153)" letter-spacing="5" y="153" x="4" rotate="-90" class="xp-txt">0 XP</text></svg><text x="2" y="198" class="subtitle">Dec</text><text x="6" y="214" class="subtitle">17</text></g><g transform="translate(80, 0)"><svg x="7" y="-20" height="240"><mask id="mask-2023-12-18"><rect x="0" y="202.75867180551438" width="16" height="2.241328194485621" fill="white" rx="5"></rect></mask><rect rx="5" ry="5" x="0" y="25" width="16" height="180" fill="#ddd"></rect><rect mask="url(#mask-2023-12-18)" width="16" fill="#b276b2" y="202.75867180551438" x="0" height="2.241328194485621px"></rect><text transform="rotate(90, 4, 137.75867180551438)" letter-spacing="5" y="137.75867180551438" x="4" rotate="-90" class="xp-txt">42 XP</text></svg><text x="2" y="198" class="subtitle">Dec</text><text x="6" y="214" class="subtitle">18</text></g><g transform="translate(120, 0)"><svg x="7" y="-20" height="240"><mask id="mask-2023-12-19"><rect x="0" y="204.94663504298845" width="16" height="0.05336495701156241" fill="white" rx="5"></rect></mask><rect rx="5" ry="5" x="0" y="25" width="16" height="180" fill="#ddd"></rect><rect mask="url(#mask-2023-12-19)" width="16" fill="#b276b2" y="204.94663504298845" x="0" height="0.05336495701156241px"></rect><text transform="rotate(90, 4, 152.94663504298845)" letter-spacing="5" y="152.94663504298845" x="4" rotate="-90" class="xp-txt">1 XP</text></svg><text x="2" y="198" class="subtitle">Dec</text><text x="6" y="214" class="subtitle">19</text></g><g transform="translate(160, 0)"><svg x="7" y="-20" height="240"><mask id="mask-2023-12-20"><rect x="0" y="182.31989327008597" width="16" height="22.680106729914023" fill="white" rx="5"></rect></mask><rect rx="5" ry="5" x="0" y="25" width="16" height="180" fill="#ddd"></rect><rect mask="url(#mask-2023-12-20)" width="16" fill="#b276b2" y="182.31989327008597" x="0" height="22.680106729914023px"></rect><text transform="rotate(90, 4, 104.31989327008597)" letter-spacing="5" y="104.31989327008597" x="4" rotate="-90" class="xp-txt">425 XP</text></svg><text x="2" y="198" class="subtitle">Dec</text><text x="6" y="214" class="subtitle">20</text></g><g transform="translate(200, 0)"><svg x="7" y="-20" height="240"><mask id="mask-2023-12-21"><rect x="0" y="201.95819745034095" width="16" height="3.041802549659057" fill="white" rx="5"></rect></mask><rect rx="5" ry="5" x="0" y="25" width="16" height="180" fill="#ddd"></rect><rect mask="url(#mask-2023-12-21)" width="16" fill="#b276b2" y="201.95819745034095" x="0" height="3.041802549659057px"></rect><text transform="rotate(90, 4, 136.95819745034095)" letter-spacing="5" y="136.95819745034095" x="4" rotate="-90" class="xp-txt">57 XP</text></svg><text x="2" y="198" class="subtitle">Dec</text><text x="6" y="214" class="subtitle">21</text></g><g transform="translate(240, 0)"><svg x="7" y="-20" height="240"><mask id="mask-2023-12-22"><rect x="0" y="198.9163949006819" width="16" height="6.083605099318114" fill="white" rx="5"></rect></mask><rect rx="5" ry="5" x="0" y="25" width="16" height="180" fill="#ddd"></rect><rect mask="url(#mask-2023-12-22)" width="16" fill="#b276b2" y="198.9163949006819" x="0" height="6.083605099318114px"></rect><text transform="rotate(90, 4, 120.9163949006819)" letter-spacing="5" y="120.9163949006819" x="4" rotate="-90" class="xp-txt">114 XP</text></svg><text x="2" y="198" class="subtitle">Dec</text><text x="6" y="214" class="subtitle">22</text></g><g transform="translate(280, 0)"><svg x="7" y="-20" height="240"><mask id="mask-2023-12-23"><rect x="0" y="118.5487696412689" width="16" height="86.4512303587311" fill="white" rx="5"></rect></mask><rect rx="5" ry="5" x="0" y="25" width="16" height="180" fill="#ddd"></rect><rect mask="url(#mask-2023-12-23)" width="16" fill="#3e4053" y="194.11354876964126" x="0" height="10.88645123035873px"></rect><rect mask="url(#mask-2023-12-23)" width="16" fill="#b276b2" y="118.5487696412689" x="0" height="75.56477912837236px"></rect><text transform="rotate(90, 4, 134.5487696412689)" letter-spacing="5" y="134.5487696412689" x="4" rotate="-90" class="xp-txt xp-txt-invert">1620 XP</text></svg><text x="2" y="198" class="subtitle">Dec</text><text x="6" y="214" class="subtitle">23</text></g><g transform="translate(320, 0)"><svg x="7" y="-20" height="240"><mask id="mask-2023-12-24"><rect x="0" y="25" width="16" height="180" fill="white" rx="5"></rect></mask><rect rx="5" ry="5" x="0" y="25" width="16" height="180" fill="#ddd"></rect><rect mask="url(#mask-2023-12-24)" width="16" fill="#dea584" y="129.54195078565076" x="0" height="75.45804921434924px"></rect><rect mask="url(#mask-2023-12-24)" width="16" fill="#00ADD8" y="89.83842276904832" x="0" height="39.703528016602434px"></rect><rect mask="url(#mask-2023-12-24)" width="16" fill="#3572A5" y="89.62496294100208" x="0" height="0.21345982804624963px"></rect><rect mask="url(#mask-2023-12-24)" width="16" fill="#b276b2" y="25" x="0" height="64.62496294100208px"></rect><text transform="rotate(90, 4, 41)" letter-spacing="5" y="41" x="4" rotate="-90" class="xp-txt xp-txt-invert">3373 XP</text></svg><text x="2" y="198" class="subtitle">Dec</text><text x="6" y="214" class="subtitle">24</text></g><g transform="translate(360, 0)"><svg x="7" y="-20" height="240"><mask id="mask-2023-12-25"><rect x="0" y="202.27838719241032" width="16" height="2.7216128075896826" fill="white" rx="5"></rect></mask><rect rx="5" ry="5" x="0" y="25" width="16" height="180" fill="#ddd"></rect><rect mask="url(#mask-2023-12-25)" width="16" fill="#b276b2" y="202.27838719241032" x="0" height="2.7216128075896826px"></rect><text transform="rotate(90, 4, 137.27838719241032)" letter-spacing="5" y="137.27838719241032" x="4" rotate="-90" class="xp-txt">51 XP</text></svg><text x="2" y="198" class="subtitle">Dec</text><text x="6" y="214" class="subtitle">25</text></g><g transform="translate(400, 0)"><svg x="7" y="-20" height="240"><mask id="mask-2023-12-26"><rect x="0" y="203.82597094574564" width="16" height="1.174029054254373" fill="white" rx="5"></rect></mask><rect rx="5" ry="5" x="0" y="25" width="16" height="180" fill="#ddd"></rect><rect mask="url(#mask-2023-12-26)" width="16" fill="#b276b2" y="203.82597094574564" x="0" height="1.174029054254373px"></rect><text transform="rotate(90, 4, 138.82597094574564)" letter-spacing="5" y="138.82597094574564" x="4" rotate="-90" class="xp-txt">22 XP</text></svg><text x="2" y="198" class="subtitle">Dec</text><text x="6" y="214" class="subtitle">26</text></g><g transform="translate(440, 0)"><svg x="7" y="-20" height="240"><mask id="mask-2023-12-27"><rect x="0" y="200.35724873999408" width="16" height="4.642751260005929" fill="white" rx="5"></rect></mask><rect rx="5" ry="5" x="0" y="25" width="16" height="180" fill="#ddd"></rect><rect mask="url(#mask-2023-12-27)" width="16" fill="#b276b2" y="200.35724873999408" x="0" height="4.642751260005929px"></rect><text transform="rotate(90, 4, 135.35724873999408)" letter-spacing="5" y="135.35724873999408" x="4" rotate="-90" class="xp-txt">87 XP</text></svg><text x="2" y="198" class="subtitle">Dec</text><text x="6" y="214" class="subtitle">27</text></g><g transform="translate(480, 0)"><svg x="7" y="-20" height="240"><mask id="mask-2023-12-28"><rect x="0" y="98.75037058997924" width="16" height="106.24962941002076" fill="white" rx="5"></rect></mask><rect rx="5" ry="5" x="0" y="25" width="16" height="180" fill="#ddd"></rect><rect mask="url(#mask-2023-12-28)" width="16" fill="#b276b2" y="98.75037058997924" x="0" height="106.24962941002076px"></rect><text transform="rotate(90, 4, 114.75037058997924)" letter-spacing="5" y="114.75037058997924" x="4" rotate="-90" class="xp-txt xp-txt-invert">1991 XP</text></svg><text x="2" y="198" class="subtitle">Dec</text><text x="6" y="214" class="subtitle">28</text></g></g><g transform="translate(568, 0)"><g transform="translate(0, 0)"><rect rx="5" x="2" y="7" height="12" width="12" fill="#dea584"></rect><text x="18" y="18" class="lang-name">Rust</text></g><g transform="translate(0, 20)"><rect rx="5" x="2" y="7" height="12" width="12" fill="#00ADD8"></rect><text x="18" y="18" class="lang-name">Go</text></g><g transform="translate(0, 40)"><rect rx="5" x="2" y="7" height="12" width="12" fill="#3e4053"></rect><text x="18" y="18" class="lang-name">JSON</text></g><g transform="translate(0, 60)"><rect rx="5" x="2" y="7" height="12" width="12" fill="#3572A5"></rect><text x="18" y="18" class="lang-name">Python</text></g><g transform="translate(0, 80)"><rect rx="5" x="2" y="7" height="12" width="12" fill="#3e4053"></rect><text x="18" y="18" class="lang-name">Other</text></g></g></svg></g></svg>