<svg width="825" height="300" viewBox="0 0 825 300" fill="none" xmlns="http://www.w3.org/2000/svg"><style>
					.header {
						font: 600 18px &#x27;Segoe UI&#x27;, Ubuntu, Sans-Serif;
						fill: #3d858f;
						animation: fadeInAnimation 0.8s ease-in-out forwards;
					}
					
	.lang-name {
		font: 400 16px &#x27;Segoe UI&#x27;, Ubuntu, Sans-Serif;
		fill: #ffffffcc;
	}
	.xp-txt {
		font: 400 12px &#x27;Segoe UI&#x27;, Ubuntu, Sans-Serif;
		fill: black;
	}
	.xp-txt-invert {
		font: 600 12px &#x27;Segoe UI&#x27;, Ubuntu, Sans-Serif;
		fill: white;
	}
	.subtitle {
		font: 400 14px &#x27;Segoe UI&#x27;, Ubuntu, Sans-Serif;
		fill: #ffffffcc;
	}


					/* Animations */
					@keyframes scaleInAnimation {
						from {
							transform: translate(-5px, 5px) scale(0);
						}
						to {
							transform: translate(-5px, 5px) scale(1);
						}
					}
					@keyframes fadeInAnimation {
						from {
							opacity: 0;
						}
						to {
							opacity: 1;
						}
					}
				</style><rect x="0.5" y="0.5" rx="4.5" height="99%" stroke="#E4E2E2" width="824" fill="#151515" stroke-opacity="0"></rect><g transform="translate(25, 35)"><g transform="translate(0, 0)"><text x="0" y="0" class="header">Coding History of the last two weeks</text></g></g><g transform="translate(0, 55)"><svg x="25"><g transform="translate(0, 0)"><g transform="translate(0, 0)"><svg x="7" y="-20" height="240"><mask id="mask-2024-01-31"><rect x="0" y="25" width="16" height="180" fill="white" rx="5"></rect></mask><rect rx="5" ry="5" x="0" y="25" width="16" height="180" fill="#ddd"></rect><rect mask="url(#mask-2024-01-31)" width="16" fill="#3e4053" y="43.04967801287948" x="0" height="161.9503219871205px"></rect><rect mask="url(#mask-2024-01-31)" width="16" fill="#3e4053" y="27.31830726770929" x="0" height="15.731370745170194px"></rect><rect mask="url(#mask-2024-01-31)" width="16" fill="#3e4053" y="25.275988960441584" x="0" height="2.0423183072677094px"></rect><rect mask="url(#mask-2024-01-31)" width="16" fill="#b276b2" y="25" x="0" height="0.27598896044158233px"></rect><text transform="rotate(90, 4, 41)" letter-spacing="5" y="41" x="4" rotate="-90" class="xp-txt xp-txt-invert">3261 XP</text></svg><text x="2" y="198" class="subtitle">Jan</text><text x="6" y="214" class="subtitle">31</text></g><g transform="translate(40, 0)"><svg x="7" y="-20" height="240"><mask id="mask-2024-02-01"><rect x="0" y="201.2465501379945" width="16" height="3.7534498620055197" fill="white" rx="5"></rect></mask><rect rx="5" ry="5" x="0" y="25" width="16" height="180" fill="#ddd"></rect><rect mask="url(#mask-2024-02-01)" width="16" fill="#b276b2" y="201.2465501379945" x="0" height="3.7534498620055197px"></rect><text transform="rotate(90, 4, 136.2465501379945)" letter-spacing="5" y="136.2465501379945" x="4" rotate="-90" class="xp-txt">68 XP</text></svg><text x="2" y="198" class="subtitle">Feb</text><text x="6" y="214" class="subtitle">01</text></g><g transform="translate(80, 0)"><svg x="7" y="-20" height="240"><mask id="mask-2024-02-02"><rect x="0" y="205" width="16" height="0" fill="white" rx="5"></rect></mask><rect rx="5" ry="5" x="0" y="25" width="16" height="180" fill="#ddd"></rect><text transform="rotate(90, 4, 153)" letter-spacing="5" y="153" x="4" rotate="-90" class="xp-txt">0 XP</text></svg><text x="2" y="198" class="subtitle">Feb</text><text x="6" y="214" class="subtitle">02</text></g><g transform="translate(120, 0)"><svg x="7" y="-20" height="240"><mask id="mask-2024-02-03"><rect x="0" y="117.78748850045999" width="16" height="87.21251149954001" fill="white" rx="5"></rect></mask><rect rx="5" ry="5" x="0" y="25" width="16" height="180" fill="#ddd"></rect><rect mask="url(#mask-2024-02-03)" width="16" fill="#dea584" y="157.97148114075438" x="0" height="47.02851885924563px"></rect><rect mask="url(#mask-2024-02-03)" width="16" fill="#00B4AB" y="143.84084636614534" x="0" height="14.130634774609016px"></rect><rect mask="url(#mask-2024-02-03)" width="16" fill="#3e4053" y="143.73045078196873" x="0" height="0.11039558417663294px"></rect><rect mask="url(#mask-2024-02-03)" width="16" fill="#b276b2" y="117.78748850045999" x="0" height="25.94296228150874px"></rect><text transform="rotate(90, 4, 133.78748850045997)" letter-spacing="5" y="133.78748850045997" x="4" rotate="-90" class="xp-txt xp-txt-invert">1580 XP</text></svg><text x="2" y="198" class="subtitle">Feb</text><text x="6" y="214" class="subtitle">03</text></g><g transform="translate(160, 0)"><svg x="7" y="-20" height="240"><mask id="mask-2024-02-04"><rect x="0" y="205" width="16" height="0" fill="white" rx="5"></rect></mask><rect rx="5" ry="5" x="0" y="25" width="16" height="180" fill="#ddd"></rect><text transform="rotate(90, 4, 153)" letter-spacing="5" y="153" x="4" rotate="-90" class="xp-txt">0 XP</text></svg><text x="2" y="198" class="subtitle">Feb</text><text x="6" y="214" class="subtitle">04</text></g><g transform="translate(200, 0)"><svg x="7" y="-20" height="240"><mask id="mask-2024-02-05"><rect x="0" y="161.50413983440663" width="16" height="43.49586016559338" fill="white" rx="5"></rect></mask><rect rx="5" ry="5" x="0" y="25" width="16" height="180" fill="#ddd"></rect><rect mask="url(#mask-2024-02-05)" width="16" fill="#3e4053" y="194.40202391904324" x="0" height="10.597976080956762px"></rect><rect mask="url(#mask-2024-02-05)" width="16" fill="#3e4053" y="186.45354185832568" x="0" height="7.948482060717572px"></rect><rect mask="url(#mask-2024-02-05)" width="16" fill="#3e4053" y="184.46642134314627" x="0" height="1.987120515179393px"></rect><rect mask="url(#mask-2024-02-05)" width="16" fill="#b276b2" y="161.50413983440663" x="0" height="22.96228150873965px"></rect><text transform="rotate(90, 4, 83.50413983440663)" letter-spacing="5" y="83.50413983440663" x="4" rotate="-90" class="xp-txt">788 XP</text></svg><text x="2" y="198" class="subtitle">Feb</text><text x="6" y="214" class="subtitle">05</text></g><g transform="translate(240, 0)"><svg x="7" y="-20" height="240"><mask id="mask-2024-02-06"><rect x="0" y="198.0450781968721" width="16" height="6.954921803127875" fill="white" rx="5"></rect></mask><rect rx="5" ry="5" x="0" y="25" width="16" height="180" fill="#ddd"></rect><rect mask="url(#mask-2024-02-06)" width="16" fill="#b276b2" y="198.0450781968721" x="0" height="6.954921803127875px"></rect><text transform="rotate(90, 4, 120.04507819687211)" letter-spacing="5" y="120.04507819687211" x="4" rotate="-90" class="xp-txt">126 XP</text></svg><text x="2" y="198" class="subtitle">Feb</text><text x="6" y="214" class="subtitle">06</text></g><g transform="translate(280, 0)"><svg x="7" y="-20" height="240"><mask id="mask-2024-02-07"><rect x="0" y="190.31738730450783" width="16" height="14.68261269549218" fill="white" rx="5"></rect></mask><rect rx="5" ry="5" x="0" y="25" width="16" height="180" fill="#ddd"></rect><rect mask="url(#mask-2024-02-07)" width="16" fill="#b276b2" y="190.31738730450783" x="0" height="14.68261269549218px"></rect><text transform="rotate(90, 4, 112.31738730450783)" letter-spacing="5" y="112.31738730450783" x="4" rotate="-90" class="xp-txt">266 XP</text></svg><text x="2" y="198" class="subtitle">Feb</text><text x="6" y="214" class="subtitle">07</text></g><g transform="translate(320, 0)"><svg x="7" y="-20" height="240"><mask id="mask-2024-02-08"><rect x="0" y="174.86200551977922" width="16" height="30.13799448022079" fill="white" rx="5"></rect></mask><rect rx="5" ry="5" x="0" y="25" width="16" height="180" fill="#ddd"></rect><rect mask="url(#mask-2024-02-08)" width="16" fill="#3e4053" y="204.11683532658694" x="0" height="0.8831646734130635px"></rect><rect mask="url(#mask-2024-02-08)" width="16" fill="#b276b2" y="174.86200551977922" x="0" height="29.254829806807727px"></rect><text transform="rotate(90, 4, 96.86200551977922)" letter-spacing="5" y="96.86200551977922" x="4" rotate="-90" class="xp-txt">546 XP</text></svg><text x="2" y="198" class="subtitle">Feb</text><text x="6" y="214" class="subtitle">08</text></g><g transform="translate(360, 0)"><svg x="7" y="-20" height="240"><mask id="mask-2024-02-09"><rect x="0" y="175.13799448022078" width="16" height="29.86200551977921" fill="white" rx="5"></rect></mask><rect rx="5" ry="5" x="0" y="25" width="16" height="180" fill="#ddd"></rect><rect mask="url(#mask-2024-02-09)" width="16" fill="#b276b2" y="175.13799448022078" x="0" height="29.86200551977921px"></rect><text transform="rotate(90, 4, 97.13799448022078)" letter-spacing="5" y="97.13799448022078" x="4" rotate="-90" class="xp-txt">541 XP</text></svg><text x="2" y="198" class="subtitle">Feb</text><text x="6" y="214" class="subtitle">09</text></g><g transform="translate(400, 0)"><svg x="7" y="-20" height="240"><mask id="mask-2024-02-10"><rect x="0" y="137.6034958601656" width="16" height="67.3965041398344" fill="white" rx="5"></rect></mask><rect rx="5" ry="5" x="0" y="25" width="16" height="180" fill="#ddd"></rect><rect mask="url(#mask-2024-02-10)" width="16" fill="#00ADD8" y="190.5933762649494" x="0" height="14.406623735050598px"></rect><rect mask="url(#mask-2024-02-10)" width="16" fill="#3e4053" y="190.15179392824288" x="0" height="0.44158233670653174px"></rect><rect mask="url(#mask-2024-02-10)" width="16" fill="#b276b2" y="137.6034958601656" x="0" height="52.54829806807728px"></rect><text transform="rotate(90, 4, 46.603495860165594)" letter-spacing="5" y="46.603495860165594" x="4" rotate="-90" class="xp-txt">1221 XP</text></svg><text x="2" y="198" class="subtitle">Feb</text><text x="6" y="214" class="subtitle">10</text></g><g transform="translate(440, 0)"><svg x="7" y="-20" height="240"><mask id="mask-2024-02-11"><rect x="0" y="184.5768169273229" width="16" height="20.423183072677094" fill="white" rx="5"></rect></mask><rect rx="5" ry="5" x="0" y="25" width="16" height="180" fill="#ddd"></rect><rect mask="url(#mask-2024-02-11)" width="16" fill="#b276b2" y="184.5768169273229" x="0" height="20.423183072677094px"></rect><text transform="rotate(90, 4, 106.57681692732291)" letter-spacing="5" y="106.57681692732291" x="4" rotate="-90" class="xp-txt">370 XP</text></svg><text x="2" y="198" class="subtitle">Feb</text><text x="6" y="214" class="subtitle">11</text></g><g transform="translate(480, 0)"><svg x="7" y="-20" height="240"><mask id="mask-2024-02-12"><rect x="0" y="109.67341306347745" width="16" height="95.32658693652255" fill="white" rx="5"></rect></mask><rect rx="5" ry="5" x="0" y="25" width="16" height="180" fill="#ddd"></rect><rect mask="url(#mask-2024-02-12)" width="16" fill="#b276b2" y="109.67341306347745" x="0" height="95.32658693652255px"></rect><text transform="rotate(90, 4, 125.67341306347745)" letter-spacing="5" y="125.67341306347745" x="4" rotate="-90" class="xp-txt xp-txt-invert">1727 XP</text></svg><text x="2" y="198" class="subtitle">Feb</text><text x="6" y="214" class="subtitle">12</text></g><g transform="translate(520, 0)"><svg x="7" y="-20" height="240"><mask id="mask-2024-02-13"><rect x="0" y="196.6099356025759" width="16" height="8.390064397424103" fill="white" rx="5"></rect></mask><rect rx="5" ry="5" x="0" y="25" width="16" height="180" fill="#ddd"></rect><rect mask="url(#mask-2024-02-13)" width="16" fill="#b276b2" y="196.6099356025759" x="0" height="8.390064397424103px"></rect><text transform="rotate(90, 4, 118.60993560257589)" letter-spacing="5" y="118.60993560257589" x="4" rotate="-90" class="xp-txt">152 XP</text></svg><text x="2" y="198" class="subtitle">Feb</text><text x="6" y="214" class="subtitle">13</text></g></g><g transform="translate(600, 0)"><g transform="translate(0, 0)"><rect rx="5" x="2" y="7" height="12" width="12" fill="#3e4053"></rect><text x="18" y="18" class="lang-name">Garmin Monkey C</text></g><g transform="translate(0, 20)"><rect rx="5" x="2" y="7" height="12" width="12" fill="#dea584"></rect><text x="18" y="18" class="lang-name">Rust</text></g><g transform="translate(0, 40)"><rect rx="5" x="2" y="7" height="12" width="12" fill="#3e4053"></rect><text x="18" y="18" class="lang-name">XML</text></g><g transform="translate(0, 60)"><rect rx="5" x="2" y="7" height="12" width="12" fill="#00ADD8"></rect><text x="18" y="18" class="lang-name">Go</text></g><g transform="translate(0, 80)"><rect rx="5" x="2" y="7" height="12" width="12" fill="#00B4AB"></rect><text x="18" y="18" class="lang-name">Dart</text></g><g transform="translate(0, 100)"><rect rx="5" x="2" y="7" height="12" width="12" fill="#3e4053"></rect><text x="18" y="18" class="lang-name">JSON</text></g><g transform="translate(0, 120)"><rect rx="5" x="2" y="7" height="12" width="12" fill="#3e4053"></rect><text x="18" y="18" class="lang-name">CSV</text></g><g transform="translate(0, 140)"><rect rx="5" x="2" y="7" height="12" width="12" fill="#3e4053"></rect><text x="18" y="18" class="lang-name">VS Code Input</text></g><g transform="translate(0, 160)"><rect rx="5" x="2" y="7" height="12" width="12" fill="#3e4053"></rect><text x="18" y="18" class="lang-name">Other</text></g></g></svg></g></svg>