<svg width="705" height="300" viewBox="0 0 705 300" fill="none" xmlns="http://www.w3.org/2000/svg"><style>
					.header {
						font: 600 18px &#x27;Segoe UI&#x27;, Ubuntu, Sans-Serif;
						fill: #3d858f;
						animation: fadeInAnimation 0.8s ease-in-out forwards;
					}
					
	.lang-name {
		font: 400 16px &#x27;Segoe UI&#x27;, Ubuntu, Sans-Serif;
		fill: #ffffffcc;
	}
	.xp-txt {
		font: 400 12px &#x27;Segoe UI&#x27;, Ubuntu, Sans-Serif;
		fill: black;
	}
	.xp-txt-invert {
		font: 600 12px &#x27;Segoe UI&#x27;, Ubuntu, Sans-Serif;
		fill: white;
	}
	.subtitle {
		font: 400 14px &#x27;Segoe UI&#x27;, Ubuntu, Sans-Serif;
		fill: #ffffffcc;
	}


					/* Animations */
					@keyframes scaleInAnimation {
						from {
							transform: translate(-5px, 5px) scale(0);
						}
						to {
							transform: translate(-5px, 5px) scale(1);
						}
					}
					@keyframes fadeInAnimation {
						from {
							opacity: 0;
						}
						to {
							opacity: 1;
						}
					}
				</style><rect x="0.5" y="0.5" rx="4.5" height="99%" stroke="#E4E2E2" width="704" fill="#151515" stroke-opacity="0"></rect><g transform="translate(25, 35)"><g transform="translate(0, 0)"><text x="0" y="0" class="header">Coding History of the last two weeks</text></g></g><g transform="translate(0, 55)"><svg x="25"><g transform="translate(0, 0)"><g transform="translate(0, 0)"><svg x="7" y="-20" height="240"><mask id="mask-2023-11-27"><rect x="0" y="163.54545454545453" width="16" height="41.45454545454545" fill="white" rx="5"></rect></mask><rect rx="5" ry="5" x="0" y="25" width="16" height="180" fill="#ddd"></rect><rect mask="url(#mask-2023-11-27)" width="16" fill="#b276b2" y="163.54545454545453" x="0" height="41.45454545454545px"></rect><text transform="rotate(90, 4, 85.54545454545453)" letter-spacing="5" y="85.54545454545453" x="4" rotate="-90" class="xp-txt">342 XP</text></svg><text x="2" y="198" class="subtitle">Nov</text><text x="6" y="214" class="subtitle">27</text></g><g transform="translate(40, 0)"><svg x="7" y="-20" height="240"><mask id="mask-2023-11-28"><rect x="0" y="205" width="16" height="0" fill="white" rx="5"></rect></mask><rect rx="5" ry="5" x="0" y="25" width="16" height="180" fill="#ddd"></rect><text transform="rotate(90, 4, 153)" letter-spacing="5" y="153" x="4" rotate="-90" class="xp-txt">0 XP</text></svg><text x="2" y="198" class="subtitle">Nov</text><text x="6" y="214" class="subtitle">28</text></g><g transform="translate(80, 0)"><svg x="7" y="-20" height="240"><mask id="mask-2023-11-29"><rect x="0" y="190.0909090909091" width="16" height="14.909090909090908" fill="white" rx="5"></rect></mask><rect rx="5" ry="5" x="0" y="25" width="16" height="180" fill="#ddd"></rect><rect mask="url(#mask-2023-11-29)" width="16" fill="#b276b2" y="190.0909090909091" x="0" height="14.909090909090908px"></rect><text transform="rotate(90, 4, 112.0909090909091)" letter-spacing="5" y="112.0909090909091" x="4" rotate="-90" class="xp-txt">123 XP</text></svg><text x="2" y="198" class="subtitle">Nov</text><text x="6" y="214" class="subtitle">29</text></g><g transform="translate(120, 0)"><svg x="7" y="-20" height="240"><mask id="mask-2023-12-02"><rect x="0" y="205" width="16" height="0" fill="white" rx="5"></rect></mask><rect rx="5" ry="5" x="0" y="25" width="16" height="180" fill="#ddd"></rect><text transform="rotate(90, 4, 153)" letter-spacing="5" y="153" x="4" rotate="-90" class="xp-txt">0 XP</text></svg><text x="2" y="198" class="subtitle">Dec</text><text x="6" y="214" class="subtitle">02</text></g><g transform="translate(160, 0)"><svg x="7" y="-20" height="240"><mask id="mask-2023-12-03"><rect x="0" y="56.878787878787875" width="16" height="148.12121212121212" fill="white" rx="5"></rect></mask><rect rx="5" ry="5" x="0" y="25" width="16" height="180" fill="#ddd"></rect><rect mask="url(#mask-2023-12-03)" width="16" fill="#b276b2" y="56.878787878787875" x="0" height="148.12121212121212px"></rect><text transform="rotate(90, 4, 72.87878787878788)" letter-spacing="5" y="72.87878787878788" x="4" rotate="-90" class="xp-txt xp-txt-invert">1222 XP</text></svg><text x="2" y="198" class="subtitle">Dec</text><text x="6" y="214" class="subtitle">03</text></g><g transform="translate(200, 0)"><svg x="7" y="-20" height="240"><mask id="mask-2023-12-04"><rect x="0" y="152.27272727272725" width="16" height="52.72727272727273" fill="white" rx="5"></rect></mask><rect rx="5" ry="5" x="0" y="25" width="16" height="180" fill="#ddd"></rect><rect mask="url(#mask-2023-12-04)" width="16" fill="#b276b2" y="152.27272727272725" x="0" height="52.72727272727273px"></rect><text transform="rotate(90, 4, 74.27272727272725)" letter-spacing="5" y="74.27272727272725" x="4" rotate="-90" class="xp-txt">435 XP</text></svg><text x="2" y="198" class="subtitle">Dec</text><text x="6" y="214" class="subtitle">04</text></g><g transform="translate(240, 0)"><svg x="7" y="-20" height="240"><mask id="mask-2023-12-05"><rect x="0" y="197.36363636363637" width="16" height="7.636363636363637" fill="white" rx="5"></rect></mask><rect rx="5" ry="5" x="0" y="25" width="16" height="180" fill="#ddd"></rect><rect mask="url(#mask-2023-12-05)" width="16" fill="#b276b2" y="197.36363636363637" x="0" height="7.636363636363637px"></rect><text transform="rotate(90, 4, 132.36363636363637)" letter-spacing="5" y="132.36363636363637" x="4" rotate="-90" class="xp-txt">63 XP</text></svg><text x="2" y="198" class="subtitle">Dec</text><text x="6" y="214" class="subtitle">05</text></g><g transform="translate(280, 0)"><svg x="7" y="-20" height="240"><mask id="mask-2023-12-06"><rect x="0" y="205" width="16" height="0" fill="white" rx="5"></rect></mask><rect rx="5" ry="5" x="0" y="25" width="16" height="180" fill="#ddd"></rect><text transform="rotate(90, 4, 153)" letter-spacing="5" y="153" x="4" rotate="-90" class="xp-txt">0 XP</text></svg><text x="2" y="198" class="subtitle">Dec</text><text x="6" y="214" class="subtitle">06</text></g><g transform="translate(320, 0)"><svg x="7" y="-20" height="240"><mask id="mask-2023-12-07"><rect x="0" y="182.6969696969697" width="16" height="22.303030303030305" fill="white" rx="5"></rect></mask><rect rx="5" ry="5" x="0" y="25" width="16" height="180" fill="#ddd"></rect><rect mask="url(#mask-2023-12-07)" width="16" fill="#b276b2" y="182.6969696969697" x="0" height="22.303030303030305px"></rect><text transform="rotate(90, 4, 104.69696969696969)" letter-spacing="5" y="104.69696969696969" x="4" rotate="-90" class="xp-txt">184 XP</text></svg><text x="2" y="198" class="subtitle">Dec</text><text x="6" y="214" class="subtitle">07</text></g><g transform="translate(360, 0)"><svg x="7" y="-20" height="240"><mask id="mask-2023-12-08"><rect x="0" y="201.72727272727272" width="16" height="3.272727272727273" fill="white" rx="5"></rect></mask><rect rx="5" ry="5" x="0" y="25" width="16" height="180" fill="#ddd"></rect><rect mask="url(#mask-2023-12-08)" width="16" fill="#b276b2" y="201.72727272727272" x="0" height="3.272727272727273px"></rect><text transform="rotate(90, 4, 136.72727272727272)" letter-spacing="5" y="136.72727272727272" x="4" rotate="-90" class="xp-txt">27 XP</text></svg><text x="2" y="198" class="subtitle">Dec</text><text x="6" y="214" class="subtitle">08</text></g><g transform="translate(400, 0)"><svg x="7" y="-20" height="240"><mask id="mask-2023-12-09"><rect x="0" y="25" width="16" height="180" fill="white" rx="5"></rect></mask><rect rx="5" ry="5" x="0" y="25" width="16" height="180" fill="#ddd"></rect><rect mask="url(#mask-2023-12-09)" width="16" fill="#b276b2" y="25" x="0" height="180px"></rect><text transform="rotate(90, 4, 41)" letter-spacing="5" y="41" x="4" rotate="-90" class="xp-txt xp-txt-invert">1485 XP</text></svg><text x="2" y="198" class="subtitle">Dec</text><text x="6" y="214" class="subtitle">09</text></g></g><g transform="translate(504, 0)"><g transform="translate(0, 0)"><rect rx="5" x="2" y="7" height="12" width="12" fill="#3e4053"></rect><text x="18" y="18" class="lang-name">Other</text></g></g></svg></g></svg>