<svg width="785" height="300" viewBox="0 0 785 300" fill="none" xmlns="http://www.w3.org/2000/svg"><style>
					.header {
						font: 600 18px &#x27;Segoe UI&#x27;, Ubuntu, Sans-Serif;
						fill: #3d858f;
						animation: fadeInAnimation 0.8s ease-in-out forwards;
					}
					
	.lang-name {
		font: 400 16px &#x27;Segoe UI&#x27;, Ubuntu, Sans-Serif;
		fill: #ffffffcc;
	}
	.xp-txt {
		font: 400 12px &#x27;Segoe UI&#x27;, Ubuntu, Sans-Serif;
		fill: black;
	}
	.xp-txt-invert {
		font: 600 12px &#x27;Segoe UI&#x27;, Ubuntu, Sans-Serif;
		fill: white;
	}
	.subtitle {
		font: 400 14px &#x27;Segoe UI&#x27;, Ubuntu, Sans-Serif;
		fill: #ffffffcc;
	}


					/* Animations */
					@keyframes scaleInAnimation {
						from {
							transform: translate(-5px, 5px) scale(0);
						}
						to {
							transform: translate(-5px, 5px) scale(1);
						}
					}
					@keyframes fadeInAnimation {
						from {
							opacity: 0;
						}
						to {
							opacity: 1;
						}
					}
				</style><rect x="0.5" y="0.5" rx="4.5" height="99%" stroke="#E4E2E2" width="784" fill="#151515" stroke-opacity="0"></rect><g transform="translate(25, 35)"><g transform="translate(0, 0)"><text x="0" y="0" class="header">Coding History of the last two weeks</text></g></g><g transform="translate(0, 55)"><svg x="25"><g transform="translate(0, 0)"><g transform="translate(0, 0)"><svg x="7" y="-20" height="240"><mask id="mask-2023-10-28"><rect x="0" y="25" width="16" height="180" fill="white" rx="5"></rect></mask><rect rx="5" ry="5" x="0" y="25" width="16" height="180" fill="#ddd"></rect><rect mask="url(#mask-2023-10-28)" width="16" fill="#b276b2" y="25" x="0" height="180px"></rect><text transform="rotate(90, 4, 41)" letter-spacing="5" y="41" x="4" rotate="-90" class="xp-txt xp-txt-invert">2420 XP</text></svg><text x="2" y="198" class="subtitle">Oct</text><text x="6" y="214" class="subtitle">28</text></g><g transform="translate(40, 0)"><svg x="7" y="-20" height="240"><mask id="mask-2023-10-29"><rect x="0" y="204.8512396694215" width="16" height="0.1487603305785124" fill="white" rx="5"></rect></mask><rect rx="5" ry="5" x="0" y="25" width="16" height="180" fill="#ddd"></rect><rect mask="url(#mask-2023-10-29)" width="16" fill="#b276b2" y="204.8512396694215" x="0" height="0.1487603305785124px"></rect><text transform="rotate(90, 4, 152.8512396694215)" letter-spacing="5" y="152.8512396694215" x="4" rotate="-90" class="xp-txt">2 XP</text></svg><text x="2" y="198" class="subtitle">Oct</text><text x="6" y="214" class="subtitle">29</text></g><g transform="translate(80, 0)"><svg x="7" y="-20" height="240"><mask id="mask-2023-10-30"><rect x="0" y="34" width="16" height="171" fill="white" rx="5"></rect></mask><rect rx="5" ry="5" x="0" y="25" width="16" height="180" fill="#ddd"></rect><rect mask="url(#mask-2023-10-30)" width="16" fill="#3572A5" y="204.25619834710744" x="0" height="0.743801652892562px"></rect><rect mask="url(#mask-2023-10-30)" width="16" fill="#a270ba" y="135.90082644628097" x="0" height="68.35537190082644px"></rect><rect mask="url(#mask-2023-10-30)" width="16" fill="#083fa1" y="94.6198347107438" x="0" height="41.28099173553719px"></rect><rect mask="url(#mask-2023-10-30)" width="16" fill="#3e4053" y="92.9090909090909" x="0" height="1.7107438016528926px"></rect><rect mask="url(#mask-2023-10-30)" width="16" fill="#b276b2" y="34" x="0" height="58.90909090909091px"></rect><text transform="rotate(90, 4, 50)" letter-spacing="5" y="50" x="4" rotate="-90" class="xp-txt xp-txt-invert">2299 XP</text></svg><text x="2" y="198" class="subtitle">Oct</text><text x="6" y="214" class="subtitle">30</text></g><g transform="translate(120, 0)"><svg x="7" y="-20" height="240"><mask id="mask-2023-10-31"><rect x="0" y="191.31404958677686" width="16" height="13.685950413223141" fill="white" rx="5"></rect></mask><rect rx="5" ry="5" x="0" y="25" width="16" height="180" fill="#ddd"></rect><rect mask="url(#mask-2023-10-31)" width="16" fill="#b276b2" y="191.31404958677686" x="0" height="13.685950413223141px"></rect><text transform="rotate(90, 4, 113.31404958677686)" letter-spacing="5" y="113.31404958677686" x="4" rotate="-90" class="xp-txt">184 XP</text></svg><text x="2" y="198" class="subtitle">Oct</text><text x="6" y="214" class="subtitle">31</text></g><g transform="translate(160, 0)"><svg x="7" y="-20" height="240"><mask id="mask-2023-11-01"><rect x="0" y="205" width="16" height="0" fill="white" rx="5"></rect></mask><rect rx="5" ry="5" x="0" y="25" width="16" height="180" fill="#ddd"></rect><text transform="rotate(90, 4, 153)" letter-spacing="5" y="153" x="4" rotate="-90" class="xp-txt">0 XP</text></svg><text x="2" y="198" class="subtitle">Nov</text><text x="6" y="214" class="subtitle">01</text></g><g transform="translate(200, 0)"><svg x="7" y="-20" height="240"><mask id="mask-2023-11-02"><rect x="0" y="43.52066115702479" width="16" height="161.4793388429752" fill="white" rx="5"></rect></mask><rect rx="5" ry="5" x="0" y="25" width="16" height="180" fill="#ddd"></rect><rect mask="url(#mask-2023-11-02)" width="16" fill="#3572A5" y="107.26446280991736" x="0" height="97.73553719008264px"></rect><rect mask="url(#mask-2023-11-02)" width="16" fill="#083fa1" y="106.96694214876032" x="0" height="0.2975206611570248px"></rect><rect mask="url(#mask-2023-11-02)" width="16" fill="#3e4053" y="100.42148760330579" x="0" height="6.545454545454546px"></rect><rect mask="url(#mask-2023-11-02)" width="16" fill="#3e4053" y="100.12396694214875" x="0" height="0.2975206611570248px"></rect><rect mask="url(#mask-2023-11-02)" width="16" fill="#3e4053" y="98.93388429752066" x="0" height="1.1900826446280992px"></rect><rect mask="url(#mask-2023-11-02)" width="16" fill="#b276b2" y="43.52066115702479" x="0" height="55.413223140495866px"></rect><text transform="rotate(90, 4, 59.52066115702479)" letter-spacing="5" y="59.52066115702479" x="4" rotate="-90" class="xp-txt xp-txt-invert">2171 XP</text></svg><text x="2" y="198" class="subtitle">Nov</text><text x="6" y="214" class="subtitle">02</text></g><g transform="translate(240, 0)"><svg x="7" y="-20" height="240"><mask id="mask-2023-11-03"><rect x="0" y="135.6776859504132" width="16" height="69.32231404958678" fill="white" rx="5"></rect></mask><rect rx="5" ry="5" x="0" y="25" width="16" height="180" fill="#ddd"></rect><rect mask="url(#mask-2023-11-03)" width="16" fill="#b276b2" y="135.6776859504132" x="0" height="69.32231404958678px"></rect><text transform="rotate(90, 4, 57.677685950413206)" letter-spacing="5" y="57.677685950413206" x="4" rotate="-90" class="xp-txt">932 XP</text></svg><text x="2" y="198" class="subtitle">Nov</text><text x="6" y="214" class="subtitle">03</text></g><g transform="translate(280, 0)"><svg x="7" y="-20" height="240"><mask id="mask-2023-11-04"><rect x="0" y="204.55371900826447" width="16" height="0.4462809917355372" fill="white" rx="5"></rect></mask><rect rx="5" ry="5" x="0" y="25" width="16" height="180" fill="#ddd"></rect><rect mask="url(#mask-2023-11-04)" width="16" fill="#b276b2" y="204.55371900826447" x="0" height="0.4462809917355372px"></rect><text transform="rotate(90, 4, 152.55371900826447)" letter-spacing="5" y="152.55371900826447" x="4" rotate="-90" class="xp-txt">6 XP</text></svg><text x="2" y="198" class="subtitle">Nov</text><text x="6" y="214" class="subtitle">04</text></g><g transform="translate(320, 0)"><svg x="7" y="-20" height="240"><mask id="mask-2023-11-06"><rect x="0" y="205" width="16" height="0" fill="white" rx="5"></rect></mask><rect rx="5" ry="5" x="0" y="25" width="16" height="180" fill="#ddd"></rect><text transform="rotate(90, 4, 153)" letter-spacing="5" y="153" x="4" rotate="-90" class="xp-txt">0 XP</text></svg><text x="2" y="198" class="subtitle">Nov</text><text x="6" y="214" class="subtitle">06</text></g><g transform="translate(360, 0)"><svg x="7" y="-20" height="240"><mask id="mask-2023-11-07"><rect x="0" y="201.72727272727272" width="16" height="3.272727272727273" fill="white" rx="5"></rect></mask><rect rx="5" ry="5" x="0" y="25" width="16" height="180" fill="#ddd"></rect><rect mask="url(#mask-2023-11-07)" width="16" fill="#b276b2" y="201.72727272727272" x="0" height="3.272727272727273px"></rect><text transform="rotate(90, 4, 136.72727272727272)" letter-spacing="5" y="136.72727272727272" x="4" rotate="-90" class="xp-txt">44 XP</text></svg><text x="2" y="198" class="subtitle">Nov</text><text x="6" y="214" class="subtitle">07</text></g><g transform="translate(400, 0)"><svg x="7" y="-20" height="240"><mask id="mask-2023-11-08"><rect x="0" y="205" width="16" height="0" fill="white" rx="5"></rect></mask><rect rx="5" ry="5" x="0" y="25" width="16" height="180" fill="#ddd"></rect><text transform="rotate(90, 4, 153)" letter-spacing="5" y="153" x="4" rotate="-90" class="xp-txt">0 XP</text></svg><text x="2" y="198" class="subtitle">Nov</text><text x="6" y="214" class="subtitle">08</text></g><g transform="translate(440, 0)"><svg x="7" y="-20" height="240"><mask id="mask-2023-11-09"><rect x="0" y="203.43801652892563" width="16" height="1.56198347107438" fill="white" rx="5"></rect></mask><rect rx="5" ry="5" x="0" y="25" width="16" height="180" fill="#ddd"></rect><rect mask="url(#mask-2023-11-09)" width="16" fill="#b276b2" y="203.43801652892563" x="0" height="1.56198347107438px"></rect><text transform="rotate(90, 4, 138.43801652892563)" letter-spacing="5" y="138.43801652892563" x="4" rotate="-90" class="xp-txt">21 XP</text></svg><text x="2" y="198" class="subtitle">Nov</text><text x="6" y="214" class="subtitle">09</text></g><g transform="translate(480, 0)"><svg x="7" y="-20" height="240"><mask id="mask-2023-11-10"><rect x="0" y="200.0909090909091" width="16" height="4.909090909090909" fill="white" rx="5"></rect></mask><rect rx="5" ry="5" x="0" y="25" width="16" height="180" fill="#ddd"></rect><rect mask="url(#mask-2023-11-10)" width="16" fill="#b276b2" y="200.0909090909091" x="0" height="4.909090909090909px"></rect><text transform="rotate(90, 4, 135.0909090909091)" letter-spacing="5" y="135.0909090909091" x="4" rotate="-90" class="xp-txt">66 XP</text></svg><text x="2" y="198" class="subtitle">Nov</text><text x="6" y="214" class="subtitle">10</text></g></g><g transform="translate(568, 0)"><g transform="translate(0, 0)"><rect rx="5" x="2" y="7" height="12" width="12" fill="#3572A5"></rect><text x="18" y="18" class="lang-name">Python</text></g><g transform="translate(0, 20)"><rect rx="5" x="2" y="7" height="12" width="12" fill="#a270ba"></rect><text x="18" y="18" class="lang-name">Julia</text></g><g transform="translate(0, 40)"><rect rx="5" x="2" y="7" height="12" width="12" fill="#083fa1"></rect><text x="18" y="18" class="lang-name">Markdown</text></g><g transform="translate(0, 60)"><rect rx="5" x="2" y="7" height="12" width="12" fill="#3e4053"></rect><text x="18" y="18" class="lang-name">Docker</text></g><g transform="translate(0, 80)"><rect rx="5" x="2" y="7" height="12" width="12" fill="#3e4053"></rect><text x="18" y="18" class="lang-name">JSON</text></g><g transform="translate(0, 100)"><rect rx="5" x="2" y="7" height="12" width="12" fill="#3e4053"></rect><text x="18" y="18" class="lang-name">TOML</text></g><g transform="translate(0, 120)"><rect rx="5" x="2" y="7" height="12" width="12" fill="#3e4053"></rect><text x="18" y="18" class="lang-name">Other</text></g></g></svg></g></svg>