<svg width="745" height="300" viewBox="0 0 745 300" fill="none" xmlns="http://www.w3.org/2000/svg"><style>
					.header {
						font: 600 18px &#x27;Segoe UI&#x27;, Ubuntu, Sans-Serif;
						fill: #3d858f;
						animation: fadeInAnimation 0.8s ease-in-out forwards;
					}
					
	.lang-name {
		font: 400 16px &#x27;Segoe UI&#x27;, Ubuntu, Sans-Serif;
		fill: #ffffffcc;
	}
	.xp-txt {
		font: 400 12px &#x27;Segoe UI&#x27;, Ubuntu, Sans-Serif;
		fill: black;
	}
	.xp-txt-invert {
		font: 600 12px &#x27;Segoe UI&#x27;, Ubuntu, Sans-Serif;
		fill: white;
	}
	.subtitle {
		font: 400 14px &#x27;Segoe UI&#x27;, Ubuntu, Sans-Serif;
		fill: #ffffffcc;
	}


					/* Animations */
					@keyframes scaleInAnimation {
						from {
							transform: translate(-5px, 5px) scale(0);
						}
						to {
							transform: translate(-5px, 5px) scale(1);
						}
					}
					@keyframes fadeInAnimation {
						from {
							opacity: 0;
						}
						to {
							opacity: 1;
						}
					}
				</style><rect x="0.5" y="0.5" rx="4.5" height="99%" stroke="#E4E2E2" width="744" fill="#151515" stroke-opacity="0"></rect><g transform="translate(25, 35)"><g transform="translate(0, 0)"><text x="0" y="0" class="header">Coding History of the last two weeks</text></g></g><g transform="translate(0, 55)"><svg x="25"><g transform="translate(0, 0)"><g transform="translate(0, 0)"><svg x="7" y="-20" height="240"><mask id="mask-2024-02-19"><rect x="0" y="25" width="16" height="180" fill="white" rx="5"></rect></mask><rect rx="5" ry="5" x="0" y="25" width="16" height="180" fill="#ddd"></rect><rect mask="url(#mask-2024-02-19)" width="16" fill="#00ADD8" y="132.7880274779195" x="0" height="72.21197252208047px"></rect><rect mask="url(#mask-2024-02-19)" width="16" fill="#3572A5" y="108.41118743866535" x="0" height="24.37684003925417px"></rect><rect mask="url(#mask-2024-02-19)" width="16" fill="#3e4053" y="88.76840039254171" x="0" height="19.64278704612365px"></rect><rect mask="url(#mask-2024-02-19)" width="16" fill="#3e4053" y="87.53189401373896" x="0" height="1.2365063788027477px"></rect><rect mask="url(#mask-2024-02-19)" width="16" fill="#3e4053" y="84.31697742885181" x="0" height="3.214916584887144px"></rect><rect mask="url(#mask-2024-02-19)" width="16" fill="#427819" y="78.3287536800785" x="0" height="5.988223748773307px"></rect><rect mask="url(#mask-2024-02-19)" width="16" fill="#b276b2" y="25" x="0" height="53.328753680078506px"></rect><text transform="rotate(90, 4, 41)" letter-spacing="5" y="41" x="4" rotate="-90" class="xp-txt xp-txt-invert">10190 XP</text></svg><text x="2" y="198" class="subtitle">Feb</text><text x="6" y="214" class="subtitle">19</text></g><g transform="translate(40, 0)"><svg x="7" y="-20" height="240"><mask id="mask-2024-02-20"><rect x="0" y="42.24043179587831" width="16" height="162.75956820412168" fill="white" rx="5"></rect></mask><rect rx="5" ry="5" x="0" y="25" width="16" height="180" fill="#ddd"></rect><rect mask="url(#mask-2024-02-20)" width="16" fill="#3572A5" y="110.40726202158979" x="0" height="94.59273797841021px"></rect><rect mask="url(#mask-2024-02-20)" width="16" fill="#3e4053" y="81.96761530912659" x="0" height="28.439646712463198px"></rect><rect mask="url(#mask-2024-02-20)" width="16" fill="#3e4053" y="65.94602551521099" x="0" height="16.021589793915602px"></rect><rect mask="url(#mask-2024-02-20)" width="16" fill="#3e4053" y="63.26104023552502" x="0" height="2.6849852796859666px"></rect><rect mask="url(#mask-2024-02-20)" width="16" fill="#b276b2" y="42.24043179587831" x="0" height="21.02060843964671px"></rect><text transform="rotate(90, 4, 58.24043179587831)" letter-spacing="5" y="58.24043179587831" x="4" rotate="-90" class="xp-txt xp-txt-invert">9214 XP</text></svg><text x="2" y="198" class="subtitle">Feb</text><text x="6" y="214" class="subtitle">20</text></g><g transform="translate(80, 0)"><svg x="7" y="-20" height="240"><mask id="mask-2024-02-21"><rect x="0" y="158.75466143277723" width="16" height="46.24533856722277" fill="white" rx="5"></rect></mask><rect rx="5" ry="5" x="0" y="25" width="16" height="180" fill="#ddd"></rect><rect mask="url(#mask-2024-02-21)" width="16" fill="#3572A5" y="169.6359175662414" x="0" height="35.36408243375859px"></rect><rect mask="url(#mask-2024-02-21)" width="16" fill="#3e4053" y="168.75269872423945" x="0" height="0.8832188420019627px"></rect><rect mask="url(#mask-2024-02-21)" width="16" fill="#3e4053" y="168.099116781158" x="0" height="0.6535819430814525px"></rect><rect mask="url(#mask-2024-02-21)" width="16" fill="#3e4053" y="166.56231599607457" x="0" height="1.536800785083415px"></rect><rect mask="url(#mask-2024-02-21)" width="16" fill="#b276b2" y="158.75466143277723" x="0" height="7.80765456329735px"></rect><text transform="rotate(90, 4, 67.75466143277723)" letter-spacing="5" y="67.75466143277723" x="4" rotate="-90" class="xp-txt">2618 XP</text></svg><text x="2" y="198" class="subtitle">Feb</text><text x="6" y="214" class="subtitle">21</text></g><g transform="translate(120, 0)"><svg x="7" y="-20" height="240"><mask id="mask-2024-02-22"><rect x="0" y="201.87340529931305" width="16" height="3.126594700686948" fill="white" rx="5"></rect></mask><rect rx="5" ry="5" x="0" y="25" width="16" height="180" fill="#ddd"></rect><rect mask="url(#mask-2024-02-22)" width="16" fill="#b276b2" y="201.87340529931305" x="0" height="3.126594700686948px"></rect><text transform="rotate(90, 4, 123.87340529931305)" letter-spacing="5" y="123.87340529931305" x="4" rotate="-90" class="xp-txt">177 XP</text></svg><text x="2" y="198" class="subtitle">Feb</text><text x="6" y="214" class="subtitle">22</text></g><g transform="translate(160, 0)"><svg x="7" y="-20" height="240"><mask id="mask-2024-02-23"><rect x="0" y="185.3395485770363" width="16" height="19.66045142296369" fill="white" rx="5"></rect></mask><rect rx="5" ry="5" x="0" y="25" width="16" height="180" fill="#ddd"></rect><rect mask="url(#mask-2024-02-23)" width="16" fill="#00ADD8" y="189.43768400392543" x="0" height="15.562315996074583px"></rect><rect mask="url(#mask-2024-02-23)" width="16" fill="#b276b2" y="185.3395485770363" x="0" height="4.098135426889107px"></rect><text transform="rotate(90, 4, 94.33954857703631)" letter-spacing="5" y="94.33954857703631" x="4" rotate="-90" class="xp-txt">1113 XP</text></svg><text x="2" y="198" class="subtitle">Feb</text><text x="6" y="214" class="subtitle">23</text></g><g transform="translate(200, 0)"><svg x="7" y="-20" height="240"><mask id="mask-2024-02-24"><rect x="0" y="149.39254170755643" width="16" height="55.607458292443575" fill="white" rx="5"></rect></mask><rect rx="5" ry="5" x="0" y="25" width="16" height="180" fill="#ddd"></rect><rect mask="url(#mask-2024-02-24)" width="16" fill="#00ADD8" y="166.6506378802748" x="0" height="38.34936211972522px"></rect><rect mask="url(#mask-2024-02-24)" width="16" fill="#3e4053" y="151.2649656526006" x="0" height="15.38567222767419px"></rect><rect mask="url(#mask-2024-02-24)" width="16" fill="#b276b2" y="149.39254170755643" x="0" height="1.8724239450441609px"></rect><text transform="rotate(90, 4, 58.39254170755643)" letter-spacing="5" y="58.39254170755643" x="4" rotate="-90" class="xp-txt">3148 XP</text></svg><text x="2" y="198" class="subtitle">Feb</text><text x="6" y="214" class="subtitle">24</text></g><g transform="translate(240, 0)"><svg x="7" y="-20" height="240"><mask id="mask-2024-02-25"><rect x="0" y="104.68400392541707" width="16" height="100.31599607458293" fill="white" rx="5"></rect></mask><rect rx="5" ry="5" x="0" y="25" width="16" height="180" fill="#ddd"></rect><rect mask="url(#mask-2024-02-25)" width="16" fill="#00ADD8" y="124.66241413150148" x="0" height="80.33758586849852px"></rect><rect mask="url(#mask-2024-02-25)" width="16" fill="#3e4053" y="116.25417075564279" x="0" height="8.408243375858685px"></rect><rect mask="url(#mask-2024-02-25)" width="16" fill="#3e4053" y="116.21884200196271" x="0" height="0.03532875368007851px"></rect><rect mask="url(#mask-2024-02-25)" width="16" fill="#427819" y="114.38174681059863" x="0" height="1.8370951913640825px"></rect><rect mask="url(#mask-2024-02-25)" width="16" fill="#b276b2" y="104.68400392541707" x="0" height="9.697742885181551px"></rect><text transform="rotate(90, 4, 120.68400392541707)" letter-spacing="5" y="120.68400392541707" x="4" rotate="-90" class="xp-txt xp-txt-invert">5679 XP</text></svg><text x="2" y="198" class="subtitle">Feb</text><text x="6" y="214" class="subtitle">25</text></g><g transform="translate(280, 0)"><svg x="7" y="-20" height="240"><mask id="mask-2024-02-26"><rect x="0" y="181.61236506378802" width="16" height="23.387634936211974" fill="white" rx="5"></rect></mask><rect rx="5" ry="5" x="0" y="25" width="16" height="180" fill="#ddd"></rect><rect mask="url(#mask-2024-02-26)" width="16" fill="#b276b2" y="181.61236506378802" x="0" height="23.387634936211974px"></rect><text transform="rotate(90, 4, 90.61236506378802)" letter-spacing="5" y="90.61236506378802" x="4" rotate="-90" class="xp-txt">1324 XP</text></svg><text x="2" y="198" class="subtitle">Feb</text><text x="6" y="214" class="subtitle">26</text></g><g transform="translate(320, 0)"><svg x="7" y="-20" height="240"><mask id="mask-2024-02-27"><rect x="0" y="176.36604514229637" width="16" height="28.633954857703632" fill="white" rx="5"></rect></mask><rect rx="5" ry="5" x="0" y="25" width="16" height="180" fill="#ddd"></rect><rect mask="url(#mask-2024-02-27)" width="16" fill="#b276b2" y="176.36604514229637" x="0" height="28.633954857703632px"></rect><text transform="rotate(90, 4, 85.36604514229637)" letter-spacing="5" y="85.36604514229637" x="4" rotate="-90" class="xp-txt">1621 XP</text></svg><text x="2" y="198" class="subtitle">Feb</text><text x="6" y="214" class="subtitle">27</text></g><g transform="translate(360, 0)"><svg x="7" y="-20" height="240"><mask id="mask-2024-02-28"><rect x="0" y="137.08047105004908" width="16" height="67.91952894995093" fill="white" rx="5"></rect></mask><rect rx="5" ry="5" x="0" y="25" width="16" height="180" fill="#ddd"></rect><rect mask="url(#mask-2024-02-28)" width="16" fill="#3572A5" y="181.5063788027478" x="0" height="23.493621197252207px"></rect><rect mask="url(#mask-2024-02-28)" width="16" fill="#3e4053" y="171.42001962708537" x="0" height="10.086359175662414px"></rect><rect mask="url(#mask-2024-02-28)" width="16" fill="#3e4053" y="168.6820412168793" x="0" height="2.7379784102060842px"></rect><rect mask="url(#mask-2024-02-28)" width="16" fill="#b276b2" y="137.08047105004908" x="0" height="31.601570166830225px"></rect><text transform="rotate(90, 4, 46.080471050049084)" letter-spacing="5" y="46.080471050049084" x="4" rotate="-90" class="xp-txt">3845 XP</text></svg><text x="2" y="198" class="subtitle">Feb</text><text x="6" y="214" class="subtitle">28</text></g><g transform="translate(400, 0)"><svg x="7" y="-20" height="240"><mask id="mask-2024-02-29"><rect x="0" y="200.54857703631012" width="16" height="4.451422963689892" fill="white" rx="5"></rect></mask><rect rx="5" ry="5" x="0" y="25" width="16" height="180" fill="#ddd"></rect><rect mask="url(#mask-2024-02-29)" width="16" fill="#b276b2" y="200.54857703631012" x="0" height="4.451422963689892px"></rect><text transform="rotate(90, 4, 122.54857703631012)" letter-spacing="5" y="122.54857703631012" x="4" rotate="-90" class="xp-txt">252 XP</text></svg><text x="2" y="198" class="subtitle">Feb</text><text x="6" y="214" class="subtitle">29</text></g><g transform="translate(440, 0)"><svg x="7" y="-20" height="240"><mask id="mask-2024-03-01"><rect x="0" y="194.27772325809616" width="16" height="10.722276741903828" fill="white" rx="5"></rect></mask><rect rx="5" ry="5" x="0" y="25" width="16" height="180" fill="#ddd"></rect><rect mask="url(#mask-2024-03-01)" width="16" fill="#b276b2" y="194.27772325809616" x="0" height="10.722276741903828px"></rect><text transform="rotate(90, 4, 116.27772325809616)" letter-spacing="5" y="116.27772325809616" x="4" rotate="-90" class="xp-txt">607 XP</text></svg><text x="2" y="198" class="subtitle">Mar</text><text x="6" y="214" class="subtitle">01</text></g></g><g transform="translate(536, 0)"><g transform="translate(0, 0)"><rect rx="5" x="2" y="7" height="12" width="12" fill="#00ADD8"></rect><text x="18" y="18" class="lang-name">Go</text></g><g transform="translate(0, 20)"><rect rx="5" x="2" y="7" height="12" width="12" fill="#3572A5"></rect><text x="18" y="18" class="lang-name">Python</text></g><g transform="translate(0, 40)"><rect rx="5" x="2" y="7" height="12" width="12" fill="#3e4053"></rect><text x="18" y="18" class="lang-name">proto3</text></g><g transform="translate(0, 60)"><rect rx="5" x="2" y="7" height="12" width="12" fill="#3e4053"></rect><text x="18" y="18" class="lang-name">TOML</text></g><g transform="translate(0, 80)"><rect rx="5" x="2" y="7" height="12" width="12" fill="#3e4053"></rect><text x="18" y="18" class="lang-name">CSV</text></g><g transform="translate(0, 100)"><rect rx="5" x="2" y="7" height="12" width="12" fill="#3e4053"></rect><text x="18" y="18" class="lang-name">Docker</text></g><g transform="translate(0, 120)"><rect rx="5" x="2" y="7" height="12" width="12" fill="#3e4053"></rect><text x="18" y="18" class="lang-name">JSON</text></g><g transform="translate(0, 140)"><rect rx="5" x="2" y="7" height="12" width="12" fill="#427819"></rect><text x="18" y="18" class="lang-name">Makefile</text></g><g transform="translate(0, 160)"><rect rx="5" x="2" y="7" height="12" width="12" fill="#3e4053"></rect><text x="18" y="18" class="lang-name">Other</text></g></g></svg></g></svg>