<svg width="705" height="300" viewBox="0 0 705 300" fill="none" xmlns="http://www.w3.org/2000/svg"><style>
					.header {
						font: 600 18px &#x27;Segoe UI&#x27;, Ubuntu, Sans-Serif;
						fill: #3d858f;
						animation: fadeInAnimation 0.8s ease-in-out forwards;
					}
					
	.lang-name {
		font: 400 16px &#x27;Segoe UI&#x27;, Ubuntu, Sans-Serif;
		fill: #ffffffcc;
	}
	.xp-txt {
		font: 400 12px &#x27;Segoe UI&#x27;, Ubuntu, Sans-Serif;
		fill: black;
	}
	.xp-txt-invert {
		font: 600 12px &#x27;Segoe UI&#x27;, Ubuntu, Sans-Serif;
		fill: white;
	}
	.subtitle {
		font: 400 14px &#x27;Segoe UI&#x27;, Ubuntu, Sans-Serif;
		fill: #ffffffcc;
	}


					/* Animations */
					@keyframes scaleInAnimation {
						from {
							transform: translate(-5px, 5px) scale(0);
						}
						to {
							transform: translate(-5px, 5px) scale(1);
						}
					}
					@keyframes fadeInAnimation {
						from {
							opacity: 0;
						}
						to {
							opacity: 1;
						}
					}
				</style><rect x="0.5" y="0.5" rx="4.5" height="99%" stroke="#E4E2E2" width="704" fill="#151515" stroke-opacity="0"></rect><g transform="translate(25, 35)"><g transform="translate(0, 0)"><text x="0" y="0" class="header">Coding History of the last two weeks</text></g></g><g transform="translate(0, 55)"><svg x="25"><g transform="translate(0, 0)"><g transform="translate(0, 0)"><svg x="7" y="-20" height="240"><mask id="mask-2024-02-26"><rect x="0" y="170.7733735458854" width="16" height="34.22662645411461" fill="white" rx="5"></rect></mask><rect rx="5" ry="5" x="0" y="25" width="16" height="180" fill="#ddd"></rect><rect mask="url(#mask-2024-02-26)" width="16" fill="#b276b2" y="170.7733735458854" x="0" height="34.22662645411461px"></rect><text transform="rotate(90, 4, 79.77337354588539)" letter-spacing="5" y="79.77337354588539" x="4" rotate="-90" class="xp-txt">1324 XP</text></svg><text x="2" y="198" class="subtitle">Feb</text><text x="6" y="214" class="subtitle">26</text></g><g transform="translate(40, 0)"><svg x="7" y="-20" height="240"><mask id="mask-2024-02-27"><rect x="0" y="163.09564842740198" width="16" height="41.90435157259802" fill="white" rx="5"></rect></mask><rect rx="5" ry="5" x="0" y="25" width="16" height="180" fill="#ddd"></rect><rect mask="url(#mask-2024-02-27)" width="16" fill="#3e4053" y="204.94829814735027" x="0" height="0.05170185264971995px"></rect><rect mask="url(#mask-2024-02-27)" width="16" fill="#b276b2" y="163.09564842740198" x="0" height="41.852649719948296px"></rect><text transform="rotate(90, 4, 72.09564842740198)" letter-spacing="5" y="72.09564842740198" x="4" rotate="-90" class="xp-txt">1621 XP</text></svg><text x="2" y="198" class="subtitle">Feb</text><text x="6" y="214" class="subtitle">27</text></g><g transform="translate(80, 0)"><svg x="7" y="-20" height="240"><mask id="mask-2024-02-28"><rect x="0" y="105.6031882809134" width="16" height="99.3968117190866" fill="white" rx="5"></rect></mask><rect rx="5" ry="5" x="0" y="25" width="16" height="180" fill="#ddd"></rect><rect mask="url(#mask-2024-02-28)" width="16" fill="#3572A5" y="170.61826798793624" x="0" height="34.381732012063765px"></rect><rect mask="url(#mask-2024-02-28)" width="16" fill="#3e4053" y="155.85738905644118" x="0" height="14.760878931495045px"></rect><rect mask="url(#mask-2024-02-28)" width="16" fill="#3e4053" y="155.80568720379148" x="0" height="0.05170185264971995px"></rect><rect mask="url(#mask-2024-02-28)" width="16" fill="#b276b2" y="105.6031882809134" x="0" height="50.20249892287807px"></rect><text transform="rotate(90, 4, 121.6031882809134)" letter-spacing="5" y="121.6031882809134" x="4" rotate="-90" class="xp-txt xp-txt-invert">3845 XP</text></svg><text x="2" y="198" class="subtitle">Feb</text><text x="6" y="214" class="subtitle">28</text></g><g transform="translate(120, 0)"><svg x="7" y="-20" height="240"><mask id="mask-2024-02-29"><rect x="0" y="198.48556656613528" width="16" height="6.514433433864713" fill="white" rx="5"></rect></mask><rect rx="5" ry="5" x="0" y="25" width="16" height="180" fill="#ddd"></rect><rect mask="url(#mask-2024-02-29)" width="16" fill="#b276b2" y="198.48556656613528" x="0" height="6.514433433864713px"></rect><text transform="rotate(90, 4, 120.48556656613528)" letter-spacing="5" y="120.48556656613528" x="4" rotate="-90" class="xp-txt">252 XP</text></svg><text x="2" y="198" class="subtitle">Feb</text><text x="6" y="214" class="subtitle">29</text></g><g transform="translate(160, 0)"><svg x="7" y="-20" height="240"><mask id="mask-2024-03-01"><rect x="0" y="189.30848772081" width="16" height="15.691512279190004" fill="white" rx="5"></rect></mask><rect rx="5" ry="5" x="0" y="25" width="16" height="180" fill="#ddd"></rect><rect mask="url(#mask-2024-03-01)" width="16" fill="#3e4053" y="202.90607496768635" x="0" height="2.093925032313658px"></rect><rect mask="url(#mask-2024-03-01)" width="16" fill="#3e4053" y="192.74666092201636" x="0" height="10.159414045669969px"></rect><rect mask="url(#mask-2024-03-01)" width="16" fill="#3e4053" y="192.69495906936666" x="0" height="0.05170185264971995px"></rect><rect mask="url(#mask-2024-03-01)" width="16" fill="#b276b2" y="189.30848772081" x="0" height="3.3864713485566567px"></rect><text transform="rotate(90, 4, 111.30848772081)" letter-spacing="5" y="111.30848772081" x="4" rotate="-90" class="xp-txt">607 XP</text></svg><text x="2" y="198" class="subtitle">Mar</text><text x="6" y="214" class="subtitle">01</text></g><g transform="translate(200, 0)"><svg x="7" y="-20" height="240"><mask id="mask-2024-03-03"><rect x="0" y="205" width="16" height="0" fill="white" rx="5"></rect></mask><rect rx="5" ry="5" x="0" y="25" width="16" height="180" fill="#ddd"></rect><text transform="rotate(90, 4, 153)" letter-spacing="5" y="153" x="4" rotate="-90" class="xp-txt">0 XP</text></svg><text x="2" y="198" class="subtitle">Mar</text><text x="6" y="214" class="subtitle">03</text></g><g transform="translate(240, 0)"><svg x="7" y="-20" height="240"><mask id="mask-2024-03-04"><rect x="0" y="62.30288668677294" width="16" height="142.69711331322705" fill="white" rx="5"></rect></mask><rect rx="5" ry="5" x="0" y="25" width="16" height="180" fill="#ddd"></rect><rect mask="url(#mask-2024-03-04)" width="16" fill="#3572A5" y="180.15725980180957" x="0" height="24.842740198190434px"></rect><rect mask="url(#mask-2024-03-04)" width="16" fill="#dea584" y="170.28220594571306" x="0" height="9.87505385609651px"></rect><rect mask="url(#mask-2024-03-04)" width="16" fill="#3e4053" y="165.3446790176648" x="0" height="4.937526928048255px"></rect><rect mask="url(#mask-2024-03-04)" width="16" fill="#3e4053" y="159.57992244722104" x="0" height="5.764756570443774px"></rect><rect mask="url(#mask-2024-03-04)" width="16" fill="#3e4053" y="152.8328306764326" x="0" height="6.747091770788454px"></rect><rect mask="url(#mask-2024-03-04)" width="16" fill="#b276b2" y="62.30288668677294" x="0" height="90.52994398965963px"></rect><text transform="rotate(90, 4, 78.30288668677295)" letter-spacing="5" y="78.30288668677295" x="4" rotate="-90" class="xp-txt xp-txt-invert">5520 XP</text></svg><text x="2" y="198" class="subtitle">Mar</text><text x="6" y="214" class="subtitle">04</text></g><g transform="translate(280, 0)"><svg x="7" y="-20" height="240"><mask id="mask-2024-03-05"><rect x="0" y="106.19775958638517" width="16" height="98.80224041361483" fill="white" rx="5"></rect></mask><rect rx="5" ry="5" x="0" y="25" width="16" height="180" fill="#ddd"></rect><rect mask="url(#mask-2024-03-05)" width="16" fill="#3572A5" y="204.3537268418785" x="0" height="0.6462731581214993px"></rect><rect mask="url(#mask-2024-03-05)" width="16" fill="#dea584" y="174.36665230504093" x="0" height="29.98707453683757px"></rect><rect mask="url(#mask-2024-03-05)" width="16" fill="#3e4053" y="171.57475226195606" x="0" height="2.791900043084877px"></rect><rect mask="url(#mask-2024-03-05)" width="16" fill="#3e4053" y="171.52305040930634" x="0" height="0.05170185264971995px"></rect><rect mask="url(#mask-2024-03-05)" width="16" fill="#083fa1" y="167.51615682895303" x="0" height="4.006893580353296px"></rect><rect mask="url(#mask-2024-03-05)" width="16" fill="#b276b2" y="106.19775958638517" x="0" height="61.31839724256786px"></rect><text transform="rotate(90, 4, 122.19775958638517)" letter-spacing="5" y="122.19775958638517" x="4" rotate="-90" class="xp-txt xp-txt-invert">3822 XP</text></svg><text x="2" y="198" class="subtitle">Mar</text><text x="6" y="214" class="subtitle">05</text></g><g transform="translate(320, 0)"><svg x="7" y="-20" height="240"><mask id="mask-2024-03-06"><rect x="0" y="25" width="16" height="180" fill="white" rx="5"></rect></mask><rect rx="5" ry="5" x="0" y="25" width="16" height="180" fill="#ddd"></rect><rect mask="url(#mask-2024-03-06)" width="16" fill="#3572A5" y="140.45023696682466" x="0" height="64.54976303317535px"></rect><rect mask="url(#mask-2024-03-06)" width="16" fill="#dea584" y="131.893580353296" x="0" height="8.556656613528652px"></rect><rect mask="url(#mask-2024-03-06)" width="16" fill="#3e4053" y="114.44420508401551" x="0" height="17.449375269280484px"></rect><rect mask="url(#mask-2024-03-06)" width="16" fill="#3e4053" y="110.98018095648428" x="0" height="3.4640241275312365px"></rect><rect mask="url(#mask-2024-03-06)" width="16" fill="#083fa1" y="108.446790176648" x="0" height="2.5333907798362776px"></rect><rect mask="url(#mask-2024-03-06)" width="16" fill="#b276b2" y="25" x="0" height="83.446790176648px"></rect><text transform="rotate(90, 4, 41)" letter-spacing="5" y="41" x="4" rotate="-90" class="xp-txt xp-txt-invert">6963 XP</text></svg><text x="2" y="198" class="subtitle">Mar</text><text x="6" y="214" class="subtitle">06</text></g><g transform="translate(360, 0)"><svg x="7" y="-20" height="240"><mask id="mask-2024-03-07"><rect x="0" y="106.48211977595864" width="16" height="98.51788022404136" fill="white" rx="5"></rect></mask><rect rx="5" ry="5" x="0" y="25" width="16" height="180" fill="#ddd"></rect><rect mask="url(#mask-2024-03-07)" width="16" fill="#3572A5" y="164.02628177509695" x="0" height="40.97371822490306px"></rect><rect mask="url(#mask-2024-03-07)" width="16" fill="#b276b2" y="106.48211977595864" x="0" height="57.5441619991383px"></rect><text transform="rotate(90, 4, 122.48211977595864)" letter-spacing="5" y="122.48211977595864" x="4" rotate="-90" class="xp-txt xp-txt-invert">3811 XP</text></svg><text x="2" y="198" class="subtitle">Mar</text><text x="6" y="214" class="subtitle">07</text></g><g transform="translate(400, 0)"><svg x="7" y="-20" height="240"><mask id="mask-2024-03-08"><rect x="0" y="162.19086600603188" width="16" height="42.80913399396812" fill="white" rx="5"></rect></mask><rect rx="5" ry="5" x="0" y="25" width="16" height="180" fill="#ddd"></rect><rect mask="url(#mask-2024-03-08)" width="16" fill="#3572A5" y="190.2649719948298" x="0" height="14.735028005170186px"></rect><rect mask="url(#mask-2024-03-08)" width="16" fill="#b276b2" y="162.19086600603188" x="0" height="28.074105988797932px"></rect><text transform="rotate(90, 4, 71.19086600603188)" letter-spacing="5" y="71.19086600603188" x="4" rotate="-90" class="xp-txt">1656 XP</text></svg><text x="2" y="198" class="subtitle">Mar</text><text x="6" y="214" class="subtitle">08</text></g></g><g transform="translate(504, 0)"><g transform="translate(0, 0)"><rect rx="5" x="2" y="7" height="12" width="12" fill="#3572A5"></rect><text x="18" y="18" class="lang-name">Python</text></g><g transform="translate(0, 20)"><rect rx="5" x="2" y="7" height="12" width="12" fill="#dea584"></rect><text x="18" y="18" class="lang-name">Rust</text></g><g transform="translate(0, 40)"><rect rx="5" x="2" y="7" height="12" width="12" fill="#3e4053"></rect><text x="18" y="18" class="lang-name">XML</text></g><g transform="translate(0, 60)"><rect rx="5" x="2" y="7" height="12" width="12" fill="#3e4053"></rect><text x="18" y="18" class="lang-name">Docker</text></g><g transform="translate(0, 80)"><rect rx="5" x="2" y="7" height="12" width="12" fill="#3e4053"></rect><text x="18" y="18" class="lang-name">Garmin Monkey C</text></g><g transform="translate(0, 100)"><rect rx="5" x="2" y="7" height="12" width="12" fill="#3e4053"></rect><text x="18" y="18" class="lang-name">VS Code Input</text></g><g transform="translate(0, 120)"><rect rx="5" x="2" y="7" height="12" width="12" fill="#3e4053"></rect><text x="18" y="18" class="lang-name">SQL</text></g><g transform="translate(0, 140)"><rect rx="5" x="2" y="7" height="12" width="12" fill="#083fa1"></rect><text x="18" y="18" class="lang-name">Markdown</text></g><g transform="translate(0, 160)"><rect rx="5" x="2" y="7" height="12" width="12" fill="#3e4053"></rect><text x="18" y="18" class="lang-name">Other</text></g></g></svg></g></svg>