<svg width="745" height="300" viewBox="0 0 745 300" fill="none" xmlns="http://www.w3.org/2000/svg"><style>
					.header {
						font: 600 18px &#x27;Segoe UI&#x27;, Ubuntu, Sans-Serif;
						fill: #3d858f;
						animation: fadeInAnimation 0.8s ease-in-out forwards;
					}
					
	.lang-name {
		font: 400 16px &#x27;Segoe UI&#x27;, Ubuntu, Sans-Serif;
		fill: #ffffffcc;
	}
	.xp-txt {
		font: 400 12px &#x27;Segoe UI&#x27;, Ubuntu, Sans-Serif;
		fill: black;
	}
	.xp-txt-invert {
		font: 600 12px &#x27;Segoe UI&#x27;, Ubuntu, Sans-Serif;
		fill: white;
	}
	.subtitle {
		font: 400 14px &#x27;Segoe UI&#x27;, Ubuntu, Sans-Serif;
		fill: #ffffffcc;
	}


					/* Animations */
					@keyframes scaleInAnimation {
						from {
							transform: translate(-5px, 5px) scale(0);
						}
						to {
							transform: translate(-5px, 5px) scale(1);
						}
					}
					@keyframes fadeInAnimation {
						from {
							opacity: 0;
						}
						to {
							opacity: 1;
						}
					}
				</style><rect x="0.5" y="0.5" rx="4.5" height="99%" stroke="#E4E2E2" width="744" fill="#151515" stroke-opacity="0"></rect><g transform="translate(25, 35)"><g transform="translate(0, 0)"><text x="0" y="0" class="header">Coding History of the last two weeks</text></g></g><g transform="translate(0, 55)"><svg x="25"><g transform="translate(0, 0)"><g transform="translate(0, 0)"><svg x="7" y="-20" height="240"><mask id="mask-2023-10-14"><rect x="0" y="25" width="16" height="180" fill="white" rx="5"></rect></mask><rect rx="5" ry="5" x="0" y="25" width="16" height="180" fill="#ddd"></rect><rect mask="url(#mask-2023-10-14)" width="16" fill="#00B4AB" y="40.577160071203615" x="0" height="164.42283992879638px"></rect><rect mask="url(#mask-2023-10-14)" width="16" fill="#083fa1" y="40.207448993564284" x="0" height="0.3697110776393263px"></rect><rect mask="url(#mask-2023-10-14)" width="16" fill="#cb171e" y="40.010269752156645" x="0" height="0.1971792414076407px"></rect><rect mask="url(#mask-2023-10-14)" width="16" fill="#b276b2" y="25" x="0" height="15.010269752156647px"></rect><text transform="rotate(90, 4, 41)" letter-spacing="5" y="41" x="4" rotate="-90" class="xp-txt xp-txt-invert">7303 XP</text></svg><text x="2" y="198" class="subtitle">Oct</text><text x="6" y="214" class="subtitle">14</text></g><g transform="translate(40, 0)"><svg x="7" y="-20" height="240"><mask id="mask-2023-10-15"><rect x="0" y="169.1626728741613" width="16" height="35.8373271258387" fill="white" rx="5"></rect></mask><rect rx="5" ry="5" x="0" y="25" width="16" height="180" fill="#ddd"></rect><rect mask="url(#mask-2023-10-15)" width="16" fill="#00B4AB" y="172.19430371080378" x="0" height="32.80569628919622px"></rect><rect mask="url(#mask-2023-10-15)" width="16" fill="#b276b2" y="169.1626728741613" x="0" height="3.0316308366424756px"></rect><text transform="rotate(90, 4, 78.1626728741613)" letter-spacing="5" y="78.1626728741613" x="4" rotate="-90" class="xp-txt">1454 XP</text></svg><text x="2" y="198" class="subtitle">Oct</text><text x="6" y="214" class="subtitle">15</text></g><g transform="translate(80, 0)"><svg x="7" y="-20" height="240"><mask id="mask-2023-10-17"><rect x="0" y="205" width="16" height="0" fill="white" rx="5"></rect></mask><rect rx="5" ry="5" x="0" y="25" width="16" height="180" fill="#ddd"></rect><text transform="rotate(90, 4, 153)" letter-spacing="5" y="153" x="4" rotate="-90" class="xp-txt">0 XP</text></svg><text x="2" y="198" class="subtitle">Oct</text><text x="6" y="214" class="subtitle">17</text></g><g transform="translate(120, 0)"><svg x="7" y="-20" height="240"><mask id="mask-2023-10-18"><rect x="0" y="202.46131726687662" width="16" height="2.538682733123374" fill="white" rx="5"></rect></mask><rect rx="5" ry="5" x="0" y="25" width="16" height="180" fill="#ddd"></rect><rect mask="url(#mask-2023-10-18)" width="16" fill="#b276b2" y="202.46131726687662" x="0" height="2.538682733123374px"></rect><text transform="rotate(90, 4, 124.46131726687662)" letter-spacing="5" y="124.46131726687662" x="4" rotate="-90" class="xp-txt">103 XP</text></svg><text x="2" y="198" class="subtitle">Oct</text><text x="6" y="214" class="subtitle">18</text></g><g transform="translate(160, 0)"><svg x="7" y="-20" height="240"><mask id="mask-2023-10-19"><rect x="0" y="202.0423113788854" width="16" height="2.9576886211146105" fill="white" rx="5"></rect></mask><rect rx="5" ry="5" x="0" y="25" width="16" height="180" fill="#ddd"></rect><rect mask="url(#mask-2023-10-19)" width="16" fill="#3572A5" y="204.97535259482405" x="0" height="0.024647405175955088px"></rect><rect mask="url(#mask-2023-10-19)" width="16" fill="#b276b2" y="202.0423113788854" x="0" height="2.933041215938655px"></rect><text transform="rotate(90, 4, 124.04231137888539)" letter-spacing="5" y="124.04231137888539" x="4" rotate="-90" class="xp-txt">120 XP</text></svg><text x="2" y="198" class="subtitle">Oct</text><text x="6" y="214" class="subtitle">19</text></g><g transform="translate(200, 0)"><svg x="7" y="-20" height="240"><mask id="mask-2023-10-20"><rect x="0" y="187.40175270436808" width="16" height="17.598247295631932" fill="white" rx="5"></rect></mask><rect rx="5" ry="5" x="0" y="25" width="16" height="180" fill="#ddd"></rect><rect mask="url(#mask-2023-10-20)" width="16" fill="#083fa1" y="194.50020539504314" x="0" height="10.499794604956866px"></rect><rect mask="url(#mask-2023-10-20)" width="16" fill="#b276b2" y="187.40175270436808" x="0" height="7.098452690675065px"></rect><text transform="rotate(90, 4, 109.40175270436808)" letter-spacing="5" y="109.40175270436808" x="4" rotate="-90" class="xp-txt">714 XP</text></svg><text x="2" y="198" class="subtitle">Oct</text><text x="6" y="214" class="subtitle">20</text></g><g transform="translate(240, 0)"><svg x="7" y="-20" height="240"><mask id="mask-2023-10-21"><rect x="0" y="204.58099411200877" width="16" height="0.4190058879912365" fill="white" rx="5"></rect></mask><rect rx="5" ry="5" x="0" y="25" width="16" height="180" fill="#ddd"></rect><rect mask="url(#mask-2023-10-21)" width="16" fill="#b276b2" y="204.58099411200877" x="0" height="0.4190058879912365px"></rect><text transform="rotate(90, 4, 139.58099411200877)" letter-spacing="5" y="139.58099411200877" x="4" rotate="-90" class="xp-txt">17 XP</text></svg><text x="2" y="198" class="subtitle">Oct</text><text x="6" y="214" class="subtitle">21</text></g><g transform="translate(280, 0)"><svg x="7" y="-20" height="240"><mask id="mask-2023-10-22"><rect x="0" y="202.97891277557167" width="16" height="2.0210872244283173" fill="white" rx="5"></rect></mask><rect rx="5" ry="5" x="0" y="25" width="16" height="180" fill="#ddd"></rect><rect mask="url(#mask-2023-10-22)" width="16" fill="#b276b2" y="202.97891277557167" x="0" height="2.0210872244283173px"></rect><text transform="rotate(90, 4, 137.97891277557167)" letter-spacing="5" y="137.97891277557167" x="4" rotate="-90" class="xp-txt">82 XP</text></svg><text x="2" y="198" class="subtitle">Oct</text><text x="6" y="214" class="subtitle">22</text></g><g transform="translate(320, 0)"><svg x="7" y="-20" height="240"><mask id="mask-2023-10-23"><rect x="0" y="180.4018896343968" width="16" height="24.598110365603176" fill="white" rx="5"></rect></mask><rect rx="5" ry="5" x="0" y="25" width="16" height="180" fill="#ddd"></rect><rect mask="url(#mask-2023-10-23)" width="16" fill="#b276b2" y="180.4018896343968" x="0" height="24.598110365603176px"></rect><text transform="rotate(90, 4, 102.40188963439681)" letter-spacing="5" y="102.40188963439681" x="4" rotate="-90" class="xp-txt">998 XP</text></svg><text x="2" y="198" class="subtitle">Oct</text><text x="6" y="214" class="subtitle">23</text></g><g transform="translate(360, 0)"><svg x="7" y="-20" height="240"><mask id="mask-2023-10-24"><rect x="0" y="169.31055730521703" width="16" height="35.68944269478297" fill="white" rx="5"></rect></mask><rect rx="5" ry="5" x="0" y="25" width="16" height="180" fill="#ddd"></rect><rect mask="url(#mask-2023-10-24)" width="16" fill="#3572A5" y="191.2221005066411" x="0" height="13.777899493358893px"></rect><rect mask="url(#mask-2023-10-24)" width="16" fill="#b276b2" y="169.31055730521703" x="0" height="21.911543201424074px"></rect><text transform="rotate(90, 4, 78.31055730521703)" letter-spacing="5" y="78.31055730521703" x="4" rotate="-90" class="xp-txt">1448 XP</text></svg><text x="2" y="198" class="subtitle">Oct</text><text x="6" y="214" class="subtitle">24</text></g><g transform="translate(400, 0)"><svg x="7" y="-20" height="240"><mask id="mask-2023-10-25"><rect x="0" y="168.8422566068739" width="16" height="36.15774339312611" fill="white" rx="5"></rect></mask><rect rx="5" ry="5" x="0" y="25" width="16" height="180" fill="#ddd"></rect><rect mask="url(#mask-2023-10-25)" width="16" fill="#b276b2" y="168.8422566068739" x="0" height="36.15774339312611px"></rect><text transform="rotate(90, 4, 77.84225660687389)" letter-spacing="5" y="77.84225660687389" x="4" rotate="-90" class="xp-txt">1467 XP</text></svg><text x="2" y="198" class="subtitle">Oct</text><text x="6" y="214" class="subtitle">25</text></g><g transform="translate(440, 0)"><svg x="7" y="-20" height="240"><mask id="mask-2023-10-26"><rect x="0" y="154.69464603587568" width="16" height="50.30535396412433" fill="white" rx="5"></rect></mask><rect rx="5" ry="5" x="0" y="25" width="16" height="180" fill="#ddd"></rect><rect mask="url(#mask-2023-10-26)" width="16" fill="#00ADD8" y="174.3879227714638" x="0" height="30.61207722853622px"></rect><rect mask="url(#mask-2023-10-26)" width="16" fill="#083fa1" y="171.0851704778858" x="0" height="3.302752293577982px"></rect><rect mask="url(#mask-2023-10-26)" width="16" fill="#b276b2" y="154.69464603587568" x="0" height="16.390524442010133px"></rect><text transform="rotate(90, 4, 63.69464603587568)" letter-spacing="5" y="63.69464603587568" x="4" rotate="-90" class="xp-txt">2041 XP</text></svg><text x="2" y="198" class="subtitle">Oct</text><text x="6" y="214" class="subtitle">26</text></g></g><g transform="translate(536, 0)"><g transform="translate(0, 0)"><rect rx="5" x="2" y="7" height="12" width="12" fill="#00B4AB"></rect><text x="18" y="18" class="lang-name">Dart</text></g><g transform="translate(0, 20)"><rect rx="5" x="2" y="7" height="12" width="12" fill="#00ADD8"></rect><text x="18" y="18" class="lang-name">Go</text></g><g transform="translate(0, 40)"><rect rx="5" x="2" y="7" height="12" width="12" fill="#083fa1"></rect><text x="18" y="18" class="lang-name">Markdown</text></g><g transform="translate(0, 60)"><rect rx="5" x="2" y="7" height="12" width="12" fill="#3572A5"></rect><text x="18" y="18" class="lang-name">Python</text></g><g transform="translate(0, 80)"><rect rx="5" x="2" y="7" height="12" width="12" fill="#cb171e"></rect><text x="18" y="18" class="lang-name">YAML</text></g><g transform="translate(0, 100)"><rect rx="5" x="2" y="7" height="12" width="12" fill="#3e4053"></rect><text x="18" y="18" class="lang-name">Other</text></g></g></svg></g></svg>