<svg width="825" height="300" viewBox="0 0 825 300" fill="none" xmlns="http://www.w3.org/2000/svg"><style>
					.header {
						font: 600 18px &#x27;Segoe UI&#x27;, Ubuntu, Sans-Serif;
						fill: #3d858f;
						animation: fadeInAnimation 0.8s ease-in-out forwards;
					}
					
	.lang-name {
		font: 400 16px &#x27;Segoe UI&#x27;, Ubuntu, Sans-Serif;
		fill: #ffffffcc;
	}
	.xp-txt {
		font: 400 12px &#x27;Segoe UI&#x27;, Ubuntu, Sans-Serif;
		fill: black;
	}
	.xp-txt-invert {
		font: 600 12px &#x27;Segoe UI&#x27;, Ubuntu, Sans-Serif;
		fill: white;
	}
	.subtitle {
		font: 400 14px &#x27;Segoe UI&#x27;, Ubuntu, Sans-Serif;
		fill: #ffffffcc;
	}


					/* Animations */
					@keyframes scaleInAnimation {
						from {
							transform: translate(-5px, 5px) scale(0);
						}
						to {
							transform: translate(-5px, 5px) scale(1);
						}
					}
					@keyframes fadeInAnimation {
						from {
							opacity: 0;
						}
						to {
							opacity: 1;
						}
					}
				</style><rect x="0.5" y="0.5" rx="4.5" height="99%" stroke="#E4E2E2" width="824" fill="#151515" stroke-opacity="0"></rect><g transform="translate(25, 35)"><g transform="translate(0, 0)"><text x="0" y="0" class="header">Coding History of the last two weeks</text></g></g><g transform="translate(0, 55)"><svg x="25"><g transform="translate(0, 0)"><g transform="translate(0, 0)"><svg x="7" y="-20" height="240"><mask id="mask-2024-02-14"><rect x="0" y="132.35028712059065" width="16" height="72.64971287940935" fill="white" rx="5"></rect></mask><rect rx="5" ry="5" x="0" y="25" width="16" height="180" fill="#ddd"></rect><rect mask="url(#mask-2024-02-14)" width="16" fill="#3572A5" y="191.59557013945857" x="0" height="13.404429860541427px"></rect><rect mask="url(#mask-2024-02-14)" width="16" fill="#083fa1" y="170.57834290401968" x="0" height="21.017227235438884px"></rect><rect mask="url(#mask-2024-02-14)" width="16" fill="#3e4053" y="169.51189499589827" x="0" height="1.066447908121411px"></rect><rect mask="url(#mask-2024-02-14)" width="16" fill="#b276b2" y="132.35028712059065" x="0" height="37.16160787530763px"></rect><text transform="rotate(90, 4, 41.35028712059065)" letter-spacing="5" y="41.35028712059065" x="4" rotate="-90" class="xp-txt">4428 XP</text></svg><text x="2" y="198" class="subtitle">Feb</text><text x="6" y="214" class="subtitle">14</text></g><g transform="translate(40, 0)"><svg x="7" y="-20" height="240"><mask id="mask-2024-02-15"><rect x="0" y="197.97785069729287" width="16" height="7.022149302707137" fill="white" rx="5"></rect></mask><rect rx="5" ry="5" x="0" y="25" width="16" height="180" fill="#ddd"></rect><rect mask="url(#mask-2024-02-15)" width="16" fill="#083fa1" y="204.9343724364233" x="0" height="0.06562756357670221px"></rect><rect mask="url(#mask-2024-02-15)" width="16" fill="#3e4053" y="204.8687448728466" x="0" height="0.06562756357670221px"></rect><rect mask="url(#mask-2024-02-15)" width="16" fill="#b276b2" y="197.97785069729287" x="0" height="6.890894175553733px"></rect><text transform="rotate(90, 4, 119.97785069729287)" letter-spacing="5" y="119.97785069729287" x="4" rotate="-90" class="xp-txt">428 XP</text></svg><text x="2" y="198" class="subtitle">Feb</text><text x="6" y="214" class="subtitle">15</text></g><g transform="translate(80, 0)"><svg x="7" y="-20" height="240"><mask id="mask-2024-02-16"><rect x="0" y="162.73584905660377" width="16" height="42.264150943396224" fill="white" rx="5"></rect></mask><rect rx="5" ry="5" x="0" y="25" width="16" height="180" fill="#ddd"></rect><rect mask="url(#mask-2024-02-16)" width="16" fill="#b276b2" y="162.73584905660377" x="0" height="42.264150943396224px"></rect><text transform="rotate(90, 4, 71.73584905660377)" letter-spacing="5" y="71.73584905660377" x="4" rotate="-90" class="xp-txt">2576 XP</text></svg><text x="2" y="198" class="subtitle">Feb</text><text x="6" y="214" class="subtitle">16</text></g><g transform="translate(120, 0)"><svg x="7" y="-20" height="240"><mask id="mask-2024-02-17"><rect x="0" y="203.8515176374077" width="16" height="1.1484823625922889" fill="white" rx="5"></rect></mask><rect rx="5" ry="5" x="0" y="25" width="16" height="180" fill="#ddd"></rect><rect mask="url(#mask-2024-02-17)" width="16" fill="#b276b2" y="203.8515176374077" x="0" height="1.1484823625922889px"></rect><text transform="rotate(90, 4, 138.8515176374077)" letter-spacing="5" y="138.8515176374077" x="4" rotate="-90" class="xp-txt">70 XP</text></svg><text x="2" y="198" class="subtitle">Feb</text><text x="6" y="214" class="subtitle">17</text></g><g transform="translate(160, 0)"><svg x="7" y="-20" height="240"><mask id="mask-2024-02-18"><rect x="0" y="25" width="16" height="180" fill="white" rx="5"></rect></mask><rect rx="5" ry="5" x="0" y="25" width="16" height="180" fill="#ddd"></rect><rect mask="url(#mask-2024-02-18)" width="16" fill="#00ADD8" y="58.568498769483185" x="0" height="146.43150123051683px"></rect><rect mask="url(#mask-2024-02-18)" width="16" fill="#3e4053" y="45.42657916324856" x="0" height="13.141919606234618px"></rect><rect mask="url(#mask-2024-02-18)" width="16" fill="#083fa1" y="43.81870385561936" x="0" height="1.6078753076292043px"></rect><rect mask="url(#mask-2024-02-18)" width="16" fill="#b276b2" y="25" x="0" height="18.81870385561936px"></rect><text transform="rotate(90, 4, 41)" letter-spacing="5" y="41" x="4" rotate="-90" class="xp-txt xp-txt-invert">10971 XP</text></svg><text x="2" y="198" class="subtitle">Feb</text><text x="6" y="214" class="subtitle">18</text></g><g transform="translate(200, 0)"><svg x="7" y="-20" height="240"><mask id="mask-2024-02-19"><rect x="0" y="37.81378178835111" width="16" height="167.1862182116489" fill="white" rx="5"></rect></mask><rect rx="5" ry="5" x="0" y="25" width="16" height="180" fill="#ddd"></rect><rect mask="url(#mask-2024-02-19)" width="16" fill="#00ADD8" y="137.92863002461036" x="0" height="67.07136997538966px"></rect><rect mask="url(#mask-2024-02-19)" width="16" fill="#3572A5" y="115.28712059064807" x="0" height="22.641509433962263px"></rect><rect mask="url(#mask-2024-02-19)" width="16" fill="#3e4053" y="97.04265791632486" x="0" height="18.244462674323216px"></rect><rect mask="url(#mask-2024-02-19)" width="16" fill="#3e4053" y="94.05660377358491" x="0" height="2.9860541427399507px"></rect><rect mask="url(#mask-2024-02-19)" width="16" fill="#427819" y="88.4946677604594" x="0" height="5.5619360131255124px"></rect><rect mask="url(#mask-2024-02-19)" width="16" fill="#b276b2" y="37.81378178835111" x="0" height="50.680885972108285px"></rect><text transform="rotate(90, 4, 53.81378178835111)" letter-spacing="5" y="53.81378178835111" x="4" rotate="-90" class="xp-txt xp-txt-invert">10190 XP</text></svg><text x="2" y="198" class="subtitle">Feb</text><text x="6" y="214" class="subtitle">19</text></g><g transform="translate(240, 0)"><svg x="7" y="-20" height="240"><mask id="mask-2024-02-20"><rect x="0" y="53.82690730106645" width="16" height="151.17309269893354" fill="white" rx="5"></rect></mask><rect rx="5" ry="5" x="0" y="25" width="16" height="180" fill="#ddd"></rect><rect mask="url(#mask-2024-02-20)" width="16" fill="#3572A5" y="117.14109926168992" x="0" height="87.85890073831008px"></rect><rect mask="url(#mask-2024-02-20)" width="16" fill="#3e4053" y="90.72600492206726" x="0" height="26.41509433962264px"></rect><rect mask="url(#mask-2024-02-20)" width="16" fill="#3e4053" y="75.84495488105004" x="0" height="14.881050041017227px"></rect><rect mask="url(#mask-2024-02-20)" width="16" fill="#3e4053" y="73.35110746513536" x="0" height="2.493847415914684px"></rect><rect mask="url(#mask-2024-02-20)" width="16" fill="#b276b2" y="53.82690730106645" x="0" height="19.52420016406891px"></rect><text transform="rotate(90, 4, 69.82690730106646)" letter-spacing="5" y="69.82690730106646" x="4" rotate="-90" class="xp-txt xp-txt-invert">9214 XP</text></svg><text x="2" y="198" class="subtitle">Feb</text><text x="6" y="214" class="subtitle">20</text></g><g transform="translate(280, 0)"><svg x="7" y="-20" height="240"><mask id="mask-2024-02-21"><rect x="0" y="162.0467596390484" width="16" height="42.9532403609516" fill="white" rx="5"></rect></mask><rect rx="5" ry="5" x="0" y="25" width="16" height="180" fill="#ddd"></rect><rect mask="url(#mask-2024-02-21)" width="16" fill="#3572A5" y="172.15340442986053" x="0" height="32.846595570139456px"></rect><rect mask="url(#mask-2024-02-21)" width="16" fill="#3e4053" y="171.33305988515175" x="0" height="0.8203445447087777px"></rect><rect mask="url(#mask-2024-02-21)" width="16" fill="#3e4053" y="170.72600492206726" x="0" height="0.6070549630844955px"></rect><rect mask="url(#mask-2024-02-21)" width="16" fill="#3e4053" y="169.298605414274" x="0" height="1.427399507793273px"></rect><rect mask="url(#mask-2024-02-21)" width="16" fill="#b276b2" y="162.0467596390484" x="0" height="7.251845775225595px"></rect><text transform="rotate(90, 4, 71.04675963904839)" letter-spacing="5" y="71.04675963904839" x="4" rotate="-90" class="xp-txt">2618 XP</text></svg><text x="2" y="198" class="subtitle">Feb</text><text x="6" y="214" class="subtitle">21</text></g><g transform="translate(320, 0)"><svg x="7" y="-20" height="240"><mask id="mask-2024-02-22"><rect x="0" y="202.09598031173093" width="16" height="2.904019688269073" fill="white" rx="5"></rect></mask><rect rx="5" ry="5" x="0" y="25" width="16" height="180" fill="#ddd"></rect><rect mask="url(#mask-2024-02-22)" width="16" fill="#b276b2" y="202.09598031173093" x="0" height="2.904019688269073px"></rect><text transform="rotate(90, 4, 124.09598031173093)" letter-spacing="5" y="124.09598031173093" x="4" rotate="-90" class="xp-txt">177 XP</text></svg><text x="2" y="198" class="subtitle">Feb</text><text x="6" y="214" class="subtitle">22</text></g><g transform="translate(360, 0)"><svg x="7" y="-20" height="240"><mask id="mask-2024-02-23"><rect x="0" y="186.7391304347826" width="16" height="18.26086956521739" fill="white" rx="5"></rect></mask><rect rx="5" ry="5" x="0" y="25" width="16" height="180" fill="#ddd"></rect><rect mask="url(#mask-2024-02-23)" width="16" fill="#00ADD8" y="190.54552912223133" x="0" height="14.454470877768664px"></rect><rect mask="url(#mask-2024-02-23)" width="16" fill="#b276b2" y="186.7391304347826" x="0" height="3.8063986874487283px"></rect><text transform="rotate(90, 4, 95.7391304347826)" letter-spacing="5" y="95.7391304347826" x="4" rotate="-90" class="xp-txt">1113 XP</text></svg><text x="2" y="198" class="subtitle">Feb</text><text x="6" y="214" class="subtitle">23</text></g><g transform="translate(400, 0)"><svg x="7" y="-20" height="240"><mask id="mask-2024-02-24"><rect x="0" y="153.35110746513536" width="16" height="51.64889253486464" fill="white" rx="5"></rect></mask><rect rx="5" ry="5" x="0" y="25" width="16" height="180" fill="#ddd"></rect><rect mask="url(#mask-2024-02-24)" width="16" fill="#00ADD8" y="169.38063986874488" x="0" height="35.61936013125513px"></rect><rect mask="url(#mask-2024-02-24)" width="16" fill="#3e4053" y="155.09023789991795" x="0" height="14.290401968826908px"></rect><rect mask="url(#mask-2024-02-24)" width="16" fill="#b276b2" y="153.35110746513536" x="0" height="1.7391304347826086px"></rect><text transform="rotate(90, 4, 62.35110746513536)" letter-spacing="5" y="62.35110746513536" x="4" rotate="-90" class="xp-txt">3148 XP</text></svg><text x="2" y="198" class="subtitle">Feb</text><text x="6" y="214" class="subtitle">24</text></g><g transform="translate(440, 0)"><svg x="7" y="-20" height="240"><mask id="mask-2024-02-25"><rect x="0" y="111.82526661197703" width="16" height="93.17473338802297" fill="white" rx="5"></rect></mask><rect rx="5" ry="5" x="0" y="25" width="16" height="180" fill="#ddd"></rect><rect mask="url(#mask-2024-02-25)" width="16" fill="#00ADD8" y="130.38146021328959" x="0" height="74.61853978671041px"></rect><rect mask="url(#mask-2024-02-25)" width="16" fill="#3e4053" y="122.57178014766201" x="0" height="7.809680065627564px"></rect><rect mask="url(#mask-2024-02-25)" width="16" fill="#3e4053" y="122.53896636587366" x="0" height="0.03281378178835111px"></rect><rect mask="url(#mask-2024-02-25)" width="16" fill="#427819" y="120.83264971287942" x="0" height="1.7063166529942575px"></rect><rect mask="url(#mask-2024-02-25)" width="16" fill="#b276b2" y="111.82526661197703" x="0" height="9.007383100902379px"></rect><text transform="rotate(90, 4, 127.82526661197703)" letter-spacing="5" y="127.82526661197703" x="4" rotate="-90" class="xp-txt xp-txt-invert">5679 XP</text></svg><text x="2" y="198" class="subtitle">Feb</text><text x="6" y="214" class="subtitle">25</text></g><g transform="translate(480, 0)"><svg x="7" y="-20" height="240"><mask id="mask-2024-02-26"><rect x="0" y="183.27727645611157" width="16" height="21.72272354388843" fill="white" rx="5"></rect></mask><rect rx="5" ry="5" x="0" y="25" width="16" height="180" fill="#ddd"></rect><rect mask="url(#mask-2024-02-26)" width="16" fill="#b276b2" y="183.27727645611157" x="0" height="21.72272354388843px"></rect><text transform="rotate(90, 4, 92.27727645611157)" letter-spacing="5" y="92.27727645611157" x="4" rotate="-90" class="xp-txt">1324 XP</text></svg><text x="2" y="198" class="subtitle">Feb</text><text x="6" y="214" class="subtitle">26</text></g><g transform="translate(520, 0)"><svg x="7" y="-20" height="240"><mask id="mask-2024-02-27"><rect x="0" y="178.40442986054143" width="16" height="26.595570139458573" fill="white" rx="5"></rect></mask><rect rx="5" ry="5" x="0" y="25" width="16" height="180" fill="#ddd"></rect><rect mask="url(#mask-2024-02-27)" width="16" fill="#b276b2" y="178.40442986054143" x="0" height="26.595570139458573px"></rect><text transform="rotate(90, 4, 87.40442986054143)" letter-spacing="5" y="87.40442986054143" x="4" rotate="-90" class="xp-txt">1621 XP</text></svg><text x="2" y="198" class="subtitle">Feb</text><text x="6" y="214" class="subtitle">27</text></g></g><g transform="translate(600, 0)"><g transform="translate(0, 0)"><rect rx="5" x="2" y="7" height="12" width="12" fill="#00ADD8"></rect><text x="18" y="18" class="lang-name">Go</text></g><g transform="translate(0, 20)"><rect rx="5" x="2" y="7" height="12" width="12" fill="#3572A5"></rect><text x="18" y="18" class="lang-name">Python</text></g><g transform="translate(0, 40)"><rect rx="5" x="2" y="7" height="12" width="12" fill="#3e4053"></rect><text x="18" y="18" class="lang-name">proto3</text></g><g transform="translate(0, 60)"><rect rx="5" x="2" y="7" height="12" width="12" fill="#3e4053"></rect><text x="18" y="18" class="lang-name">TOML</text></g><g transform="translate(0, 80)"><rect rx="5" x="2" y="7" height="12" width="12" fill="#083fa1"></rect><text x="18" y="18" class="lang-name">Markdown</text></g><g transform="translate(0, 100)"><rect rx="5" x="2" y="7" height="12" width="12" fill="#3e4053"></rect><text x="18" y="18" class="lang-name">CSV</text></g><g transform="translate(0, 120)"><rect rx="5" x="2" y="7" height="12" width="12" fill="#3e4053"></rect><text x="18" y="18" class="lang-name">JSON</text></g><g transform="translate(0, 140)"><rect rx="5" x="2" y="7" height="12" width="12" fill="#427819"></rect><text x="18" y="18" class="lang-name">Makefile</text></g><g transform="translate(0, 160)"><rect rx="5" x="2" y="7" height="12" width="12" fill="#3e4053"></rect><text x="18" y="18" class="lang-name">Other</text></g></g></svg></g></svg>