<svg width="785" height="300" viewBox="0 0 785 300" fill="none" xmlns="http://www.w3.org/2000/svg"><style>
					.header {
						font: 600 18px &#x27;Segoe UI&#x27;, Ubuntu, Sans-Serif;
						fill: #3d858f;
						animation: fadeInAnimation 0.8s ease-in-out forwards;
					}
					
	.lang-name {
		font: 400 16px &#x27;Segoe UI&#x27;, Ubuntu, Sans-Serif;
		fill: #ffffffcc;
	}
	.xp-txt {
		font: 400 12px &#x27;Segoe UI&#x27;, Ubuntu, Sans-Serif;
		fill: black;
	}
	.xp-txt-invert {
		font: 600 12px &#x27;Segoe UI&#x27;, Ubuntu, Sans-Serif;
		fill: white;
	}
	.subtitle {
		font: 400 14px &#x27;Segoe UI&#x27;, Ubuntu, Sans-Serif;
		fill: #ffffffcc;
	}


					/* Animations */
					@keyframes scaleInAnimation {
						from {
							transform: translate(-5px, 5px) scale(0);
						}
						to {
							transform: translate(-5px, 5px) scale(1);
						}
					}
					@keyframes fadeInAnimation {
						from {
							opacity: 0;
						}
						to {
							opacity: 1;
						}
					}
				</style><rect x="0.5" y="0.5" rx="4.5" height="99%" stroke="#E4E2E2" width="784" fill="#151515" stroke-opacity="0"></rect><g transform="translate(25, 35)"><g transform="translate(0, 0)"><text x="0" y="0" class="header">Coding History of the last two weeks</text></g></g><g transform="translate(0, 55)"><svg x="25"><g transform="translate(0, 0)"><g transform="translate(0, 0)"><svg x="7" y="-20" height="240"><mask id="mask-2024-01-01"><rect x="0" y="205" width="16" height="0" fill="white" rx="5"></rect></mask><rect rx="5" ry="5" x="0" y="25" width="16" height="180" fill="#ddd"></rect><text transform="rotate(90, 4, 153)" letter-spacing="5" y="153" x="4" rotate="-90" class="xp-txt">0 XP</text></svg><text x="2" y="198" class="subtitle">Jan</text><text x="6" y="214" class="subtitle">01</text></g><g transform="translate(40, 0)"><svg x="7" y="-20" height="240"><mask id="mask-2024-01-02"><rect x="0" y="204.76095617529882" width="16" height="0.23904382470119523" fill="white" rx="5"></rect></mask><rect rx="5" ry="5" x="0" y="25" width="16" height="180" fill="#ddd"></rect><rect mask="url(#mask-2024-01-02)" width="16" fill="#b276b2" y="204.76095617529882" x="0" height="0.23904382470119523px"></rect><text transform="rotate(90, 4, 139.76095617529882)" letter-spacing="5" y="139.76095617529882" x="4" rotate="-90" class="xp-txt">14 XP</text></svg><text x="2" y="198" class="subtitle">Jan</text><text x="6" y="214" class="subtitle">02</text></g><g transform="translate(80, 0)"><svg x="7" y="-20" height="240"><mask id="mask-2024-01-03"><rect x="0" y="201.20944792259533" width="16" height="3.790552077404667" fill="white" rx="5"></rect></mask><rect rx="5" ry="5" x="0" y="25" width="16" height="180" fill="#ddd"></rect><rect mask="url(#mask-2024-01-03)" width="16" fill="#b276b2" y="201.20944792259533" x="0" height="3.790552077404667px"></rect><text transform="rotate(90, 4, 123.20944792259533)" letter-spacing="5" y="123.20944792259533" x="4" rotate="-90" class="xp-txt">222 XP</text></svg><text x="2" y="198" class="subtitle">Jan</text><text x="6" y="214" class="subtitle">03</text></g><g transform="translate(120, 0)"><svg x="7" y="-20" height="240"><mask id="mask-2024-01-05"><rect x="0" y="205" width="16" height="0" fill="white" rx="5"></rect></mask><rect rx="5" ry="5" x="0" y="25" width="16" height="180" fill="#ddd"></rect><text transform="rotate(90, 4, 153)" letter-spacing="5" y="153" x="4" rotate="-90" class="xp-txt">0 XP</text></svg><text x="2" y="198" class="subtitle">Jan</text><text x="6" y="214" class="subtitle">05</text></g><g transform="translate(160, 0)"><svg x="7" y="-20" height="240"><mask id="mask-2024-01-06"><rect x="0" y="156.81559476380193" width="16" height="48.18440523619807" fill="white" rx="5"></rect></mask><rect rx="5" ry="5" x="0" y="25" width="16" height="180" fill="#ddd"></rect><rect mask="url(#mask-2024-01-06)" width="16" fill="#00ADD8" y="181.38588503130336" x="0" height="23.614114968696644px"></rect><rect mask="url(#mask-2024-01-06)" width="16" fill="#3e4053" y="175.22196926579397" x="0" height="6.163915765509391px"></rect><rect mask="url(#mask-2024-01-06)" width="16" fill="#3e4053" y="171.27774615822423" x="0" height="3.944223107569721px"></rect><rect mask="url(#mask-2024-01-06)" width="16" fill="#3e4053" y="169.1263517359135" x="0" height="2.151394422310757px"></rect><rect mask="url(#mask-2024-01-06)" width="16" fill="#b276b2" y="156.81559476380193" x="0" height="12.310756972111554px"></rect><text transform="rotate(90, 4, 65.81559476380193)" letter-spacing="5" y="65.81559476380193" x="4" rotate="-90" class="xp-txt">2822 XP</text></svg><text x="2" y="198" class="subtitle">Jan</text><text x="6" y="214" class="subtitle">06</text></g><g transform="translate(200, 0)"><svg x="7" y="-20" height="240"><mask id="mask-2024-01-07"><rect x="0" y="200.01422879908935" width="16" height="4.985771200910643" fill="white" rx="5"></rect></mask><rect rx="5" ry="5" x="0" y="25" width="16" height="180" fill="#ddd"></rect><rect mask="url(#mask-2024-01-07)" width="16" fill="#b276b2" y="200.01422879908935" x="0" height="4.985771200910643px"></rect><text transform="rotate(90, 4, 122.01422879908935)" letter-spacing="5" y="122.01422879908935" x="4" rotate="-90" class="xp-txt">292 XP</text></svg><text x="2" y="198" class="subtitle">Jan</text><text x="6" y="214" class="subtitle">07</text></g><g transform="translate(240, 0)"><svg x="7" y="-20" height="240"><mask id="mask-2024-01-08"><rect x="0" y="176.29766647694936" width="16" height="28.702333523050655" fill="white" rx="5"></rect></mask><rect rx="5" ry="5" x="0" y="25" width="16" height="180" fill="#ddd"></rect><rect mask="url(#mask-2024-01-08)" width="16" fill="#3572A5" y="203.1217985202049" x="0" height="1.8782014797951052px"></rect><rect mask="url(#mask-2024-01-08)" width="16" fill="#3e4053" y="198.49459305634605" x="0" height="4.62720546385885px"></rect><rect mask="url(#mask-2024-01-08)" width="16" fill="#b276b2" y="176.29766647694936" x="0" height="22.1969265793967px"></rect><text transform="rotate(90, 4, 85.29766647694936)" letter-spacing="5" y="85.29766647694936" x="4" rotate="-90" class="xp-txt">1681 XP</text></svg><text x="2" y="198" class="subtitle">Jan</text><text x="6" y="214" class="subtitle">08</text></g><g transform="translate(280, 0)"><svg x="7" y="-20" height="240"><mask id="mask-2024-01-09"><rect x="0" y="192.0062606715993" width="16" height="12.993739328400682" fill="white" rx="5"></rect></mask><rect rx="5" ry="5" x="0" y="25" width="16" height="180" fill="#ddd"></rect><rect mask="url(#mask-2024-01-09)" width="16" fill="#b276b2" y="192.0062606715993" x="0" height="12.993739328400682px"></rect><text transform="rotate(90, 4, 114.0062606715993)" letter-spacing="5" y="114.0062606715993" x="4" rotate="-90" class="xp-txt">761 XP</text></svg><text x="2" y="198" class="subtitle">Jan</text><text x="6" y="214" class="subtitle">09</text></g><g transform="translate(320, 0)"><svg x="7" y="-20" height="240"><mask id="mask-2024-01-10"><rect x="0" y="167.9311326124075" width="16" height="37.06886738759249" fill="white" rx="5"></rect></mask><rect rx="5" ry="5" x="0" y="25" width="16" height="180" fill="#ddd"></rect><rect mask="url(#mask-2024-01-10)" width="16" fill="#4F5D95" y="196.0358565737052" x="0" height="8.96414342629482px"></rect><rect mask="url(#mask-2024-01-10)" width="16" fill="#b276b2" y="167.9311326124075" x="0" height="28.104723961297665px"></rect><text transform="rotate(90, 4, 76.93113261240751)" letter-spacing="5" y="76.93113261240751" x="4" rotate="-90" class="xp-txt">2171 XP</text></svg><text x="2" y="198" class="subtitle">Jan</text><text x="6" y="214" class="subtitle">10</text></g><g transform="translate(360, 0)"><svg x="7" y="-20" height="240"><mask id="mask-2024-01-11"><rect x="0" y="176.22936824132043" width="16" height="28.770631758679567" fill="white" rx="5"></rect></mask><rect rx="5" ry="5" x="0" y="25" width="16" height="180" fill="#ddd"></rect><rect mask="url(#mask-2024-01-11)" width="16" fill="#b276b2" y="176.22936824132043" x="0" height="28.770631758679567px"></rect><text transform="rotate(90, 4, 85.22936824132043)" letter-spacing="5" y="85.22936824132043" x="4" rotate="-90" class="xp-txt">1685 XP</text></svg><text x="2" y="198" class="subtitle">Jan</text><text x="6" y="214" class="subtitle">11</text></g><g transform="translate(400, 0)"><svg x="7" y="-20" height="240"><mask id="mask-2024-01-12"><rect x="0" y="185.12521343198634" width="16" height="19.87478656801366" fill="white" rx="5"></rect></mask><rect rx="5" ry="5" x="0" y="25" width="16" height="180" fill="#ddd"></rect><rect mask="url(#mask-2024-01-12)" width="16" fill="#b276b2" y="185.12521343198634" x="0" height="19.87478656801366px"></rect><text transform="rotate(90, 4, 94.12521343198634)" letter-spacing="5" y="94.12521343198634" x="4" rotate="-90" class="xp-txt">1164 XP</text></svg><text x="2" y="198" class="subtitle">Jan</text><text x="6" y="214" class="subtitle">12</text></g><g transform="translate(440, 0)"><svg x="7" y="-20" height="240"><mask id="mask-2024-01-13"><rect x="0" y="37.12293682413204" width="16" height="167.87706317586796" fill="white" rx="5"></rect></mask><rect rx="5" ry="5" x="0" y="25" width="16" height="180" fill="#ddd"></rect><rect mask="url(#mask-2024-01-13)" width="16" fill="#3572A5" y="63.41775754126352" x="0" height="141.5822424587365px"></rect><rect mask="url(#mask-2024-01-13)" width="16" fill="#3e4053" y="55.614684120660215" x="0" height="7.803073420603301px"></rect><rect mask="url(#mask-2024-01-13)" width="16" fill="#b276b2" y="37.12293682413204" x="0" height="18.491747296528175px"></rect><text transform="rotate(90, 4, 53.12293682413204)" letter-spacing="5" y="53.12293682413204" x="4" rotate="-90" class="xp-txt xp-txt-invert">9832 XP</text></svg><text x="2" y="198" class="subtitle">Jan</text><text x="6" y="214" class="subtitle">13</text></g><g transform="translate(480, 0)"><svg x="7" y="-20" height="240"><mask id="mask-2024-01-14"><rect x="0" y="25" width="16" height="180" fill="white" rx="5"></rect></mask><rect rx="5" ry="5" x="0" y="25" width="16" height="180" fill="#ddd"></rect><rect mask="url(#mask-2024-01-14)" width="16" fill="#3572A5" y="47.09447922595333" x="0" height="157.90552077404666px"></rect><rect mask="url(#mask-2024-01-14)" width="16" fill="#b276b2" y="25" x="0" height="22.09447922595333px"></rect><text transform="rotate(90, 4, 41)" letter-spacing="5" y="41" x="4" rotate="-90" class="xp-txt xp-txt-invert">10542 XP</text></svg><text x="2" y="198" class="subtitle">Jan</text><text x="6" y="214" class="subtitle">14</text></g></g><g transform="translate(568, 0)"><g transform="translate(0, 0)"><rect rx="5" x="2" y="7" height="12" width="12" fill="#3572A5"></rect><text x="18" y="18" class="lang-name">Python</text></g><g transform="translate(0, 20)"><rect rx="5" x="2" y="7" height="12" width="12" fill="#00ADD8"></rect><text x="18" y="18" class="lang-name">Go</text></g><g transform="translate(0, 40)"><rect rx="5" x="2" y="7" height="12" width="12" fill="#4F5D95"></rect><text x="18" y="18" class="lang-name">PHP</text></g><g transform="translate(0, 60)"><rect rx="5" x="2" y="7" height="12" width="12" fill="#3e4053"></rect><text x="18" y="18" class="lang-name">Git</text></g><g transform="translate(0, 80)"><rect rx="5" x="2" y="7" height="12" width="12" fill="#3e4053"></rect><text x="18" y="18" class="lang-name">proto3</text></g><g transform="translate(0, 100)"><rect rx="5" x="2" y="7" height="12" width="12" fill="#3e4053"></rect><text x="18" y="18" class="lang-name">Docker</text></g><g transform="translate(0, 120)"><rect rx="5" x="2" y="7" height="12" width="12" fill="#3e4053"></rect><text x="18" y="18" class="lang-name">http</text></g><g transform="translate(0, 140)"><rect rx="5" x="2" y="7" height="12" width="12" fill="#3e4053"></rect><text x="18" y="18" class="lang-name">go.sum</text></g><g transform="translate(0, 160)"><rect rx="5" x="2" y="7" height="12" width="12" fill="#3e4053"></rect><text x="18" y="18" class="lang-name">Other</text></g></g></svg></g></svg>