<svg width="550" height="340" viewBox="0 0 550 340" fill="none" xmlns="http://www.w3.org/2000/svg"><style>
					.header {
						font: 600 18px &#x27;Segoe UI&#x27;, Ubuntu, Sans-Serif;
						fill: #3d858f;
						animation: fadeInAnimation 0.8s ease-in-out forwards;
					}
					
		.lang-name {
			font: 400 11px &#x27;Segoe UI&#x27;, Ubuntu, Sans-Serif;
			fill: #ffffffcc;
		}
	

					/* Animations */
					@keyframes scaleInAnimation {
						from {
							transform: translate(-5px, 5px) scale(0);
						}
						to {
							transform: translate(-5px, 5px) scale(1);
						}
					}
					@keyframes fadeInAnimation {
						from {
							opacity: 0;
						}
						to {
							opacity: 1;
						}
					}
				</style><rect x="0.5" y="0.5" rx="4.5" height="99%" stroke="#E4E2E2" width="549" fill="#151515" stroke-opacity="0"></rect><g transform="translate(25, 35)"><g transform="translate(0, 0)"><text x="0" y="0" class="header">Most Coded Languages</text></g></g><g transform="translate(0, 55)"><svg x="25"><mask id="rect-mask"><rect x="0" y="0" width="500" height="8" fill="white" rx="5"></rect></mask><rect mask="url(#rect-mask)" data-testid="lang-progress" x="0" y="0" width="153.98" height="8" fill="#3572A5"></rect><rect mask="url(#rect-mask)" data-testid="lang-progress" x="153.98" y="0" width="107.46" height="8" fill="#00B4AB"></rect><rect mask="url(#rect-mask)" data-testid="lang-progress" x="261.44" y="0" width="73" height="8" fill="#00ADD8"></rect><rect mask="url(#rect-mask)" data-testid="lang-progress" x="334.44" y="0" width="46.12" height="8" fill="#083fa1"></rect><rect mask="url(#rect-mask)" data-testid="lang-progress" x="380.56" y="0" width="20.72" height="8" fill="#178600"></rect><rect mask="url(#rect-mask)" data-testid="lang-progress" x="401.28" y="0" width="11.87" height="8" fill="#3e4053"></rect><rect mask="url(#rect-mask)" data-testid="lang-progress" x="413.15" y="0" width="10.85" height="8" fill="#dea584"></rect><rect mask="url(#rect-mask)" data-testid="lang-progress" x="424" y="0" width="10.4" height="8" fill="#427819"></rect><rect mask="url(#rect-mask)" data-testid="lang-progress" x="434.4" y="0" width="19.54" height="8" fill="#f34b7d"></rect><rect mask="url(#rect-mask)" data-testid="lang-progress" x="443.94" y="0" width="18.71" height="8" fill="#cb171e"></rect><rect mask="url(#rect-mask)" data-testid="lang-progress" x="452.65" y="0" width="17.52" height="8" fill="#555555"></rect><rect mask="url(#rect-mask)" data-testid="lang-progress" x="460.16999999999996" y="0" width="16.85" height="8" fill="#3e4053"></rect><rect mask="url(#rect-mask)" data-testid="lang-progress" x="467.02" y="0" width="15.59" height="8" fill="#f1e05a"></rect><rect mask="url(#rect-mask)" data-testid="lang-progress" x="472.60999999999996" y="0" width="15.219999999999999" height="8" fill="#2c3e50"></rect><rect mask="url(#rect-mask)" data-testid="lang-progress" x="477.83" y="0" width="14.43" height="8" fill="#f7931e"></rect><rect mask="url(#rect-mask)" data-testid="lang-progress" x="482.26" y="0" width="13.870000000000001" height="8" fill="#3e4053"></rect><rect mask="url(#rect-mask)" data-testid="lang-progress" x="486.13" y="0" width="13.74" height="8" fill="#3e4053"></rect><rect mask="url(#rect-mask)" data-testid="lang-progress" x="489.87" y="0" width="13.69" height="8" fill="#e34c26"></rect><rect mask="url(#rect-mask)" data-testid="lang-progress" x="493.56" y="0" width="13.25" height="8" fill="#3e4053"></rect><rect mask="url(#rect-mask)" data-testid="lang-progress" x="496.81" y="0" width="13.18" height="8" fill="#563d7c"></rect><g transform="translate(0, 25)"><circle cx="5" cy="6" r="5" fill="#3572A5"></circle><text data-testid="lang-name" x="15" y="10" class="lang-name">Python 30.8%</text></g><g transform="translate(150, 25)"><circle cx="5" cy="6" r="5" fill="#00B4AB"></circle><text data-testid="lang-name" x="15" y="10" class="lang-name">Dart 21.49%</text></g><g transform="translate(0, 50)"><circle cx="5" cy="6" r="5" fill="#00ADD8"></circle><text data-testid="lang-name" x="15" y="10" class="lang-name">Go 14.6%</text></g><g transform="translate(150, 50)"><circle cx="5" cy="6" r="5" fill="#083fa1"></circle><text data-testid="lang-name" x="15" y="10" class="lang-name">Markdown 9.22%</text></g><g transform="translate(0, 75)"><circle cx="5" cy="6" r="5" fill="#178600"></circle><text data-testid="lang-name" x="15" y="10" class="lang-name">C# 4.14%</text></g><g transform="translate(150, 75)"><circle cx="5" cy="6" r="5" fill="#3e4053"></circle><text data-testid="lang-name" x="15" y="10" class="lang-name">VS Code Input 2.37%</text></g><g transform="translate(0, 100)"><circle cx="5" cy="6" r="5" fill="#dea584"></circle><text data-testid="lang-name" x="15" y="10" class="lang-name">Rust 2.17%</text></g><g transform="translate(150, 100)"><circle cx="5" cy="6" r="5" fill="#427819"></circle><text data-testid="lang-name" x="15" y="10" class="lang-name">Makefile 2.08%</text></g><g transform="translate(0, 125)"><circle cx="5" cy="6" r="5" fill="#f34b7d"></circle><text data-testid="lang-name" x="15" y="10" class="lang-name">C++ 1.91%</text></g><g transform="translate(150, 125)"><circle cx="5" cy="6" r="5" fill="#cb171e"></circle><text data-testid="lang-name" x="15" y="10" class="lang-name">YAML 1.74%</text></g><g transform="translate(0, 150)"><circle cx="5" cy="6" r="5" fill="#555555"></circle><text data-testid="lang-name" x="15" y="10" class="lang-name">C 1.5%</text></g><g transform="translate(150, 150)"><circle cx="5" cy="6" r="5" fill="#3e4053"></circle><text data-testid="lang-name" x="15" y="10" class="lang-name">JSON 1.37%</text></g><g transform="translate(0, 175)"><circle cx="5" cy="6" r="5" fill="#f1e05a"></circle><text data-testid="lang-name" x="15" y="10" class="lang-name">JavaScript 1.12%</text></g><g transform="translate(150, 175)"><circle cx="5" cy="6" r="5" fill="#2c3e50"></circle><text data-testid="lang-name" x="15" y="10" class="lang-name">Vue 1.04%</text></g><g transform="translate(0, 200)"><circle cx="5" cy="6" r="5" fill="#f7931e"></circle><text data-testid="lang-name" x="15" y="10" class="lang-name">Handlebars 0.89%</text></g><g transform="translate(150, 200)"><circle cx="5" cy="6" r="5" fill="#3e4053"></circle><text data-testid="lang-name" x="15" y="10" class="lang-name">Docker 0.77%</text></g><g transform="translate(0, 225)"><circle cx="5" cy="6" r="5" fill="#3e4053"></circle><text data-testid="lang-name" x="15" y="10" class="lang-name">Shell Script 0.75%</text></g><g transform="translate(150, 225)"><circle cx="5" cy="6" r="5" fill="#e34c26"></circle><text data-testid="lang-name" x="15" y="10" class="lang-name">HTML 0.74%</text></g><g transform="translate(0, 250)"><circle cx="5" cy="6" r="5" fill="#3e4053"></circle><text data-testid="lang-name" x="15" y="10" class="lang-name">HashiCorp Configuration (HCL) 0.65%</text></g><g transform="translate(150, 250)"><circle cx="5" cy="6" r="5" fill="#563d7c"></circle><text data-testid="lang-name" x="15" y="10" class="lang-name">CSS 0.64%</text></g></svg></g></svg>