<svg width="550" height="340" viewBox="0 0 550 340" fill="none" xmlns="http://www.w3.org/2000/svg"><style>
					.header {
						font: 600 18px &#x27;Segoe UI&#x27;, Ubuntu, Sans-Serif;
						fill: #3d858f;
						animation: fadeInAnimation 0.8s ease-in-out forwards;
					}
					
		.lang-name {
			font: 400 11px &#x27;Segoe UI&#x27;, Ubuntu, Sans-Serif;
			fill: #ffffffcc;
		}
	

					/* Animations */
					@keyframes scaleInAnimation {
						from {
							transform: translate(-5px, 5px) scale(0);
						}
						to {
							transform: translate(-5px, 5px) scale(1);
						}
					}
					@keyframes fadeInAnimation {
						from {
							opacity: 0;
						}
						to {
							opacity: 1;
						}
					}
				</style><rect x="0.5" y="0.5" rx="4.5" height="99%" stroke="#E4E2E2" width="549" fill="#151515" stroke-opacity="0"></rect><g transform="translate(25, 35)"><g transform="translate(0, 0)"><text x="0" y="0" class="header">Most Coded Languages</text></g></g><g transform="translate(0, 55)"><svg x="25"><mask id="rect-mask"><rect x="0" y="0" width="500" height="8" fill="white" rx="5"></rect></mask><rect mask="url(#rect-mask)" data-testid="lang-progress" x="0" y="0" width="214.95" height="8" fill="#3572A5"></rect><rect mask="url(#rect-mask)" data-testid="lang-progress" x="214.95" y="0" width="74.97" height="8" fill="#00B4AB"></rect><rect mask="url(#rect-mask)" data-testid="lang-progress" x="289.91999999999996" y="0" width="43.34" height="8" fill="#083fa1"></rect><rect mask="url(#rect-mask)" data-testid="lang-progress" x="333.26" y="0" width="39.22" height="8" fill="#178600"></rect><rect mask="url(#rect-mask)" data-testid="lang-progress" x="372.48" y="0" width="25.17" height="8" fill="#00ADD8"></rect><rect mask="url(#rect-mask)" data-testid="lang-progress" x="397.65000000000003" y="0" width="19.67" height="8" fill="#dea584"></rect><rect mask="url(#rect-mask)" data-testid="lang-progress" x="417.32000000000005" y="0" width="19.89" height="8" fill="#2c3e50"></rect><rect mask="url(#rect-mask)" data-testid="lang-progress" x="427.21000000000004" y="0" width="18.9" height="8" fill="#3e4053"></rect><rect mask="url(#rect-mask)" data-testid="lang-progress" x="436.11" y="0" width="18.53" height="8" fill="#cb171e"></rect><rect mask="url(#rect-mask)" data-testid="lang-progress" x="444.64" y="0" width="18.009999999999998" height="8" fill="#3e4053"></rect><rect mask="url(#rect-mask)" data-testid="lang-progress" x="452.65" y="0" width="16.22" height="8" fill="#427819"></rect><rect mask="url(#rect-mask)" data-testid="lang-progress" x="458.87" y="0" width="16.18" height="8" fill="#e34c26"></rect><rect mask="url(#rect-mask)" data-testid="lang-progress" x="465.05" y="0" width="15.92" height="8" fill="#563d7c"></rect><rect mask="url(#rect-mask)" data-testid="lang-progress" x="470.97" y="0" width="15.8" height="8" fill="#f1e05a"></rect><rect mask="url(#rect-mask)" data-testid="lang-progress" x="476.77000000000004" y="0" width="15.75" height="8" fill="#2b7489"></rect><rect mask="url(#rect-mask)" data-testid="lang-progress" x="482.52000000000004" y="0" width="14.719999999999999" height="8" fill="#3e4053"></rect><rect mask="url(#rect-mask)" data-testid="lang-progress" x="487.24000000000007" y="0" width="14.1" height="8" fill="#3e4053"></rect><rect mask="url(#rect-mask)" data-testid="lang-progress" x="491.3400000000001" y="0" width="13.76" height="8" fill="#3e4053"></rect><rect mask="url(#rect-mask)" data-testid="lang-progress" x="495.1000000000001" y="0" width="12.51" height="8" fill="#3e4053"></rect><rect mask="url(#rect-mask)" data-testid="lang-progress" x="497.61000000000007" y="0" width="12.4" height="8" fill="#3e4053"></rect><g transform="translate(0, 25)"><circle cx="5" cy="6" r="5" fill="#3572A5"></circle><text data-testid="lang-name" x="15" y="10" class="lang-name">Python 42.99%</text></g><g transform="translate(150, 25)"><circle cx="5" cy="6" r="5" fill="#00B4AB"></circle><text data-testid="lang-name" x="15" y="10" class="lang-name">Dart 14.99%</text></g><g transform="translate(0, 50)"><circle cx="5" cy="6" r="5" fill="#083fa1"></circle><text data-testid="lang-name" x="15" y="10" class="lang-name">Markdown 8.67%</text></g><g transform="translate(150, 50)"><circle cx="5" cy="6" r="5" fill="#178600"></circle><text data-testid="lang-name" x="15" y="10" class="lang-name">C# 7.84%</text></g><g transform="translate(0, 75)"><circle cx="5" cy="6" r="5" fill="#00ADD8"></circle><text data-testid="lang-name" x="15" y="10" class="lang-name">Go 5.03%</text></g><g transform="translate(150, 75)"><circle cx="5" cy="6" r="5" fill="#dea584"></circle><text data-testid="lang-name" x="15" y="10" class="lang-name">Rust 3.93%</text></g><g transform="translate(0, 100)"><circle cx="5" cy="6" r="5" fill="#2c3e50"></circle><text data-testid="lang-name" x="15" y="10" class="lang-name">Vue 1.98%</text></g><g transform="translate(150, 100)"><circle cx="5" cy="6" r="5" fill="#3e4053"></circle><text data-testid="lang-name" x="15" y="10" class="lang-name">VS Code Input 1.78%</text></g><g transform="translate(0, 125)"><circle cx="5" cy="6" r="5" fill="#cb171e"></circle><text data-testid="lang-name" x="15" y="10" class="lang-name">YAML 1.71%</text></g><g transform="translate(150, 125)"><circle cx="5" cy="6" r="5" fill="#3e4053"></circle><text data-testid="lang-name" x="15" y="10" class="lang-name">JSON 1.6%</text></g><g transform="translate(0, 150)"><circle cx="5" cy="6" r="5" fill="#427819"></circle><text data-testid="lang-name" x="15" y="10" class="lang-name">Makefile 1.24%</text></g><g transform="translate(150, 150)"><circle cx="5" cy="6" r="5" fill="#e34c26"></circle><text data-testid="lang-name" x="15" y="10" class="lang-name">HTML 1.24%</text></g><g transform="translate(0, 175)"><circle cx="5" cy="6" r="5" fill="#563d7c"></circle><text data-testid="lang-name" x="15" y="10" class="lang-name">CSS 1.18%</text></g><g transform="translate(150, 175)"><circle cx="5" cy="6" r="5" fill="#f1e05a"></circle><text data-testid="lang-name" x="15" y="10" class="lang-name">JavaScript 1.16%</text></g><g transform="translate(0, 200)"><circle cx="5" cy="6" r="5" fill="#2b7489"></circle><text data-testid="lang-name" x="15" y="10" class="lang-name">TypeScript 1.15%</text></g><g transform="translate(150, 200)"><circle cx="5" cy="6" r="5" fill="#3e4053"></circle><text data-testid="lang-name" x="15" y="10" class="lang-name">Docker 0.94%</text></g><g transform="translate(0, 225)"><circle cx="5" cy="6" r="5" fill="#3e4053"></circle><text data-testid="lang-name" x="15" y="10" class="lang-name">CSV 0.82%</text></g><g transform="translate(150, 225)"><circle cx="5" cy="6" r="5" fill="#3e4053"></circle><text data-testid="lang-name" x="15" y="10" class="lang-name">TOML 0.75%</text></g><g transform="translate(0, 250)"><circle cx="5" cy="6" r="5" fill="#3e4053"></circle><text data-testid="lang-name" x="15" y="10" class="lang-name">Shell Script 0.5%</text></g><g transform="translate(150, 250)"><circle cx="5" cy="6" r="5" fill="#3e4053"></circle><text data-testid="lang-name" x="15" y="10" class="lang-name">LaTeX 0.48%</text></g></svg></g></svg>