<svg width="745" height="300" viewBox="0 0 745 300" fill="none" xmlns="http://www.w3.org/2000/svg"><style>
					.header {
						font: 600 18px &#x27;Segoe UI&#x27;, Ubuntu, Sans-Serif;
						fill: #3d858f;
						animation: fadeInAnimation 0.8s ease-in-out forwards;
					}
					
	.lang-name {
		font: 400 16px &#x27;Segoe UI&#x27;, Ubuntu, Sans-Serif;
		fill: #ffffffcc;
	}
	.xp-txt {
		font: 400 12px &#x27;Segoe UI&#x27;, Ubuntu, Sans-Serif;
		fill: black;
	}
	.xp-txt-invert {
		font: 600 12px &#x27;Segoe UI&#x27;, Ubuntu, Sans-Serif;
		fill: white;
	}
	.subtitle {
		font: 400 14px &#x27;Segoe UI&#x27;, Ubuntu, Sans-Serif;
		fill: #ffffffcc;
	}


					/* Animations */
					@keyframes scaleInAnimation {
						from {
							transform: translate(-5px, 5px) scale(0);
						}
						to {
							transform: translate(-5px, 5px) scale(1);
						}
					}
					@keyframes fadeInAnimation {
						from {
							opacity: 0;
						}
						to {
							opacity: 1;
						}
					}
				</style><rect x="0.5" y="0.5" rx="4.5" height="99%" stroke="#E4E2E2" width="744" fill="#151515" stroke-opacity="0"></rect><g transform="translate(25, 35)"><g transform="translate(0, 0)"><text x="0" y="0" class="header">Coding History of the last two weeks</text></g></g><g transform="translate(0, 55)"><svg x="25"><g transform="translate(0, 0)"><g transform="translate(0, 0)"><svg x="7" y="-20" height="240"><mask id="mask-2026-01-23"><rect x="0" y="203.56185567010309" width="16" height="1.4381443298969072" fill="white" rx="5"></rect></mask><rect rx="5" ry="5" x="0" y="25" width="16" height="180" fill="#ddd"></rect><rect mask="url(#mask-2026-01-23)" width="16" fill="#b276b2" y="203.56185567010309" x="0" height="1.4381443298969072px"></rect><text transform="rotate(90, 4, 138.56185567010309)" letter-spacing="5" y="138.56185567010309" x="4" rotate="-90" class="xp-txt">31 XP</text></svg><text x="2" y="198" class="subtitle">Jan</text><text x="6" y="214" class="subtitle">23</text></g><g transform="translate(40, 0)"><svg x="7" y="-20" height="240"><mask id="mask-2026-01-24"><rect x="0" y="203.88659793814432" width="16" height="1.1134020618556701" fill="white" rx="5"></rect></mask><rect rx="5" ry="5" x="0" y="25" width="16" height="180" fill="#ddd"></rect><rect mask="url(#mask-2026-01-24)" width="16" fill="#b276b2" y="203.88659793814432" x="0" height="1.1134020618556701px"></rect><text transform="rotate(90, 4, 138.88659793814432)" letter-spacing="5" y="138.88659793814432" x="4" rotate="-90" class="xp-txt">24 XP</text></svg><text x="2" y="198" class="subtitle">Jan</text><text x="6" y="214" class="subtitle">24</text></g><g transform="translate(80, 0)"><svg x="7" y="-20" height="240"><mask id="mask-2026-01-25"><rect x="0" y="161.02061855670104" width="16" height="43.97938144329897" fill="white" rx="5"></rect></mask><rect rx="5" ry="5" x="0" y="25" width="16" height="180" fill="#ddd"></rect><rect mask="url(#mask-2026-01-25)" width="16" fill="#083fa1" y="204.67525773195877" x="0" height="0.3247422680412371px"></rect><rect mask="url(#mask-2026-01-25)" width="16" fill="#3e4053" y="204.58247422680412" x="0" height="0.09278350515463918px"></rect><rect mask="url(#mask-2026-01-25)" width="16" fill="#3e4053" y="199.15463917525773" x="0" height="5.427835051546392px"></rect><rect mask="url(#mask-2026-01-25)" width="16" fill="#cb171e" y="193.03092783505156" x="0" height="6.123711340206185px"></rect><rect mask="url(#mask-2026-01-25)" width="16" fill="#3e4053" y="188.99484536082474" x="0" height="4.036082474226804px"></rect><rect mask="url(#mask-2026-01-25)" width="16" fill="#b276b2" y="161.02061855670104" x="0" height="27.97422680412371px"></rect><text transform="rotate(90, 4, 83.02061855670104)" letter-spacing="5" y="83.02061855670104" x="4" rotate="-90" class="xp-txt">948 XP</text></svg><text x="2" y="198" class="subtitle">Jan</text><text x="6" y="214" class="subtitle">25</text></g><g transform="translate(120, 0)"><svg x="7" y="-20" height="240"><mask id="mask-2026-01-26"><rect x="0" y="78.11855670103093" width="16" height="126.88144329896907" fill="white" rx="5"></rect></mask><rect rx="5" ry="5" x="0" y="25" width="16" height="180" fill="#ddd"></rect><rect mask="url(#mask-2026-01-26)" width="16" fill="#083fa1" y="96.11855670103093" x="0" height="108.88144329896907px"></rect><rect mask="url(#mask-2026-01-26)" width="16" fill="#3e4053" y="88.9742268041237" x="0" height="7.144329896907217px"></rect><rect mask="url(#mask-2026-01-26)" width="16" fill="#b276b2" y="78.11855670103093" x="0" height="10.855670103092784px"></rect><text transform="rotate(90, 4, 94.11855670103093)" letter-spacing="5" y="94.11855670103093" x="4" rotate="-90" class="xp-txt xp-txt-invert">2735 XP</text></svg><text x="2" y="198" class="subtitle">Jan</text><text x="6" y="214" class="subtitle">26</text></g><g transform="translate(160, 0)"><svg x="7" y="-20" height="240"><mask id="mask-2026-01-27"><rect x="0" y="118.43298969072166" width="16" height="86.56701030927834" fill="white" rx="5"></rect></mask><rect rx="5" ry="5" x="0" y="25" width="16" height="180" fill="#ddd"></rect><rect mask="url(#mask-2026-01-27)" width="16" fill="#3572A5" y="203.56185567010309" x="0" height="1.4381443298969072px"></rect><rect mask="url(#mask-2026-01-27)" width="16" fill="#3e4053" y="169.13917525773195" x="0" height="34.422680412371136px"></rect><rect mask="url(#mask-2026-01-27)" width="16" fill="#3e4053" y="164.96391752577318" x="0" height="4.175257731958763px"></rect><rect mask="url(#mask-2026-01-27)" width="16" fill="#3e4053" y="134.4381443298969" x="0" height="30.52577319587629px"></rect><rect mask="url(#mask-2026-01-27)" width="16" fill="#cb171e" y="118.43298969072166" x="0" height="16.00515463917526px"></rect><text transform="rotate(90, 4, 134.43298969072166)" letter-spacing="5" y="134.43298969072166" x="4" rotate="-90" class="xp-txt xp-txt-invert">1866 XP</text></svg><text x="2" y="198" class="subtitle">Jan</text><text x="6" y="214" class="subtitle">27</text></g><g transform="translate(200, 0)"><svg x="7" y="-20" height="240"><mask id="mask-2026-01-28"><rect x="0" y="99.04123711340206" width="16" height="105.95876288659794" fill="white" rx="5"></rect></mask><rect rx="5" ry="5" x="0" y="25" width="16" height="180" fill="#ddd"></rect><rect mask="url(#mask-2026-01-28)" width="16" fill="#083fa1" y="199.66494845360825" x="0" height="5.335051546391752px"></rect><rect mask="url(#mask-2026-01-28)" width="16" fill="#f34b7d" y="107.6701030927835" x="0" height="91.99484536082474px"></rect><rect mask="url(#mask-2026-01-28)" width="16" fill="#3e4053" y="106.27835051546391" x="0" height="1.3917525773195876px"></rect><rect mask="url(#mask-2026-01-28)" width="16" fill="#b276b2" y="99.04123711340206" x="0" height="7.237113402061856px"></rect><text transform="rotate(90, 4, 115.04123711340206)" letter-spacing="5" y="115.04123711340206" x="4" rotate="-90" class="xp-txt xp-txt-invert">2284 XP</text></svg><text x="2" y="198" class="subtitle">Jan</text><text x="6" y="214" class="subtitle">28</text></g><g transform="translate(240, 0)"><svg x="7" y="-20" height="240"><mask id="mask-2026-01-29"><rect x="0" y="161.94845360824743" width="16" height="43.05154639175258" fill="white" rx="5"></rect></mask><rect rx="5" ry="5" x="0" y="25" width="16" height="180" fill="#ddd"></rect><rect mask="url(#mask-2026-01-29)" width="16" fill="#083fa1" y="165.1958762886598" x="0" height="39.8041237113402px"></rect><rect mask="url(#mask-2026-01-29)" width="16" fill="#3e4053" y="162.27319587628867" x="0" height="2.922680412371134px"></rect><rect mask="url(#mask-2026-01-29)" width="16" fill="#b276b2" y="161.94845360824743" x="0" height="0.3247422680412371px"></rect><text transform="rotate(90, 4, 83.94845360824743)" letter-spacing="5" y="83.94845360824743" x="4" rotate="-90" class="xp-txt">928 XP</text></svg><text x="2" y="198" class="subtitle">Jan</text><text x="6" y="214" class="subtitle">29</text></g><g transform="translate(280, 0)"><svg x="7" y="-20" height="240"><mask id="mask-2026-02-01"><rect x="0" y="205" width="16" height="0" fill="white" rx="5"></rect></mask><rect rx="5" ry="5" x="0" y="25" width="16" height="180" fill="#ddd"></rect><text transform="rotate(90, 4, 153)" letter-spacing="5" y="153" x="4" rotate="-90" class="xp-txt">0 XP</text></svg><text x="2" y="198" class="subtitle">Feb</text><text x="6" y="214" class="subtitle">01</text></g><g transform="translate(320, 0)"><svg x="7" y="-20" height="240"><mask id="mask-2026-02-02"><rect x="0" y="25" width="16" height="180" fill="white" rx="5"></rect></mask><rect rx="5" ry="5" x="0" y="25" width="16" height="180" fill="#ddd"></rect><rect mask="url(#mask-2026-02-02)" width="16" fill="#3572A5" y="90.73711340206185" x="0" height="114.26288659793815px"></rect><rect mask="url(#mask-2026-02-02)" width="16" fill="#3e4053" y="56.871134020618555" x="0" height="33.865979381443296px"></rect><rect mask="url(#mask-2026-02-02)" width="16" fill="#3e4053" y="47.360824742268036" x="0" height="9.510309278350515px"></rect><rect mask="url(#mask-2026-02-02)" width="16" fill="#3e4053" y="45.829896907216494" x="0" height="1.5309278350515463px"></rect><rect mask="url(#mask-2026-02-02)" width="16" fill="#b276b2" y="25" x="0" height="20.829896907216494px"></rect><text transform="rotate(90, 4, 41)" letter-spacing="5" y="41" x="4" rotate="-90" class="xp-txt xp-txt-invert">3880 XP</text></svg><text x="2" y="198" class="subtitle">Feb</text><text x="6" y="214" class="subtitle">02</text></g><g transform="translate(360, 0)"><svg x="7" y="-20" height="240"><mask id="mask-2026-02-03"><rect x="0" y="159.48969072164948" width="16" height="45.51030927835052" fill="white" rx="5"></rect></mask><rect rx="5" ry="5" x="0" y="25" width="16" height="180" fill="#ddd"></rect><rect mask="url(#mask-2026-02-03)" width="16" fill="#083fa1" y="204.90721649484536" x="0" height="0.09278350515463918px"></rect><rect mask="url(#mask-2026-02-03)" width="16" fill="#3572A5" y="171.7835051546392" x="0" height="33.123711340206185px"></rect><rect mask="url(#mask-2026-02-03)" width="16" fill="#3e4053" y="170.39175257731958" x="0" height="1.3917525773195876px"></rect><rect mask="url(#mask-2026-02-03)" width="16" fill="#3e4053" y="162.41237113402062" x="0" height="7.979381443298969px"></rect><rect mask="url(#mask-2026-02-03)" width="16" fill="#cb171e" y="162.31958762886597" x="0" height="0.09278350515463918px"></rect><rect mask="url(#mask-2026-02-03)" width="16" fill="#b276b2" y="159.48969072164948" x="0" height="2.829896907216495px"></rect><text transform="rotate(90, 4, 81.48969072164948)" letter-spacing="5" y="81.48969072164948" x="4" rotate="-90" class="xp-txt">981 XP</text></svg><text x="2" y="198" class="subtitle">Feb</text><text x="6" y="214" class="subtitle">03</text></g><g transform="translate(400, 0)"><svg x="7" y="-20" height="240"><mask id="mask-2026-02-04"><rect x="0" y="192.38144329896906" width="16" height="12.618556701030927" fill="white" rx="5"></rect></mask><rect rx="5" ry="5" x="0" y="25" width="16" height="180" fill="#ddd"></rect><rect mask="url(#mask-2026-02-04)" width="16" fill="#f34b7d" y="194.00515463917526" x="0" height="10.994845360824742px"></rect><rect mask="url(#mask-2026-02-04)" width="16" fill="#3e4053" y="192.56701030927834" x="0" height="1.4381443298969072px"></rect><rect mask="url(#mask-2026-02-04)" width="16" fill="#b276b2" y="192.38144329896906" x="0" height="0.18556701030927836px"></rect><text transform="rotate(90, 4, 114.38144329896906)" letter-spacing="5" y="114.38144329896906" x="4" rotate="-90" class="xp-txt">272 XP</text></svg><text x="2" y="198" class="subtitle">Feb</text><text x="6" y="214" class="subtitle">04</text></g><g transform="translate(440, 0)"><svg x="7" y="-20" height="240"><mask id="mask-2026-02-05"><rect x="0" y="144.45876288659792" width="16" height="60.54123711340206" fill="white" rx="5"></rect></mask><rect rx="5" ry="5" x="0" y="25" width="16" height="180" fill="#ddd"></rect><rect mask="url(#mask-2026-02-05)" width="16" fill="#083fa1" y="199.71134020618555" x="0" height="5.288659793814433px"></rect><rect mask="url(#mask-2026-02-05)" width="16" fill="#f34b7d" y="149.5618556701031" x="0" height="50.149484536082475px"></rect><rect mask="url(#mask-2026-02-05)" width="16" fill="#3e4053" y="148.49484536082474" x="0" height="1.0670103092783505px"></rect><rect mask="url(#mask-2026-02-05)" width="16" fill="#b276b2" y="144.45876288659792" x="0" height="4.036082474226804px"></rect><text transform="rotate(90, 4, 53.458762886597924)" letter-spacing="5" y="53.458762886597924" x="4" rotate="-90" class="xp-txt">1305 XP</text></svg><text x="2" y="198" class="subtitle">Feb</text><text x="6" y="214" class="subtitle">05</text></g></g><g transform="translate(536, 0)"><g transform="translate(0, 0)"><rect rx="5" x="2" y="7" height="12" width="12" fill="#083fa1"></rect><text x="18" y="18" class="lang-name">Markdown</text></g><g transform="translate(0, 20)"><rect rx="5" x="2" y="7" height="12" width="12" fill="#f34b7d"></rect><text x="18" y="18" class="lang-name">C++</text></g><g transform="translate(0, 40)"><rect rx="5" x="2" y="7" height="12" width="12" fill="#3572A5"></rect><text x="18" y="18" class="lang-name">Python</text></g><g transform="translate(0, 60)"><rect rx="5" x="2" y="7" height="12" width="12" fill="#3e4053"></rect><text x="18" y="18" class="lang-name">Shell Script</text></g><g transform="translate(0, 80)"><rect rx="5" x="2" y="7" height="12" width="12" fill="#3e4053"></rect><text x="18" y="18" class="lang-name">VS Code Input</text></g><g transform="translate(0, 100)"><rect rx="5" x="2" y="7" height="12" width="12" fill="#3e4053"></rect><text x="18" y="18" class="lang-name">CSV</text></g><g transform="translate(0, 120)"><rect rx="5" x="2" y="7" height="12" width="12" fill="#cb171e"></rect><text x="18" y="18" class="lang-name">YAML</text></g><g transform="translate(0, 140)"><rect rx="5" x="2" y="7" height="12" width="12" fill="#3e4053"></rect><text x="18" y="18" class="lang-name">DotEnv</text></g><g transform="translate(0, 160)"><rect rx="5" x="2" y="7" height="12" width="12" fill="#3e4053"></rect><text x="18" y="18" class="lang-name">Other</text></g></g></svg></g></svg>