<svg width="785" height="300" viewBox="0 0 785 300" fill="none" xmlns="http://www.w3.org/2000/svg"><style>
					.header {
						font: 600 18px &#x27;Segoe UI&#x27;, Ubuntu, Sans-Serif;
						fill: #3d858f;
						animation: fadeInAnimation 0.8s ease-in-out forwards;
					}
					
	.lang-name {
		font: 400 16px &#x27;Segoe UI&#x27;, Ubuntu, Sans-Serif;
		fill: #ffffffcc;
	}
	.xp-txt {
		font: 400 12px &#x27;Segoe UI&#x27;, Ubuntu, Sans-Serif;
		fill: black;
	}
	.xp-txt-invert {
		font: 600 12px &#x27;Segoe UI&#x27;, Ubuntu, Sans-Serif;
		fill: white;
	}
	.subtitle {
		font: 400 14px &#x27;Segoe UI&#x27;, Ubuntu, Sans-Serif;
		fill: #ffffffcc;
	}


					/* Animations */
					@keyframes scaleInAnimation {
						from {
							transform: translate(-5px, 5px) scale(0);
						}
						to {
							transform: translate(-5px, 5px) scale(1);
						}
					}
					@keyframes fadeInAnimation {
						from {
							opacity: 0;
						}
						to {
							opacity: 1;
						}
					}
				</style><rect x="0.5" y="0.5" rx="4.5" height="99%" stroke="#E4E2E2" width="784" fill="#151515" stroke-opacity="0"></rect><g transform="translate(25, 35)"><g transform="translate(0, 0)"><text x="0" y="0" class="header">Coding History of the last two weeks</text></g></g><g transform="translate(0, 55)"><svg x="25"><g transform="translate(0, 0)"><g transform="translate(0, 0)"><svg x="7" y="-20" height="240"><mask id="mask-2023-09-30"><rect x="0" y="106.93436960276338" width="16" height="98.06563039723662" fill="white" rx="5"></rect></mask><rect rx="5" ry="5" x="0" y="25" width="16" height="180" fill="#ddd"></rect><rect mask="url(#mask-2023-09-30)" width="16" fill="#083fa1" y="174.87910189982728" x="0" height="30.120898100172713px"></rect><rect mask="url(#mask-2023-09-30)" width="16" fill="#cb171e" y="149.90500863557858" x="0" height="24.974093264248705px"></rect><rect mask="url(#mask-2023-09-30)" width="16" fill="#2b7489" y="135.53540587219345" x="0" height="14.369602763385148px"></rect><rect mask="url(#mask-2023-09-30)" width="16" fill="#b276b2" y="106.93436960276338" x="0" height="28.60103626943005px"></rect><text transform="rotate(90, 4, 122.93436960276338)" letter-spacing="5" y="122.93436960276338" x="4" rotate="-90" class="xp-txt xp-txt-invert">2839 XP</text></svg><text x="2" y="198" class="subtitle">Sep</text><text x="6" y="214" class="subtitle">30</text></g><g transform="translate(40, 0)"><svg x="7" y="-20" height="240"><mask id="mask-2023-10-01"><rect x="0" y="205" width="16" height="0" fill="white" rx="5"></rect></mask><rect rx="5" ry="5" x="0" y="25" width="16" height="180" fill="#ddd"></rect><text transform="rotate(90, 4, 153)" letter-spacing="5" y="153" x="4" rotate="-90" class="xp-txt">0 XP</text></svg><text x="2" y="198" class="subtitle">Oct</text><text x="6" y="214" class="subtitle">01</text></g><g transform="translate(80, 0)"><svg x="7" y="-20" height="240"><mask id="mask-2023-10-02"><rect x="0" y="25" width="16" height="180" fill="white" rx="5"></rect></mask><rect rx="5" ry="5" x="0" y="25" width="16" height="180" fill="#ddd"></rect><rect mask="url(#mask-2023-10-02)" width="16" fill="#083fa1" y="174.49913644214163" x="0" height="30.500863557858377px"></rect><rect mask="url(#mask-2023-10-02)" width="16" fill="#00ADD8" y="173.01381692573403" x="0" height="1.4853195164075994px"></rect><rect mask="url(#mask-2023-10-02)" width="16" fill="#3572A5" y="131.5284974093264" x="0" height="41.4853195164076px"></rect><rect mask="url(#mask-2023-10-02)" width="16" fill="#3e4053" y="100.92400690846287" x="0" height="30.60449050086356px"></rect><rect mask="url(#mask-2023-10-02)" width="16" fill="#b276b2" y="25" x="0" height="75.92400690846287px"></rect><text transform="rotate(90, 4, 41)" letter-spacing="5" y="41" x="4" rotate="-90" class="xp-txt xp-txt-invert">5211 XP</text></svg><text x="2" y="198" class="subtitle">Oct</text><text x="6" y="214" class="subtitle">02</text></g><g transform="translate(120, 0)"><svg x="7" y="-20" height="240"><mask id="mask-2023-10-03"><rect x="0" y="133.9810017271157" width="16" height="71.01899827288429" fill="white" rx="5"></rect></mask><rect rx="5" ry="5" x="0" y="25" width="16" height="180" fill="#ddd"></rect><rect mask="url(#mask-2023-10-03)" width="16" fill="#00ADD8" y="142.99654576856648" x="0" height="62.00345423143351px"></rect><rect mask="url(#mask-2023-10-03)" width="16" fill="#b276b2" y="133.9810017271157" x="0" height="9.015544041450777px"></rect><text transform="rotate(90, 4, 42.98100172711571)" letter-spacing="5" y="42.98100172711571" x="4" rotate="-90" class="xp-txt">2056 XP</text></svg><text x="2" y="198" class="subtitle">Oct</text><text x="6" y="214" class="subtitle">03</text></g><g transform="translate(160, 0)"><svg x="7" y="-20" height="240"><mask id="mask-2023-10-04"><rect x="0" y="205" width="16" height="0" fill="white" rx="5"></rect></mask><rect rx="5" ry="5" x="0" y="25" width="16" height="180" fill="#ddd"></rect><text transform="rotate(90, 4, 153)" letter-spacing="5" y="153" x="4" rotate="-90" class="xp-txt">0 XP</text></svg><text x="2" y="198" class="subtitle">Oct</text><text x="6" y="214" class="subtitle">04</text></g><g transform="translate(200, 0)"><svg x="7" y="-20" height="240"><mask id="mask-2023-10-05"><rect x="0" y="156.12262521588946" width="16" height="48.877374784110536" fill="white" rx="5"></rect></mask><rect rx="5" ry="5" x="0" y="25" width="16" height="180" fill="#ddd"></rect><rect mask="url(#mask-2023-10-05)" width="16" fill="#00ADD8" y="168.9378238341969" x="0" height="36.06217616580311px"></rect><rect mask="url(#mask-2023-10-05)" width="16" fill="#b276b2" y="156.12262521588946" x="0" height="12.815198618307427px"></rect><text transform="rotate(90, 4, 65.12262521588946)" letter-spacing="5" y="65.12262521588946" x="4" rotate="-90" class="xp-txt">1415 XP</text></svg><text x="2" y="198" class="subtitle">Oct</text><text x="6" y="214" class="subtitle">05</text></g><g transform="translate(240, 0)"><svg x="7" y="-20" height="240"><mask id="mask-2023-10-06"><rect x="0" y="85.75993091537133" width="16" height="119.24006908462867" fill="white" rx="5"></rect></mask><rect rx="5" ry="5" x="0" y="25" width="16" height="180" fill="#ddd"></rect><rect mask="url(#mask-2023-10-06)" width="16" fill="#dea584" y="117.46977547495682" x="0" height="87.53022452504318px"></rect><rect mask="url(#mask-2023-10-06)" width="16" fill="#b276b2" y="85.75993091537133" x="0" height="31.70984455958549px"></rect><text transform="rotate(90, 4, 101.75993091537133)" letter-spacing="5" y="101.75993091537133" x="4" rotate="-90" class="xp-txt xp-txt-invert">3452 XP</text></svg><text x="2" y="198" class="subtitle">Oct</text><text x="6" y="214" class="subtitle">06</text></g><g transform="translate(280, 0)"><svg x="7" y="-20" height="240"><mask id="mask-2023-10-07"><rect x="0" y="134.22279792746116" width="16" height="70.77720207253886" fill="white" rx="5"></rect></mask><rect rx="5" ry="5" x="0" y="25" width="16" height="180" fill="#ddd"></rect><rect mask="url(#mask-2023-10-07)" width="16" fill="#dea584" y="186.5544041450777" x="0" height="18.44559585492228px"></rect><rect mask="url(#mask-2023-10-07)" width="16" fill="#3572A5" y="184.27461139896374" x="0" height="2.2797927461139897px"></rect><rect mask="url(#mask-2023-10-07)" width="16" fill="#b07219" y="174.81001727115716" x="0" height="9.464594127806564px"></rect><rect mask="url(#mask-2023-10-07)" width="16" fill="#b276b2" y="134.22279792746116" x="0" height="40.58721934369603px"></rect><text transform="rotate(90, 4, 43.22279792746116)" letter-spacing="5" y="43.22279792746116" x="4" rotate="-90" class="xp-txt">2049 XP</text></svg><text x="2" y="198" class="subtitle">Oct</text><text x="6" y="214" class="subtitle">07</text></g><g transform="translate(320, 0)"><svg x="7" y="-20" height="240"><mask id="mask-2023-10-08"><rect x="0" y="167.48704663212436" width="16" height="37.512953367875646" fill="white" rx="5"></rect></mask><rect rx="5" ry="5" x="0" y="25" width="16" height="180" fill="#ddd"></rect><rect mask="url(#mask-2023-10-08)" width="16" fill="#dea584" y="186.96891191709844" x="0" height="18.031088082901555px"></rect><rect mask="url(#mask-2023-10-08)" width="16" fill="#b07219" y="176.8134715025907" x="0" height="10.155440414507773px"></rect><rect mask="url(#mask-2023-10-08)" width="16" fill="#b276b2" y="167.48704663212436" x="0" height="9.32642487046632px"></rect><text transform="rotate(90, 4, 76.48704663212436)" letter-spacing="5" y="76.48704663212436" x="4" rotate="-90" class="xp-txt">1086 XP</text></svg><text x="2" y="198" class="subtitle">Oct</text><text x="6" y="214" class="subtitle">08</text></g><g transform="translate(360, 0)"><svg x="7" y="-20" height="240"><mask id="mask-2023-10-09"><rect x="0" y="141.58031088082902" width="16" height="63.41968911917098" fill="white" rx="5"></rect></mask><rect rx="5" ry="5" x="0" y="25" width="16" height="180" fill="#ddd"></rect><rect mask="url(#mask-2023-10-09)" width="16" fill="#083fa1" y="203.6183074265976" x="0" height="1.381692573402418px"></rect><rect mask="url(#mask-2023-10-09)" width="16" fill="#3572A5" y="177.81519861830742" x="0" height="25.803108808290155px"></rect><rect mask="url(#mask-2023-10-09)" width="16" fill="#b276b2" y="141.58031088082902" x="0" height="36.23488773747841px"></rect><text transform="rotate(90, 4, 50.58031088082902)" letter-spacing="5" y="50.58031088082902" x="4" rotate="-90" class="xp-txt">1836 XP</text></svg><text x="2" y="198" class="subtitle">Oct</text><text x="6" y="214" class="subtitle">09</text></g><g transform="translate(400, 0)"><svg x="7" y="-20" height="240"><mask id="mask-2023-10-10"><rect x="0" y="178.57512953367876" width="16" height="26.424870466321245" fill="white" rx="5"></rect></mask><rect rx="5" ry="5" x="0" y="25" width="16" height="180" fill="#ddd"></rect><rect mask="url(#mask-2023-10-10)" width="16" fill="#3572A5" y="204.2055267702936" x="0" height="0.7944732297063903px"></rect><rect mask="url(#mask-2023-10-10)" width="16" fill="#b276b2" y="178.57512953367876" x="0" height="25.630397236614854px"></rect><text transform="rotate(90, 4, 100.57512953367876)" letter-spacing="5" y="100.57512953367876" x="4" rotate="-90" class="xp-txt">765 XP</text></svg><text x="2" y="198" class="subtitle">Oct</text><text x="6" y="214" class="subtitle">10</text></g><g transform="translate(440, 0)"><svg x="7" y="-20" height="240"><mask id="mask-2023-10-11"><rect x="0" y="202.23661485319516" width="16" height="2.763385146804836" fill="white" rx="5"></rect></mask><rect rx="5" ry="5" x="0" y="25" width="16" height="180" fill="#ddd"></rect><rect mask="url(#mask-2023-10-11)" width="16" fill="#b276b2" y="202.23661485319516" x="0" height="2.763385146804836px"></rect><text transform="rotate(90, 4, 137.23661485319516)" letter-spacing="5" y="137.23661485319516" x="4" rotate="-90" class="xp-txt">80 XP</text></svg><text x="2" y="198" class="subtitle">Oct</text><text x="6" y="214" class="subtitle">11</text></g><g transform="translate(480, 0)"><svg x="7" y="-20" height="240"><mask id="mask-2023-10-12"><rect x="0" y="63.41105354058722" width="16" height="141.58894645941277" fill="white" rx="5"></rect></mask><rect rx="5" ry="5" x="0" y="25" width="16" height="180" fill="#ddd"></rect><rect mask="url(#mask-2023-10-12)" width="16" fill="#083fa1" y="79.57685664939551" x="0" height="125.42314335060449px"></rect><rect mask="url(#mask-2023-10-12)" width="16" fill="#b276b2" y="63.41105354058722" x="0" height="16.16580310880829px"></rect><text transform="rotate(90, 4, 79.41105354058722)" letter-spacing="5" y="79.41105354058722" x="4" rotate="-90" class="xp-txt xp-txt-invert">4099 XP</text></svg><text x="2" y="198" class="subtitle">Oct</text><text x="6" y="214" class="subtitle">12</text></g></g><g transform="translate(568, 0)"><g transform="translate(0, 0)"><rect rx="5" x="2" y="7" height="12" width="12" fill="#083fa1"></rect><text x="18" y="18" class="lang-name">Markdown</text></g><g transform="translate(0, 20)"><rect rx="5" x="2" y="7" height="12" width="12" fill="#dea584"></rect><text x="18" y="18" class="lang-name">Rust</text></g><g transform="translate(0, 40)"><rect rx="5" x="2" y="7" height="12" width="12" fill="#00ADD8"></rect><text x="18" y="18" class="lang-name">Go</text></g><g transform="translate(0, 60)"><rect rx="5" x="2" y="7" height="12" width="12" fill="#3572A5"></rect><text x="18" y="18" class="lang-name">Python</text></g><g transform="translate(0, 80)"><rect rx="5" x="2" y="7" height="12" width="12" fill="#3e4053"></rect><text x="18" y="18" class="lang-name">Docker</text></g><g transform="translate(0, 100)"><rect rx="5" x="2" y="7" height="12" width="12" fill="#cb171e"></rect><text x="18" y="18" class="lang-name">YAML</text></g><g transform="translate(0, 120)"><rect rx="5" x="2" y="7" height="12" width="12" fill="#b07219"></rect><text x="18" y="18" class="lang-name">Java</text></g><g transform="translate(0, 140)"><rect rx="5" x="2" y="7" height="12" width="12" fill="#2b7489"></rect><text x="18" y="18" class="lang-name">TypeScript</text></g><g transform="translate(0, 160)"><rect rx="5" x="2" y="7" height="12" width="12" fill="#3e4053"></rect><text x="18" y="18" class="lang-name">Other</text></g></g></svg></g></svg>