<svg width="825" height="300" viewBox="0 0 825 300" fill="none" xmlns="http://www.w3.org/2000/svg"><style>
					.header {
						font: 600 18px &#x27;Segoe UI&#x27;, Ubuntu, Sans-Serif;
						fill: #3d858f;
						animation: fadeInAnimation 0.8s ease-in-out forwards;
					}
					
	.lang-name {
		font: 400 16px &#x27;Segoe UI&#x27;, Ubuntu, Sans-Serif;
		fill: #ffffffcc;
	}
	.xp-txt {
		font: 400 12px &#x27;Segoe UI&#x27;, Ubuntu, Sans-Serif;
		fill: black;
	}
	.xp-txt-invert {
		font: 600 12px &#x27;Segoe UI&#x27;, Ubuntu, Sans-Serif;
		fill: white;
	}
	.subtitle {
		font: 400 14px &#x27;Segoe UI&#x27;, Ubuntu, Sans-Serif;
		fill: #ffffffcc;
	}


					/* Animations */
					@keyframes scaleInAnimation {
						from {
							transform: translate(-5px, 5px) scale(0);
						}
						to {
							transform: translate(-5px, 5px) scale(1);
						}
					}
					@keyframes fadeInAnimation {
						from {
							opacity: 0;
						}
						to {
							opacity: 1;
						}
					}
				</style><rect x="0.5" y="0.5" rx="4.5" height="99%" stroke="#E4E2E2" width="824" fill="#151515" stroke-opacity="0"></rect><g transform="translate(25, 35)"><g transform="translate(0, 0)"><text x="0" y="0" class="header">Coding History of the last two weeks</text></g></g><g transform="translate(0, 55)"><svg x="25"><g transform="translate(0, 0)"><g transform="translate(0, 0)"><svg x="7" y="-20" height="240"><mask id="mask-2023-10-20"><rect x="0" y="151.89256198347107" width="16" height="53.107438016528924" fill="white" rx="5"></rect></mask><rect rx="5" ry="5" x="0" y="25" width="16" height="180" fill="#ddd"></rect><rect mask="url(#mask-2023-10-20)" width="16" fill="#083fa1" y="173.31404958677686" x="0" height="31.68595041322314px"></rect><rect mask="url(#mask-2023-10-20)" width="16" fill="#b276b2" y="151.89256198347107" x="0" height="21.421487603305785px"></rect><text transform="rotate(90, 4, 73.89256198347107)" letter-spacing="5" y="73.89256198347107" x="4" rotate="-90" class="xp-txt">714 XP</text></svg><text x="2" y="198" class="subtitle">Oct</text><text x="6" y="214" class="subtitle">20</text></g><g transform="translate(40, 0)"><svg x="7" y="-20" height="240"><mask id="mask-2023-10-21"><rect x="0" y="203.73553719008265" width="16" height="1.2644628099173554" fill="white" rx="5"></rect></mask><rect rx="5" ry="5" x="0" y="25" width="16" height="180" fill="#ddd"></rect><rect mask="url(#mask-2023-10-21)" width="16" fill="#b276b2" y="203.73553719008265" x="0" height="1.2644628099173554px"></rect><text transform="rotate(90, 4, 138.73553719008265)" letter-spacing="5" y="138.73553719008265" x="4" rotate="-90" class="xp-txt">17 XP</text></svg><text x="2" y="198" class="subtitle">Oct</text><text x="6" y="214" class="subtitle">21</text></g><g transform="translate(80, 0)"><svg x="7" y="-20" height="240"><mask id="mask-2023-10-22"><rect x="0" y="198.900826446281" width="16" height="6.099173553719008" fill="white" rx="5"></rect></mask><rect rx="5" ry="5" x="0" y="25" width="16" height="180" fill="#ddd"></rect><rect mask="url(#mask-2023-10-22)" width="16" fill="#b276b2" y="198.900826446281" x="0" height="6.099173553719008px"></rect><text transform="rotate(90, 4, 133.900826446281)" letter-spacing="5" y="133.900826446281" x="4" rotate="-90" class="xp-txt">82 XP</text></svg><text x="2" y="198" class="subtitle">Oct</text><text x="6" y="214" class="subtitle">22</text></g><g transform="translate(120, 0)"><svg x="7" y="-20" height="240"><mask id="mask-2023-10-23"><rect x="0" y="130.76859504132233" width="16" height="74.23140495867769" fill="white" rx="5"></rect></mask><rect rx="5" ry="5" x="0" y="25" width="16" height="180" fill="#ddd"></rect><rect mask="url(#mask-2023-10-23)" width="16" fill="#b276b2" y="130.76859504132233" x="0" height="74.23140495867769px"></rect><text transform="rotate(90, 4, 52.76859504132233)" letter-spacing="5" y="52.76859504132233" x="4" rotate="-90" class="xp-txt">998 XP</text></svg><text x="2" y="198" class="subtitle">Oct</text><text x="6" y="214" class="subtitle">23</text></g><g transform="translate(160, 0)"><svg x="7" y="-20" height="240"><mask id="mask-2023-10-24"><rect x="0" y="97.29752066115702" width="16" height="107.70247933884298" fill="white" rx="5"></rect></mask><rect rx="5" ry="5" x="0" y="25" width="16" height="180" fill="#ddd"></rect><rect mask="url(#mask-2023-10-24)" width="16" fill="#3572A5" y="163.4214876033058" x="0" height="41.578512396694215px"></rect><rect mask="url(#mask-2023-10-24)" width="16" fill="#b276b2" y="97.29752066115702" x="0" height="66.12396694214875px"></rect><text transform="rotate(90, 4, 113.29752066115702)" letter-spacing="5" y="113.29752066115702" x="4" rotate="-90" class="xp-txt xp-txt-invert">1448 XP</text></svg><text x="2" y="198" class="subtitle">Oct</text><text x="6" y="214" class="subtitle">24</text></g><g transform="translate(200, 0)"><svg x="7" y="-20" height="240"><mask id="mask-2023-10-25"><rect x="0" y="95.88429752066116" width="16" height="109.11570247933884" fill="white" rx="5"></rect></mask><rect rx="5" ry="5" x="0" y="25" width="16" height="180" fill="#ddd"></rect><rect mask="url(#mask-2023-10-25)" width="16" fill="#b276b2" y="95.88429752066116" x="0" height="109.11570247933884px"></rect><text transform="rotate(90, 4, 111.88429752066116)" letter-spacing="5" y="111.88429752066116" x="4" rotate="-90" class="xp-txt xp-txt-invert">1467 XP</text></svg><text x="2" y="198" class="subtitle">Oct</text><text x="6" y="214" class="subtitle">25</text></g><g transform="translate(240, 0)"><svg x="7" y="-20" height="240"><mask id="mask-2023-10-26"><rect x="0" y="53.1900826446281" width="16" height="151.8099173553719" fill="white" rx="5"></rect></mask><rect rx="5" ry="5" x="0" y="25" width="16" height="180" fill="#ddd"></rect><rect mask="url(#mask-2023-10-26)" width="16" fill="#00ADD8" y="112.6198347107438" x="0" height="92.3801652892562px"></rect><rect mask="url(#mask-2023-10-26)" width="16" fill="#083fa1" y="102.65289256198348" x="0" height="9.96694214876033px"></rect><rect mask="url(#mask-2023-10-26)" width="16" fill="#b276b2" y="53.1900826446281" x="0" height="49.46280991735537px"></rect><text transform="rotate(90, 4, 69.19008264462809)" letter-spacing="5" y="69.19008264462809" x="4" rotate="-90" class="xp-txt xp-txt-invert">2041 XP</text></svg><text x="2" y="198" class="subtitle">Oct</text><text x="6" y="214" class="subtitle">26</text></g><g transform="translate(280, 0)"><svg x="7" y="-20" height="240"><mask id="mask-2023-10-27"><rect x="0" y="205" width="16" height="0" fill="white" rx="5"></rect></mask><rect rx="5" ry="5" x="0" y="25" width="16" height="180" fill="#ddd"></rect><text transform="rotate(90, 4, 153)" letter-spacing="5" y="153" x="4" rotate="-90" class="xp-txt">0 XP</text></svg><text x="2" y="198" class="subtitle">Oct</text><text x="6" y="214" class="subtitle">27</text></g><g transform="translate(320, 0)"><svg x="7" y="-20" height="240"><mask id="mask-2023-10-28"><rect x="0" y="25" width="16" height="180" fill="white" rx="5"></rect></mask><rect rx="5" ry="5" x="0" y="25" width="16" height="180" fill="#ddd"></rect><rect mask="url(#mask-2023-10-28)" width="16" fill="#b276b2" y="25" x="0" height="180px"></rect><text transform="rotate(90, 4, 41)" letter-spacing="5" y="41" x="4" rotate="-90" class="xp-txt xp-txt-invert">2420 XP</text></svg><text x="2" y="198" class="subtitle">Oct</text><text x="6" y="214" class="subtitle">28</text></g><g transform="translate(360, 0)"><svg x="7" y="-20" height="240"><mask id="mask-2023-10-29"><rect x="0" y="204.8512396694215" width="16" height="0.1487603305785124" fill="white" rx="5"></rect></mask><rect rx="5" ry="5" x="0" y="25" width="16" height="180" fill="#ddd"></rect><rect mask="url(#mask-2023-10-29)" width="16" fill="#b276b2" y="204.8512396694215" x="0" height="0.1487603305785124px"></rect><text transform="rotate(90, 4, 152.8512396694215)" letter-spacing="5" y="152.8512396694215" x="4" rotate="-90" class="xp-txt">2 XP</text></svg><text x="2" y="198" class="subtitle">Oct</text><text x="6" y="214" class="subtitle">29</text></g><g transform="translate(400, 0)"><svg x="7" y="-20" height="240"><mask id="mask-2023-10-30"><rect x="0" y="34" width="16" height="171" fill="white" rx="5"></rect></mask><rect rx="5" ry="5" x="0" y="25" width="16" height="180" fill="#ddd"></rect><rect mask="url(#mask-2023-10-30)" width="16" fill="#3572A5" y="204.25619834710744" x="0" height="0.743801652892562px"></rect><rect mask="url(#mask-2023-10-30)" width="16" fill="#083fa1" y="162.97520661157026" x="0" height="41.28099173553719px"></rect><rect mask="url(#mask-2023-10-30)" width="16" fill="#a270ba" y="94.6198347107438" x="0" height="68.35537190082644px"></rect><rect mask="url(#mask-2023-10-30)" width="16" fill="#3e4053" y="92.9090909090909" x="0" height="1.7107438016528926px"></rect><rect mask="url(#mask-2023-10-30)" width="16" fill="#b276b2" y="34" x="0" height="58.90909090909091px"></rect><text transform="rotate(90, 4, 50)" letter-spacing="5" y="50" x="4" rotate="-90" class="xp-txt xp-txt-invert">2299 XP</text></svg><text x="2" y="198" class="subtitle">Oct</text><text x="6" y="214" class="subtitle">30</text></g><g transform="translate(440, 0)"><svg x="7" y="-20" height="240"><mask id="mask-2023-10-31"><rect x="0" y="191.31404958677686" width="16" height="13.685950413223141" fill="white" rx="5"></rect></mask><rect rx="5" ry="5" x="0" y="25" width="16" height="180" fill="#ddd"></rect><rect mask="url(#mask-2023-10-31)" width="16" fill="#b276b2" y="191.31404958677686" x="0" height="13.685950413223141px"></rect><text transform="rotate(90, 4, 113.31404958677686)" letter-spacing="5" y="113.31404958677686" x="4" rotate="-90" class="xp-txt">184 XP</text></svg><text x="2" y="198" class="subtitle">Oct</text><text x="6" y="214" class="subtitle">31</text></g><g transform="translate(480, 0)"><svg x="7" y="-20" height="240"><mask id="mask-2023-11-01"><rect x="0" y="205" width="16" height="0" fill="white" rx="5"></rect></mask><rect rx="5" ry="5" x="0" y="25" width="16" height="180" fill="#ddd"></rect><text transform="rotate(90, 4, 153)" letter-spacing="5" y="153" x="4" rotate="-90" class="xp-txt">0 XP</text></svg><text x="2" y="198" class="subtitle">Nov</text><text x="6" y="214" class="subtitle">01</text></g><g transform="translate(520, 0)"><svg x="7" y="-20" height="240"><mask id="mask-2023-11-02"><rect x="0" y="43.52066115702479" width="16" height="161.4793388429752" fill="white" rx="5"></rect></mask><rect rx="5" ry="5" x="0" y="25" width="16" height="180" fill="#ddd"></rect><rect mask="url(#mask-2023-11-02)" width="16" fill="#3572A5" y="107.26446280991736" x="0" height="97.73553719008264px"></rect><rect mask="url(#mask-2023-11-02)" width="16" fill="#083fa1" y="106.96694214876032" x="0" height="0.2975206611570248px"></rect><rect mask="url(#mask-2023-11-02)" width="16" fill="#3e4053" y="100.42148760330579" x="0" height="6.545454545454546px"></rect><rect mask="url(#mask-2023-11-02)" width="16" fill="#3e4053" y="100.12396694214875" x="0" height="0.2975206611570248px"></rect><rect mask="url(#mask-2023-11-02)" width="16" fill="#3e4053" y="98.93388429752066" x="0" height="1.1900826446280992px"></rect><rect mask="url(#mask-2023-11-02)" width="16" fill="#b276b2" y="43.52066115702479" x="0" height="55.413223140495866px"></rect><text transform="rotate(90, 4, 59.52066115702479)" letter-spacing="5" y="59.52066115702479" x="4" rotate="-90" class="xp-txt xp-txt-invert">2171 XP</text></svg><text x="2" y="198" class="subtitle">Nov</text><text x="6" y="214" class="subtitle">02</text></g></g><g transform="translate(600, 0)"><g transform="translate(0, 0)"><rect rx="5" x="2" y="7" height="12" width="12" fill="#3572A5"></rect><text x="18" y="18" class="lang-name">Python</text></g><g transform="translate(0, 20)"><rect rx="5" x="2" y="7" height="12" width="12" fill="#00ADD8"></rect><text x="18" y="18" class="lang-name">Go</text></g><g transform="translate(0, 40)"><rect rx="5" x="2" y="7" height="12" width="12" fill="#083fa1"></rect><text x="18" y="18" class="lang-name">Markdown</text></g><g transform="translate(0, 60)"><rect rx="5" x="2" y="7" height="12" width="12" fill="#a270ba"></rect><text x="18" y="18" class="lang-name">Julia</text></g><g transform="translate(0, 80)"><rect rx="5" x="2" y="7" height="12" width="12" fill="#3e4053"></rect><text x="18" y="18" class="lang-name">Docker</text></g><g transform="translate(0, 100)"><rect rx="5" x="2" y="7" height="12" width="12" fill="#3e4053"></rect><text x="18" y="18" class="lang-name">JSON</text></g><g transform="translate(0, 120)"><rect rx="5" x="2" y="7" height="12" width="12" fill="#3e4053"></rect><text x="18" y="18" class="lang-name">TOML</text></g><g transform="translate(0, 140)"><rect rx="5" x="2" y="7" height="12" width="12" fill="#3e4053"></rect><text x="18" y="18" class="lang-name">Other</text></g></g></svg></g></svg>