<svg width="825" height="300" viewBox="0 0 825 300" fill="none" xmlns="http://www.w3.org/2000/svg"><style>
					.header {
						font: 600 18px &#x27;Segoe UI&#x27;, Ubuntu, Sans-Serif;
						fill: #3d858f;
						animation: fadeInAnimation 0.8s ease-in-out forwards;
					}
					
	.lang-name {
		font: 400 16px &#x27;Segoe UI&#x27;, Ubuntu, Sans-Serif;
		fill: #ffffffcc;
	}
	.xp-txt {
		font: 400 12px &#x27;Segoe UI&#x27;, Ubuntu, Sans-Serif;
		fill: black;
	}
	.xp-txt-invert {
		font: 600 12px &#x27;Segoe UI&#x27;, Ubuntu, Sans-Serif;
		fill: white;
	}
	.subtitle {
		font: 400 14px &#x27;Segoe UI&#x27;, Ubuntu, Sans-Serif;
		fill: #ffffffcc;
	}


					/* Animations */
					@keyframes scaleInAnimation {
						from {
							transform: translate(-5px, 5px) scale(0);
						}
						to {
							transform: translate(-5px, 5px) scale(1);
						}
					}
					@keyframes fadeInAnimation {
						from {
							opacity: 0;
						}
						to {
							opacity: 1;
						}
					}
				</style><rect x="0.5" y="0.5" rx="4.5" height="99%" stroke="#E4E2E2" width="824" fill="#151515" stroke-opacity="0"></rect><g transform="translate(25, 35)"><g transform="translate(0, 0)"><text x="0" y="0" class="header">Coding History of the last two weeks</text></g></g><g transform="translate(0, 55)"><svg x="25"><g transform="translate(0, 0)"><g transform="translate(0, 0)"><svg x="7" y="-20" height="240"><mask id="mask-2024-01-23"><rect x="0" y="25" width="16" height="180" fill="white" rx="5"></rect></mask><rect rx="5" ry="5" x="0" y="25" width="16" height="180" fill="#ddd"></rect><rect mask="url(#mask-2024-01-23)" width="16" fill="#3572A5" y="79.85257371314343" x="0" height="125.14742628685657px"></rect><rect mask="url(#mask-2024-01-23)" width="16" fill="#3e4053" y="53.57571214392804" x="0" height="26.27686156921539px"></rect><rect mask="url(#mask-2024-01-23)" width="16" fill="#3e4053" y="48.80809595202399" x="0" height="4.767616191904048px"></rect><rect mask="url(#mask-2024-01-23)" width="16" fill="#3e4053" y="46.58920539730135" x="0" height="2.2188905547226385px"></rect><rect mask="url(#mask-2024-01-23)" width="16" fill="#083fa1" y="43.53073463268366" x="0" height="3.058470764617691px"></rect><rect mask="url(#mask-2024-01-23)" width="16" fill="#b276b2" y="25" x="0" height="18.530734632683657px"></rect><text transform="rotate(90, 4, 41)" letter-spacing="5" y="41" x="4" rotate="-90" class="xp-txt xp-txt-invert">18009 XP</text></svg><text x="2" y="198" class="subtitle">Jan</text><text x="6" y="214" class="subtitle">23</text></g><g transform="translate(40, 0)"><svg x="7" y="-20" height="240"><mask id="mask-2024-01-24"><rect x="0" y="151.01699150424787" width="16" height="53.983008495752124" fill="white" rx="5"></rect></mask><rect rx="5" ry="5" x="0" y="25" width="16" height="180" fill="#ddd"></rect><rect mask="url(#mask-2024-01-24)" width="16" fill="#3572A5" y="204.9000499750125" x="0" height="0.09995002498750624px"></rect><rect mask="url(#mask-2024-01-24)" width="16" fill="#3e4053" y="184.28035982008996" x="0" height="20.619690154922537px"></rect><rect mask="url(#mask-2024-01-24)" width="16" fill="#3e4053" y="183.88055972013993" x="0" height="0.39980009995002497px"></rect><rect mask="url(#mask-2024-01-24)" width="16" fill="#b276b2" y="151.01699150424787" x="0" height="32.86356821589205px"></rect><text transform="rotate(90, 4, 60.01699150424787)" letter-spacing="5" y="60.01699150424787" x="4" rotate="-90" class="xp-txt">5401 XP</text></svg><text x="2" y="198" class="subtitle">Jan</text><text x="6" y="214" class="subtitle">24</text></g><g transform="translate(80, 0)"><svg x="7" y="-20" height="240"><mask id="mask-2024-01-25"><rect x="0" y="202.29135432283857" width="16" height="2.708645677161419" fill="white" rx="5"></rect></mask><rect rx="5" ry="5" x="0" y="25" width="16" height="180" fill="#ddd"></rect><rect mask="url(#mask-2024-01-25)" width="16" fill="#b276b2" y="202.29135432283857" x="0" height="2.708645677161419px"></rect><text transform="rotate(90, 4, 124.29135432283857)" letter-spacing="5" y="124.29135432283857" x="4" rotate="-90" class="xp-txt">271 XP</text></svg><text x="2" y="198" class="subtitle">Jan</text><text x="6" y="214" class="subtitle">25</text></g><g transform="translate(120, 0)"><svg x="7" y="-20" height="240"><mask id="mask-2024-01-26"><rect x="0" y="181.49175412293854" width="16" height="23.50824587706147" fill="white" rx="5"></rect></mask><rect rx="5" ry="5" x="0" y="25" width="16" height="180" fill="#ddd"></rect><rect mask="url(#mask-2024-01-26)" width="16" fill="#dea584" y="188.53823088455772" x="0" height="16.46176911544228px"></rect><rect mask="url(#mask-2024-01-26)" width="16" fill="#b276b2" y="181.49175412293854" x="0" height="7.04647676161919px"></rect><text transform="rotate(90, 4, 90.49175412293854)" letter-spacing="5" y="90.49175412293854" x="4" rotate="-90" class="xp-txt">2352 XP</text></svg><text x="2" y="198" class="subtitle">Jan</text><text x="6" y="214" class="subtitle">26</text></g><g transform="translate(160, 0)"><svg x="7" y="-20" height="240"><mask id="mask-2024-01-27"><rect x="0" y="205" width="16" height="0" fill="white" rx="5"></rect></mask><rect rx="5" ry="5" x="0" y="25" width="16" height="180" fill="#ddd"></rect><text transform="rotate(90, 4, 153)" letter-spacing="5" y="153" x="4" rotate="-90" class="xp-txt">0 XP</text></svg><text x="2" y="198" class="subtitle">Jan</text><text x="6" y="214" class="subtitle">27</text></g><g transform="translate(200, 0)"><svg x="7" y="-20" height="240"><mask id="mask-2024-01-28"><rect x="0" y="204.8200899550225" width="16" height="0.17991004497751126" fill="white" rx="5"></rect></mask><rect rx="5" ry="5" x="0" y="25" width="16" height="180" fill="#ddd"></rect><rect mask="url(#mask-2024-01-28)" width="16" fill="#b276b2" y="204.8200899550225" x="0" height="0.17991004497751126px"></rect><text transform="rotate(90, 4, 139.8200899550225)" letter-spacing="5" y="139.8200899550225" x="4" rotate="-90" class="xp-txt">18 XP</text></svg><text x="2" y="198" class="subtitle">Jan</text><text x="6" y="214" class="subtitle">28</text></g><g transform="translate(240, 0)"><svg x="7" y="-20" height="240"><mask id="mask-2024-01-29"><rect x="0" y="140.3823088455772" width="16" height="64.61769115442279" fill="white" rx="5"></rect></mask><rect rx="5" ry="5" x="0" y="25" width="16" height="180" fill="#ddd"></rect><rect mask="url(#mask-2024-01-29)" width="16" fill="#3572A5" y="187.81859070464768" x="0" height="17.181409295352324px"></rect><rect mask="url(#mask-2024-01-29)" width="16" fill="#3e4053" y="172.90604697651173" x="0" height="14.912543728135931px"></rect><rect mask="url(#mask-2024-01-29)" width="16" fill="#3e4053" y="168.9480259870065" x="0" height="3.9580209895052474px"></rect><rect mask="url(#mask-2024-01-29)" width="16" fill="#3e4053" y="166.9390304847576" x="0" height="2.0089955022488755px"></rect><rect mask="url(#mask-2024-01-29)" width="16" fill="#3e4053" y="164.36031984007997" x="0" height="2.578710644677661px"></rect><rect mask="url(#mask-2024-01-29)" width="16" fill="#083fa1" y="164.32033983008495" x="0" height="0.0399800099950025px"></rect><rect mask="url(#mask-2024-01-29)" width="16" fill="#b276b2" y="140.3823088455772" x="0" height="23.938030984507748px"></rect><text transform="rotate(90, 4, 49.3823088455772)" letter-spacing="5" y="49.3823088455772" x="4" rotate="-90" class="xp-txt">6465 XP</text></svg><text x="2" y="198" class="subtitle">Jan</text><text x="6" y="214" class="subtitle">29</text></g><g transform="translate(280, 0)"><svg x="7" y="-20" height="240"><mask id="mask-2024-01-30"><rect x="0" y="136.66416791604198" width="16" height="68.33583208395802" fill="white" rx="5"></rect></mask><rect rx="5" ry="5" x="0" y="25" width="16" height="180" fill="#ddd"></rect><rect mask="url(#mask-2024-01-30)" width="16" fill="#3572A5" y="152.94602698650675" x="0" height="52.053973013493255px"></rect><rect mask="url(#mask-2024-01-30)" width="16" fill="#3e4053" y="146.6391804097951" x="0" height="6.306846576711644px"></rect><rect mask="url(#mask-2024-01-30)" width="16" fill="#3e4053" y="146.3593203398301" x="0" height="0.2798600699650175px"></rect><rect mask="url(#mask-2024-01-30)" width="16" fill="#3e4053" y="144.65017491254372" x="0" height="1.7091454272863569px"></rect><rect mask="url(#mask-2024-01-30)" width="16" fill="#3e4053" y="144.01049475262369" x="0" height="0.63968015992004px"></rect><rect mask="url(#mask-2024-01-30)" width="16" fill="#b276b2" y="136.66416791604198" x="0" height="7.346326836581709px"></rect><text transform="rotate(90, 4, 45.664167916041976)" letter-spacing="5" y="45.664167916041976" x="4" rotate="-90" class="xp-txt">6837 XP</text></svg><text x="2" y="198" class="subtitle">Jan</text><text x="6" y="214" class="subtitle">30</text></g><g transform="translate(320, 0)"><svg x="7" y="-20" height="240"><mask id="mask-2024-01-31"><rect x="0" y="172.4062968515742" width="16" height="32.59370314842579" fill="white" rx="5"></rect></mask><rect rx="5" ry="5" x="0" y="25" width="16" height="180" fill="#ddd"></rect><rect mask="url(#mask-2024-01-31)" width="16" fill="#3e4053" y="175.67466266866566" x="0" height="29.32533733133433px"></rect><rect mask="url(#mask-2024-01-31)" width="16" fill="#3e4053" y="175.3048475762119" x="0" height="0.3698150924537731px"></rect><rect mask="url(#mask-2024-01-31)" width="16" fill="#b276b2" y="172.4062968515742" x="0" height="2.898550724637681px"></rect><text transform="rotate(90, 4, 81.40629685157421)" letter-spacing="5" y="81.40629685157421" x="4" rotate="-90" class="xp-txt">3261 XP</text></svg><text x="2" y="198" class="subtitle">Jan</text><text x="6" y="214" class="subtitle">31</text></g><g transform="translate(360, 0)"><svg x="7" y="-20" height="240"><mask id="mask-2024-02-01"><rect x="0" y="204.32033983008495" width="16" height="0.6796601699150425" fill="white" rx="5"></rect></mask><rect rx="5" ry="5" x="0" y="25" width="16" height="180" fill="#ddd"></rect><rect mask="url(#mask-2024-02-01)" width="16" fill="#b276b2" y="204.32033983008495" x="0" height="0.6796601699150425px"></rect><text transform="rotate(90, 4, 139.32033983008495)" letter-spacing="5" y="139.32033983008495" x="4" rotate="-90" class="xp-txt">68 XP</text></svg><text x="2" y="198" class="subtitle">Feb</text><text x="6" y="214" class="subtitle">01</text></g><g transform="translate(400, 0)"><svg x="7" y="-20" height="240"><mask id="mask-2024-02-02"><rect x="0" y="205" width="16" height="0" fill="white" rx="5"></rect></mask><rect rx="5" ry="5" x="0" y="25" width="16" height="180" fill="#ddd"></rect><text transform="rotate(90, 4, 153)" letter-spacing="5" y="153" x="4" rotate="-90" class="xp-txt">0 XP</text></svg><text x="2" y="198" class="subtitle">Feb</text><text x="6" y="214" class="subtitle">02</text></g><g transform="translate(440, 0)"><svg x="7" y="-20" height="240"><mask id="mask-2024-02-03"><rect x="0" y="189.20789605197402" width="16" height="15.792103948025987" fill="white" rx="5"></rect></mask><rect rx="5" ry="5" x="0" y="25" width="16" height="180" fill="#ddd"></rect><rect mask="url(#mask-2024-02-03)" width="16" fill="#dea584" y="196.48425787106447" x="0" height="8.515742128935532px"></rect><rect mask="url(#mask-2024-02-03)" width="16" fill="#3e4053" y="196.46426786606696" x="0" height="0.01999000499750125px"></rect><rect mask="url(#mask-2024-02-03)" width="16" fill="#b276b2" y="189.20789605197402" x="0" height="7.256371814092954px"></rect><text transform="rotate(90, 4, 98.20789605197402)" letter-spacing="5" y="98.20789605197402" x="4" rotate="-90" class="xp-txt">1580 XP</text></svg><text x="2" y="198" class="subtitle">Feb</text><text x="6" y="214" class="subtitle">03</text></g><g transform="translate(480, 0)"><svg x="7" y="-20" height="240"><mask id="mask-2024-02-04"><rect x="0" y="205" width="16" height="0" fill="white" rx="5"></rect></mask><rect rx="5" ry="5" x="0" y="25" width="16" height="180" fill="#ddd"></rect><text transform="rotate(90, 4, 153)" letter-spacing="5" y="153" x="4" rotate="-90" class="xp-txt">0 XP</text></svg><text x="2" y="198" class="subtitle">Feb</text><text x="6" y="214" class="subtitle">04</text></g><g transform="translate(520, 0)"><svg x="7" y="-20" height="240"><mask id="mask-2024-02-05"><rect x="0" y="197.1239380309845" width="16" height="7.876061969015492" fill="white" rx="5"></rect></mask><rect rx="5" ry="5" x="0" y="25" width="16" height="180" fill="#ddd"></rect><rect mask="url(#mask-2024-02-05)" width="16" fill="#3e4053" y="203.5607196401799" x="0" height="1.43928035982009px"></rect><rect mask="url(#mask-2024-02-05)" width="16" fill="#3e4053" y="201.64167916041978" x="0" height="1.91904047976012px"></rect><rect mask="url(#mask-2024-02-05)" width="16" fill="#3e4053" y="201.28185907046478" x="0" height="0.3598200899550225px"></rect><rect mask="url(#mask-2024-02-05)" width="16" fill="#b276b2" y="197.1239380309845" x="0" height="4.15792103948026px"></rect><text transform="rotate(90, 4, 119.1239380309845)" letter-spacing="5" y="119.1239380309845" x="4" rotate="-90" class="xp-txt">788 XP</text></svg><text x="2" y="198" class="subtitle">Feb</text><text x="6" y="214" class="subtitle">05</text></g></g><g transform="translate(600, 0)"><g transform="translate(0, 0)"><rect rx="5" x="2" y="7" height="12" width="12" fill="#3572A5"></rect><text x="18" y="18" class="lang-name">Python</text></g><g transform="translate(0, 20)"><rect rx="5" x="2" y="7" height="12" width="12" fill="#3e4053"></rect><text x="18" y="18" class="lang-name">CSV</text></g><g transform="translate(0, 40)"><rect rx="5" x="2" y="7" height="12" width="12" fill="#3e4053"></rect><text x="18" y="18" class="lang-name">Garmin Monkey C</text></g><g transform="translate(0, 60)"><rect rx="5" x="2" y="7" height="12" width="12" fill="#dea584"></rect><text x="18" y="18" class="lang-name">Rust</text></g><g transform="translate(0, 80)"><rect rx="5" x="2" y="7" height="12" width="12" fill="#3e4053"></rect><text x="18" y="18" class="lang-name">Docker</text></g><g transform="translate(0, 100)"><rect rx="5" x="2" y="7" height="12" width="12" fill="#3e4053"></rect><text x="18" y="18" class="lang-name">JSON</text></g><g transform="translate(0, 120)"><rect rx="5" x="2" y="7" height="12" width="12" fill="#3e4053"></rect><text x="18" y="18" class="lang-name">VS Code Input</text></g><g transform="translate(0, 140)"><rect rx="5" x="2" y="7" height="12" width="12" fill="#083fa1"></rect><text x="18" y="18" class="lang-name">Markdown</text></g><g transform="translate(0, 160)"><rect rx="5" x="2" y="7" height="12" width="12" fill="#3e4053"></rect><text x="18" y="18" class="lang-name">Other</text></g></g></svg></g></svg>