<svg width="825" height="300" viewBox="0 0 825 300" fill="none" xmlns="http://www.w3.org/2000/svg"><style>
					.header {
						font: 600 18px &#x27;Segoe UI&#x27;, Ubuntu, Sans-Serif;
						fill: #3d858f;
						animation: fadeInAnimation 0.8s ease-in-out forwards;
					}
					
	.lang-name {
		font: 400 16px &#x27;Segoe UI&#x27;, Ubuntu, Sans-Serif;
		fill: #ffffffcc;
	}
	.xp-txt {
		font: 400 12px &#x27;Segoe UI&#x27;, Ubuntu, Sans-Serif;
		fill: black;
	}
	.xp-txt-invert {
		font: 600 12px &#x27;Segoe UI&#x27;, Ubuntu, Sans-Serif;
		fill: white;
	}
	.subtitle {
		font: 400 14px &#x27;Segoe UI&#x27;, Ubuntu, Sans-Serif;
		fill: #ffffffcc;
	}


					/* Animations */
					@keyframes scaleInAnimation {
						from {
							transform: translate(-5px, 5px) scale(0);
						}
						to {
							transform: translate(-5px, 5px) scale(1);
						}
					}
					@keyframes fadeInAnimation {
						from {
							opacity: 0;
						}
						to {
							opacity: 1;
						}
					}
				</style><rect x="0.5" y="0.5" rx="4.5" height="99%" stroke="#E4E2E2" width="824" fill="#151515" stroke-opacity="0"></rect><g transform="translate(25, 35)"><g transform="translate(0, 0)"><text x="0" y="0" class="header">Coding History of the last two weeks</text></g></g><g transform="translate(0, 55)"><svg x="25"><g transform="translate(0, 0)"><g transform="translate(0, 0)"><svg x="7" y="-20" height="240"><mask id="mask-2024-07-14"><rect x="0" y="104.81154611811546" width="16" height="100.18845388188454" fill="white" rx="5"></rect></mask><rect rx="5" ry="5" x="0" y="25" width="16" height="180" fill="#ddd"></rect><rect mask="url(#mask-2024-07-14)" width="16" fill="#00B4AB" y="122.907100199071" x="0" height="82.092899800929px"></rect><rect mask="url(#mask-2024-07-14)" width="16" fill="#427819" y="122.87126741871268" x="0" height="0.035832780358327807px"></rect><rect mask="url(#mask-2024-07-14)" width="16" fill="#3e4053" y="117.79495686794957" x="0" height="5.076310550763106px"></rect><rect mask="url(#mask-2024-07-14)" width="16" fill="#3e4053" y="117.185799601858" x="0" height="0.6091572660915726px"></rect><rect mask="url(#mask-2024-07-14)" width="16" fill="#3e4053" y="116.48108825481089" x="0" height="0.7047113470471135px"></rect><rect mask="url(#mask-2024-07-14)" width="16" fill="#b276b2" y="104.81154611811546" x="0" height="11.669542136695421px"></rect><text transform="rotate(90, 4, 120.81154611811546)" letter-spacing="5" y="120.81154611811546" x="4" rotate="-90" class="xp-txt xp-txt-invert">8388 XP</text></svg><text x="2" y="198" class="subtitle">Jul</text><text x="6" y="214" class="subtitle">14</text></g><g transform="translate(40, 0)"><svg x="7" y="-20" height="240"><mask id="mask-2024-07-15"><rect x="0" y="194.64432647644327" width="16" height="10.355673523556735" fill="white" rx="5"></rect></mask><rect rx="5" ry="5" x="0" y="25" width="16" height="180" fill="#ddd"></rect><rect mask="url(#mask-2024-07-15)" width="16" fill="#00B4AB" y="204.67750497677505" x="0" height="0.3224950232249502px"></rect><rect mask="url(#mask-2024-07-15)" width="16" fill="#3e4053" y="204.57000663570005" x="0" height="0.1074983410749834px"></rect><rect mask="url(#mask-2024-07-15)" width="16" fill="#3e4053" y="204.55806237558062" x="0" height="0.011944260119442602px"></rect><rect mask="url(#mask-2024-07-15)" width="16" fill="#b276b2" y="194.64432647644327" x="0" height="9.91373589913736px"></rect><text transform="rotate(90, 4, 116.64432647644327)" letter-spacing="5" y="116.64432647644327" x="4" rotate="-90" class="xp-txt">867 XP</text></svg><text x="2" y="198" class="subtitle">Jul</text><text x="6" y="214" class="subtitle">15</text></g><g transform="translate(80, 0)"><svg x="7" y="-20" height="240"><mask id="mask-2024-07-16"><rect x="0" y="199.3623092236231" width="16" height="5.637690776376908" fill="white" rx="5"></rect></mask><rect rx="5" ry="5" x="0" y="25" width="16" height="180" fill="#ddd"></rect><rect mask="url(#mask-2024-07-16)" width="16" fill="#b276b2" y="199.3623092236231" x="0" height="5.637690776376908px"></rect><text transform="rotate(90, 4, 121.3623092236231)" letter-spacing="5" y="121.3623092236231" x="4" rotate="-90" class="xp-txt">472 XP</text></svg><text x="2" y="198" class="subtitle">Jul</text><text x="6" y="214" class="subtitle">16</text></g><g transform="translate(120, 0)"><svg x="7" y="-20" height="240"><mask id="mask-2024-07-17"><rect x="0" y="188.7916390179164" width="16" height="16.208360982083608" fill="white" rx="5"></rect></mask><rect rx="5" ry="5" x="0" y="25" width="16" height="180" fill="#ddd"></rect><rect mask="url(#mask-2024-07-17)" width="16" fill="#b276b2" y="188.7916390179164" x="0" height="16.208360982083608px"></rect><text transform="rotate(90, 4, 97.7916390179164)" letter-spacing="5" y="97.7916390179164" x="4" rotate="-90" class="xp-txt">1357 XP</text></svg><text x="2" y="198" class="subtitle">Jul</text><text x="6" y="214" class="subtitle">17</text></g><g transform="translate(160, 0)"><svg x="7" y="-20" height="240"><mask id="mask-2024-07-18"><rect x="0" y="154.15328467153284" width="16" height="50.846715328467155" fill="white" rx="5"></rect></mask><rect rx="5" ry="5" x="0" y="25" width="16" height="180" fill="#ddd"></rect><rect mask="url(#mask-2024-07-18)" width="16" fill="#00B4AB" y="164.007299270073" x="0" height="40.99270072992701px"></rect><rect mask="url(#mask-2024-07-18)" width="16" fill="#3e4053" y="163.46980756469807" x="0" height="0.5374917053749171px"></rect><rect mask="url(#mask-2024-07-18)" width="16" fill="#b276b2" y="154.15328467153284" x="0" height="9.31652289316523px"></rect><text transform="rotate(90, 4, 63.153284671532845)" letter-spacing="5" y="63.153284671532845" x="4" rotate="-90" class="xp-txt">4257 XP</text></svg><text x="2" y="198" class="subtitle">Jul</text><text x="6" y="214" class="subtitle">18</text></g><g transform="translate(200, 0)"><svg x="7" y="-20" height="240"><mask id="mask-2024-07-19"><rect x="0" y="204.8327803583278" width="16" height="0.1672196416721964" fill="white" rx="5"></rect></mask><rect rx="5" ry="5" x="0" y="25" width="16" height="180" fill="#ddd"></rect><rect mask="url(#mask-2024-07-19)" width="16" fill="#b276b2" y="204.8327803583278" x="0" height="0.1672196416721964px"></rect><text transform="rotate(90, 4, 139.8327803583278)" letter-spacing="5" y="139.8327803583278" x="4" rotate="-90" class="xp-txt">14 XP</text></svg><text x="2" y="198" class="subtitle">Jul</text><text x="6" y="214" class="subtitle">19</text></g><g transform="translate(240, 0)"><svg x="7" y="-20" height="240"><mask id="mask-2024-07-20"><rect x="0" y="205" width="16" height="0" fill="white" rx="5"></rect></mask><rect rx="5" ry="5" x="0" y="25" width="16" height="180" fill="#ddd"></rect><text transform="rotate(90, 4, 153)" letter-spacing="5" y="153" x="4" rotate="-90" class="xp-txt">0 XP</text></svg><text x="2" y="198" class="subtitle">Jul</text><text x="6" y="214" class="subtitle">20</text></g><g transform="translate(280, 0)"><svg x="7" y="-20" height="240"><mask id="mask-2024-07-21"><rect x="0" y="25" width="16" height="180" fill="white" rx="5"></rect></mask><rect rx="5" ry="5" x="0" y="25" width="16" height="180" fill="#ddd"></rect><rect mask="url(#mask-2024-07-21)" width="16" fill="#00B4AB" y="54.824817518248175" x="0" height="150.17518248175182px"></rect><rect mask="url(#mask-2024-07-21)" width="16" fill="#00ADD8" y="54.57398805573988" x="0" height="0.25082946250829463px"></rect><rect mask="url(#mask-2024-07-21)" width="16" fill="#3e4053" y="53.9051094890511" x="0" height="0.6688785666887856px"></rect><rect mask="url(#mask-2024-07-21)" width="16" fill="#3e4053" y="53.64233576642336" x="0" height="0.26277372262773724px"></rect><rect mask="url(#mask-2024-07-21)" width="16" fill="#b276b2" y="25" x="0" height="28.642335766423358px"></rect><text transform="rotate(90, 4, 41)" letter-spacing="5" y="41" x="4" rotate="-90" class="xp-txt xp-txt-invert">15070 XP</text></svg><text x="2" y="198" class="subtitle">Jul</text><text x="6" y="214" class="subtitle">21</text></g><g transform="translate(320, 0)"><svg x="7" y="-20" height="240"><mask id="mask-2024-07-22"><rect x="0" y="162.1320504313205" width="16" height="42.86794956867949" fill="white" rx="5"></rect></mask><rect rx="5" ry="5" x="0" y="25" width="16" height="180" fill="#ddd"></rect><rect mask="url(#mask-2024-07-22)" width="16" fill="#00ADD8" y="194.13072329130722" x="0" height="10.869276708692768px"></rect><rect mask="url(#mask-2024-07-22)" width="16" fill="#3e4053" y="193.31851360318512" x="0" height="0.8122096881220969px"></rect><rect mask="url(#mask-2024-07-22)" width="16" fill="#083fa1" y="190.12939615129397" x="0" height="3.1891174518911747px"></rect><rect mask="url(#mask-2024-07-22)" width="16" fill="#b276b2" y="162.1320504313205" x="0" height="27.997345719973456px"></rect><text transform="rotate(90, 4, 71.1320504313205)" letter-spacing="5" y="71.1320504313205" x="4" rotate="-90" class="xp-txt">3589 XP</text></svg><text x="2" y="198" class="subtitle">Jul</text><text x="6" y="214" class="subtitle">22</text></g><g transform="translate(360, 0)"><svg x="7" y="-20" height="240"><mask id="mask-2024-07-23"><rect x="0" y="86.44127405441273" width="16" height="118.55872594558726" fill="white" rx="5"></rect></mask><rect rx="5" ry="5" x="0" y="25" width="16" height="180" fill="#ddd"></rect><rect mask="url(#mask-2024-07-23)" width="16" fill="#00B4AB" y="191.55076310550763" x="0" height="13.449236894492369px"></rect><rect mask="url(#mask-2024-07-23)" width="16" fill="#00ADD8" y="126.02455209024552" x="0" height="65.5262110152621px"></rect><rect mask="url(#mask-2024-07-23)" width="16" fill="#427819" y="113.93696084936961" x="0" height="12.087591240875913px"></rect><rect mask="url(#mask-2024-07-23)" width="16" fill="#3e4053" y="111.50033178500331" x="0" height="2.4366290643662905px"></rect><rect mask="url(#mask-2024-07-23)" width="16" fill="#3e4053" y="110.16257465162575" x="0" height="1.3377571333775713px"></rect><rect mask="url(#mask-2024-07-23)" width="16" fill="#083fa1" y="108.99203715992037" x="0" height="1.170537491705375px"></rect><rect mask="url(#mask-2024-07-23)" width="16" fill="#3e4053" y="108.63370935633709" x="0" height="0.35832780358327804px"></rect><rect mask="url(#mask-2024-07-23)" width="16" fill="#b276b2" y="86.44127405441273" x="0" height="22.192435301924352px"></rect><text transform="rotate(90, 4, 102.44127405441273)" letter-spacing="5" y="102.44127405441273" x="4" rotate="-90" class="xp-txt xp-txt-invert">9926 XP</text></svg><text x="2" y="198" class="subtitle">Jul</text><text x="6" y="214" class="subtitle">23</text></g><g transform="translate(400, 0)"><svg x="7" y="-20" height="240"><mask id="mask-2024-07-24"><rect x="0" y="184.04976775049767" width="16" height="20.95023224950232" fill="white" rx="5"></rect></mask><rect rx="5" ry="5" x="0" y="25" width="16" height="180" fill="#ddd"></rect><rect mask="url(#mask-2024-07-24)" width="16" fill="#00B4AB" y="204.96416721964167" x="0" height="0.035832780358327807px"></rect><rect mask="url(#mask-2024-07-24)" width="16" fill="#00ADD8" y="190.02189781021897" x="0" height="14.942269409422694px"></rect><rect mask="url(#mask-2024-07-24)" width="16" fill="#3e4053" y="189.48440610484406" x="0" height="0.5374917053749171px"></rect><rect mask="url(#mask-2024-07-24)" width="16" fill="#b276b2" y="184.04976775049767" x="0" height="5.434638354346384px"></rect><text transform="rotate(90, 4, 93.04976775049767)" letter-spacing="5" y="93.04976775049767" x="4" rotate="-90" class="xp-txt">1754 XP</text></svg><text x="2" y="198" class="subtitle">Jul</text><text x="6" y="214" class="subtitle">24</text></g><g transform="translate(440, 0)"><svg x="7" y="-20" height="240"><mask id="mask-2024-07-25"><rect x="0" y="150.6058394160584" width="16" height="54.394160583941606" fill="white" rx="5"></rect></mask><rect rx="5" ry="5" x="0" y="25" width="16" height="180" fill="#ddd"></rect><rect mask="url(#mask-2024-07-25)" width="16" fill="#00ADD8" y="156.3510285335103" x="0" height="48.64897146648971px"></rect><rect mask="url(#mask-2024-07-25)" width="16" fill="#3e4053" y="151.8122096881221" x="0" height="4.538818845388189px"></rect><rect mask="url(#mask-2024-07-25)" width="16" fill="#b276b2" y="150.6058394160584" x="0" height="1.2063702720637026px"></rect><text transform="rotate(90, 4, 59.60583941605839)" letter-spacing="5" y="59.60583941605839" x="4" rotate="-90" class="xp-txt">4554 XP</text></svg><text x="2" y="198" class="subtitle">Jul</text><text x="6" y="214" class="subtitle">25</text></g><g transform="translate(480, 0)"><svg x="7" y="-20" height="240"><mask id="mask-2024-07-26"><rect x="0" y="204.7491705374917" width="16" height="0.25082946250829463" fill="white" rx="5"></rect></mask><rect rx="5" ry="5" x="0" y="25" width="16" height="180" fill="#ddd"></rect><rect mask="url(#mask-2024-07-26)" width="16" fill="#3e4053" y="204.9761114797611" x="0" height="0.023888520238885203px"></rect><rect mask="url(#mask-2024-07-26)" width="16" fill="#b276b2" y="204.7491705374917" x="0" height="0.22694094226940942px"></rect><text transform="rotate(90, 4, 139.7491705374917)" letter-spacing="5" y="139.7491705374917" x="4" rotate="-90" class="xp-txt">21 XP</text></svg><text x="2" y="198" class="subtitle">Jul</text><text x="6" y="214" class="subtitle">26</text></g><g transform="translate(520, 0)"><svg x="7" y="-20" height="240"><mask id="mask-2024-07-27"><rect x="0" y="97.4777704047777" width="16" height="107.5222295952223" fill="white" rx="5"></rect></mask><rect rx="5" ry="5" x="0" y="25" width="16" height="180" fill="#ddd"></rect><rect mask="url(#mask-2024-07-27)" width="16" fill="#00B4AB" y="147.5839416058394" x="0" height="57.416058394160586px"></rect><rect mask="url(#mask-2024-07-27)" width="16" fill="#00ADD8" y="127.91174518911745" x="0" height="19.672196416721963px"></rect><rect mask="url(#mask-2024-07-27)" width="16" fill="#427819" y="115.83609820836098" x="0" height="12.07564698075647px"></rect><rect mask="url(#mask-2024-07-27)" width="16" fill="#3e4053" y="114.82083609820836" x="0" height="1.0152621101526211px"></rect><rect mask="url(#mask-2024-07-27)" width="16" fill="#3e4053" y="112.68281353682814" x="0" height="2.1380225613802257px"></rect><rect mask="url(#mask-2024-07-27)" width="16" fill="#3e4053" y="111.63171864631718" x="0" height="1.051094890510949px"></rect><rect mask="url(#mask-2024-07-27)" width="16" fill="#3e4053" y="110.86728599867286" x="0" height="0.7644326476443265px"></rect><rect mask="url(#mask-2024-07-27)" width="16" fill="#b276b2" y="97.4777704047777" x="0" height="13.389515593895156px"></rect><text transform="rotate(90, 4, 113.4777704047777)" letter-spacing="5" y="113.4777704047777" x="4" rotate="-90" class="xp-txt xp-txt-invert">9002 XP</text></svg><text x="2" y="198" class="subtitle">Jul</text><text x="6" y="214" class="subtitle">27</text></g></g><g transform="translate(600, 0)"><g transform="translate(0, 0)"><rect rx="5" x="2" y="7" height="12" width="12" fill="#00B4AB"></rect><text x="18" y="18" class="lang-name">Dart</text></g><g transform="translate(0, 20)"><rect rx="5" x="2" y="7" height="12" width="12" fill="#00ADD8"></rect><text x="18" y="18" class="lang-name">Go</text></g><g transform="translate(0, 40)"><rect rx="5" x="2" y="7" height="12" width="12" fill="#427819"></rect><text x="18" y="18" class="lang-name">Makefile</text></g><g transform="translate(0, 60)"><rect rx="5" x="2" y="7" height="12" width="12" fill="#3e4053"></rect><text x="18" y="18" class="lang-name">VS Code Input</text></g><g transform="translate(0, 80)"><rect rx="5" x="2" y="7" height="12" width="12" fill="#3e4053"></rect><text x="18" y="18" class="lang-name">JSON</text></g><g transform="translate(0, 100)"><rect rx="5" x="2" y="7" height="12" width="12" fill="#083fa1"></rect><text x="18" y="18" class="lang-name">Markdown</text></g><g transform="translate(0, 120)"><rect rx="5" x="2" y="7" height="12" width="12" fill="#3e4053"></rect><text x="18" y="18" class="lang-name">Git</text></g><g transform="translate(0, 140)"><rect rx="5" x="2" y="7" height="12" width="12" fill="#3e4053"></rect><text x="18" y="18" class="lang-name">CMake</text></g><g transform="translate(0, 160)"><rect rx="5" x="2" y="7" height="12" width="12" fill="#3e4053"></rect><text x="18" y="18" class="lang-name">Other</text></g></g></svg></g></svg>