<svg width="785" height="300" viewBox="0 0 785 300" fill="none" xmlns="http://www.w3.org/2000/svg"><style>
					.header {
						font: 600 18px &#x27;Segoe UI&#x27;, Ubuntu, Sans-Serif;
						fill: #3d858f;
						animation: fadeInAnimation 0.8s ease-in-out forwards;
					}
					
	.lang-name {
		font: 400 16px &#x27;Segoe UI&#x27;, Ubuntu, Sans-Serif;
		fill: #ffffffcc;
	}
	.xp-txt {
		font: 400 12px &#x27;Segoe UI&#x27;, Ubuntu, Sans-Serif;
		fill: black;
	}
	.xp-txt-invert {
		font: 600 12px &#x27;Segoe UI&#x27;, Ubuntu, Sans-Serif;
		fill: white;
	}
	.subtitle {
		font: 400 14px &#x27;Segoe UI&#x27;, Ubuntu, Sans-Serif;
		fill: #ffffffcc;
	}


					/* Animations */
					@keyframes scaleInAnimation {
						from {
							transform: translate(-5px, 5px) scale(0);
						}
						to {
							transform: translate(-5px, 5px) scale(1);
						}
					}
					@keyframes fadeInAnimation {
						from {
							opacity: 0;
						}
						to {
							opacity: 1;
						}
					}
				</style><rect x="0.5" y="0.5" rx="4.5" height="99%" stroke="#E4E2E2" width="784" fill="#151515" stroke-opacity="0"></rect><g transform="translate(25, 35)"><g transform="translate(0, 0)"><text x="0" y="0" class="header">Coding History of the last two weeks</text></g></g><g transform="translate(0, 55)"><svg x="25"><g transform="translate(0, 0)"><g transform="translate(0, 0)"><svg x="7" y="-20" height="240"><mask id="mask-2023-11-04"><rect x="0" y="204.49673811742778" width="16" height="0.5032618825722274" fill="white" rx="5"></rect></mask><rect rx="5" ry="5" x="0" y="25" width="16" height="180" fill="#ddd"></rect><rect mask="url(#mask-2023-11-04)" width="16" fill="#b276b2" y="204.49673811742778" x="0" height="0.5032618825722274px"></rect><text transform="rotate(90, 4, 152.49673811742778)" letter-spacing="5" y="152.49673811742778" x="4" rotate="-90" class="xp-txt">6 XP</text></svg><text x="2" y="198" class="subtitle">Nov</text><text x="6" y="214" class="subtitle">04</text></g><g transform="translate(40, 0)"><svg x="7" y="-20" height="240"><mask id="mask-2023-11-06"><rect x="0" y="205" width="16" height="0" fill="white" rx="5"></rect></mask><rect rx="5" ry="5" x="0" y="25" width="16" height="180" fill="#ddd"></rect><text transform="rotate(90, 4, 153)" letter-spacing="5" y="153" x="4" rotate="-90" class="xp-txt">0 XP</text></svg><text x="2" y="198" class="subtitle">Nov</text><text x="6" y="214" class="subtitle">06</text></g><g transform="translate(80, 0)"><svg x="7" y="-20" height="240"><mask id="mask-2023-11-07"><rect x="0" y="201.309412861137" width="16" height="3.690587138863001" fill="white" rx="5"></rect></mask><rect rx="5" ry="5" x="0" y="25" width="16" height="180" fill="#ddd"></rect><rect mask="url(#mask-2023-11-07)" width="16" fill="#b276b2" y="201.309412861137" x="0" height="3.690587138863001px"></rect><text transform="rotate(90, 4, 136.309412861137)" letter-spacing="5" y="136.309412861137" x="4" rotate="-90" class="xp-txt">44 XP</text></svg><text x="2" y="198" class="subtitle">Nov</text><text x="6" y="214" class="subtitle">07</text></g><g transform="translate(120, 0)"><svg x="7" y="-20" height="240"><mask id="mask-2023-11-08"><rect x="0" y="205" width="16" height="0" fill="white" rx="5"></rect></mask><rect rx="5" ry="5" x="0" y="25" width="16" height="180" fill="#ddd"></rect><text transform="rotate(90, 4, 153)" letter-spacing="5" y="153" x="4" rotate="-90" class="xp-txt">0 XP</text></svg><text x="2" y="198" class="subtitle">Nov</text><text x="6" y="214" class="subtitle">08</text></g><g transform="translate(160, 0)"><svg x="7" y="-20" height="240"><mask id="mask-2023-11-09"><rect x="0" y="203.2385834109972" width="16" height="1.761416589002796" fill="white" rx="5"></rect></mask><rect rx="5" ry="5" x="0" y="25" width="16" height="180" fill="#ddd"></rect><rect mask="url(#mask-2023-11-09)" width="16" fill="#b276b2" y="203.2385834109972" x="0" height="1.761416589002796px"></rect><text transform="rotate(90, 4, 138.2385834109972)" letter-spacing="5" y="138.2385834109972" x="4" rotate="-90" class="xp-txt">21 XP</text></svg><text x="2" y="198" class="subtitle">Nov</text><text x="6" y="214" class="subtitle">09</text></g><g transform="translate(200, 0)"><svg x="7" y="-20" height="240"><mask id="mask-2023-11-10"><rect x="0" y="199.4641192917055" width="16" height="5.535880708294501" fill="white" rx="5"></rect></mask><rect rx="5" ry="5" x="0" y="25" width="16" height="180" fill="#ddd"></rect><rect mask="url(#mask-2023-11-10)" width="16" fill="#b276b2" y="199.4641192917055" x="0" height="5.535880708294501px"></rect><text transform="rotate(90, 4, 134.4641192917055)" letter-spacing="5" y="134.4641192917055" x="4" rotate="-90" class="xp-txt">66 XP</text></svg><text x="2" y="198" class="subtitle">Nov</text><text x="6" y="214" class="subtitle">10</text></g><g transform="translate(240, 0)"><svg x="7" y="-20" height="240"><mask id="mask-2023-11-11"><rect x="0" y="202.81919850885367" width="16" height="2.180801491146319" fill="white" rx="5"></rect></mask><rect rx="5" ry="5" x="0" y="25" width="16" height="180" fill="#ddd"></rect><rect mask="url(#mask-2023-11-11)" width="16" fill="#b276b2" y="202.81919850885367" x="0" height="2.180801491146319px"></rect><text transform="rotate(90, 4, 137.81919850885367)" letter-spacing="5" y="137.81919850885367" x="4" rotate="-90" class="xp-txt">26 XP</text></svg><text x="2" y="198" class="subtitle">Nov</text><text x="6" y="214" class="subtitle">11</text></g><g transform="translate(280, 0)"><svg x="7" y="-20" height="240"><mask id="mask-2023-11-12"><rect x="0" y="112.65144454799628" width="16" height="92.34855545200372" fill="white" rx="5"></rect></mask><rect rx="5" ry="5" x="0" y="25" width="16" height="180" fill="#ddd"></rect><rect mask="url(#mask-2023-11-12)" width="16" fill="#083fa1" y="188.89561975768873" x="0" height="16.104380242311276px"></rect><rect mask="url(#mask-2023-11-12)" width="16" fill="#3572A5" y="180.25629077353216" x="0" height="8.63932898415657px"></rect><rect mask="url(#mask-2023-11-12)" width="16" fill="#3e4053" y="179.2497670083877" x="0" height="1.0065237651444547px"></rect><rect mask="url(#mask-2023-11-12)" width="16" fill="#b276b2" y="112.65144454799628" x="0" height="66.59832246039143px"></rect><text transform="rotate(90, 4, 128.65144454799628)" letter-spacing="5" y="128.65144454799628" x="4" rotate="-90" class="xp-txt xp-txt-invert">1101 XP</text></svg><text x="2" y="198" class="subtitle">Nov</text><text x="6" y="214" class="subtitle">12</text></g><g transform="translate(320, 0)"><svg x="7" y="-20" height="240"><mask id="mask-2023-11-13"><rect x="0" y="25" width="16" height="180" fill="white" rx="5"></rect></mask><rect rx="5" ry="5" x="0" y="25" width="16" height="180" fill="#ddd"></rect><rect mask="url(#mask-2023-11-13)" width="16" fill="#3e4053" y="203.82572227399814" x="0" height="1.174277726001864px"></rect><rect mask="url(#mask-2023-11-13)" width="16" fill="#b276b2" y="25" x="0" height="178.82572227399814px"></rect><text transform="rotate(90, 4, 41)" letter-spacing="5" y="41" x="4" rotate="-90" class="xp-txt xp-txt-invert">2146 XP</text></svg><text x="2" y="198" class="subtitle">Nov</text><text x="6" y="214" class="subtitle">13</text></g><g transform="translate(360, 0)"><svg x="7" y="-20" height="240"><mask id="mask-2023-11-14"><rect x="0" y="62.74464119291706" width="16" height="142.25535880708296" fill="white" rx="5"></rect></mask><rect rx="5" ry="5" x="0" y="25" width="16" height="180" fill="#ddd"></rect><rect mask="url(#mask-2023-11-14)" width="16" fill="#3572A5" y="204.66449207828518" x="0" height="0.33550792171481825px"></rect><rect mask="url(#mask-2023-11-14)" width="16" fill="#b276b2" y="62.74464119291706" x="0" height="141.91985088536813px"></rect><text transform="rotate(90, 4, 78.74464119291706)" letter-spacing="5" y="78.74464119291706" x="4" rotate="-90" class="xp-txt xp-txt-invert">1696 XP</text></svg><text x="2" y="198" class="subtitle">Nov</text><text x="6" y="214" class="subtitle">14</text></g><g transform="translate(400, 0)"><svg x="7" y="-20" height="240"><mask id="mask-2023-11-15"><rect x="0" y="166.83597390493944" width="16" height="38.16402609506058" fill="white" rx="5"></rect></mask><rect rx="5" ry="5" x="0" y="25" width="16" height="180" fill="#ddd"></rect><rect mask="url(#mask-2023-11-15)" width="16" fill="#b276b2" y="166.83597390493944" x="0" height="38.16402609506058px"></rect><text transform="rotate(90, 4, 88.83597390493944)" letter-spacing="5" y="88.83597390493944" x="4" rotate="-90" class="xp-txt">455 XP</text></svg><text x="2" y="198" class="subtitle">Nov</text><text x="6" y="214" class="subtitle">15</text></g><g transform="translate(440, 0)"><svg x="7" y="-20" height="240"><mask id="mask-2023-11-16"><rect x="0" y="205" width="16" height="0" fill="white" rx="5"></rect></mask><rect rx="5" ry="5" x="0" y="25" width="16" height="180" fill="#ddd"></rect><text transform="rotate(90, 4, 153)" letter-spacing="5" y="153" x="4" rotate="-90" class="xp-txt">0 XP</text></svg><text x="2" y="198" class="subtitle">Nov</text><text x="6" y="214" class="subtitle">16</text></g><g transform="translate(480, 0)"><svg x="7" y="-20" height="240"><mask id="mask-2023-11-17"><rect x="0" y="191.74743709226468" width="16" height="13.25256290773532" fill="white" rx="5"></rect></mask><rect rx="5" ry="5" x="0" y="25" width="16" height="180" fill="#ddd"></rect><rect mask="url(#mask-2023-11-17)" width="16" fill="#b276b2" y="191.74743709226468" x="0" height="13.25256290773532px"></rect><text transform="rotate(90, 4, 113.74743709226468)" letter-spacing="5" y="113.74743709226468" x="4" rotate="-90" class="xp-txt">158 XP</text></svg><text x="2" y="198" class="subtitle">Nov</text><text x="6" y="214" class="subtitle">17</text></g></g><g transform="translate(568, 0)"><g transform="translate(0, 0)"><rect rx="5" x="2" y="7" height="12" width="12" fill="#083fa1"></rect><text x="18" y="18" class="lang-name">Markdown</text></g><g transform="translate(0, 20)"><rect rx="5" x="2" y="7" height="12" width="12" fill="#3572A5"></rect><text x="18" y="18" class="lang-name">Python</text></g><g transform="translate(0, 40)"><rect rx="5" x="2" y="7" height="12" width="12" fill="#3e4053"></rect><text x="18" y="18" class="lang-name">Docker</text></g><g transform="translate(0, 60)"><rect rx="5" x="2" y="7" height="12" width="12" fill="#3e4053"></rect><text x="18" y="18" class="lang-name">Log</text></g><g transform="translate(0, 80)"><rect rx="5" x="2" y="7" height="12" width="12" fill="#3e4053"></rect><text x="18" y="18" class="lang-name">Other</text></g></g></svg></g></svg>