<svg width="745" height="300" viewBox="0 0 745 300" fill="none" xmlns="http://www.w3.org/2000/svg"><style>
					.header {
						font: 600 18px &#x27;Segoe UI&#x27;, Ubuntu, Sans-Serif;
						fill: #3d858f;
						animation: fadeInAnimation 0.8s ease-in-out forwards;
					}
					
	.lang-name {
		font: 400 16px &#x27;Segoe UI&#x27;, Ubuntu, Sans-Serif;
		fill: #ffffffcc;
	}
	.xp-txt {
		font: 400 12px &#x27;Segoe UI&#x27;, Ubuntu, Sans-Serif;
		fill: black;
	}
	.xp-txt-invert {
		font: 600 12px &#x27;Segoe UI&#x27;, Ubuntu, Sans-Serif;
		fill: white;
	}
	.subtitle {
		font: 400 14px &#x27;Segoe UI&#x27;, Ubuntu, Sans-Serif;
		fill: #ffffffcc;
	}


					/* Animations */
					@keyframes scaleInAnimation {
						from {
							transform: translate(-5px, 5px) scale(0);
						}
						to {
							transform: translate(-5px, 5px) scale(1);
						}
					}
					@keyframes fadeInAnimation {
						from {
							opacity: 0;
						}
						to {
							opacity: 1;
						}
					}
				</style><rect x="0.5" y="0.5" rx="4.5" height="99%" stroke="#E4E2E2" width="744" fill="#151515" stroke-opacity="0"></rect><g transform="translate(25, 35)"><g transform="translate(0, 0)"><text x="0" y="0" class="header">Coding History of the last two weeks</text></g></g><g transform="translate(0, 55)"><svg x="25"><g transform="translate(0, 0)"><g transform="translate(0, 0)"><svg x="7" y="-20" height="240"><mask id="mask-2024-01-01"><rect x="0" y="205" width="16" height="0" fill="white" rx="5"></rect></mask><rect rx="5" ry="5" x="0" y="25" width="16" height="180" fill="#ddd"></rect><text transform="rotate(90, 4, 153)" letter-spacing="5" y="153" x="4" rotate="-90" class="xp-txt">0 XP</text></svg><text x="2" y="198" class="subtitle">Jan</text><text x="6" y="214" class="subtitle">01</text></g><g transform="translate(40, 0)"><svg x="7" y="-20" height="240"><mask id="mask-2024-01-02"><rect x="0" y="204.74369406021157" width="16" height="0.2563059397884459" fill="white" rx="5"></rect></mask><rect rx="5" ry="5" x="0" y="25" width="16" height="180" fill="#ddd"></rect><rect mask="url(#mask-2024-01-02)" width="16" fill="#b276b2" y="204.74369406021157" x="0" height="0.2563059397884459px"></rect><text transform="rotate(90, 4, 139.74369406021157)" letter-spacing="5" y="139.74369406021157" x="4" rotate="-90" class="xp-txt">14 XP</text></svg><text x="2" y="198" class="subtitle">Jan</text><text x="6" y="214" class="subtitle">02</text></g><g transform="translate(80, 0)"><svg x="7" y="-20" height="240"><mask id="mask-2024-01-03"><rect x="0" y="200.93572009764037" width="16" height="4.064279902359642" fill="white" rx="5"></rect></mask><rect rx="5" ry="5" x="0" y="25" width="16" height="180" fill="#ddd"></rect><rect mask="url(#mask-2024-01-03)" width="16" fill="#b276b2" y="200.93572009764037" x="0" height="4.064279902359642px"></rect><text transform="rotate(90, 4, 122.93572009764037)" letter-spacing="5" y="122.93572009764037" x="4" rotate="-90" class="xp-txt">222 XP</text></svg><text x="2" y="198" class="subtitle">Jan</text><text x="6" y="214" class="subtitle">03</text></g><g transform="translate(120, 0)"><svg x="7" y="-20" height="240"><mask id="mask-2024-01-05"><rect x="0" y="205" width="16" height="0" fill="white" rx="5"></rect></mask><rect rx="5" ry="5" x="0" y="25" width="16" height="180" fill="#ddd"></rect><text transform="rotate(90, 4, 153)" letter-spacing="5" y="153" x="4" rotate="-90" class="xp-txt">0 XP</text></svg><text x="2" y="198" class="subtitle">Jan</text><text x="6" y="214" class="subtitle">05</text></g><g transform="translate(160, 0)"><svg x="7" y="-20" height="240"><mask id="mask-2024-01-06"><rect x="0" y="153.3360455655004" width="16" height="51.663954434499594" fill="white" rx="5"></rect></mask><rect rx="5" ry="5" x="0" y="25" width="16" height="180" fill="#ddd"></rect><rect mask="url(#mask-2024-01-06)" width="16" fill="#00ADD8" y="179.6806346623271" x="0" height="25.319365337672906px"></rect><rect mask="url(#mask-2024-01-06)" width="16" fill="#3e4053" y="173.07160292921074" x="0" height="6.609031733116355px"></rect><rect mask="url(#mask-2024-01-06)" width="16" fill="#3e4053" y="168.8425549227014" x="0" height="4.229048006509357px"></rect><rect mask="url(#mask-2024-01-06)" width="16" fill="#3e4053" y="166.53580146460536" x="0" height="2.306753458096013px"></rect><rect mask="url(#mask-2024-01-06)" width="16" fill="#b276b2" y="153.3360455655004" x="0" height="13.199755899104963px"></rect><text transform="rotate(90, 4, 62.3360455655004)" letter-spacing="5" y="62.3360455655004" x="4" rotate="-90" class="xp-txt">2822 XP</text></svg><text x="2" y="198" class="subtitle">Jan</text><text x="6" y="214" class="subtitle">06</text></g><g transform="translate(200, 0)"><svg x="7" y="-20" height="240"><mask id="mask-2024-01-07"><rect x="0" y="199.65419039869812" width="16" height="5.345809601301871" fill="white" rx="5"></rect></mask><rect rx="5" ry="5" x="0" y="25" width="16" height="180" fill="#ddd"></rect><rect mask="url(#mask-2024-01-07)" width="16" fill="#b276b2" y="199.65419039869812" x="0" height="5.345809601301871px"></rect><text transform="rotate(90, 4, 121.65419039869812)" letter-spacing="5" y="121.65419039869812" x="4" rotate="-90" class="xp-txt">292 XP</text></svg><text x="2" y="198" class="subtitle">Jan</text><text x="6" y="214" class="subtitle">07</text></g><g transform="translate(240, 0)"><svg x="7" y="-20" height="240"><mask id="mask-2024-01-08"><rect x="0" y="174.22497965825875" width="16" height="30.775020341741254" fill="white" rx="5"></rect></mask><rect rx="5" ry="5" x="0" y="25" width="16" height="180" fill="#ddd"></rect><rect mask="url(#mask-2024-01-08)" width="16" fill="#3572A5" y="202.98616761594792" x="0" height="2.013832384052075px"></rect><rect mask="url(#mask-2024-01-08)" width="16" fill="#3e4053" y="198.02481692432872" x="0" height="4.961350691619202px"></rect><rect mask="url(#mask-2024-01-08)" width="16" fill="#b276b2" y="174.22497965825875" x="0" height="23.799837266069975px"></rect><text transform="rotate(90, 4, 83.22497965825875)" letter-spacing="5" y="83.22497965825875" x="4" rotate="-90" class="xp-txt">1681 XP</text></svg><text x="2" y="198" class="subtitle">Jan</text><text x="6" y="214" class="subtitle">08</text></g><g transform="translate(280, 0)"><svg x="7" y="-20" height="240"><mask id="mask-2024-01-09"><rect x="0" y="191.06794141578519" width="16" height="13.93205858421481" fill="white" rx="5"></rect></mask><rect rx="5" ry="5" x="0" y="25" width="16" height="180" fill="#ddd"></rect><rect mask="url(#mask-2024-01-09)" width="16" fill="#b276b2" y="191.06794141578519" x="0" height="13.93205858421481px"></rect><text transform="rotate(90, 4, 113.06794141578519)" letter-spacing="5" y="113.06794141578519" x="4" rotate="-90" class="xp-txt">761 XP</text></svg><text x="2" y="198" class="subtitle">Jan</text><text x="6" y="214" class="subtitle">09</text></g><g transform="translate(320, 0)"><svg x="7" y="-20" height="240"><mask id="mask-2024-01-10"><rect x="0" y="165.25427176566313" width="16" height="39.74572823433686" fill="white" rx="5"></rect></mask><rect rx="5" ry="5" x="0" y="25" width="16" height="180" fill="#ddd"></rect><rect mask="url(#mask-2024-01-10)" width="16" fill="#4F5D95" y="195.38852725793328" x="0" height="9.61147274206672px"></rect><rect mask="url(#mask-2024-01-10)" width="16" fill="#b276b2" y="165.25427176566313" x="0" height="30.13425549227014px"></rect><text transform="rotate(90, 4, 74.25427176566313)" letter-spacing="5" y="74.25427176566313" x="4" rotate="-90" class="xp-txt">2171 XP</text></svg><text x="2" y="198" class="subtitle">Jan</text><text x="6" y="214" class="subtitle">10</text></g><g transform="translate(360, 0)"><svg x="7" y="-20" height="240"><mask id="mask-2024-01-11"><rect x="0" y="174.15174938974775" width="16" height="30.848250610252236" fill="white" rx="5"></rect></mask><rect rx="5" ry="5" x="0" y="25" width="16" height="180" fill="#ddd"></rect><rect mask="url(#mask-2024-01-11)" width="16" fill="#b276b2" y="174.15174938974775" x="0" height="30.848250610252236px"></rect><text transform="rotate(90, 4, 83.15174938974775)" letter-spacing="5" y="83.15174938974775" x="4" rotate="-90" class="xp-txt">1685 XP</text></svg><text x="2" y="198" class="subtitle">Jan</text><text x="6" y="214" class="subtitle">11</text></g><g transform="translate(400, 0)"><svg x="7" y="-20" height="240"><mask id="mask-2024-01-12"><rect x="0" y="183.6899918633035" width="16" height="21.310008136696503" fill="white" rx="5"></rect></mask><rect rx="5" ry="5" x="0" y="25" width="16" height="180" fill="#ddd"></rect><rect mask="url(#mask-2024-01-12)" width="16" fill="#b276b2" y="183.6899918633035" x="0" height="21.310008136696503px"></rect><text transform="rotate(90, 4, 92.6899918633035)" letter-spacing="5" y="92.6899918633035" x="4" rotate="-90" class="xp-txt">1164 XP</text></svg><text x="2" y="198" class="subtitle">Jan</text><text x="6" y="214" class="subtitle">12</text></g><g transform="translate(440, 0)"><svg x="7" y="-20" height="240"><mask id="mask-2024-01-13"><rect x="0" y="25" width="16" height="180" fill="white" rx="5"></rect></mask><rect rx="5" ry="5" x="0" y="25" width="16" height="180" fill="#ddd"></rect><rect mask="url(#mask-2024-01-13)" width="16" fill="#3572A5" y="53.193653376729046" x="0" height="151.80634662327094px"></rect><rect mask="url(#mask-2024-01-13)" width="16" fill="#3e4053" y="44.82709519934906" x="0" height="8.366558177379984px"></rect><rect mask="url(#mask-2024-01-13)" width="16" fill="#b276b2" y="25" x="0" height="19.827095199349063px"></rect><text transform="rotate(90, 4, 41)" letter-spacing="5" y="41" x="4" rotate="-90" class="xp-txt xp-txt-invert">9832 XP</text></svg><text x="2" y="198" class="subtitle">Jan</text><text x="6" y="214" class="subtitle">13</text></g></g><g transform="translate(536, 0)"><g transform="translate(0, 0)"><rect rx="5" x="2" y="7" height="12" width="12" fill="#3572A5"></rect><text x="18" y="18" class="lang-name">Python</text></g><g transform="translate(0, 20)"><rect rx="5" x="2" y="7" height="12" width="12" fill="#00ADD8"></rect><text x="18" y="18" class="lang-name">Go</text></g><g transform="translate(0, 40)"><rect rx="5" x="2" y="7" height="12" width="12" fill="#4F5D95"></rect><text x="18" y="18" class="lang-name">PHP</text></g><g transform="translate(0, 60)"><rect rx="5" x="2" y="7" height="12" width="12" fill="#3e4053"></rect><text x="18" y="18" class="lang-name">Git</text></g><g transform="translate(0, 80)"><rect rx="5" x="2" y="7" height="12" width="12" fill="#3e4053"></rect><text x="18" y="18" class="lang-name">proto3</text></g><g transform="translate(0, 100)"><rect rx="5" x="2" y="7" height="12" width="12" fill="#3e4053"></rect><text x="18" y="18" class="lang-name">Docker</text></g><g transform="translate(0, 120)"><rect rx="5" x="2" y="7" height="12" width="12" fill="#3e4053"></rect><text x="18" y="18" class="lang-name">http</text></g><g transform="translate(0, 140)"><rect rx="5" x="2" y="7" height="12" width="12" fill="#3e4053"></rect><text x="18" y="18" class="lang-name">go.sum</text></g><g transform="translate(0, 160)"><rect rx="5" x="2" y="7" height="12" width="12" fill="#3e4053"></rect><text x="18" y="18" class="lang-name">Other</text></g></g></svg></g></svg>