<svg width="785" height="300" viewBox="0 0 785 300" fill="none" xmlns="http://www.w3.org/2000/svg"><style>
					.header {
						font: 600 18px &#x27;Segoe UI&#x27;, Ubuntu, Sans-Serif;
						fill: #3d858f;
						animation: fadeInAnimation 0.8s ease-in-out forwards;
					}
					
	.lang-name {
		font: 400 16px &#x27;Segoe UI&#x27;, Ubuntu, Sans-Serif;
		fill: #ffffffcc;
	}
	.xp-txt {
		font: 400 12px &#x27;Segoe UI&#x27;, Ubuntu, Sans-Serif;
		fill: black;
	}
	.xp-txt-invert {
		font: 600 12px &#x27;Segoe UI&#x27;, Ubuntu, Sans-Serif;
		fill: white;
	}
	.subtitle {
		font: 400 14px &#x27;Segoe UI&#x27;, Ubuntu, Sans-Serif;
		fill: #ffffffcc;
	}


					/* Animations */
					@keyframes scaleInAnimation {
						from {
							transform: translate(-5px, 5px) scale(0);
						}
						to {
							transform: translate(-5px, 5px) scale(1);
						}
					}
					@keyframes fadeInAnimation {
						from {
							opacity: 0;
						}
						to {
							opacity: 1;
						}
					}
				</style><rect x="0.5" y="0.5" rx="4.5" height="99%" stroke="#E4E2E2" width="784" fill="#151515" stroke-opacity="0"></rect><g transform="translate(25, 35)"><g transform="translate(0, 0)"><text x="0" y="0" class="header">Coding History of the last two weeks</text></g></g><g transform="translate(0, 55)"><svg x="25"><g transform="translate(0, 0)"><g transform="translate(0, 0)"><svg x="7" y="-20" height="240"><mask id="mask-2023-12-02"><rect x="0" y="205" width="16" height="0" fill="white" rx="5"></rect></mask><rect rx="5" ry="5" x="0" y="25" width="16" height="180" fill="#ddd"></rect><text transform="rotate(90, 4, 153)" letter-spacing="5" y="153" x="4" rotate="-90" class="xp-txt">0 XP</text></svg><text x="2" y="198" class="subtitle">Dec</text><text x="6" y="214" class="subtitle">02</text></g><g transform="translate(40, 0)"><svg x="7" y="-20" height="240"><mask id="mask-2023-12-03"><rect x="0" y="79.02061855670104" width="16" height="125.97938144329896" fill="white" rx="5"></rect></mask><rect rx="5" ry="5" x="0" y="25" width="16" height="180" fill="#ddd"></rect><rect mask="url(#mask-2023-12-03)" width="16" fill="#b276b2" y="79.02061855670104" x="0" height="125.97938144329896px"></rect><text transform="rotate(90, 4, 95.02061855670104)" letter-spacing="5" y="95.02061855670104" x="4" rotate="-90" class="xp-txt xp-txt-invert">1222 XP</text></svg><text x="2" y="198" class="subtitle">Dec</text><text x="6" y="214" class="subtitle">03</text></g><g transform="translate(80, 0)"><svg x="7" y="-20" height="240"><mask id="mask-2023-12-04"><rect x="0" y="160.15463917525773" width="16" height="44.845360824742265" fill="white" rx="5"></rect></mask><rect rx="5" ry="5" x="0" y="25" width="16" height="180" fill="#ddd"></rect><rect mask="url(#mask-2023-12-04)" width="16" fill="#b276b2" y="160.15463917525773" x="0" height="44.845360824742265px"></rect><text transform="rotate(90, 4, 82.15463917525773)" letter-spacing="5" y="82.15463917525773" x="4" rotate="-90" class="xp-txt">435 XP</text></svg><text x="2" y="198" class="subtitle">Dec</text><text x="6" y="214" class="subtitle">04</text></g><g transform="translate(120, 0)"><svg x="7" y="-20" height="240"><mask id="mask-2023-12-05"><rect x="0" y="198.50515463917526" width="16" height="6.494845360824742" fill="white" rx="5"></rect></mask><rect rx="5" ry="5" x="0" y="25" width="16" height="180" fill="#ddd"></rect><rect mask="url(#mask-2023-12-05)" width="16" fill="#b276b2" y="198.50515463917526" x="0" height="6.494845360824742px"></rect><text transform="rotate(90, 4, 133.50515463917526)" letter-spacing="5" y="133.50515463917526" x="4" rotate="-90" class="xp-txt">63 XP</text></svg><text x="2" y="198" class="subtitle">Dec</text><text x="6" y="214" class="subtitle">05</text></g><g transform="translate(160, 0)"><svg x="7" y="-20" height="240"><mask id="mask-2023-12-06"><rect x="0" y="205" width="16" height="0" fill="white" rx="5"></rect></mask><rect rx="5" ry="5" x="0" y="25" width="16" height="180" fill="#ddd"></rect><text transform="rotate(90, 4, 153)" letter-spacing="5" y="153" x="4" rotate="-90" class="xp-txt">0 XP</text></svg><text x="2" y="198" class="subtitle">Dec</text><text x="6" y="214" class="subtitle">06</text></g><g transform="translate(200, 0)"><svg x="7" y="-20" height="240"><mask id="mask-2023-12-07"><rect x="0" y="186.03092783505156" width="16" height="18.969072164948454" fill="white" rx="5"></rect></mask><rect rx="5" ry="5" x="0" y="25" width="16" height="180" fill="#ddd"></rect><rect mask="url(#mask-2023-12-07)" width="16" fill="#b276b2" y="186.03092783505156" x="0" height="18.969072164948454px"></rect><text transform="rotate(90, 4, 108.03092783505156)" letter-spacing="5" y="108.03092783505156" x="4" rotate="-90" class="xp-txt">184 XP</text></svg><text x="2" y="198" class="subtitle">Dec</text><text x="6" y="214" class="subtitle">07</text></g><g transform="translate(240, 0)"><svg x="7" y="-20" height="240"><mask id="mask-2023-12-08"><rect x="0" y="202.2164948453608" width="16" height="2.783505154639175" fill="white" rx="5"></rect></mask><rect rx="5" ry="5" x="0" y="25" width="16" height="180" fill="#ddd"></rect><rect mask="url(#mask-2023-12-08)" width="16" fill="#b276b2" y="202.2164948453608" x="0" height="2.783505154639175px"></rect><text transform="rotate(90, 4, 137.2164948453608)" letter-spacing="5" y="137.2164948453608" x="4" rotate="-90" class="xp-txt">27 XP</text></svg><text x="2" y="198" class="subtitle">Dec</text><text x="6" y="214" class="subtitle">08</text></g><g transform="translate(280, 0)"><svg x="7" y="-20" height="240"><mask id="mask-2023-12-09"><rect x="0" y="51.90721649484536" width="16" height="153.09278350515464" fill="white" rx="5"></rect></mask><rect rx="5" ry="5" x="0" y="25" width="16" height="180" fill="#ddd"></rect><rect mask="url(#mask-2023-12-09)" width="16" fill="#b276b2" y="51.90721649484536" x="0" height="153.09278350515464px"></rect><text transform="rotate(90, 4, 67.90721649484536)" letter-spacing="5" y="67.90721649484536" x="4" rotate="-90" class="xp-txt xp-txt-invert">1485 XP</text></svg><text x="2" y="198" class="subtitle">Dec</text><text x="6" y="214" class="subtitle">09</text></g><g transform="translate(320, 0)"><svg x="7" y="-20" height="240"><mask id="mask-2023-12-10"><rect x="0" y="205" width="16" height="0" fill="white" rx="5"></rect></mask><rect rx="5" ry="5" x="0" y="25" width="16" height="180" fill="#ddd"></rect><text transform="rotate(90, 4, 153)" letter-spacing="5" y="153" x="4" rotate="-90" class="xp-txt">0 XP</text></svg><text x="2" y="198" class="subtitle">Dec</text><text x="6" y="214" class="subtitle">10</text></g><g transform="translate(360, 0)"><svg x="7" y="-20" height="240"><mask id="mask-2023-12-11"><rect x="0" y="25" width="16" height="180" fill="white" rx="5"></rect></mask><rect rx="5" ry="5" x="0" y="25" width="16" height="180" fill="#ddd"></rect><rect mask="url(#mask-2023-12-11)" width="16" fill="#00B4AB" y="96.64948453608247" x="0" height="108.35051546391753px"></rect><rect mask="url(#mask-2023-12-11)" width="16" fill="#3e4053" y="91.90721649484536" x="0" height="4.742268041237113px"></rect><rect mask="url(#mask-2023-12-11)" width="16" fill="#cb171e" y="89.3298969072165" x="0" height="2.577319587628866px"></rect><rect mask="url(#mask-2023-12-11)" width="16" fill="#3e4053" y="88.09278350515464" x="0" height="1.2371134020618557px"></rect><rect mask="url(#mask-2023-12-11)" width="16" fill="#b276b2" y="25" x="0" height="63.09278350515464px"></rect><text transform="rotate(90, 4, 41)" letter-spacing="5" y="41" x="4" rotate="-90" class="xp-txt xp-txt-invert">1746 XP</text></svg><text x="2" y="198" class="subtitle">Dec</text><text x="6" y="214" class="subtitle">11</text></g><g transform="translate(400, 0)"><svg x="7" y="-20" height="240"><mask id="mask-2023-12-13"><rect x="0" y="205" width="16" height="0" fill="white" rx="5"></rect></mask><rect rx="5" ry="5" x="0" y="25" width="16" height="180" fill="#ddd"></rect><text transform="rotate(90, 4, 153)" letter-spacing="5" y="153" x="4" rotate="-90" class="xp-txt">0 XP</text></svg><text x="2" y="198" class="subtitle">Dec</text><text x="6" y="214" class="subtitle">13</text></g><g transform="translate(440, 0)"><svg x="7" y="-20" height="240"><mask id="mask-2023-12-14"><rect x="0" y="194.0721649484536" width="16" height="10.927835051546392" fill="white" rx="5"></rect></mask><rect rx="5" ry="5" x="0" y="25" width="16" height="180" fill="#ddd"></rect><rect mask="url(#mask-2023-12-14)" width="16" fill="#b276b2" y="194.0721649484536" x="0" height="10.927835051546392px"></rect><text transform="rotate(90, 4, 116.0721649484536)" letter-spacing="5" y="116.0721649484536" x="4" rotate="-90" class="xp-txt">106 XP</text></svg><text x="2" y="198" class="subtitle">Dec</text><text x="6" y="214" class="subtitle">14</text></g><g transform="translate(480, 0)"><svg x="7" y="-20" height="240"><mask id="mask-2023-12-15"><rect x="0" y="199.1237113402062" width="16" height="5.876288659793815" fill="white" rx="5"></rect></mask><rect rx="5" ry="5" x="0" y="25" width="16" height="180" fill="#ddd"></rect><rect mask="url(#mask-2023-12-15)" width="16" fill="#b276b2" y="199.1237113402062" x="0" height="5.876288659793815px"></rect><text transform="rotate(90, 4, 134.1237113402062)" letter-spacing="5" y="134.1237113402062" x="4" rotate="-90" class="xp-txt">57 XP</text></svg><text x="2" y="198" class="subtitle">Dec</text><text x="6" y="214" class="subtitle">15</text></g></g><g transform="translate(568, 0)"><g transform="translate(0, 0)"><rect rx="5" x="2" y="7" height="12" width="12" fill="#00B4AB"></rect><text x="18" y="18" class="lang-name">Dart</text></g><g transform="translate(0, 20)"><rect rx="5" x="2" y="7" height="12" width="12" fill="#3e4053"></rect><text x="18" y="18" class="lang-name">Git</text></g><g transform="translate(0, 40)"><rect rx="5" x="2" y="7" height="12" width="12" fill="#cb171e"></rect><text x="18" y="18" class="lang-name">YAML</text></g><g transform="translate(0, 60)"><rect rx="5" x="2" y="7" height="12" width="12" fill="#3e4053"></rect><text x="18" y="18" class="lang-name">JSON</text></g><g transform="translate(0, 80)"><rect rx="5" x="2" y="7" height="12" width="12" fill="#3e4053"></rect><text x="18" y="18" class="lang-name">Other</text></g></g></svg></g></svg>