<svg width="785" height="300" viewBox="0 0 785 300" fill="none" xmlns="http://www.w3.org/2000/svg"><style>
					.header {
						font: 600 18px &#x27;Segoe UI&#x27;, Ubuntu, Sans-Serif;
						fill: #3d858f;
						animation: fadeInAnimation 0.8s ease-in-out forwards;
					}
					
	.lang-name {
		font: 400 16px &#x27;Segoe UI&#x27;, Ubuntu, Sans-Serif;
		fill: #ffffffcc;
	}
	.xp-txt {
		font: 400 12px &#x27;Segoe UI&#x27;, Ubuntu, Sans-Serif;
		fill: black;
	}
	.xp-txt-invert {
		font: 600 12px &#x27;Segoe UI&#x27;, Ubuntu, Sans-Serif;
		fill: white;
	}
	.subtitle {
		font: 400 14px &#x27;Segoe UI&#x27;, Ubuntu, Sans-Serif;
		fill: #ffffffcc;
	}


					/* Animations */
					@keyframes scaleInAnimation {
						from {
							transform: translate(-5px, 5px) scale(0);
						}
						to {
							transform: translate(-5px, 5px) scale(1);
						}
					}
					@keyframes fadeInAnimation {
						from {
							opacity: 0;
						}
						to {
							opacity: 1;
						}
					}
				</style><rect x="0.5" y="0.5" rx="4.5" height="99%" stroke="#E4E2E2" width="784" fill="#151515" stroke-opacity="0"></rect><g transform="translate(25, 35)"><g transform="translate(0, 0)"><text x="0" y="0" class="header">Coding History of the last two weeks</text></g></g><g transform="translate(0, 55)"><svg x="25"><g transform="translate(0, 0)"><g transform="translate(0, 0)"><svg x="7" y="-20" height="240"><mask id="mask-2024-02-21"><rect x="0" y="122.02060221870047" width="16" height="82.97939778129953" fill="white" rx="5"></rect></mask><rect rx="5" ry="5" x="0" y="25" width="16" height="180" fill="#ddd"></rect><rect mask="url(#mask-2024-02-21)" width="16" fill="#3572A5" y="141.54516640253564" x="0" height="63.454833597464344px"></rect><rect mask="url(#mask-2024-02-21)" width="16" fill="#3e4053" y="138.78763866877972" x="0" height="2.7575277337559427px"></rect><rect mask="url(#mask-2024-02-21)" width="16" fill="#3e4053" y="137.4564183835182" x="0" height="1.3312202852614896px"></rect><rect mask="url(#mask-2024-02-21)" width="16" fill="#b276b2" y="122.02060221870047" x="0" height="15.43581616481775px"></rect><text transform="rotate(90, 4, 31.020602218700475)" letter-spacing="5" y="31.020602218700475" x="4" rotate="-90" class="xp-txt">2618 XP</text></svg><text x="2" y="198" class="subtitle">Feb</text><text x="6" y="214" class="subtitle">21</text></g><g transform="translate(40, 0)"><svg x="7" y="-20" height="240"><mask id="mask-2024-02-22"><rect x="0" y="199.38985736925514" width="16" height="5.61014263074485" fill="white" rx="5"></rect></mask><rect rx="5" ry="5" x="0" y="25" width="16" height="180" fill="#ddd"></rect><rect mask="url(#mask-2024-02-22)" width="16" fill="#b276b2" y="199.38985736925514" x="0" height="5.61014263074485px"></rect><text transform="rotate(90, 4, 121.38985736925514)" letter-spacing="5" y="121.38985736925514" x="4" rotate="-90" class="xp-txt">177 XP</text></svg><text x="2" y="198" class="subtitle">Feb</text><text x="6" y="214" class="subtitle">22</text></g><g transform="translate(80, 0)"><svg x="7" y="-20" height="240"><mask id="mask-2024-02-23"><rect x="0" y="169.72266244057053" width="16" height="35.277337559429476" fill="white" rx="5"></rect></mask><rect rx="5" ry="5" x="0" y="25" width="16" height="180" fill="#ddd"></rect><rect mask="url(#mask-2024-02-23)" width="16" fill="#00ADD8" y="177.07606973058637" x="0" height="27.923930269413628px"></rect><rect mask="url(#mask-2024-02-23)" width="16" fill="#b276b2" y="169.72266244057053" x="0" height="7.353407290015848px"></rect><text transform="rotate(90, 4, 78.72266244057053)" letter-spacing="5" y="78.72266244057053" x="4" rotate="-90" class="xp-txt">1113 XP</text></svg><text x="2" y="198" class="subtitle">Feb</text><text x="6" y="214" class="subtitle">23</text></g><g transform="translate(120, 0)"><svg x="7" y="-20" height="240"><mask id="mask-2024-02-24"><rect x="0" y="105.22187004754358" width="16" height="99.77812995245642" fill="white" rx="5"></rect></mask><rect rx="5" ry="5" x="0" y="25" width="16" height="180" fill="#ddd"></rect><rect mask="url(#mask-2024-02-24)" width="16" fill="#00ADD8" y="136.18858954041204" x="0" height="68.81141045958796px"></rect><rect mask="url(#mask-2024-02-24)" width="16" fill="#3e4053" y="108.58161648177496" x="0" height="27.606973058637085px"></rect><rect mask="url(#mask-2024-02-24)" width="16" fill="#b276b2" y="105.22187004754358" x="0" height="3.3597464342313788px"></rect><text transform="rotate(90, 4, 121.22187004754358)" letter-spacing="5" y="121.22187004754358" x="4" rotate="-90" class="xp-txt xp-txt-invert">3148 XP</text></svg><text x="2" y="198" class="subtitle">Feb</text><text x="6" y="214" class="subtitle">24</text></g><g transform="translate(160, 0)"><svg x="7" y="-20" height="240"><mask id="mask-2024-02-25"><rect x="0" y="25" width="16" height="180" fill="white" rx="5"></rect></mask><rect rx="5" ry="5" x="0" y="25" width="16" height="180" fill="#ddd"></rect><rect mask="url(#mask-2024-02-25)" width="16" fill="#00ADD8" y="60.847860538827256" x="0" height="144.15213946117274px"></rect><rect mask="url(#mask-2024-02-25)" width="16" fill="#3e4053" y="45.76069730586371" x="0" height="15.08716323296355px"></rect><rect mask="url(#mask-2024-02-25)" width="16" fill="#3e4053" y="45.6973058637084" x="0" height="0.06339144215530904px"></rect><rect mask="url(#mask-2024-02-25)" width="16" fill="#b276b2" y="25" x="0" height="20.6973058637084px"></rect><text transform="rotate(90, 4, 41)" letter-spacing="5" y="41" x="4" rotate="-90" class="xp-txt xp-txt-invert">5679 XP</text></svg><text x="2" y="198" class="subtitle">Feb</text><text x="6" y="214" class="subtitle">25</text></g><g transform="translate(200, 0)"><svg x="7" y="-20" height="240"><mask id="mask-2024-02-26"><rect x="0" y="163.03486529318542" width="16" height="41.96513470681458" fill="white" rx="5"></rect></mask><rect rx="5" ry="5" x="0" y="25" width="16" height="180" fill="#ddd"></rect><rect mask="url(#mask-2024-02-26)" width="16" fill="#b276b2" y="163.03486529318542" x="0" height="41.96513470681458px"></rect><text transform="rotate(90, 4, 72.03486529318542)" letter-spacing="5" y="72.03486529318542" x="4" rotate="-90" class="xp-txt">1324 XP</text></svg><text x="2" y="198" class="subtitle">Feb</text><text x="6" y="214" class="subtitle">26</text></g><g transform="translate(240, 0)"><svg x="7" y="-20" height="240"><mask id="mask-2024-02-27"><rect x="0" y="153.62123613312204" width="16" height="51.378763866877975" fill="white" rx="5"></rect></mask><rect rx="5" ry="5" x="0" y="25" width="16" height="180" fill="#ddd"></rect><rect mask="url(#mask-2024-02-27)" width="16" fill="#3e4053" y="204.9366085578447" x="0" height="0.06339144215530904px"></rect><rect mask="url(#mask-2024-02-27)" width="16" fill="#b276b2" y="153.62123613312204" x="0" height="51.31537242472266px"></rect><text transform="rotate(90, 4, 62.62123613312204)" letter-spacing="5" y="62.62123613312204" x="4" rotate="-90" class="xp-txt">1621 XP</text></svg><text x="2" y="198" class="subtitle">Feb</text><text x="6" y="214" class="subtitle">27</text></g><g transform="translate(280, 0)"><svg x="7" y="-20" height="240"><mask id="mask-2024-02-28"><rect x="0" y="83.12995245641838" width="16" height="121.87004754358162" fill="white" rx="5"></rect></mask><rect rx="5" ry="5" x="0" y="25" width="16" height="180" fill="#ddd"></rect><rect mask="url(#mask-2024-02-28)" width="16" fill="#3572A5" y="162.8446909667195" x="0" height="42.15530903328051px"></rect><rect mask="url(#mask-2024-02-28)" width="16" fill="#3e4053" y="144.74643423137877" x="0" height="18.09825673534073px"></rect><rect mask="url(#mask-2024-02-28)" width="16" fill="#3e4053" y="139.83359746434232" x="0" height="4.91283676703645px"></rect><rect mask="url(#mask-2024-02-28)" width="16" fill="#3e4053" y="139.770206022187" x="0" height="0.06339144215530904px"></rect><rect mask="url(#mask-2024-02-28)" width="16" fill="#b276b2" y="83.12995245641838" x="0" height="56.640253565768624px"></rect><text transform="rotate(90, 4, 99.12995245641838)" letter-spacing="5" y="99.12995245641838" x="4" rotate="-90" class="xp-txt xp-txt-invert">3845 XP</text></svg><text x="2" y="198" class="subtitle">Feb</text><text x="6" y="214" class="subtitle">28</text></g><g transform="translate(320, 0)"><svg x="7" y="-20" height="240"><mask id="mask-2024-02-29"><rect x="0" y="197.01267828843106" width="16" height="7.9873217115689386" fill="white" rx="5"></rect></mask><rect rx="5" ry="5" x="0" y="25" width="16" height="180" fill="#ddd"></rect><rect mask="url(#mask-2024-02-29)" width="16" fill="#b276b2" y="197.01267828843106" x="0" height="7.9873217115689386px"></rect><text transform="rotate(90, 4, 119.01267828843106)" letter-spacing="5" y="119.01267828843106" x="4" rotate="-90" class="xp-txt">252 XP</text></svg><text x="2" y="198" class="subtitle">Feb</text><text x="6" y="214" class="subtitle">29</text></g><g transform="translate(360, 0)"><svg x="7" y="-20" height="240"><mask id="mask-2024-03-01"><rect x="0" y="185.76069730586372" width="16" height="19.239302694136292" fill="white" rx="5"></rect></mask><rect rx="5" ry="5" x="0" y="25" width="16" height="180" fill="#ddd"></rect><rect mask="url(#mask-2024-03-01)" width="16" fill="#3e4053" y="192.5435816164818" x="0" height="12.456418383518225px"></rect><rect mask="url(#mask-2024-03-01)" width="16" fill="#3e4053" y="192.48019017432645" x="0" height="0.06339144215530904px"></rect><rect mask="url(#mask-2024-03-01)" width="16" fill="#b276b2" y="185.76069730586372" x="0" height="6.7194928684627575px"></rect><text transform="rotate(90, 4, 107.76069730586372)" letter-spacing="5" y="107.76069730586372" x="4" rotate="-90" class="xp-txt">607 XP</text></svg><text x="2" y="198" class="subtitle">Mar</text><text x="6" y="214" class="subtitle">01</text></g><g transform="translate(400, 0)"><svg x="7" y="-20" height="240"><mask id="mask-2024-03-03"><rect x="0" y="205" width="16" height="0" fill="white" rx="5"></rect></mask><rect rx="5" ry="5" x="0" y="25" width="16" height="180" fill="#ddd"></rect><text transform="rotate(90, 4, 153)" letter-spacing="5" y="153" x="4" rotate="-90" class="xp-txt">0 XP</text></svg><text x="2" y="198" class="subtitle">Mar</text><text x="6" y="214" class="subtitle">03</text></g><g transform="translate(440, 0)"><svg x="7" y="-20" height="240"><mask id="mask-2024-03-04"><rect x="0" y="30.039619651347067" width="16" height="174.96038034865293" fill="white" rx="5"></rect></mask><rect rx="5" ry="5" x="0" y="25" width="16" height="180" fill="#ddd"></rect><rect mask="url(#mask-2024-03-04)" width="16" fill="#3572A5" y="174.54041204437402" x="0" height="30.45958795562599px"></rect><rect mask="url(#mask-2024-03-04)" width="16" fill="#dea584" y="162.43264659270997" x="0" height="12.107765451664026px"></rect><rect mask="url(#mask-2024-03-04)" width="16" fill="#3e4053" y="156.37876386687796" x="0" height="6.053882725832013px"></rect><rect mask="url(#mask-2024-03-04)" width="16" fill="#3e4053" y="153.7797147385103" x="0" height="2.59904912836767px"></rect><rect mask="url(#mask-2024-03-04)" width="16" fill="#3e4053" y="146.71156893819335" x="0" height="7.068145800316957px"></rect><rect mask="url(#mask-2024-03-04)" width="16" fill="#b276b2" y="30.039619651347067" x="0" height="116.67194928684627px"></rect><text transform="rotate(90, 4, 46.03961965134707)" letter-spacing="5" y="46.03961965134707" x="4" rotate="-90" class="xp-txt xp-txt-invert">5520 XP</text></svg><text x="2" y="198" class="subtitle">Mar</text><text x="6" y="214" class="subtitle">04</text></g><g transform="translate(480, 0)"><svg x="7" y="-20" height="240"><mask id="mask-2024-03-05"><rect x="0" y="83.85895404120444" width="16" height="121.14104595879556" fill="white" rx="5"></rect></mask><rect rx="5" ry="5" x="0" y="25" width="16" height="180" fill="#ddd"></rect><rect mask="url(#mask-2024-03-05)" width="16" fill="#3572A5" y="204.20760697305863" x="0" height="0.7923930269413629px"></rect><rect mask="url(#mask-2024-03-05)" width="16" fill="#dea584" y="167.44057052297939" x="0" height="36.76703645007924px"></rect><rect mask="url(#mask-2024-03-05)" width="16" fill="#3e4053" y="167.37717908082408" x="0" height="0.06339144215530904px"></rect><rect mask="url(#mask-2024-03-05)" width="16" fill="#b276b2" y="83.85895404120444" x="0" height="83.51822503961965px"></rect><text transform="rotate(90, 4, 99.85895404120444)" letter-spacing="5" y="99.85895404120444" x="4" rotate="-90" class="xp-txt xp-txt-invert">3822 XP</text></svg><text x="2" y="198" class="subtitle">Mar</text><text x="6" y="214" class="subtitle">05</text></g></g><g transform="translate(568, 0)"><g transform="translate(0, 0)"><rect rx="5" x="2" y="7" height="12" width="12" fill="#00ADD8"></rect><text x="18" y="18" class="lang-name">Go</text></g><g transform="translate(0, 20)"><rect rx="5" x="2" y="7" height="12" width="12" fill="#3572A5"></rect><text x="18" y="18" class="lang-name">Python</text></g><g transform="translate(0, 40)"><rect rx="5" x="2" y="7" height="12" width="12" fill="#dea584"></rect><text x="18" y="18" class="lang-name">Rust</text></g><g transform="translate(0, 60)"><rect rx="5" x="2" y="7" height="12" width="12" fill="#3e4053"></rect><text x="18" y="18" class="lang-name">proto3</text></g><g transform="translate(0, 80)"><rect rx="5" x="2" y="7" height="12" width="12" fill="#3e4053"></rect><text x="18" y="18" class="lang-name">Docker</text></g><g transform="translate(0, 100)"><rect rx="5" x="2" y="7" height="12" width="12" fill="#3e4053"></rect><text x="18" y="18" class="lang-name">Garmin Monkey C</text></g><g transform="translate(0, 120)"><rect rx="5" x="2" y="7" height="12" width="12" fill="#3e4053"></rect><text x="18" y="18" class="lang-name">JSON</text></g><g transform="translate(0, 140)"><rect rx="5" x="2" y="7" height="12" width="12" fill="#3e4053"></rect><text x="18" y="18" class="lang-name">VS Code Input</text></g><g transform="translate(0, 160)"><rect rx="5" x="2" y="7" height="12" width="12" fill="#3e4053"></rect><text x="18" y="18" class="lang-name">Other</text></g></g></svg></g></svg>