<svg width="745" height="300" viewBox="0 0 745 300" fill="none" xmlns="http://www.w3.org/2000/svg"><style>
					.header {
						font: 600 18px &#x27;Segoe UI&#x27;, Ubuntu, Sans-Serif;
						fill: #3d858f;
						animation: fadeInAnimation 0.8s ease-in-out forwards;
					}
					
	.lang-name {
		font: 400 16px &#x27;Segoe UI&#x27;, Ubuntu, Sans-Serif;
		fill: #ffffffcc;
	}
	.xp-txt {
		font: 400 12px &#x27;Segoe UI&#x27;, Ubuntu, Sans-Serif;
		fill: black;
	}
	.xp-txt-invert {
		font: 600 12px &#x27;Segoe UI&#x27;, Ubuntu, Sans-Serif;
		fill: white;
	}
	.subtitle {
		font: 400 14px &#x27;Segoe UI&#x27;, Ubuntu, Sans-Serif;
		fill: #ffffffcc;
	}


					/* Animations */
					@keyframes scaleInAnimation {
						from {
							transform: translate(-5px, 5px) scale(0);
						}
						to {
							transform: translate(-5px, 5px) scale(1);
						}
					}
					@keyframes fadeInAnimation {
						from {
							opacity: 0;
						}
						to {
							opacity: 1;
						}
					}
				</style><rect x="0.5" y="0.5" rx="4.5" height="99%" stroke="#E4E2E2" width="744" fill="#151515" stroke-opacity="0"></rect><g transform="translate(25, 35)"><g transform="translate(0, 0)"><text x="0" y="0" class="header">Coding History of the last two weeks</text></g></g><g transform="translate(0, 55)"><svg x="25"><g transform="translate(0, 0)"><g transform="translate(0, 0)"><svg x="7" y="-20" height="240"><mask id="mask-2023-12-28"><rect x="0" y="78.0049610205528" width="16" height="126.9950389794472" fill="white" rx="5"></rect></mask><rect rx="5" ry="5" x="0" y="25" width="16" height="180" fill="#ddd"></rect><rect mask="url(#mask-2023-12-28)" width="16" fill="#b276b2" y="78.0049610205528" x="0" height="126.9950389794472px"></rect><text transform="rotate(90, 4, 94.0049610205528)" letter-spacing="5" y="94.0049610205528" x="4" rotate="-90" class="xp-txt xp-txt-invert">1991 XP</text></svg><text x="2" y="198" class="subtitle">Dec</text><text x="6" y="214" class="subtitle">28</text></g><g transform="translate(40, 0)"><svg x="7" y="-20" height="240"><mask id="mask-2023-12-29"><rect x="0" y="139.93975903614458" width="16" height="65.06024096385542" fill="white" rx="5"></rect></mask><rect rx="5" ry="5" x="0" y="25" width="16" height="180" fill="#ddd"></rect><rect mask="url(#mask-2023-12-29)" width="16" fill="#3572A5" y="197.9199149539334" x="0" height="7.080085046066619px"></rect><rect mask="url(#mask-2023-12-29)" width="16" fill="#3e4053" y="186.05598866052446" x="0" height="11.86392629340893px"></rect><rect mask="url(#mask-2023-12-29)" width="16" fill="#b276b2" y="139.93975903614458" x="0" height="46.11622962437987px"></rect><text transform="rotate(90, 4, 48.93975903614458)" letter-spacing="5" y="48.93975903614458" x="4" rotate="-90" class="xp-txt">1020 XP</text></svg><text x="2" y="198" class="subtitle">Dec</text><text x="6" y="214" class="subtitle">29</text></g><g transform="translate(80, 0)"><svg x="7" y="-20" height="240"><mask id="mask-2023-12-30"><rect x="0" y="200.53508150248052" width="16" height="4.4649184975194895" fill="white" rx="5"></rect></mask><rect rx="5" ry="5" x="0" y="25" width="16" height="180" fill="#ddd"></rect><rect mask="url(#mask-2023-12-30)" width="16" fill="#b276b2" y="200.53508150248052" x="0" height="4.4649184975194895px"></rect><text transform="rotate(90, 4, 135.53508150248052)" letter-spacing="5" y="135.53508150248052" x="4" rotate="-90" class="xp-txt">70 XP</text></svg><text x="2" y="198" class="subtitle">Dec</text><text x="6" y="214" class="subtitle">30</text></g><g transform="translate(120, 0)"><svg x="7" y="-20" height="240"><mask id="mask-2024-01-01"><rect x="0" y="205" width="16" height="0" fill="white" rx="5"></rect></mask><rect rx="5" ry="5" x="0" y="25" width="16" height="180" fill="#ddd"></rect><text transform="rotate(90, 4, 153)" letter-spacing="5" y="153" x="4" rotate="-90" class="xp-txt">0 XP</text></svg><text x="2" y="198" class="subtitle">Jan</text><text x="6" y="214" class="subtitle">01</text></g><g transform="translate(160, 0)"><svg x="7" y="-20" height="240"><mask id="mask-2024-01-02"><rect x="0" y="204.1070163004961" width="16" height="0.892983699503898" fill="white" rx="5"></rect></mask><rect rx="5" ry="5" x="0" y="25" width="16" height="180" fill="#ddd"></rect><rect mask="url(#mask-2024-01-02)" width="16" fill="#b276b2" y="204.1070163004961" x="0" height="0.892983699503898px"></rect><text transform="rotate(90, 4, 139.1070163004961)" letter-spacing="5" y="139.1070163004961" x="4" rotate="-90" class="xp-txt">14 XP</text></svg><text x="2" y="198" class="subtitle">Jan</text><text x="6" y="214" class="subtitle">02</text></g><g transform="translate(200, 0)"><svg x="7" y="-20" height="240"><mask id="mask-2024-01-03"><rect x="0" y="190.83982990786677" width="16" height="14.160170092133239" fill="white" rx="5"></rect></mask><rect rx="5" ry="5" x="0" y="25" width="16" height="180" fill="#ddd"></rect><rect mask="url(#mask-2024-01-03)" width="16" fill="#b276b2" y="190.83982990786677" x="0" height="14.160170092133239px"></rect><text transform="rotate(90, 4, 112.83982990786677)" letter-spacing="5" y="112.83982990786677" x="4" rotate="-90" class="xp-txt">222 XP</text></svg><text x="2" y="198" class="subtitle">Jan</text><text x="6" y="214" class="subtitle">03</text></g><g transform="translate(240, 0)"><svg x="7" y="-20" height="240"><mask id="mask-2024-01-05"><rect x="0" y="205" width="16" height="0" fill="white" rx="5"></rect></mask><rect rx="5" ry="5" x="0" y="25" width="16" height="180" fill="#ddd"></rect><text transform="rotate(90, 4, 153)" letter-spacing="5" y="153" x="4" rotate="-90" class="xp-txt">0 XP</text></svg><text x="2" y="198" class="subtitle">Jan</text><text x="6" y="214" class="subtitle">05</text></g><g transform="translate(280, 0)"><svg x="7" y="-20" height="240"><mask id="mask-2024-01-06"><rect x="0" y="25" width="16" height="180" fill="white" rx="5"></rect></mask><rect rx="5" ry="5" x="0" y="25" width="16" height="180" fill="#ddd"></rect><rect mask="url(#mask-2024-01-06)" width="16" fill="#00ADD8" y="116.7859673990078" x="0" height="88.2140326009922px"></rect><rect mask="url(#mask-2024-01-06)" width="16" fill="#3e4053" y="93.75974486180014" x="0" height="23.026222537207655px"></rect><rect mask="url(#mask-2024-01-06)" width="16" fill="#3e4053" y="79.02551381998583" x="0" height="14.734231041814317px"></rect><rect mask="url(#mask-2024-01-06)" width="16" fill="#3e4053" y="70.98866052445075" x="0" height="8.036853295535082px"></rect><rect mask="url(#mask-2024-01-06)" width="16" fill="#b276b2" y="25" x="0" height="45.988660524450744px"></rect><text transform="rotate(90, 4, 41)" letter-spacing="5" y="41" x="4" rotate="-90" class="xp-txt xp-txt-invert">2822 XP</text></svg><text x="2" y="198" class="subtitle">Jan</text><text x="6" y="214" class="subtitle">06</text></g><g transform="translate(320, 0)"><svg x="7" y="-20" height="240"><mask id="mask-2024-01-07"><rect x="0" y="186.37491141034727" width="16" height="18.62508858965273" fill="white" rx="5"></rect></mask><rect rx="5" ry="5" x="0" y="25" width="16" height="180" fill="#ddd"></rect><rect mask="url(#mask-2024-01-07)" width="16" fill="#b276b2" y="186.37491141034727" x="0" height="18.62508858965273px"></rect><text transform="rotate(90, 4, 108.37491141034727)" letter-spacing="5" y="108.37491141034727" x="4" rotate="-90" class="xp-txt">292 XP</text></svg><text x="2" y="198" class="subtitle">Jan</text><text x="6" y="214" class="subtitle">07</text></g><g transform="translate(360, 0)"><svg x="7" y="-20" height="240"><mask id="mask-2024-01-08"><rect x="0" y="97.77817150956768" width="16" height="107.22182849043232" fill="white" rx="5"></rect></mask><rect rx="5" ry="5" x="0" y="25" width="16" height="180" fill="#ddd"></rect><rect mask="url(#mask-2024-01-08)" width="16" fill="#3e4053" y="187.71438695960313" x="0" height="17.285613040396882px"></rect><rect mask="url(#mask-2024-01-08)" width="16" fill="#3572A5" y="180.69808646350106" x="0" height="7.016300496102056px"></rect><rect mask="url(#mask-2024-01-08)" width="16" fill="#b276b2" y="97.77817150956768" x="0" height="82.91991495393339px"></rect><text transform="rotate(90, 4, 113.77817150956768)" letter-spacing="5" y="113.77817150956768" x="4" rotate="-90" class="xp-txt xp-txt-invert">1681 XP</text></svg><text x="2" y="198" class="subtitle">Jan</text><text x="6" y="214" class="subtitle">08</text></g><g transform="translate(400, 0)"><svg x="7" y="-20" height="240"><mask id="mask-2024-01-09"><rect x="0" y="156.45995747696668" width="16" height="48.54004252303331" fill="white" rx="5"></rect></mask><rect rx="5" ry="5" x="0" y="25" width="16" height="180" fill="#ddd"></rect><rect mask="url(#mask-2024-01-09)" width="16" fill="#b276b2" y="156.45995747696668" x="0" height="48.54004252303331px"></rect><text transform="rotate(90, 4, 78.45995747696668)" letter-spacing="5" y="78.45995747696668" x="4" rotate="-90" class="xp-txt">761 XP</text></svg><text x="2" y="198" class="subtitle">Jan</text><text x="6" y="214" class="subtitle">09</text></g><g transform="translate(440, 0)"><svg x="7" y="-20" height="240"><mask id="mask-2024-01-10"><rect x="0" y="66.52374202693125" width="16" height="138.47625797306875" fill="white" rx="5"></rect></mask><rect rx="5" ry="5" x="0" y="25" width="16" height="180" fill="#ddd"></rect><rect mask="url(#mask-2024-01-10)" width="16" fill="#4F5D95" y="171.51311126860384" x="0" height="33.48688873139617px"></rect><rect mask="url(#mask-2024-01-10)" width="16" fill="#b276b2" y="66.52374202693125" x="0" height="104.98936924167258px"></rect><text transform="rotate(90, 4, 82.52374202693125)" letter-spacing="5" y="82.52374202693125" x="4" rotate="-90" class="xp-txt xp-txt-invert">2171 XP</text></svg><text x="2" y="198" class="subtitle">Jan</text><text x="6" y="214" class="subtitle">10</text></g></g><g transform="translate(536, 0)"><g transform="translate(0, 0)"><rect rx="5" x="2" y="7" height="12" width="12" fill="#00ADD8"></rect><text x="18" y="18" class="lang-name">Go</text></g><g transform="translate(0, 20)"><rect rx="5" x="2" y="7" height="12" width="12" fill="#4F5D95"></rect><text x="18" y="18" class="lang-name">PHP</text></g><g transform="translate(0, 40)"><rect rx="5" x="2" y="7" height="12" width="12" fill="#3e4053"></rect><text x="18" y="18" class="lang-name">proto3</text></g><g transform="translate(0, 60)"><rect rx="5" x="2" y="7" height="12" width="12" fill="#3e4053"></rect><text x="18" y="18" class="lang-name">Docker</text></g><g transform="translate(0, 80)"><rect rx="5" x="2" y="7" height="12" width="12" fill="#3e4053"></rect><text x="18" y="18" class="lang-name">http</text></g><g transform="translate(0, 100)"><rect rx="5" x="2" y="7" height="12" width="12" fill="#3572A5"></rect><text x="18" y="18" class="lang-name">Python</text></g><g transform="translate(0, 120)"><rect rx="5" x="2" y="7" height="12" width="12" fill="#3e4053"></rect><text x="18" y="18" class="lang-name">JSON</text></g><g transform="translate(0, 140)"><rect rx="5" x="2" y="7" height="12" width="12" fill="#3e4053"></rect><text x="18" y="18" class="lang-name">go.sum</text></g><g transform="translate(0, 160)"><rect rx="5" x="2" y="7" height="12" width="12" fill="#3e4053"></rect><text x="18" y="18" class="lang-name">Other</text></g></g></svg></g></svg>