<svg width="785" height="300" viewBox="0 0 785 300" fill="none" xmlns="http://www.w3.org/2000/svg"><style>
					.header {
						font: 600 18px &#x27;Segoe UI&#x27;, Ubuntu, Sans-Serif;
						fill: #3d858f;
						animation: fadeInAnimation 0.8s ease-in-out forwards;
					}
					
	.lang-name {
		font: 400 16px &#x27;Segoe UI&#x27;, Ubuntu, Sans-Serif;
		fill: #ffffffcc;
	}
	.xp-txt {
		font: 400 12px &#x27;Segoe UI&#x27;, Ubuntu, Sans-Serif;
		fill: black;
	}
	.xp-txt-invert {
		font: 600 12px &#x27;Segoe UI&#x27;, Ubuntu, Sans-Serif;
		fill: white;
	}
	.subtitle {
		font: 400 14px &#x27;Segoe UI&#x27;, Ubuntu, Sans-Serif;
		fill: #ffffffcc;
	}


					/* Animations */
					@keyframes scaleInAnimation {
						from {
							transform: translate(-5px, 5px) scale(0);
						}
						to {
							transform: translate(-5px, 5px) scale(1);
						}
					}
					@keyframes fadeInAnimation {
						from {
							opacity: 0;
						}
						to {
							opacity: 1;
						}
					}
				</style><rect x="0.5" y="0.5" rx="4.5" height="99%" stroke="#E4E2E2" width="784" fill="#151515" stroke-opacity="0"></rect><g transform="translate(25, 35)"><g transform="translate(0, 0)"><text x="0" y="0" class="header">Coding History of the last two weeks</text></g></g><g transform="translate(0, 55)"><svg x="25"><g transform="translate(0, 0)"><g transform="translate(0, 0)"><svg x="7" y="-20" height="240"><mask id="mask-2024-03-13"><rect x="0" y="205" width="16" height="0" fill="white" rx="5"></rect></mask><rect rx="5" ry="5" x="0" y="25" width="16" height="180" fill="#ddd"></rect><text transform="rotate(90, 4, 153)" letter-spacing="5" y="153" x="4" rotate="-90" class="xp-txt">0 XP</text></svg><text x="2" y="198" class="subtitle">Mar</text><text x="6" y="214" class="subtitle">13</text></g><g transform="translate(40, 0)"><svg x="7" y="-20" height="240"><mask id="mask-2024-03-14"><rect x="0" y="204.5934755332497" width="16" height="0.4065244667503137" fill="white" rx="5"></rect></mask><rect rx="5" ry="5" x="0" y="25" width="16" height="180" fill="#ddd"></rect><rect mask="url(#mask-2024-03-14)" width="16" fill="#b276b2" y="204.5934755332497" x="0" height="0.4065244667503137px"></rect><text transform="rotate(90, 4, 139.5934755332497)" letter-spacing="5" y="139.5934755332497" x="4" rotate="-90" class="xp-txt">18 XP</text></svg><text x="2" y="198" class="subtitle">Mar</text><text x="6" y="214" class="subtitle">14</text></g><g transform="translate(80, 0)"><svg x="7" y="-20" height="240"><mask id="mask-2024-03-15"><rect x="0" y="191.69761606022584" width="16" height="13.302383939774153" fill="white" rx="5"></rect></mask><rect rx="5" ry="5" x="0" y="25" width="16" height="180" fill="#ddd"></rect><rect mask="url(#mask-2024-03-15)" width="16" fill="#b276b2" y="191.69761606022584" x="0" height="13.302383939774153px"></rect><text transform="rotate(90, 4, 113.69761606022584)" letter-spacing="5" y="113.69761606022584" x="4" rotate="-90" class="xp-txt">589 XP</text></svg><text x="2" y="198" class="subtitle">Mar</text><text x="6" y="214" class="subtitle">15</text></g><g transform="translate(120, 0)"><svg x="7" y="-20" height="240"><mask id="mask-2024-03-16"><rect x="0" y="202.26725219573402" width="16" height="2.7327478042659976" fill="white" rx="5"></rect></mask><rect rx="5" ry="5" x="0" y="25" width="16" height="180" fill="#ddd"></rect><rect mask="url(#mask-2024-03-16)" width="16" fill="#b276b2" y="202.26725219573402" x="0" height="2.7327478042659976px"></rect><text transform="rotate(90, 4, 124.26725219573402)" letter-spacing="5" y="124.26725219573402" x="4" rotate="-90" class="xp-txt">121 XP</text></svg><text x="2" y="198" class="subtitle">Mar</text><text x="6" y="214" class="subtitle">16</text></g><g transform="translate(160, 0)"><svg x="7" y="-20" height="240"><mask id="mask-2024-03-17"><rect x="0" y="205" width="16" height="0" fill="white" rx="5"></rect></mask><rect rx="5" ry="5" x="0" y="25" width="16" height="180" fill="#ddd"></rect><text transform="rotate(90, 4, 153)" letter-spacing="5" y="153" x="4" rotate="-90" class="xp-txt">0 XP</text></svg><text x="2" y="198" class="subtitle">Mar</text><text x="6" y="214" class="subtitle">17</text></g><g transform="translate(200, 0)"><svg x="7" y="-20" height="240"><mask id="mask-2024-03-18"><rect x="0" y="179.56963613550815" width="16" height="25.430363864491845" fill="white" rx="5"></rect></mask><rect rx="5" ry="5" x="0" y="25" width="16" height="180" fill="#ddd"></rect><rect mask="url(#mask-2024-03-18)" width="16" fill="#3572A5" y="199.7151819322459" x="0" height="5.2848180677540775px"></rect><rect mask="url(#mask-2024-03-18)" width="16" fill="#3e4053" y="199.60225846925974" x="0" height="0.11292346298619825px"></rect><rect mask="url(#mask-2024-03-18)" width="16" fill="#3e4053" y="199.48933500627354" x="0" height="0.11292346298619825px"></rect><rect mask="url(#mask-2024-03-18)" width="16" fill="#b276b2" y="179.56963613550815" x="0" height="19.91969887076537px"></rect><text transform="rotate(90, 4, 88.56963613550815)" letter-spacing="5" y="88.56963613550815" x="4" rotate="-90" class="xp-txt">1126 XP</text></svg><text x="2" y="198" class="subtitle">Mar</text><text x="6" y="214" class="subtitle">18</text></g><g transform="translate(240, 0)"><svg x="7" y="-20" height="240"><mask id="mask-2024-03-19"><rect x="0" y="84.19447929736512" width="16" height="120.80552070263488" fill="white" rx="5"></rect></mask><rect rx="5" ry="5" x="0" y="25" width="16" height="180" fill="#ddd"></rect><rect mask="url(#mask-2024-03-19)" width="16" fill="#3572A5" y="202.9447929736512" x="0" height="2.055207026348808px"></rect><rect mask="url(#mask-2024-03-19)" width="16" fill="#3e4053" y="199.534504391468" x="0" height="3.410288582183187px"></rect><rect mask="url(#mask-2024-03-19)" width="16" fill="#cb171e" y="187" x="0" height="12.534504391468005px"></rect><rect mask="url(#mask-2024-03-19)" width="16" fill="#f34b7d" y="179.84065244667502" x="0" height="7.159347553324968px"></rect><rect mask="url(#mask-2024-03-19)" width="16" fill="#3e4053" y="172.95232120451695" x="0" height="6.888331242158093px"></rect><rect mask="url(#mask-2024-03-19)" width="16" fill="#3e4053" y="171.2810539523212" x="0" height="1.671267252195734px"></rect><rect mask="url(#mask-2024-03-19)" width="16" fill="#b276b2" y="84.19447929736512" x="0" height="87.08657465495608px"></rect><text transform="rotate(90, 4, 100.19447929736512)" letter-spacing="5" y="100.19447929736512" x="4" rotate="-90" class="xp-txt xp-txt-invert">5349 XP</text></svg><text x="2" y="198" class="subtitle">Mar</text><text x="6" y="214" class="subtitle">19</text></g><g transform="translate(280, 0)"><svg x="7" y="-20" height="240"><mask id="mask-2024-03-20"><rect x="0" y="161.5470514429109" width="16" height="43.45294855708909" fill="white" rx="5"></rect></mask><rect rx="5" ry="5" x="0" y="25" width="16" height="180" fill="#ddd"></rect><rect mask="url(#mask-2024-03-20)" width="16" fill="#3572A5" y="201.25094102885822" x="0" height="3.749058971141782px"></rect><rect mask="url(#mask-2024-03-20)" width="16" fill="#3e4053" y="201.20577164366375" x="0" height="0.0451693851944793px"></rect><rect mask="url(#mask-2024-03-20)" width="16" fill="#f34b7d" y="200.9573400250941" x="0" height="0.24843161856963614px"></rect><rect mask="url(#mask-2024-03-20)" width="16" fill="#3e4053" y="200.7992471769134" x="0" height="0.15809284818067754px"></rect><rect mask="url(#mask-2024-03-20)" width="16" fill="#b276b2" y="161.5470514429109" x="0" height="39.25219573400251px"></rect><text transform="rotate(90, 4, 70.54705144291091)" letter-spacing="5" y="70.54705144291091" x="4" rotate="-90" class="xp-txt">1924 XP</text></svg><text x="2" y="198" class="subtitle">Mar</text><text x="6" y="214" class="subtitle">20</text></g><g transform="translate(320, 0)"><svg x="7" y="-20" height="240"><mask id="mask-2024-03-21"><rect x="0" y="121.68506900878293" width="16" height="83.31493099121707" fill="white" rx="5"></rect></mask><rect rx="5" ry="5" x="0" y="25" width="16" height="180" fill="#ddd"></rect><rect mask="url(#mask-2024-03-21)" width="16" fill="#00B4AB" y="141.8983688833124" x="0" height="63.10163111668758px"></rect><rect mask="url(#mask-2024-03-21)" width="16" fill="#3572A5" y="139.27854454203262" x="0" height="2.6198243412797995px"></rect><rect mask="url(#mask-2024-03-21)" width="16" fill="#3e4053" y="134.7616060225847" x="0" height="4.51693851944793px"></rect><rect mask="url(#mask-2024-03-21)" width="16" fill="#cb171e" y="134.6486825595985" x="0" height="0.11292346298619825px"></rect><rect mask="url(#mask-2024-03-21)" width="16" fill="#b276b2" y="121.68506900878293" x="0" height="12.963613550815559px"></rect><text transform="rotate(90, 4, 30.685069008782932)" letter-spacing="5" y="30.685069008782932" x="4" rotate="-90" class="xp-txt">3689 XP</text></svg><text x="2" y="198" class="subtitle">Mar</text><text x="6" y="214" class="subtitle">21</text></g><g transform="translate(360, 0)"><svg x="7" y="-20" height="240"><mask id="mask-2024-03-22"><rect x="0" y="126.26976160602258" width="16" height="78.73023839397742" fill="white" rx="5"></rect></mask><rect rx="5" ry="5" x="0" y="25" width="16" height="180" fill="#ddd"></rect><rect mask="url(#mask-2024-03-22)" width="16" fill="#00B4AB" y="134.24215809284817" x="0" height="70.75784190715181px"></rect><rect mask="url(#mask-2024-03-22)" width="16" fill="#3e4053" y="131.71267252195736" x="0" height="2.5294855708908406px"></rect><rect mask="url(#mask-2024-03-22)" width="16" fill="#cb171e" y="130.51568381430366" x="0" height="1.1969887076537014px"></rect><rect mask="url(#mask-2024-03-22)" width="16" fill="#b276b2" y="126.26976160602258" x="0" height="4.245922208281054px"></rect><text transform="rotate(90, 4, 35.269761606022584)" letter-spacing="5" y="35.269761606022584" x="4" rotate="-90" class="xp-txt">3486 XP</text></svg><text x="2" y="198" class="subtitle">Mar</text><text x="6" y="214" class="subtitle">22</text></g><g transform="translate(400, 0)"><svg x="7" y="-20" height="240"><mask id="mask-2024-03-23"><rect x="0" y="205" width="16" height="0" fill="white" rx="5"></rect></mask><rect rx="5" ry="5" x="0" y="25" width="16" height="180" fill="#ddd"></rect><text transform="rotate(90, 4, 153)" letter-spacing="5" y="153" x="4" rotate="-90" class="xp-txt">0 XP</text></svg><text x="2" y="198" class="subtitle">Mar</text><text x="6" y="214" class="subtitle">23</text></g><g transform="translate(440, 0)"><svg x="7" y="-20" height="240"><mask id="mask-2024-03-24"><rect x="0" y="25" width="16" height="180" fill="white" rx="5"></rect></mask><rect rx="5" ry="5" x="0" y="25" width="16" height="180" fill="#ddd"></rect><rect mask="url(#mask-2024-03-24)" width="16" fill="#00B4AB" y="49.481806775407776" x="0" height="155.5181932245922px"></rect><rect mask="url(#mask-2024-03-24)" width="16" fill="#3572A5" y="48.691342534504386" x="0" height="0.7904642409033877px"></rect><rect mask="url(#mask-2024-03-24)" width="16" fill="#3e4053" y="43.813048933500625" x="0" height="4.878293601003764px"></rect><rect mask="url(#mask-2024-03-24)" width="16" fill="#cb171e" y="43.70012547051443" x="0" height="0.11292346298619825px"></rect><rect mask="url(#mask-2024-03-24)" width="16" fill="#b276b2" y="25" x="0" height="18.70012547051443px"></rect><text transform="rotate(90, 4, 41)" letter-spacing="5" y="41" x="4" rotate="-90" class="xp-txt xp-txt-invert">7970 XP</text></svg><text x="2" y="198" class="subtitle">Mar</text><text x="6" y="214" class="subtitle">24</text></g><g transform="translate(480, 0)"><svg x="7" y="-20" height="240"><mask id="mask-2024-03-25"><rect x="0" y="148.67377666248433" width="16" height="56.326223337515685" fill="white" rx="5"></rect></mask><rect rx="5" ry="5" x="0" y="25" width="16" height="180" fill="#ddd"></rect><rect mask="url(#mask-2024-03-25)" width="16" fill="#3572A5" y="195.0853199498118" x="0" height="9.914680050188206px"></rect><rect mask="url(#mask-2024-03-25)" width="16" fill="#3e4053" y="194.94981179422837" x="0" height="0.1355081555834379px"></rect><rect mask="url(#mask-2024-03-25)" width="16" fill="#3e4053" y="188.51317440401505" x="0" height="6.4366373902133px"></rect><rect mask="url(#mask-2024-03-25)" width="16" fill="#b276b2" y="148.67377666248433" x="0" height="39.83939774153074px"></rect><text transform="rotate(90, 4, 57.67377666248433)" letter-spacing="5" y="57.67377666248433" x="4" rotate="-90" class="xp-txt">2494 XP</text></svg><text x="2" y="198" class="subtitle">Mar</text><text x="6" y="214" class="subtitle">25</text></g></g><g transform="translate(568, 0)"><g transform="translate(0, 0)"><rect rx="5" x="2" y="7" height="12" width="12" fill="#00B4AB"></rect><text x="18" y="18" class="lang-name">Dart</text></g><g transform="translate(0, 20)"><rect rx="5" x="2" y="7" height="12" width="12" fill="#3572A5"></rect><text x="18" y="18" class="lang-name">Python</text></g><g transform="translate(0, 40)"><rect rx="5" x="2" y="7" height="12" width="12" fill="#3e4053"></rect><text x="18" y="18" class="lang-name">VS Code Input</text></g><g transform="translate(0, 60)"><rect rx="5" x="2" y="7" height="12" width="12" fill="#cb171e"></rect><text x="18" y="18" class="lang-name">YAML</text></g><g transform="translate(0, 80)"><rect rx="5" x="2" y="7" height="12" width="12" fill="#f34b7d"></rect><text x="18" y="18" class="lang-name">C++</text></g><g transform="translate(0, 100)"><rect rx="5" x="2" y="7" height="12" width="12" fill="#3e4053"></rect><text x="18" y="18" class="lang-name">Docker</text></g><g transform="translate(0, 120)"><rect rx="5" x="2" y="7" height="12" width="12" fill="#3e4053"></rect><text x="18" y="18" class="lang-name">Shell Script</text></g><g transform="translate(0, 140)"><rect rx="5" x="2" y="7" height="12" width="12" fill="#3e4053"></rect><text x="18" y="18" class="lang-name">TOML</text></g><g transform="translate(0, 160)"><rect rx="5" x="2" y="7" height="12" width="12" fill="#3e4053"></rect><text x="18" y="18" class="lang-name">Other</text></g></g></svg></g></svg>