<svg width="550" height="340" viewBox="0 0 550 340" fill="none" xmlns="http://www.w3.org/2000/svg"><style>
					.header {
						font: 600 18px &#x27;Segoe UI&#x27;, Ubuntu, Sans-Serif;
						fill: #3d858f;
						animation: fadeInAnimation 0.8s ease-in-out forwards;
					}
					
		.lang-name {
			font: 400 11px &#x27;Segoe UI&#x27;, Ubuntu, Sans-Serif;
			fill: #ffffffcc;
		}
	

					/* Animations */
					@keyframes scaleInAnimation {
						from {
							transform: translate(-5px, 5px) scale(0);
						}
						to {
							transform: translate(-5px, 5px) scale(1);
						}
					}
					@keyframes fadeInAnimation {
						from {
							opacity: 0;
						}
						to {
							opacity: 1;
						}
					}
				</style><rect x="0.5" y="0.5" rx="4.5" height="99%" stroke="#E4E2E2" width="549" fill="#151515" stroke-opacity="0"></rect><g transform="translate(25, 35)"><g transform="translate(0, 0)"><text x="0" y="0" class="header">Most Coded Languages</text></g></g><g transform="translate(0, 55)"><svg x="25"><mask id="rect-mask"><rect x="0" y="0" width="500" height="8" fill="white" rx="5"></rect></mask><rect mask="url(#rect-mask)" data-testid="lang-progress" x="0" y="0" width="158.69" height="8" fill="#3572A5"></rect><rect mask="url(#rect-mask)" data-testid="lang-progress" x="158.69" y="0" width="113.81" height="8" fill="#00B4AB"></rect><rect mask="url(#rect-mask)" data-testid="lang-progress" x="272.5" y="0" width="77.15" height="8" fill="#00ADD8"></rect><rect mask="url(#rect-mask)" data-testid="lang-progress" x="349.65" y="0" width="39.39" height="8" fill="#083fa1"></rect><rect mask="url(#rect-mask)" data-testid="lang-progress" x="389.03999999999996" y="0" width="21.96" height="8" fill="#178600"></rect><rect mask="url(#rect-mask)" data-testid="lang-progress" x="410.99999999999994" y="0" width="11.5" height="8" fill="#dea584"></rect><rect mask="url(#rect-mask)" data-testid="lang-progress" x="422.49999999999994" y="0" width="10.38" height="8" fill="#3e4053"></rect><rect mask="url(#rect-mask)" data-testid="lang-progress" x="432.87999999999994" y="0" width="19.97" height="8" fill="#427819"></rect><rect mask="url(#rect-mask)" data-testid="lang-progress" x="442.84999999999997" y="0" width="17.96" height="8" fill="#cb171e"></rect><rect mask="url(#rect-mask)" data-testid="lang-progress" x="450.80999999999995" y="0" width="17.15" height="8" fill="#3e4053"></rect><rect mask="url(#rect-mask)" data-testid="lang-progress" x="457.9599999999999" y="0" width="15.93" height="8" fill="#f1e05a"></rect><rect mask="url(#rect-mask)" data-testid="lang-progress" x="463.88999999999993" y="0" width="15.54" height="8" fill="#2c3e50"></rect><rect mask="url(#rect-mask)" data-testid="lang-progress" x="469.42999999999995" y="0" width="14.719999999999999" height="8" fill="#555555"></rect><rect mask="url(#rect-mask)" data-testid="lang-progress" x="474.15" y="0" width="14.690000000000001" height="8" fill="#f7931e"></rect><rect mask="url(#rect-mask)" data-testid="lang-progress" x="478.84" y="0" width="13.86" height="8" fill="#e34c26"></rect><rect mask="url(#rect-mask)" data-testid="lang-progress" x="482.7" y="0" width="13.84" height="8" fill="#3e4053"></rect><rect mask="url(#rect-mask)" data-testid="lang-progress" x="486.53999999999996" y="0" width="13.82" height="8" fill="#f34b7d"></rect><rect mask="url(#rect-mask)" data-testid="lang-progress" x="490.35999999999996" y="0" width="13.33" height="8" fill="#563d7c"></rect><rect mask="url(#rect-mask)" data-testid="lang-progress" x="493.68999999999994" y="0" width="13.22" height="8" fill="#2b7489"></rect><rect mask="url(#rect-mask)" data-testid="lang-progress" x="496.90999999999997" y="0" width="13.1" height="8" fill="#3e4053"></rect><g transform="translate(0, 25)"><circle cx="5" cy="6" r="5" fill="#3572A5"></circle><text data-testid="lang-name" x="15" y="10" class="lang-name">Python 31.74%</text></g><g transform="translate(150, 25)"><circle cx="5" cy="6" r="5" fill="#00B4AB"></circle><text data-testid="lang-name" x="15" y="10" class="lang-name">Dart 22.76%</text></g><g transform="translate(0, 50)"><circle cx="5" cy="6" r="5" fill="#00ADD8"></circle><text data-testid="lang-name" x="15" y="10" class="lang-name">Go 15.43%</text></g><g transform="translate(150, 50)"><circle cx="5" cy="6" r="5" fill="#083fa1"></circle><text data-testid="lang-name" x="15" y="10" class="lang-name">Markdown 7.88%</text></g><g transform="translate(0, 75)"><circle cx="5" cy="6" r="5" fill="#178600"></circle><text data-testid="lang-name" x="15" y="10" class="lang-name">C# 4.39%</text></g><g transform="translate(150, 75)"><circle cx="5" cy="6" r="5" fill="#dea584"></circle><text data-testid="lang-name" x="15" y="10" class="lang-name">Rust 2.3%</text></g><g transform="translate(0, 100)"><circle cx="5" cy="6" r="5" fill="#3e4053"></circle><text data-testid="lang-name" x="15" y="10" class="lang-name">VS Code Input 2.08%</text></g><g transform="translate(150, 100)"><circle cx="5" cy="6" r="5" fill="#427819"></circle><text data-testid="lang-name" x="15" y="10" class="lang-name">Makefile 1.99%</text></g><g transform="translate(0, 125)"><circle cx="5" cy="6" r="5" fill="#cb171e"></circle><text data-testid="lang-name" x="15" y="10" class="lang-name">YAML 1.59%</text></g><g transform="translate(150, 125)"><circle cx="5" cy="6" r="5" fill="#3e4053"></circle><text data-testid="lang-name" x="15" y="10" class="lang-name">JSON 1.43%</text></g><g transform="translate(0, 150)"><circle cx="5" cy="6" r="5" fill="#f1e05a"></circle><text data-testid="lang-name" x="15" y="10" class="lang-name">JavaScript 1.19%</text></g><g transform="translate(150, 150)"><circle cx="5" cy="6" r="5" fill="#2c3e50"></circle><text data-testid="lang-name" x="15" y="10" class="lang-name">Vue 1.11%</text></g><g transform="translate(0, 175)"><circle cx="5" cy="6" r="5" fill="#555555"></circle><text data-testid="lang-name" x="15" y="10" class="lang-name">C 0.94%</text></g><g transform="translate(150, 175)"><circle cx="5" cy="6" r="5" fill="#f7931e"></circle><text data-testid="lang-name" x="15" y="10" class="lang-name">Handlebars 0.94%</text></g><g transform="translate(0, 200)"><circle cx="5" cy="6" r="5" fill="#e34c26"></circle><text data-testid="lang-name" x="15" y="10" class="lang-name">HTML 0.77%</text></g><g transform="translate(150, 200)"><circle cx="5" cy="6" r="5" fill="#3e4053"></circle><text data-testid="lang-name" x="15" y="10" class="lang-name">Docker 0.77%</text></g><g transform="translate(0, 225)"><circle cx="5" cy="6" r="5" fill="#f34b7d"></circle><text data-testid="lang-name" x="15" y="10" class="lang-name">C++ 0.76%</text></g><g transform="translate(150, 225)"><circle cx="5" cy="6" r="5" fill="#563d7c"></circle><text data-testid="lang-name" x="15" y="10" class="lang-name">CSS 0.67%</text></g><g transform="translate(0, 250)"><circle cx="5" cy="6" r="5" fill="#2b7489"></circle><text data-testid="lang-name" x="15" y="10" class="lang-name">TypeScript 0.64%</text></g><g transform="translate(150, 250)"><circle cx="5" cy="6" r="5" fill="#3e4053"></circle><text data-testid="lang-name" x="15" y="10" class="lang-name">TOML 0.62%</text></g></svg></g></svg>