<svg width="825" height="300" viewBox="0 0 825 300" fill="none" xmlns="http://www.w3.org/2000/svg"><style>
					.header {
						font: 600 18px &#x27;Segoe UI&#x27;, Ubuntu, Sans-Serif;
						fill: #3d858f;
						animation: fadeInAnimation 0.8s ease-in-out forwards;
					}
					
	.lang-name {
		font: 400 16px &#x27;Segoe UI&#x27;, Ubuntu, Sans-Serif;
		fill: #ffffffcc;
	}
	.xp-txt {
		font: 400 12px &#x27;Segoe UI&#x27;, Ubuntu, Sans-Serif;
		fill: black;
	}
	.xp-txt-invert {
		font: 600 12px &#x27;Segoe UI&#x27;, Ubuntu, Sans-Serif;
		fill: white;
	}
	.subtitle {
		font: 400 14px &#x27;Segoe UI&#x27;, Ubuntu, Sans-Serif;
		fill: #ffffffcc;
	}


					/* Animations */
					@keyframes scaleInAnimation {
						from {
							transform: translate(-5px, 5px) scale(0);
						}
						to {
							transform: translate(-5px, 5px) scale(1);
						}
					}
					@keyframes fadeInAnimation {
						from {
							opacity: 0;
						}
						to {
							opacity: 1;
						}
					}
				</style><rect x="0.5" y="0.5" rx="4.5" height="99%" stroke="#E4E2E2" width="824" fill="#151515" stroke-opacity="0"></rect><g transform="translate(25, 35)"><g transform="translate(0, 0)"><text x="0" y="0" class="header">Coding History of the last two weeks</text></g></g><g transform="translate(0, 55)"><svg x="25"><g transform="translate(0, 0)"><g transform="translate(0, 0)"><svg x="7" y="-20" height="240"><mask id="mask-2023-09-19"><rect x="0" y="200.98482549317148" width="16" height="4.0151745068285285" fill="white" rx="5"></rect></mask><rect rx="5" ry="5" x="0" y="25" width="16" height="180" fill="#ddd"></rect><rect mask="url(#mask-2023-09-19)" width="16" fill="#b276b2" y="200.98482549317148" x="0" height="4.0151745068285285px"></rect><text transform="rotate(90, 4, 122.98482549317148)" letter-spacing="5" y="122.98482549317148" x="4" rotate="-90" class="xp-txt">294 XP</text></svg><text x="2" y="198" class="subtitle">Sep</text><text x="6" y="214" class="subtitle">19</text></g><g transform="translate(40, 0)"><svg x="7" y="-20" height="240"><mask id="mask-2023-09-20"><rect x="0" y="204.68588770864946" width="16" height="0.3141122913505311" fill="white" rx="5"></rect></mask><rect rx="5" ry="5" x="0" y="25" width="16" height="180" fill="#ddd"></rect><rect mask="url(#mask-2023-09-20)" width="16" fill="#b276b2" y="204.68588770864946" x="0" height="0.3141122913505311px"></rect><text transform="rotate(90, 4, 139.68588770864946)" letter-spacing="5" y="139.68588770864946" x="4" rotate="-90" class="xp-txt">23 XP</text></svg><text x="2" y="198" class="subtitle">Sep</text><text x="6" y="214" class="subtitle">20</text></g><g transform="translate(80, 0)"><svg x="7" y="-20" height="240"><mask id="mask-2023-09-21"><rect x="0" y="138.298937784522" width="16" height="66.701062215478" fill="white" rx="5"></rect></mask><rect rx="5" ry="5" x="0" y="25" width="16" height="180" fill="#ddd"></rect><rect mask="url(#mask-2023-09-21)" width="16" fill="#3572A5" y="188.70713201820942" x="0" height="16.292867981790593px"></rect><rect mask="url(#mask-2023-09-21)" width="16" fill="#083fa1" y="185.22458270106222" x="0" height="3.4825493171471926px"></rect><rect mask="url(#mask-2023-09-21)" width="16" fill="#3e4053" y="180.55386949924127" x="0" height="4.6707132018209405px"></rect><rect mask="url(#mask-2023-09-21)" width="16" fill="#3e4053" y="160.91502276176024" x="0" height="19.638846737481032px"></rect><rect mask="url(#mask-2023-09-21)" width="16" fill="#b276b2" y="138.298937784522" x="0" height="22.61608497723824px"></rect><text transform="rotate(90, 4, 47.298937784521996)" letter-spacing="5" y="47.298937784521996" x="4" rotate="-90" class="xp-txt">4884 XP</text></svg><text x="2" y="198" class="subtitle">Sep</text><text x="6" y="214" class="subtitle">21</text></g><g transform="translate(120, 0)"><svg x="7" y="-20" height="240"><mask id="mask-2023-09-22"><rect x="0" y="172.9742033383915" width="16" height="32.025796661608496" fill="white" rx="5"></rect></mask><rect rx="5" ry="5" x="0" y="25" width="16" height="180" fill="#ddd"></rect><rect mask="url(#mask-2023-09-22)" width="16" fill="#cb171e" y="197.85735963581183" x="0" height="7.142640364188164px"></rect><rect mask="url(#mask-2023-09-22)" width="16" fill="#083fa1" y="195.08497723823976" x="0" height="2.7723823975720787px"></rect><rect mask="url(#mask-2023-09-22)" width="16" fill="#563d7c" y="184.39150227617603" x="0" height="10.693474962063734px"></rect><rect mask="url(#mask-2023-09-22)" width="16" fill="#b276b2" y="172.9742033383915" x="0" height="11.417298937784523px"></rect><text transform="rotate(90, 4, 81.9742033383915)" letter-spacing="5" y="81.9742033383915" x="4" rotate="-90" class="xp-txt">2345 XP</text></svg><text x="2" y="198" class="subtitle">Sep</text><text x="6" y="214" class="subtitle">22</text></g><g transform="translate(160, 0)"><svg x="7" y="-20" height="240"><mask id="mask-2023-09-23"><rect x="0" y="174.49013657056145" width="16" height="30.509863429438543" fill="white" rx="5"></rect></mask><rect rx="5" ry="5" x="0" y="25" width="16" height="180" fill="#ddd"></rect><rect mask="url(#mask-2023-09-23)" width="16" fill="#cb171e" y="197.67981790591807" x="0" height="7.320182094081942px"></rect><rect mask="url(#mask-2023-09-23)" width="16" fill="#2b7489" y="192.0804248861912" x="0" height="5.599393019726858px"></rect><rect mask="url(#mask-2023-09-23)" width="16" fill="#b276b2" y="174.49013657056145" x="0" height="17.590288315629742px"></rect><text transform="rotate(90, 4, 83.49013657056145)" letter-spacing="5" y="83.49013657056145" x="4" rotate="-90" class="xp-txt">2234 XP</text></svg><text x="2" y="198" class="subtitle">Sep</text><text x="6" y="214" class="subtitle">23</text></g><g transform="translate(200, 0)"><svg x="7" y="-20" height="240"><mask id="mask-2023-09-24"><rect x="0" y="137.0288315629742" width="16" height="67.9711684370258" fill="white" rx="5"></rect></mask><rect rx="5" ry="5" x="0" y="25" width="16" height="180" fill="#ddd"></rect><rect mask="url(#mask-2023-09-24)" width="16" fill="#cb171e" y="169.4506828528073" x="0" height="35.54931714719272px"></rect><rect mask="url(#mask-2023-09-24)" width="16" fill="#2b7489" y="144.88163884673747" x="0" height="24.569044006069802px"></rect><rect mask="url(#mask-2023-09-24)" width="16" fill="#b276b2" y="137.0288315629742" x="0" height="7.852807283763278px"></rect><text transform="rotate(90, 4, 46.028831562974204)" letter-spacing="5" y="46.028831562974204" x="4" rotate="-90" class="xp-txt">4977 XP</text></svg><text x="2" y="198" class="subtitle">Sep</text><text x="6" y="214" class="subtitle">24</text></g><g transform="translate(240, 0)"><svg x="7" y="-20" height="240"><mask id="mask-2023-09-25"><rect x="0" y="123.52200303490136" width="16" height="81.47799696509864" fill="white" rx="5"></rect></mask><rect rx="5" ry="5" x="0" y="25" width="16" height="180" fill="#ddd"></rect><rect mask="url(#mask-2023-09-25)" width="16" fill="#3572A5" y="140.948406676783" x="0" height="64.05159332321699px"></rect><rect mask="url(#mask-2023-09-25)" width="16" fill="#083fa1" y="140.55235204855842" x="0" height="0.3960546282245827px"></rect><rect mask="url(#mask-2023-09-25)" width="16" fill="#b276b2" y="123.52200303490136" x="0" height="17.030349013657055px"></rect><text transform="rotate(90, 4, 32.52200303490136)" letter-spacing="5" y="32.52200303490136" x="4" rotate="-90" class="xp-txt">5966 XP</text></svg><text x="2" y="198" class="subtitle">Sep</text><text x="6" y="214" class="subtitle">25</text></g><g transform="translate(280, 0)"><svg x="7" y="-20" height="240"><mask id="mask-2023-09-26"><rect x="0" y="176.66160849772382" width="16" height="28.338391502276178" fill="white" rx="5"></rect></mask><rect rx="5" ry="5" x="0" y="25" width="16" height="180" fill="#ddd"></rect><rect mask="url(#mask-2023-09-26)" width="16" fill="#dea584" y="187.46433990895295" x="0" height="17.535660091047042px"></rect><rect mask="url(#mask-2023-09-26)" width="16" fill="#b276b2" y="176.66160849772382" x="0" height="10.802731411229136px"></rect><text transform="rotate(90, 4, 85.66160849772382)" letter-spacing="5" y="85.66160849772382" x="4" rotate="-90" class="xp-txt">2075 XP</text></svg><text x="2" y="198" class="subtitle">Sep</text><text x="6" y="214" class="subtitle">26</text></g><g transform="translate(320, 0)"><svg x="7" y="-20" height="240"><mask id="mask-2023-09-27"><rect x="0" y="73.82397572078906" width="16" height="131.17602427921094" fill="white" rx="5"></rect></mask><rect rx="5" ry="5" x="0" y="25" width="16" height="180" fill="#ddd"></rect><rect mask="url(#mask-2023-09-27)" width="16" fill="#3572A5" y="155.65705614567526" x="0" height="49.34294385432474px"></rect><rect mask="url(#mask-2023-09-27)" width="16" fill="#cb171e" y="155.5887708649469" x="0" height="0.06828528072837632px"></rect><rect mask="url(#mask-2023-09-27)" width="16" fill="#dea584" y="115.1638846737481" x="0" height="40.42488619119879px"></rect><rect mask="url(#mask-2023-09-27)" width="16" fill="#b276b2" y="73.82397572078906" x="0" height="41.33990895295903px"></rect><text transform="rotate(90, 4, 89.82397572078906)" letter-spacing="5" y="89.82397572078906" x="4" rotate="-90" class="xp-txt xp-txt-invert">9605 XP</text></svg><text x="2" y="198" class="subtitle">Sep</text><text x="6" y="214" class="subtitle">27</text></g><g transform="translate(360, 0)"><svg x="7" y="-20" height="240"><mask id="mask-2023-09-28"><rect x="0" y="25" width="16" height="180" fill="white" rx="5"></rect></mask><rect rx="5" ry="5" x="0" y="25" width="16" height="180" fill="#ddd"></rect><rect mask="url(#mask-2023-09-28)" width="16" fill="#3572A5" y="131.21092564491653" x="0" height="73.78907435508346px"></rect><rect mask="url(#mask-2023-09-28)" width="16" fill="#083fa1" y="111.61305007587254" x="0" height="19.597875569044007px"></rect><rect mask="url(#mask-2023-09-28)" width="16" fill="#3e4053" y="104.01972685887709" x="0" height="7.593323216995447px"></rect><rect mask="url(#mask-2023-09-28)" width="16" fill="#b276b2" y="25" x="0" height="79.01972685887709px"></rect><text transform="rotate(90, 4, 41)" letter-spacing="5" y="41" x="4" rotate="-90" class="xp-txt xp-txt-invert">13180 XP</text></svg><text x="2" y="198" class="subtitle">Sep</text><text x="6" y="214" class="subtitle">28</text></g><g transform="translate(400, 0)"><svg x="7" y="-20" height="240"><mask id="mask-2023-09-29"><rect x="0" y="198.94992412746586" width="16" height="6.050075872534142" fill="white" rx="5"></rect></mask><rect rx="5" ry="5" x="0" y="25" width="16" height="180" fill="#ddd"></rect><rect mask="url(#mask-2023-09-29)" width="16" fill="#b276b2" y="198.94992412746586" x="0" height="6.050075872534142px"></rect><text transform="rotate(90, 4, 120.94992412746586)" letter-spacing="5" y="120.94992412746586" x="4" rotate="-90" class="xp-txt">443 XP</text></svg><text x="2" y="198" class="subtitle">Sep</text><text x="6" y="214" class="subtitle">29</text></g><g transform="translate(440, 0)"><svg x="7" y="-20" height="240"><mask id="mask-2023-09-30"><rect x="0" y="166.22761760242793" width="16" height="38.77238239757208" fill="white" rx="5"></rect></mask><rect rx="5" ry="5" x="0" y="25" width="16" height="180" fill="#ddd"></rect><rect mask="url(#mask-2023-09-30)" width="16" fill="#cb171e" y="195.12594840667677" x="0" height="9.874051593323218px"></rect><rect mask="url(#mask-2023-09-30)" width="16" fill="#083fa1" y="183.21699544764795" x="0" height="11.90895295902883px"></rect><rect mask="url(#mask-2023-09-30)" width="16" fill="#2b7489" y="177.53566009104705" x="0" height="5.68133535660091px"></rect><rect mask="url(#mask-2023-09-30)" width="16" fill="#b276b2" y="166.22761760242793" x="0" height="11.30804248861912px"></rect><text transform="rotate(90, 4, 75.22761760242793)" letter-spacing="5" y="75.22761760242793" x="4" rotate="-90" class="xp-txt">2839 XP</text></svg><text x="2" y="198" class="subtitle">Sep</text><text x="6" y="214" class="subtitle">30</text></g><g transform="translate(480, 0)"><svg x="7" y="-20" height="240"><mask id="mask-2023-10-01"><rect x="0" y="205" width="16" height="0" fill="white" rx="5"></rect></mask><rect rx="5" ry="5" x="0" y="25" width="16" height="180" fill="#ddd"></rect><text transform="rotate(90, 4, 153)" letter-spacing="5" y="153" x="4" rotate="-90" class="xp-txt">0 XP</text></svg><text x="2" y="198" class="subtitle">Oct</text><text x="6" y="214" class="subtitle">01</text></g><g transform="translate(520, 0)"><svg x="7" y="-20" height="240"><mask id="mask-2023-10-02"><rect x="0" y="133.8330804248862" width="16" height="71.16691957511381" fill="white" rx="5"></rect></mask><rect rx="5" ry="5" x="0" y="25" width="16" height="180" fill="#ddd"></rect><rect mask="url(#mask-2023-10-02)" width="16" fill="#3572A5" y="188.597875569044" x="0" height="16.402124430955993px"></rect><rect mask="url(#mask-2023-10-02)" width="16" fill="#083fa1" y="176.53869499241276" x="0" height="12.05918057663126px"></rect><rect mask="url(#mask-2023-10-02)" width="16" fill="#3e4053" y="164.43854324734446" x="0" height="12.100151745068285px"></rect><rect mask="url(#mask-2023-10-02)" width="16" fill="#b276b2" y="133.8330804248862" x="0" height="30.60546282245827px"></rect><text transform="rotate(90, 4, 42.83308042488619)" letter-spacing="5" y="42.83308042488619" x="4" rotate="-90" class="xp-txt">5211 XP</text></svg><text x="2" y="198" class="subtitle">Oct</text><text x="6" y="214" class="subtitle">02</text></g></g><g transform="translate(600, 0)"><g transform="translate(0, 0)"><rect rx="5" x="2" y="7" height="12" width="12" fill="#3572A5"></rect><text x="18" y="18" class="lang-name">Python</text></g><g transform="translate(0, 20)"><rect rx="5" x="2" y="7" height="12" width="12" fill="#cb171e"></rect><text x="18" y="18" class="lang-name">YAML</text></g><g transform="translate(0, 40)"><rect rx="5" x="2" y="7" height="12" width="12" fill="#dea584"></rect><text x="18" y="18" class="lang-name">Rust</text></g><g transform="translate(0, 60)"><rect rx="5" x="2" y="7" height="12" width="12" fill="#083fa1"></rect><text x="18" y="18" class="lang-name">Markdown</text></g><g transform="translate(0, 80)"><rect rx="5" x="2" y="7" height="12" width="12" fill="#2b7489"></rect><text x="18" y="18" class="lang-name">TypeScript</text></g><g transform="translate(0, 100)"><rect rx="5" x="2" y="7" height="12" width="12" fill="#3e4053"></rect><text x="18" y="18" class="lang-name">Docker</text></g><g transform="translate(0, 120)"><rect rx="5" x="2" y="7" height="12" width="12" fill="#3e4053"></rect><text x="18" y="18" class="lang-name">mojo</text></g><g transform="translate(0, 140)"><rect rx="5" x="2" y="7" height="12" width="12" fill="#563d7c"></rect><text x="18" y="18" class="lang-name">CSS</text></g><g transform="translate(0, 160)"><rect rx="5" x="2" y="7" height="12" width="12" fill="#3e4053"></rect><text x="18" y="18" class="lang-name">Other</text></g></g></svg></g></svg>