<svg width="665" height="300" viewBox="0 0 665 300" fill="none" xmlns="http://www.w3.org/2000/svg"><style>
					.header {
						font: 600 18px &#x27;Segoe UI&#x27;, Ubuntu, Sans-Serif;
						fill: #3d858f;
						animation: fadeInAnimation 0.8s ease-in-out forwards;
					}
					
	.lang-name {
		font: 400 16px &#x27;Segoe UI&#x27;, Ubuntu, Sans-Serif;
		fill: #ffffffcc;
	}
	.xp-txt {
		font: 400 12px &#x27;Segoe UI&#x27;, Ubuntu, Sans-Serif;
		fill: black;
	}
	.xp-txt-invert {
		font: 600 12px &#x27;Segoe UI&#x27;, Ubuntu, Sans-Serif;
		fill: white;
	}
	.subtitle {
		font: 400 14px &#x27;Segoe UI&#x27;, Ubuntu, Sans-Serif;
		fill: #ffffffcc;
	}


					/* Animations */
					@keyframes scaleInAnimation {
						from {
							transform: translate(-5px, 5px) scale(0);
						}
						to {
							transform: translate(-5px, 5px) scale(1);
						}
					}
					@keyframes fadeInAnimation {
						from {
							opacity: 0;
						}
						to {
							opacity: 1;
						}
					}
				</style><rect x="0.5" y="0.5" rx="4.5" height="99%" stroke="#E4E2E2" width="664" fill="#151515" stroke-opacity="0"></rect><g transform="translate(25, 35)"><g transform="translate(0, 0)"><text x="0" y="0" class="header">Coding History of the last two weeks</text></g></g><g transform="translate(0, 55)"><svg x="25"><g transform="translate(0, 0)"><g transform="translate(0, 0)"><svg x="7" y="-20" height="240"><mask id="mask-2026-04-28"><rect x="0" y="113.64497328800388" width="16" height="91.35502671199612" fill="white" rx="5"></rect></mask><rect rx="5" ry="5" x="0" y="25" width="16" height="180" fill="#ddd"></rect><rect mask="url(#mask-2026-04-28)" width="16" fill="#083fa1" y="130.25497814473044" x="0" height="74.74502185526954px"></rect><rect mask="url(#mask-2026-04-28)" width="16" fill="#3e4053" y="122.64934434191355" x="0" height="7.605633802816901px"></rect><rect mask="url(#mask-2026-04-28)" width="16" fill="#3572A5" y="121.07576493443419" x="0" height="1.573579407479359px"></rect><rect mask="url(#mask-2026-04-28)" width="16" fill="#3e4053" y="120.3763963088878" x="0" height="0.6993686255463817px"></rect><rect mask="url(#mask-2026-04-28)" width="16" fill="#b276b2" y="113.64497328800388" x="0" height="6.731423020883924px"></rect><text transform="rotate(90, 4, 129.64497328800388)" letter-spacing="5" y="129.64497328800388" x="4" rotate="-90" class="xp-txt xp-txt-invert">1045 XP</text></svg><text x="2" y="198" class="subtitle">Apr</text><text x="6" y="214" class="subtitle">28</text></g><g transform="translate(40, 0)"><svg x="7" y="-20" height="240"><mask id="mask-2026-04-29"><rect x="0" y="164.43661971830986" width="16" height="40.563380281690144" fill="white" rx="5"></rect></mask><rect rx="5" ry="5" x="0" y="25" width="16" height="180" fill="#ddd"></rect><rect mask="url(#mask-2026-04-29)" width="16" fill="#b276b2" y="164.43661971830986" x="0" height="40.563380281690144px"></rect><text transform="rotate(90, 4, 86.43661971830986)" letter-spacing="5" y="86.43661971830986" x="4" rotate="-90" class="xp-txt">464 XP</text></svg><text x="2" y="198" class="subtitle">Apr</text><text x="6" y="214" class="subtitle">29</text></g><g transform="translate(80, 0)"><svg x="7" y="-20" height="240"><mask id="mask-2026-04-30"><rect x="0" y="205" width="16" height="0" fill="white" rx="5"></rect></mask><rect rx="5" ry="5" x="0" y="25" width="16" height="180" fill="#ddd"></rect><text transform="rotate(90, 4, 153)" letter-spacing="5" y="153" x="4" rotate="-90" class="xp-txt">0 XP</text></svg><text x="2" y="198" class="subtitle">Apr</text><text x="6" y="214" class="subtitle">30</text></g><g transform="translate(120, 0)"><svg x="7" y="-20" height="240"><mask id="mask-2026-05-01"><rect x="0" y="89.9538610976202" width="16" height="115.0461389023798" fill="white" rx="5"></rect></mask><rect rx="5" ry="5" x="0" y="25" width="16" height="180" fill="#ddd"></rect><rect mask="url(#mask-2026-05-01)" width="16" fill="#b276b2" y="89.9538610976202" x="0" height="115.0461389023798px"></rect><text transform="rotate(90, 4, 105.9538610976202)" letter-spacing="5" y="105.9538610976202" x="4" rotate="-90" class="xp-txt xp-txt-invert">1316 XP</text></svg><text x="2" y="198" class="subtitle">May</text><text x="6" y="214" class="subtitle">01</text></g><g transform="translate(160, 0)"><svg x="7" y="-20" height="240"><mask id="mask-2026-05-02"><rect x="0" y="191.53715395823215" width="16" height="13.462846041767849" fill="white" rx="5"></rect></mask><rect rx="5" ry="5" x="0" y="25" width="16" height="180" fill="#ddd"></rect><rect mask="url(#mask-2026-05-02)" width="16" fill="#b276b2" y="191.53715395823215" x="0" height="13.462846041767849px"></rect><text transform="rotate(90, 4, 113.53715395823215)" letter-spacing="5" y="113.53715395823215" x="4" rotate="-90" class="xp-txt">154 XP</text></svg><text x="2" y="198" class="subtitle">May</text><text x="6" y="214" class="subtitle">02</text></g><g transform="translate(200, 0)"><svg x="7" y="-20" height="240"><mask id="mask-2026-05-03"><rect x="0" y="25" width="16" height="180" fill="white" rx="5"></rect></mask><rect rx="5" ry="5" x="0" y="25" width="16" height="180" fill="#ddd"></rect><rect mask="url(#mask-2026-05-03)" width="16" fill="#b276b2" y="25" x="0" height="180px"></rect><text transform="rotate(90, 4, 41)" letter-spacing="5" y="41" x="4" rotate="-90" class="xp-txt xp-txt-invert">2059 XP</text></svg><text x="2" y="198" class="subtitle">May</text><text x="6" y="214" class="subtitle">03</text></g><g transform="translate(240, 0)"><svg x="7" y="-20" height="240"><mask id="mask-2026-05-05"><rect x="0" y="205" width="16" height="0" fill="white" rx="5"></rect></mask><rect rx="5" ry="5" x="0" y="25" width="16" height="180" fill="#ddd"></rect><text transform="rotate(90, 4, 153)" letter-spacing="5" y="153" x="4" rotate="-90" class="xp-txt">0 XP</text></svg><text x="2" y="198" class="subtitle">May</text><text x="6" y="214" class="subtitle">05</text></g><g transform="translate(280, 0)"><svg x="7" y="-20" height="240"><mask id="mask-2026-05-06"><rect x="0" y="128.33171442447792" width="16" height="76.66828557552209" fill="white" rx="5"></rect></mask><rect rx="5" ry="5" x="0" y="25" width="16" height="180" fill="#ddd"></rect><rect mask="url(#mask-2026-05-06)" width="16" fill="#083fa1" y="182.7076250607091" x="0" height="22.29237493929092px"></rect><rect mask="url(#mask-2026-05-06)" width="16" fill="#3e4053" y="165.39825157843615" x="0" height="17.30937348227295px"></rect><rect mask="url(#mask-2026-05-06)" width="16" fill="#3e4053" y="142.8436134045653" x="0" height="22.55463817387081px"></rect><rect mask="url(#mask-2026-05-06)" width="16" fill="#3e4053" y="134.71345313258865" x="0" height="8.130160271976688px"></rect><rect mask="url(#mask-2026-05-06)" width="16" fill="#3572A5" y="133.66440019426906" x="0" height="1.0490529383195726px"></rect><rect mask="url(#mask-2026-05-06)" width="16" fill="#3e4053" y="131.04176784847013" x="0" height="2.6226323457989316px"></rect><rect mask="url(#mask-2026-05-06)" width="16" fill="#3e4053" y="129.73045167557066" x="0" height="1.3113161728994658px"></rect><rect mask="url(#mask-2026-05-06)" width="16" fill="#3e4053" y="129.38076736279749" x="0" height="0.34968431277319084px"></rect><rect mask="url(#mask-2026-05-06)" width="16" fill="#b276b2" y="128.33171442447792" x="0" height="1.0490529383195726px"></rect><text transform="rotate(90, 4, 50.33171442447792)" letter-spacing="5" y="50.33171442447792" x="4" rotate="-90" class="xp-txt">877 XP</text></svg><text x="2" y="198" class="subtitle">May</text><text x="6" y="214" class="subtitle">06</text></g><g transform="translate(320, 0)"><svg x="7" y="-20" height="240"><mask id="mask-2026-05-08"><rect x="0" y="205" width="16" height="0" fill="white" rx="5"></rect></mask><rect rx="5" ry="5" x="0" y="25" width="16" height="180" fill="#ddd"></rect><text transform="rotate(90, 4, 153)" letter-spacing="5" y="153" x="4" rotate="-90" class="xp-txt">0 XP</text></svg><text x="2" y="198" class="subtitle">May</text><text x="6" y="214" class="subtitle">08</text></g><g transform="translate(360, 0)"><svg x="7" y="-20" height="240"><mask id="mask-2026-05-09"><rect x="0" y="76.05390966488586" width="16" height="128.94609033511412" fill="white" rx="5"></rect></mask><rect rx="5" ry="5" x="0" y="25" width="16" height="180" fill="#ddd"></rect><rect mask="url(#mask-2026-05-09)" width="16" fill="#b276b2" y="76.05390966488586" x="0" height="128.94609033511412px"></rect><text transform="rotate(90, 4, 92.05390966488586)" letter-spacing="5" y="92.05390966488586" x="4" rotate="-90" class="xp-txt xp-txt-invert">1475 XP</text></svg><text x="2" y="198" class="subtitle">May</text><text x="6" y="214" class="subtitle">09</text></g></g><g transform="translate(472, 0)"><g transform="translate(0, 0)"><rect rx="5" x="2" y="7" height="12" width="12" fill="#083fa1"></rect><text x="18" y="18" class="lang-name">Markdown</text></g><g transform="translate(0, 20)"><rect rx="5" x="2" y="7" height="12" width="12" fill="#3e4053"></rect><text x="18" y="18" class="lang-name">VS Code Input</text></g><g transform="translate(0, 40)"><rect rx="5" x="2" y="7" height="12" width="12" fill="#3e4053"></rect><text x="18" y="18" class="lang-name">Docker</text></g><g transform="translate(0, 60)"><rect rx="5" x="2" y="7" height="12" width="12" fill="#3e4053"></rect><text x="18" y="18" class="lang-name">TOML</text></g><g transform="translate(0, 80)"><rect rx="5" x="2" y="7" height="12" width="12" fill="#3572A5"></rect><text x="18" y="18" class="lang-name">Python</text></g><g transform="translate(0, 100)"><rect rx="5" x="2" y="7" height="12" width="12" fill="#3e4053"></rect><text x="18" y="18" class="lang-name">Shell Script</text></g><g transform="translate(0, 120)"><rect rx="5" x="2" y="7" height="12" width="12" fill="#3e4053"></rect><text x="18" y="18" class="lang-name">Git</text></g><g transform="translate(0, 140)"><rect rx="5" x="2" y="7" height="12" width="12" fill="#3e4053"></rect><text x="18" y="18" class="lang-name">JSON</text></g><g transform="translate(0, 160)"><rect rx="5" x="2" y="7" height="12" width="12" fill="#3e4053"></rect><text x="18" y="18" class="lang-name">Other</text></g></g></svg></g></svg>