<svg width="785" height="300" viewBox="0 0 785 300" fill="none" xmlns="http://www.w3.org/2000/svg"><style>
					.header {
						font: 600 18px &#x27;Segoe UI&#x27;, Ubuntu, Sans-Serif;
						fill: #3d858f;
						animation: fadeInAnimation 0.8s ease-in-out forwards;
					}
					
	.lang-name {
		font: 400 16px &#x27;Segoe UI&#x27;, Ubuntu, Sans-Serif;
		fill: #ffffffcc;
	}
	.xp-txt {
		font: 400 12px &#x27;Segoe UI&#x27;, Ubuntu, Sans-Serif;
		fill: black;
	}
	.xp-txt-invert {
		font: 600 12px &#x27;Segoe UI&#x27;, Ubuntu, Sans-Serif;
		fill: white;
	}
	.subtitle {
		font: 400 14px &#x27;Segoe UI&#x27;, Ubuntu, Sans-Serif;
		fill: #ffffffcc;
	}


					/* Animations */
					@keyframes scaleInAnimation {
						from {
							transform: translate(-5px, 5px) scale(0);
						}
						to {
							transform: translate(-5px, 5px) scale(1);
						}
					}
					@keyframes fadeInAnimation {
						from {
							opacity: 0;
						}
						to {
							opacity: 1;
						}
					}
				</style><rect x="0.5" y="0.5" rx="4.5" height="99%" stroke="#E4E2E2" width="784" fill="#151515" stroke-opacity="0"></rect><g transform="translate(25, 35)"><g transform="translate(0, 0)"><text x="0" y="0" class="header">Coding History of the last two weeks</text></g></g><g transform="translate(0, 55)"><svg x="25"><g transform="translate(0, 0)"><g transform="translate(0, 0)"><svg x="7" y="-20" height="240"><mask id="mask-2025-06-18"><rect x="0" y="188.40919822457266" width="16" height="16.59080177542733" fill="white" rx="5"></rect></mask><rect rx="5" ry="5" x="0" y="25" width="16" height="180" fill="#ddd"></rect><rect mask="url(#mask-2025-06-18)" width="16" fill="#00B4AB" y="188.44319576919446" x="0" height="16.556804230805554px"></rect><rect mask="url(#mask-2025-06-18)" width="16" fill="#b276b2" y="188.40919822457266" x="0" height="0.033997544621777315px"></rect><text transform="rotate(90, 4, 110.40919822457266)" letter-spacing="5" y="110.40919822457266" x="4" rotate="-90" class="xp-txt">976 XP</text></svg><text x="2" y="198" class="subtitle">Jun</text><text x="6" y="214" class="subtitle">18</text></g><g transform="translate(40, 0)"><svg x="7" y="-20" height="240"><mask id="mask-2025-06-19"><rect x="0" y="25" width="16" height="180" fill="white" rx="5"></rect></mask><rect rx="5" ry="5" x="0" y="25" width="16" height="180" fill="#ddd"></rect><rect mask="url(#mask-2025-06-19)" width="16" fill="#00B4AB" y="26.66587968646709" x="0" height="178.3341203135329px"></rect><rect mask="url(#mask-2025-06-19)" width="16" fill="#3e4053" y="26.563887052601757" x="0" height="0.10199263386533194px"></rect><rect mask="url(#mask-2025-06-19)" width="16" fill="#b276b2" y="25" x="0" height="1.5638870526017565px"></rect><text transform="rotate(90, 4, 41)" letter-spacing="5" y="41" x="4" rotate="-90" class="xp-txt xp-txt-invert">10589 XP</text></svg><text x="2" y="198" class="subtitle">Jun</text><text x="6" y="214" class="subtitle">19</text></g><g transform="translate(80, 0)"><svg x="7" y="-20" height="240"><mask id="mask-2025-06-20"><rect x="0" y="203.26612522428937" width="16" height="1.7338747757106432" fill="white" rx="5"></rect></mask><rect rx="5" ry="5" x="0" y="25" width="16" height="180" fill="#ddd"></rect><rect mask="url(#mask-2025-06-20)" width="16" fill="#3e4053" y="204.96600245537823" x="0" height="0.033997544621777315px"></rect><rect mask="url(#mask-2025-06-20)" width="16" fill="#b276b2" y="203.26612522428937" x="0" height="1.699877231088866px"></rect><text transform="rotate(90, 4, 125.26612522428937)" letter-spacing="5" y="125.26612522428937" x="4" rotate="-90" class="xp-txt">102 XP</text></svg><text x="2" y="198" class="subtitle">Jun</text><text x="6" y="214" class="subtitle">20</text></g><g transform="translate(120, 0)"><svg x="7" y="-20" height="240"><mask id="mask-2025-06-21"><rect x="0" y="193.52582869015015" width="16" height="11.474171309849844" fill="white" rx="5"></rect></mask><rect rx="5" ry="5" x="0" y="25" width="16" height="180" fill="#ddd"></rect><rect mask="url(#mask-2025-06-21)" width="16" fill="#3572A5" y="200.39333270374917" x="0" height="4.606667296250826px"></rect><rect mask="url(#mask-2025-06-21)" width="16" fill="#3e4053" y="200.3593351591274" x="0" height="0.033997544621777315px"></rect><rect mask="url(#mask-2025-06-21)" width="16" fill="#3e4053" y="199.6113891774483" x="0" height="0.747945981679101px"></rect><rect mask="url(#mask-2025-06-21)" width="16" fill="#b276b2" y="193.52582869015015" x="0" height="6.08556048729814px"></rect><text transform="rotate(90, 4, 115.52582869015015)" letter-spacing="5" y="115.52582869015015" x="4" rotate="-90" class="xp-txt">675 XP</text></svg><text x="2" y="198" class="subtitle">Jun</text><text x="6" y="214" class="subtitle">21</text></g><g transform="translate(160, 0)"><svg x="7" y="-20" height="240"><mask id="mask-2025-06-22"><rect x="0" y="205" width="16" height="0" fill="white" rx="5"></rect></mask><rect rx="5" ry="5" x="0" y="25" width="16" height="180" fill="#ddd"></rect><text transform="rotate(90, 4, 153)" letter-spacing="5" y="153" x="4" rotate="-90" class="xp-txt">0 XP</text></svg><text x="2" y="198" class="subtitle">Jun</text><text x="6" y="214" class="subtitle">22</text></g><g transform="translate(200, 0)"><svg x="7" y="-20" height="240"><mask id="mask-2025-06-23"><rect x="0" y="186.52233449806403" width="16" height="18.47766550193597" fill="white" rx="5"></rect></mask><rect rx="5" ry="5" x="0" y="25" width="16" height="180" fill="#ddd"></rect><rect mask="url(#mask-2025-06-23)" width="16" fill="#00B4AB" y="204.8640098215129" x="0" height="0.13599017848710926px"></rect><rect mask="url(#mask-2025-06-23)" width="16" fill="#3572A5" y="199.3224100481632" x="0" height="5.541599773349702px"></rect><rect mask="url(#mask-2025-06-23)" width="16" fill="#3e4053" y="196.72159788459723" x="0" height="2.6008121635659647px"></rect><rect mask="url(#mask-2025-06-23)" width="16" fill="#083fa1" y="196.70459911228633" x="0" height="0.016998772310888657px"></rect><rect mask="url(#mask-2025-06-23)" width="16" fill="#b276b2" y="186.52233449806403" x="0" height="10.182264614222307px"></rect><text transform="rotate(90, 4, 95.52233449806403)" letter-spacing="5" y="95.52233449806403" x="4" rotate="-90" class="xp-txt">1087 XP</text></svg><text x="2" y="198" class="subtitle">Jun</text><text x="6" y="214" class="subtitle">23</text></g><g transform="translate(240, 0)"><svg x="7" y="-20" height="240"><mask id="mask-2025-06-25"><rect x="0" y="205" width="16" height="0" fill="white" rx="5"></rect></mask><rect rx="5" ry="5" x="0" y="25" width="16" height="180" fill="#ddd"></rect><text transform="rotate(90, 4, 153)" letter-spacing="5" y="153" x="4" rotate="-90" class="xp-txt">0 XP</text></svg><text x="2" y="198" class="subtitle">Jun</text><text x="6" y="214" class="subtitle">25</text></g><g transform="translate(280, 0)"><svg x="7" y="-20" height="240"><mask id="mask-2025-06-26"><rect x="0" y="185.74039097176316" width="16" height="19.25960902823685" fill="white" rx="5"></rect></mask><rect rx="5" ry="5" x="0" y="25" width="16" height="180" fill="#ddd"></rect><rect mask="url(#mask-2025-06-26)" width="16" fill="#3572A5" y="200.18934743601852" x="0" height="4.81065256398149px"></rect><rect mask="url(#mask-2025-06-26)" width="16" fill="#3e4053" y="199.56039286051563" x="0" height="0.6289545755028804px"></rect><rect mask="url(#mask-2025-06-26)" width="16" fill="#083fa1" y="193.74681273019172" x="0" height="5.813580130323921px"></rect><rect mask="url(#mask-2025-06-26)" width="16" fill="#b276b2" y="185.74039097176316" x="0" height="8.006421758428559px"></rect><text transform="rotate(90, 4, 94.74039097176316)" letter-spacing="5" y="94.74039097176316" x="4" rotate="-90" class="xp-txt">1133 XP</text></svg><text x="2" y="198" class="subtitle">Jun</text><text x="6" y="214" class="subtitle">26</text></g><g transform="translate(320, 0)"><svg x="7" y="-20" height="240"><mask id="mask-2025-06-27"><rect x="0" y="205" width="16" height="0" fill="white" rx="5"></rect></mask><rect rx="5" ry="5" x="0" y="25" width="16" height="180" fill="#ddd"></rect><text transform="rotate(90, 4, 153)" letter-spacing="5" y="153" x="4" rotate="-90" class="xp-txt">0 XP</text></svg><text x="2" y="198" class="subtitle">Jun</text><text x="6" y="214" class="subtitle">27</text></g><g transform="translate(360, 0)"><svg x="7" y="-20" height="240"><mask id="mask-2025-06-28"><rect x="0" y="197.84351685711587" width="16" height="7.156483142884125" fill="white" rx="5"></rect></mask><rect rx="5" ry="5" x="0" y="25" width="16" height="180" fill="#ddd"></rect><rect mask="url(#mask-2025-06-28)" width="16" fill="#00B4AB" y="202.0252148455945" x="0" height="2.9747851544055153px"></rect><rect mask="url(#mask-2025-06-28)" width="16" fill="#3e4053" y="199.64538672207007" x="0" height="2.3798281235244123px"></rect><rect mask="url(#mask-2025-06-28)" width="16" fill="#b276b2" y="197.84351685711587" x="0" height="1.8018698649541978px"></rect><text transform="rotate(90, 4, 119.84351685711587)" letter-spacing="5" y="119.84351685711587" x="4" rotate="-90" class="xp-txt">421 XP</text></svg><text x="2" y="198" class="subtitle">Jun</text><text x="6" y="214" class="subtitle">28</text></g><g transform="translate(400, 0)"><svg x="7" y="-20" height="240"><mask id="mask-2025-06-29"><rect x="0" y="205" width="16" height="0" fill="white" rx="5"></rect></mask><rect rx="5" ry="5" x="0" y="25" width="16" height="180" fill="#ddd"></rect><text transform="rotate(90, 4, 153)" letter-spacing="5" y="153" x="4" rotate="-90" class="xp-txt">0 XP</text></svg><text x="2" y="198" class="subtitle">Jun</text><text x="6" y="214" class="subtitle">29</text></g><g transform="translate(440, 0)"><svg x="7" y="-20" height="240"><mask id="mask-2025-06-30"><rect x="0" y="116.45339503258099" width="16" height="88.54660496741901" fill="white" rx="5"></rect></mask><rect rx="5" ry="5" x="0" y="25" width="16" height="180" fill="#ddd"></rect><rect mask="url(#mask-2025-06-30)" width="16" fill="#00B4AB" y="200.6313155161016" x="0" height="4.368684483898385px"></rect><rect mask="url(#mask-2025-06-30)" width="16" fill="#f34b7d" y="170.11851921805646" x="0" height="30.512796298045142px"></rect><rect mask="url(#mask-2025-06-30)" width="16" fill="#3572A5" y="149.8729813957881" x="0" height="20.245537822268393px"></rect><rect mask="url(#mask-2025-06-30)" width="16" fill="#3e4053" y="145.41930305033526" x="0" height="4.453678345452828px"></rect><rect mask="url(#mask-2025-06-30)" width="16" fill="#3e4053" y="141.42459155727641" x="0" height="3.9947114930588348px"></rect><rect mask="url(#mask-2025-06-30)" width="16" fill="#427819" y="138.87477571064312" x="0" height="2.5498158466332987px"></rect><rect mask="url(#mask-2025-06-30)" width="16" fill="#3e4053" y="137.3958825195958" x="0" height="1.4788931910473133px"></rect><rect mask="url(#mask-2025-06-30)" width="16" fill="#b276b2" y="116.45339503258099" x="0" height="20.942487487014827px"></rect><text transform="rotate(90, 4, 132.453395032581)" letter-spacing="5" y="132.453395032581" x="4" rotate="-90" class="xp-txt xp-txt-invert">5209 XP</text></svg><text x="2" y="198" class="subtitle">Jun</text><text x="6" y="214" class="subtitle">30</text></g><g transform="translate(480, 0)"><svg x="7" y="-20" height="240"><mask id="mask-2025-07-01"><rect x="0" y="196.24563225989235" width="16" height="8.754367740107659" fill="white" rx="5"></rect></mask><rect rx="5" ry="5" x="0" y="25" width="16" height="180" fill="#ddd"></rect><rect mask="url(#mask-2025-07-01)" width="16" fill="#f34b7d" y="198.16649353102275" x="0" height="6.833506468977241px"></rect><rect mask="url(#mask-2025-07-01)" width="16" fill="#3e4053" y="198.0984984417792" x="0" height="0.06799508924355463px"></rect><rect mask="url(#mask-2025-07-01)" width="16" fill="#b276b2" y="196.24563225989235" x="0" height="1.8528661818868637px"></rect><text transform="rotate(90, 4, 118.24563225989235)" letter-spacing="5" y="118.24563225989235" x="4" rotate="-90" class="xp-txt">515 XP</text></svg><text x="2" y="198" class="subtitle">Jul</text><text x="6" y="214" class="subtitle">01</text></g></g><g transform="translate(568, 0)"><g transform="translate(0, 0)"><rect rx="5" x="2" y="7" height="12" width="12" fill="#00B4AB"></rect><text x="18" y="18" class="lang-name">Dart</text></g><g transform="translate(0, 20)"><rect rx="5" x="2" y="7" height="12" width="12" fill="#f34b7d"></rect><text x="18" y="18" class="lang-name">C++</text></g><g transform="translate(0, 40)"><rect rx="5" x="2" y="7" height="12" width="12" fill="#3572A5"></rect><text x="18" y="18" class="lang-name">Python</text></g><g transform="translate(0, 60)"><rect rx="5" x="2" y="7" height="12" width="12" fill="#3e4053"></rect><text x="18" y="18" class="lang-name">VS Code Input</text></g><g transform="translate(0, 80)"><rect rx="5" x="2" y="7" height="12" width="12" fill="#083fa1"></rect><text x="18" y="18" class="lang-name">Markdown</text></g><g transform="translate(0, 100)"><rect rx="5" x="2" y="7" height="12" width="12" fill="#3e4053"></rect><text x="18" y="18" class="lang-name">Git</text></g><g transform="translate(0, 120)"><rect rx="5" x="2" y="7" height="12" width="12" fill="#427819"></rect><text x="18" y="18" class="lang-name">Makefile</text></g><g transform="translate(0, 140)"><rect rx="5" x="2" y="7" height="12" width="12" fill="#3e4053"></rect><text x="18" y="18" class="lang-name">Shell Script</text></g><g transform="translate(0, 160)"><rect rx="5" x="2" y="7" height="12" width="12" fill="#3e4053"></rect><text x="18" y="18" class="lang-name">Other</text></g></g></svg></g></svg>