<svg width="665" height="300" viewBox="0 0 665 300" fill="none" xmlns="http://www.w3.org/2000/svg"><style>
					.header {
						font: 600 18px &#x27;Segoe UI&#x27;, Ubuntu, Sans-Serif;
						fill: #3d858f;
						animation: fadeInAnimation 0.8s ease-in-out forwards;
					}
					
	.lang-name {
		font: 400 16px &#x27;Segoe UI&#x27;, Ubuntu, Sans-Serif;
		fill: #ffffffcc;
	}
	.xp-txt {
		font: 400 12px &#x27;Segoe UI&#x27;, Ubuntu, Sans-Serif;
		fill: black;
	}
	.xp-txt-invert {
		font: 600 12px &#x27;Segoe UI&#x27;, Ubuntu, Sans-Serif;
		fill: white;
	}
	.subtitle {
		font: 400 14px &#x27;Segoe UI&#x27;, Ubuntu, Sans-Serif;
		fill: #ffffffcc;
	}


					/* Animations */
					@keyframes scaleInAnimation {
						from {
							transform: translate(-5px, 5px) scale(0);
						}
						to {
							transform: translate(-5px, 5px) scale(1);
						}
					}
					@keyframes fadeInAnimation {
						from {
							opacity: 0;
						}
						to {
							opacity: 1;
						}
					}
				</style><rect x="0.5" y="0.5" rx="4.5" height="99%" stroke="#E4E2E2" width="664" fill="#151515" stroke-opacity="0"></rect><g transform="translate(25, 35)"><g transform="translate(0, 0)"><text x="0" y="0" class="header">Coding History of the last two weeks</text></g></g><g transform="translate(0, 55)"><svg x="25"><g transform="translate(0, 0)"><g transform="translate(0, 0)"><svg x="7" y="-20" height="240"><mask id="mask-2023-11-23"><rect x="0" y="198.81342062193127" width="16" height="6.18657937806874" fill="white" rx="5"></rect></mask><rect rx="5" ry="5" x="0" y="25" width="16" height="180" fill="#ddd"></rect><rect mask="url(#mask-2023-11-23)" width="16" fill="#b276b2" y="198.81342062193127" x="0" height="6.18657937806874px"></rect><text transform="rotate(90, 4, 133.81342062193127)" letter-spacing="5" y="133.81342062193127" x="4" rotate="-90" class="xp-txt">42 XP</text></svg><text x="2" y="198" class="subtitle">Nov</text><text x="6" y="214" class="subtitle">23</text></g><g transform="translate(40, 0)"><svg x="7" y="-20" height="240"><mask id="mask-2023-11-24"><rect x="0" y="199.99181669394434" width="16" height="5.008183306055646" fill="white" rx="5"></rect></mask><rect rx="5" ry="5" x="0" y="25" width="16" height="180" fill="#ddd"></rect><rect mask="url(#mask-2023-11-24)" width="16" fill="#b276b2" y="199.99181669394434" x="0" height="5.008183306055646px"></rect><text transform="rotate(90, 4, 134.99181669394434)" letter-spacing="5" y="134.99181669394434" x="4" rotate="-90" class="xp-txt">34 XP</text></svg><text x="2" y="198" class="subtitle">Nov</text><text x="6" y="214" class="subtitle">24</text></g><g transform="translate(80, 0)"><svg x="7" y="-20" height="240"><mask id="mask-2023-11-26"><rect x="0" y="205" width="16" height="0" fill="white" rx="5"></rect></mask><rect rx="5" ry="5" x="0" y="25" width="16" height="180" fill="#ddd"></rect><text transform="rotate(90, 4, 153)" letter-spacing="5" y="153" x="4" rotate="-90" class="xp-txt">0 XP</text></svg><text x="2" y="198" class="subtitle">Nov</text><text x="6" y="214" class="subtitle">26</text></g><g transform="translate(120, 0)"><svg x="7" y="-20" height="240"><mask id="mask-2023-11-27"><rect x="0" y="154.62356792144027" width="16" height="50.37643207855974" fill="white" rx="5"></rect></mask><rect rx="5" ry="5" x="0" y="25" width="16" height="180" fill="#ddd"></rect><rect mask="url(#mask-2023-11-27)" width="16" fill="#b276b2" y="154.62356792144027" x="0" height="50.37643207855974px"></rect><text transform="rotate(90, 4, 76.62356792144027)" letter-spacing="5" y="76.62356792144027" x="4" rotate="-90" class="xp-txt">342 XP</text></svg><text x="2" y="198" class="subtitle">Nov</text><text x="6" y="214" class="subtitle">27</text></g><g transform="translate(160, 0)"><svg x="7" y="-20" height="240"><mask id="mask-2023-11-28"><rect x="0" y="205" width="16" height="0" fill="white" rx="5"></rect></mask><rect rx="5" ry="5" x="0" y="25" width="16" height="180" fill="#ddd"></rect><text transform="rotate(90, 4, 153)" letter-spacing="5" y="153" x="4" rotate="-90" class="xp-txt">0 XP</text></svg><text x="2" y="198" class="subtitle">Nov</text><text x="6" y="214" class="subtitle">28</text></g><g transform="translate(200, 0)"><svg x="7" y="-20" height="240"><mask id="mask-2023-11-29"><rect x="0" y="186.88216039279868" width="16" height="18.117839607201308" fill="white" rx="5"></rect></mask><rect rx="5" ry="5" x="0" y="25" width="16" height="180" fill="#ddd"></rect><rect mask="url(#mask-2023-11-29)" width="16" fill="#b276b2" y="186.88216039279868" x="0" height="18.117839607201308px"></rect><text transform="rotate(90, 4, 108.88216039279868)" letter-spacing="5" y="108.88216039279868" x="4" rotate="-90" class="xp-txt">123 XP</text></svg><text x="2" y="198" class="subtitle">Nov</text><text x="6" y="214" class="subtitle">29</text></g><g transform="translate(240, 0)"><svg x="7" y="-20" height="240"><mask id="mask-2023-12-02"><rect x="0" y="205" width="16" height="0" fill="white" rx="5"></rect></mask><rect rx="5" ry="5" x="0" y="25" width="16" height="180" fill="#ddd"></rect><text transform="rotate(90, 4, 153)" letter-spacing="5" y="153" x="4" rotate="-90" class="xp-txt">0 XP</text></svg><text x="2" y="198" class="subtitle">Dec</text><text x="6" y="214" class="subtitle">02</text></g><g transform="translate(280, 0)"><svg x="7" y="-20" height="240"><mask id="mask-2023-12-03"><rect x="0" y="25" width="16" height="180" fill="white" rx="5"></rect></mask><rect rx="5" ry="5" x="0" y="25" width="16" height="180" fill="#ddd"></rect><rect mask="url(#mask-2023-12-03)" width="16" fill="#b276b2" y="25" x="0" height="180px"></rect><text transform="rotate(90, 4, 41)" letter-spacing="5" y="41" x="4" rotate="-90" class="xp-txt xp-txt-invert">1222 XP</text></svg><text x="2" y="198" class="subtitle">Dec</text><text x="6" y="214" class="subtitle">03</text></g><g transform="translate(320, 0)"><svg x="7" y="-20" height="240"><mask id="mask-2023-12-04"><rect x="0" y="140.92471358428804" width="16" height="64.07528641571194" fill="white" rx="5"></rect></mask><rect rx="5" ry="5" x="0" y="25" width="16" height="180" fill="#ddd"></rect><rect mask="url(#mask-2023-12-04)" width="16" fill="#b276b2" y="140.92471358428804" x="0" height="64.07528641571194px"></rect><text transform="rotate(90, 4, 62.92471358428804)" letter-spacing="5" y="62.92471358428804" x="4" rotate="-90" class="xp-txt">435 XP</text></svg><text x="2" y="198" class="subtitle">Dec</text><text x="6" y="214" class="subtitle">04</text></g><g transform="translate(360, 0)"><svg x="7" y="-20" height="240"><mask id="mask-2023-12-05"><rect x="0" y="195.7201309328969" width="16" height="9.27986906710311" fill="white" rx="5"></rect></mask><rect rx="5" ry="5" x="0" y="25" width="16" height="180" fill="#ddd"></rect><rect mask="url(#mask-2023-12-05)" width="16" fill="#b276b2" y="195.7201309328969" x="0" height="9.27986906710311px"></rect><text transform="rotate(90, 4, 130.7201309328969)" letter-spacing="5" y="130.7201309328969" x="4" rotate="-90" class="xp-txt">63 XP</text></svg><text x="2" y="198" class="subtitle">Dec</text><text x="6" y="214" class="subtitle">05</text></g></g><g transform="translate(472, 0)"><g transform="translate(0, 0)"><rect rx="5" x="2" y="7" height="12" width="12" fill="#3e4053"></rect><text x="18" y="18" class="lang-name">Other</text></g></g></svg></g></svg>