<svg width="585" height="300" viewBox="0 0 585 300" fill="none" xmlns="http://www.w3.org/2000/svg"><style>
					.header {
						font: 600 18px &#x27;Segoe UI&#x27;, Ubuntu, Sans-Serif;
						fill: #3d858f;
						animation: fadeInAnimation 0.8s ease-in-out forwards;
					}
					
	.lang-name {
		font: 400 16px &#x27;Segoe UI&#x27;, Ubuntu, Sans-Serif;
		fill: #ffffffcc;
	}
	.xp-txt {
		font: 400 12px &#x27;Segoe UI&#x27;, Ubuntu, Sans-Serif;
		fill: black;
	}
	.xp-txt-invert {
		font: 600 12px &#x27;Segoe UI&#x27;, Ubuntu, Sans-Serif;
		fill: white;
	}
	.subtitle {
		font: 400 14px &#x27;Segoe UI&#x27;, Ubuntu, Sans-Serif;
		fill: #ffffffcc;
	}


					/* Animations */
					@keyframes scaleInAnimation {
						from {
							transform: translate(-5px, 5px) scale(0);
						}
						to {
							transform: translate(-5px, 5px) scale(1);
						}
					}
					@keyframes fadeInAnimation {
						from {
							opacity: 0;
						}
						to {
							opacity: 1;
						}
					}
				</style><rect x="0.5" y="0.5" rx="4.5" height="99%" stroke="#E4E2E2" width="584" fill="#151515" stroke-opacity="0"></rect><g transform="translate(25, 35)"><g transform="translate(0, 0)"><text x="0" y="0" class="header">Coding History of the last two weeks</text></g></g><g transform="translate(0, 55)"><svg x="25"><g transform="translate(0, 0)"><g transform="translate(0, 0)"><svg x="7" y="-20" height="240"><mask id="mask-2026-08-13"><rect x="0" y="25" width="16" height="180" fill="white" rx="5"></rect></mask><rect rx="5" ry="5" x="0" y="25" width="16" height="180" fill="#ddd"></rect><rect mask="url(#mask-2026-08-13)" width="16" fill="#3e4053" y="33.47913862718708" x="0" height="171.52086137281293px"></rect><rect mask="url(#mask-2026-08-13)" width="16" fill="#3572A5" y="30.329744279946162" x="0" height="3.149394347240915px"></rect><rect mask="url(#mask-2026-08-13)" width="16" fill="#3e4053" y="28.391655450874833" x="0" height="1.9380888290713325px"></rect><rect mask="url(#mask-2026-08-13)" width="16" fill="#cb171e" y="25.242261103633915" x="0" height="3.149394347240915px"></rect><rect mask="url(#mask-2026-08-13)" width="16" fill="#3e4053" y="25" x="0" height="0.24226110363391656px"></rect><text transform="rotate(90, 4, 41)" letter-spacing="5" y="41" x="4" rotate="-90" class="xp-txt xp-txt-invert">743 XP</text></svg><text x="2" y="198" class="subtitle">Aug</text><text x="6" y="214" class="subtitle">13</text></g><g transform="translate(40, 0)"><svg x="7" y="-20" height="240"><mask id="mask-2026-08-14"><rect x="0" y="180.2893674293405" width="16" height="24.710632570659488" fill="white" rx="5"></rect></mask><rect rx="5" ry="5" x="0" y="25" width="16" height="180" fill="#ddd"></rect><rect mask="url(#mask-2026-08-14)" width="16" fill="#3e4053" y="180.2893674293405" x="0" height="24.710632570659488px"></rect><text transform="rotate(90, 4, 102.2893674293405)" letter-spacing="5" y="102.2893674293405" x="4" rotate="-90" class="xp-txt">102 XP</text></svg><text x="2" y="198" class="subtitle">Aug</text><text x="6" y="214" class="subtitle">14</text></g><g transform="translate(80, 0)"><svg x="7" y="-20" height="240"><mask id="mask-2026-08-17"><rect x="0" y="205" width="16" height="0" fill="white" rx="5"></rect></mask><rect rx="5" ry="5" x="0" y="25" width="16" height="180" fill="#ddd"></rect><text transform="rotate(90, 4, 153)" letter-spacing="5" y="153" x="4" rotate="-90" class="xp-txt">0 XP</text></svg><text x="2" y="198" class="subtitle">Aug</text><text x="6" y="214" class="subtitle">17</text></g><g transform="translate(120, 0)"><svg x="7" y="-20" height="240"><mask id="mask-2026-08-18"><rect x="0" y="40.98923283983849" width="16" height="164.01076716016152" fill="white" rx="5"></rect></mask><rect rx="5" ry="5" x="0" y="25" width="16" height="180" fill="#ddd"></rect><rect mask="url(#mask-2026-08-18)" width="16" fill="#3e4053" y="101.0699865410498" x="0" height="103.9300134589502px"></rect><rect mask="url(#mask-2026-08-18)" width="16" fill="#083fa1" y="51.64872139973082" x="0" height="49.421265141318976px"></rect><rect mask="url(#mask-2026-08-18)" width="16" fill="#3572A5" y="45.107671601615074" x="0" height="6.541049798115747px"></rect><rect mask="url(#mask-2026-08-18)" width="16" fill="#3e4053" y="41.23149394347241" x="0" height="3.876177658142665px"></rect><rect mask="url(#mask-2026-08-18)" width="16" fill="#b276b2" y="40.98923283983849" x="0" height="0.24226110363391656px"></rect><text transform="rotate(90, 4, 56.98923283983849)" letter-spacing="5" y="56.98923283983849" x="4" rotate="-90" class="xp-txt xp-txt-invert">677 XP</text></svg><text x="2" y="198" class="subtitle">Aug</text><text x="6" y="214" class="subtitle">18</text></g><g transform="translate(160, 0)"><svg x="7" y="-20" height="240"><mask id="mask-2026-08-19"><rect x="0" y="41.716016150740245" width="16" height="163.28398384925976" fill="white" rx="5"></rect></mask><rect rx="5" ry="5" x="0" y="25" width="16" height="180" fill="#ddd"></rect><rect mask="url(#mask-2026-08-19)" width="16" fill="#3e4053" y="54.555854643337824" x="0" height="150.44414535666218px"></rect><rect mask="url(#mask-2026-08-19)" width="16" fill="#083fa1" y="48.4993270524899" x="0" height="6.056527590847914px"></rect><rect mask="url(#mask-2026-08-19)" width="16" fill="#3572A5" y="44.86541049798116" x="0" height="3.6339165545087484px"></rect><rect mask="url(#mask-2026-08-19)" width="16" fill="#3e4053" y="41.716016150740245" x="0" height="3.149394347240915px"></rect><text transform="rotate(90, 4, 57.716016150740245)" letter-spacing="5" y="57.716016150740245" x="4" rotate="-90" class="xp-txt xp-txt-invert">674 XP</text></svg><text x="2" y="198" class="subtitle">Aug</text><text x="6" y="214" class="subtitle">19</text></g><g transform="translate(200, 0)"><svg x="7" y="-20" height="240"><mask id="mask-2026-08-25"><rect x="0" y="205" width="16" height="0" fill="white" rx="5"></rect></mask><rect rx="5" ry="5" x="0" y="25" width="16" height="180" fill="#ddd"></rect><text transform="rotate(90, 4, 153)" letter-spacing="5" y="153" x="4" rotate="-90" class="xp-txt">0 XP</text></svg><text x="2" y="198" class="subtitle">Aug</text><text x="6" y="214" class="subtitle">25</text></g><g transform="translate(240, 0)"><svg x="7" y="-20" height="240"><mask id="mask-2026-08-26"><rect x="0" y="59.40107671601615" width="16" height="145.59892328398385" fill="white" rx="5"></rect></mask><rect rx="5" ry="5" x="0" y="25" width="16" height="180" fill="#ddd"></rect><rect mask="url(#mask-2026-08-26)" width="16" fill="#3e4053" y="96.7092866756393" x="0" height="108.2907133243607px"></rect><rect mask="url(#mask-2026-08-26)" width="16" fill="#3572A5" y="90.41049798115748" x="0" height="6.29878869448183px"></rect><rect mask="url(#mask-2026-08-26)" width="16" fill="#3e4053" y="75.63257065948855" x="0" height="14.77792732166891px"></rect><rect mask="url(#mask-2026-08-26)" width="16" fill="#3e4053" y="59.885598923283986" x="0" height="15.746971736204577px"></rect><rect mask="url(#mask-2026-08-26)" width="16" fill="#3e4053" y="59.643337819650064" x="0" height="0.24226110363391656px"></rect><rect mask="url(#mask-2026-08-26)" width="16" fill="#b276b2" y="59.40107671601615" x="0" height="0.24226110363391656px"></rect><text transform="rotate(90, 4, 75.40107671601615)" letter-spacing="5" y="75.40107671601615" x="4" rotate="-90" class="xp-txt xp-txt-invert">601 XP</text></svg><text x="2" y="198" class="subtitle">Aug</text><text x="6" y="214" class="subtitle">26</text></g><g transform="translate(280, 0)"><svg x="7" y="-20" height="240"><mask id="mask-2026-08-27"><rect x="0" y="168.4185733512786" width="16" height="36.5814266487214" fill="white" rx="5"></rect></mask><rect rx="5" ry="5" x="0" y="25" width="16" height="180" fill="#ddd"></rect><rect mask="url(#mask-2026-08-27)" width="16" fill="#3e4053" y="172.7792732166891" x="0" height="32.2207267833109px"></rect><rect mask="url(#mask-2026-08-27)" width="16" fill="#3572A5" y="168.4185733512786" x="0" height="4.360699865410498px"></rect><text transform="rotate(90, 4, 90.41857335127861)" letter-spacing="5" y="90.41857335127861" x="4" rotate="-90" class="xp-txt">151 XP</text></svg><text x="2" y="198" class="subtitle">Aug</text><text x="6" y="214" class="subtitle">27</text></g></g><g transform="translate(405, 0)"><g transform="translate(0, 0)"><rect rx="5" x="2" y="7" height="12" width="12" fill="#3e4053"></rect><text x="18" y="18" class="lang-name">VS Code Input</text></g><g transform="translate(0, 20)"><rect rx="5" x="2" y="7" height="12" width="12" fill="#083fa1"></rect><text x="18" y="18" class="lang-name">Markdown</text></g><g transform="translate(0, 40)"><rect rx="5" x="2" y="7" height="12" width="12" fill="#3572A5"></rect><text x="18" y="18" class="lang-name">Python</text></g><g transform="translate(0, 60)"><rect rx="5" x="2" y="7" height="12" width="12" fill="#3e4053"></rect><text x="18" y="18" class="lang-name">TOML</text></g><g transform="translate(0, 80)"><rect rx="5" x="2" y="7" height="12" width="12" fill="#3e4053"></rect><text x="18" y="18" class="lang-name">Shell Script</text></g><g transform="translate(0, 100)"><rect rx="5" x="2" y="7" height="12" width="12" fill="#cb171e"></rect><text x="18" y="18" class="lang-name">YAML</text></g><g transform="translate(0, 120)"><rect rx="5" x="2" y="7" height="12" width="12" fill="#3e4053"></rect><text x="18" y="18" class="lang-name">JSON</text></g><g transform="translate(0, 140)"><rect rx="5" x="2" y="7" height="12" width="12" fill="#3e4053"></rect><text x="18" y="18" class="lang-name">Other</text></g></g></svg></g></svg>