<svg width="585" height="300" viewBox="0 0 585 300" fill="none" xmlns="http://www.w3.org/2000/svg"><style>
					.header {
						font: 600 18px &#x27;Segoe UI&#x27;, Ubuntu, Sans-Serif;
						fill: #3d858f;
						animation: fadeInAnimation 0.8s ease-in-out forwards;
					}
					
	.lang-name {
		font: 400 16px &#x27;Segoe UI&#x27;, Ubuntu, Sans-Serif;
		fill: #ffffffcc;
	}
	.xp-txt {
		font: 400 12px &#x27;Segoe UI&#x27;, Ubuntu, Sans-Serif;
		fill: black;
	}
	.xp-txt-invert {
		font: 600 12px &#x27;Segoe UI&#x27;, Ubuntu, Sans-Serif;
		fill: white;
	}
	.subtitle {
		font: 400 14px &#x27;Segoe UI&#x27;, Ubuntu, Sans-Serif;
		fill: #ffffffcc;
	}


					/* Animations */
					@keyframes scaleInAnimation {
						from {
							transform: translate(-5px, 5px) scale(0);
						}
						to {
							transform: translate(-5px, 5px) scale(1);
						}
					}
					@keyframes fadeInAnimation {
						from {
							opacity: 0;
						}
						to {
							opacity: 1;
						}
					}
				</style><rect x="0.5" y="0.5" rx="4.5" height="99%" stroke="#E4E2E2" width="584" fill="#151515" stroke-opacity="0"></rect><g transform="translate(25, 35)"><g transform="translate(0, 0)"><text x="0" y="0" class="header">Coding History of the last two weeks</text></g></g><g transform="translate(0, 55)"><svg x="25"><g transform="translate(0, 0)"><g transform="translate(0, 0)"><svg x="7" y="-20" height="240"><mask id="mask-2024-08-30"><rect x="0" y="202.3134328358209" width="16" height="2.6865671641791047" fill="white" rx="5"></rect></mask><rect rx="5" ry="5" x="0" y="25" width="16" height="180" fill="#ddd"></rect><rect mask="url(#mask-2024-08-30)" width="16" fill="#b276b2" y="202.3134328358209" x="0" height="2.6865671641791047px"></rect><text transform="rotate(90, 4, 137.3134328358209)" letter-spacing="5" y="137.3134328358209" x="4" rotate="-90" class="xp-txt">28 XP</text></svg><text x="2" y="198" class="subtitle">Aug</text><text x="6" y="214" class="subtitle">30</text></g><g transform="translate(40, 0)"><svg x="7" y="-20" height="240"><mask id="mask-2024-09-02"><rect x="0" y="205" width="16" height="0" fill="white" rx="5"></rect></mask><rect rx="5" ry="5" x="0" y="25" width="16" height="180" fill="#ddd"></rect><text transform="rotate(90, 4, 153)" letter-spacing="5" y="153" x="4" rotate="-90" class="xp-txt">0 XP</text></svg><text x="2" y="198" class="subtitle">Sep</text><text x="6" y="214" class="subtitle">02</text></g><g transform="translate(80, 0)"><svg x="7" y="-20" height="240"><mask id="mask-2024-09-03"><rect x="0" y="204.42430703624734" width="16" height="0.5756929637526652" fill="white" rx="5"></rect></mask><rect rx="5" ry="5" x="0" y="25" width="16" height="180" fill="#ddd"></rect><rect mask="url(#mask-2024-09-03)" width="16" fill="#b276b2" y="204.42430703624734" x="0" height="0.5756929637526652px"></rect><text transform="rotate(90, 4, 152.42430703624734)" letter-spacing="5" y="152.42430703624734" x="4" rotate="-90" class="xp-txt">6 XP</text></svg><text x="2" y="198" class="subtitle">Sep</text><text x="6" y="214" class="subtitle">03</text></g><g transform="translate(120, 0)"><svg x="7" y="-20" height="240"><mask id="mask-2024-09-04"><rect x="0" y="25" width="16" height="180" fill="white" rx="5"></rect></mask><rect rx="5" ry="5" x="0" y="25" width="16" height="180" fill="#ddd"></rect><rect mask="url(#mask-2024-09-04)" width="16" fill="#3572A5" y="112.60127931769723" x="0" height="92.39872068230277px"></rect><rect mask="url(#mask-2024-09-04)" width="16" fill="#083fa1" y="46.68443496801706" x="0" height="65.91684434968018px"></rect><rect mask="url(#mask-2024-09-04)" width="16" fill="#3e4053" y="28.454157782515992" x="0" height="18.230277185501066px"></rect><rect mask="url(#mask-2024-09-04)" width="16" fill="#3e4053" y="26.535181236673775" x="0" height="1.9189765458422174px"></rect><rect mask="url(#mask-2024-09-04)" width="16" fill="#3e4053" y="25" x="0" height="1.535181236673774px"></rect><text transform="rotate(90, 4, 41)" letter-spacing="5" y="41" x="4" rotate="-90" class="xp-txt xp-txt-invert">1876 XP</text></svg><text x="2" y="198" class="subtitle">Sep</text><text x="6" y="214" class="subtitle">04</text></g><g transform="translate(160, 0)"><svg x="7" y="-20" height="240"><mask id="mask-2024-09-07"><rect x="0" y="205" width="16" height="0" fill="white" rx="5"></rect></mask><rect rx="5" ry="5" x="0" y="25" width="16" height="180" fill="#ddd"></rect><text transform="rotate(90, 4, 153)" letter-spacing="5" y="153" x="4" rotate="-90" class="xp-txt">0 XP</text></svg><text x="2" y="198" class="subtitle">Sep</text><text x="6" y="214" class="subtitle">07</text></g><g transform="translate(200, 0)"><svg x="7" y="-20" height="240"><mask id="mask-2024-09-08"><rect x="0" y="123.15565031982942" width="16" height="81.84434968017058" fill="white" rx="5"></rect></mask><rect rx="5" ry="5" x="0" y="25" width="16" height="180" fill="#ddd"></rect><rect mask="url(#mask-2024-09-08)" width="16" fill="#b276b2" y="123.15565031982942" x="0" height="81.84434968017058px"></rect><text transform="rotate(90, 4, 45.15565031982942)" letter-spacing="5" y="45.15565031982942" x="4" rotate="-90" class="xp-txt">853 XP</text></svg><text x="2" y="198" class="subtitle">Sep</text><text x="6" y="214" class="subtitle">08</text></g><g transform="translate(240, 0)"><svg x="7" y="-20" height="240"><mask id="mask-2024-09-10"><rect x="0" y="205" width="16" height="0" fill="white" rx="5"></rect></mask><rect rx="5" ry="5" x="0" y="25" width="16" height="180" fill="#ddd"></rect><text transform="rotate(90, 4, 153)" letter-spacing="5" y="153" x="4" rotate="-90" class="xp-txt">0 XP</text></svg><text x="2" y="198" class="subtitle">Sep</text><text x="6" y="214" class="subtitle">10</text></g><g transform="translate(280, 0)"><svg x="7" y="-20" height="240"><mask id="mask-2024-09-11"><rect x="0" y="184.56289978678038" width="16" height="20.437100213219615" fill="white" rx="5"></rect></mask><rect rx="5" ry="5" x="0" y="25" width="16" height="180" fill="#ddd"></rect><rect mask="url(#mask-2024-09-11)" width="16" fill="#b276b2" y="184.56289978678038" x="0" height="20.437100213219615px"></rect><text transform="rotate(90, 4, 106.56289978678038)" letter-spacing="5" y="106.56289978678038" x="4" rotate="-90" class="xp-txt">213 XP</text></svg><text x="2" y="198" class="subtitle">Sep</text><text x="6" y="214" class="subtitle">11</text></g></g><g transform="translate(405, 0)"><g transform="translate(0, 0)"><rect rx="5" x="2" y="7" height="12" width="12" fill="#3572A5"></rect><text x="18" y="18" class="lang-name">Python</text></g><g transform="translate(0, 20)"><rect rx="5" x="2" y="7" height="12" width="12" fill="#083fa1"></rect><text x="18" y="18" class="lang-name">Markdown</text></g><g transform="translate(0, 40)"><rect rx="5" x="2" y="7" height="12" width="12" fill="#3e4053"></rect><text x="18" y="18" class="lang-name">TOML</text></g><g transform="translate(0, 60)"><rect rx="5" x="2" y="7" height="12" width="12" fill="#3e4053"></rect><text x="18" y="18" class="lang-name">VS Code Input</text></g><g transform="translate(0, 80)"><rect rx="5" x="2" y="7" height="12" width="12" fill="#3e4053"></rect><text x="18" y="18" class="lang-name">Docker</text></g><g transform="translate(0, 100)"><rect rx="5" x="2" y="7" height="12" width="12" fill="#3e4053"></rect><text x="18" y="18" class="lang-name">Other</text></g></g></svg></g></svg>