<svg width="550" height="340" viewBox="0 0 550 340" fill="none" xmlns="http://www.w3.org/2000/svg"><style>
					.header {
						font: 600 18px &#x27;Segoe UI&#x27;, Ubuntu, Sans-Serif;
						fill: #3d858f;
						animation: fadeInAnimation 0.8s ease-in-out forwards;
					}
					
		.lang-name {
			font: 400 11px &#x27;Segoe UI&#x27;, Ubuntu, Sans-Serif;
			fill: #ffffffcc;
		}
	

					/* Animations */
					@keyframes scaleInAnimation {
						from {
							transform: translate(-5px, 5px) scale(0);
						}
						to {
							transform: translate(-5px, 5px) scale(1);
						}
					}
					@keyframes fadeInAnimation {
						from {
							opacity: 0;
						}
						to {
							opacity: 1;
						}
					}
				</style><rect x="0.5" y="0.5" rx="4.5" height="99%" stroke="#E4E2E2" width="549" fill="#151515" stroke-opacity="0"></rect><g transform="translate(25, 35)"><g transform="translate(0, 0)"><text x="0" y="0" class="header">Most Coded Languages</text></g></g><g transform="translate(0, 55)"><svg x="25"><mask id="rect-mask"><rect x="0" y="0" width="500" height="8" fill="white" rx="5"></rect></mask><rect mask="url(#rect-mask)" data-testid="lang-progress" x="0" y="0" width="211.56" height="8" fill="#3572A5"></rect><rect mask="url(#rect-mask)" data-testid="lang-progress" x="211.56" y="0" width="81.31" height="8" fill="#00B4AB"></rect><rect mask="url(#rect-mask)" data-testid="lang-progress" x="292.87" y="0" width="42.53" height="8" fill="#083fa1"></rect><rect mask="url(#rect-mask)" data-testid="lang-progress" x="335.4" y="0" width="38.47" height="8" fill="#178600"></rect><rect mask="url(#rect-mask)" data-testid="lang-progress" x="373.87" y="0" width="24.68" height="8" fill="#00ADD8"></rect><rect mask="url(#rect-mask)" data-testid="lang-progress" x="398.55" y="0" width="19.29" height="8" fill="#dea584"></rect><rect mask="url(#rect-mask)" data-testid="lang-progress" x="417.84000000000003" y="0" width="19.7" height="8" fill="#2c3e50"></rect><rect mask="url(#rect-mask)" data-testid="lang-progress" x="427.54" y="0" width="19.15" height="8" fill="#3e4053"></rect><rect mask="url(#rect-mask)" data-testid="lang-progress" x="436.69" y="0" width="18.740000000000002" height="8" fill="#cb171e"></rect><rect mask="url(#rect-mask)" data-testid="lang-progress" x="445.43" y="0" width="17.87" height="8" fill="#3e4053"></rect><rect mask="url(#rect-mask)" data-testid="lang-progress" x="453.3" y="0" width="16.1" height="8" fill="#427819"></rect><rect mask="url(#rect-mask)" data-testid="lang-progress" x="459.40000000000003" y="0" width="16.06" height="8" fill="#e34c26"></rect><rect mask="url(#rect-mask)" data-testid="lang-progress" x="465.46000000000004" y="0" width="15.8" height="8" fill="#563d7c"></rect><rect mask="url(#rect-mask)" data-testid="lang-progress" x="471.26000000000005" y="0" width="15.690000000000001" height="8" fill="#f1e05a"></rect><rect mask="url(#rect-mask)" data-testid="lang-progress" x="476.95000000000005" y="0" width="15.64" height="8" fill="#2b7489"></rect><rect mask="url(#rect-mask)" data-testid="lang-progress" x="482.59000000000003" y="0" width="14.809999999999999" height="8" fill="#3e4053"></rect><rect mask="url(#rect-mask)" data-testid="lang-progress" x="487.40000000000003" y="0" width="14.02" height="8" fill="#3e4053"></rect><rect mask="url(#rect-mask)" data-testid="lang-progress" x="491.42" y="0" width="13.74" height="8" fill="#3e4053"></rect><rect mask="url(#rect-mask)" data-testid="lang-progress" x="495.16" y="0" width="12.46" height="8" fill="#3e4053"></rect><rect mask="url(#rect-mask)" data-testid="lang-progress" x="497.62" y="0" width="12.36" height="8" fill="#3e4053"></rect><g transform="translate(0, 25)"><circle cx="5" cy="6" r="5" fill="#3572A5"></circle><text data-testid="lang-name" x="15" y="10" class="lang-name">Python 42.31%</text></g><g transform="translate(150, 25)"><circle cx="5" cy="6" r="5" fill="#00B4AB"></circle><text data-testid="lang-name" x="15" y="10" class="lang-name">Dart 16.26%</text></g><g transform="translate(0, 50)"><circle cx="5" cy="6" r="5" fill="#083fa1"></circle><text data-testid="lang-name" x="15" y="10" class="lang-name">Markdown 8.51%</text></g><g transform="translate(150, 50)"><circle cx="5" cy="6" r="5" fill="#178600"></circle><text data-testid="lang-name" x="15" y="10" class="lang-name">C# 7.69%</text></g><g transform="translate(0, 75)"><circle cx="5" cy="6" r="5" fill="#00ADD8"></circle><text data-testid="lang-name" x="15" y="10" class="lang-name">Go 4.94%</text></g><g transform="translate(150, 75)"><circle cx="5" cy="6" r="5" fill="#dea584"></circle><text data-testid="lang-name" x="15" y="10" class="lang-name">Rust 3.86%</text></g><g transform="translate(0, 100)"><circle cx="5" cy="6" r="5" fill="#2c3e50"></circle><text data-testid="lang-name" x="15" y="10" class="lang-name">Vue 1.94%</text></g><g transform="translate(150, 100)"><circle cx="5" cy="6" r="5" fill="#3e4053"></circle><text data-testid="lang-name" x="15" y="10" class="lang-name">VS Code Input 1.83%</text></g><g transform="translate(0, 125)"><circle cx="5" cy="6" r="5" fill="#cb171e"></circle><text data-testid="lang-name" x="15" y="10" class="lang-name">YAML 1.75%</text></g><g transform="translate(150, 125)"><circle cx="5" cy="6" r="5" fill="#3e4053"></circle><text data-testid="lang-name" x="15" y="10" class="lang-name">JSON 1.57%</text></g><g transform="translate(0, 150)"><circle cx="5" cy="6" r="5" fill="#427819"></circle><text data-testid="lang-name" x="15" y="10" class="lang-name">Makefile 1.22%</text></g><g transform="translate(150, 150)"><circle cx="5" cy="6" r="5" fill="#e34c26"></circle><text data-testid="lang-name" x="15" y="10" class="lang-name">HTML 1.21%</text></g><g transform="translate(0, 175)"><circle cx="5" cy="6" r="5" fill="#563d7c"></circle><text data-testid="lang-name" x="15" y="10" class="lang-name">CSS 1.16%</text></g><g transform="translate(150, 175)"><circle cx="5" cy="6" r="5" fill="#f1e05a"></circle><text data-testid="lang-name" x="15" y="10" class="lang-name">JavaScript 1.14%</text></g><g transform="translate(0, 200)"><circle cx="5" cy="6" r="5" fill="#2b7489"></circle><text data-testid="lang-name" x="15" y="10" class="lang-name">TypeScript 1.13%</text></g><g transform="translate(150, 200)"><circle cx="5" cy="6" r="5" fill="#3e4053"></circle><text data-testid="lang-name" x="15" y="10" class="lang-name">Docker 0.96%</text></g><g transform="translate(0, 225)"><circle cx="5" cy="6" r="5" fill="#3e4053"></circle><text data-testid="lang-name" x="15" y="10" class="lang-name">CSV 0.8%</text></g><g transform="translate(150, 225)"><circle cx="5" cy="6" r="5" fill="#3e4053"></circle><text data-testid="lang-name" x="15" y="10" class="lang-name">TOML 0.75%</text></g><g transform="translate(0, 250)"><circle cx="5" cy="6" r="5" fill="#3e4053"></circle><text data-testid="lang-name" x="15" y="10" class="lang-name">Shell Script 0.49%</text></g><g transform="translate(150, 250)"><circle cx="5" cy="6" r="5" fill="#3e4053"></circle><text data-testid="lang-name" x="15" y="10" class="lang-name">LaTeX 0.47%</text></g></svg></g></svg>