<svg width="785" height="300" viewBox="0 0 785 300" fill="none" xmlns="http://www.w3.org/2000/svg"><style>
					.header {
						font: 600 18px &#x27;Segoe UI&#x27;, Ubuntu, Sans-Serif;
						fill: #3d858f;
						animation: fadeInAnimation 0.8s ease-in-out forwards;
					}
					
	.lang-name {
		font: 400 16px &#x27;Segoe UI&#x27;, Ubuntu, Sans-Serif;
		fill: #ffffffcc;
	}
	.xp-txt {
		font: 400 12px &#x27;Segoe UI&#x27;, Ubuntu, Sans-Serif;
		fill: black;
	}
	.xp-txt-invert {
		font: 600 12px &#x27;Segoe UI&#x27;, Ubuntu, Sans-Serif;
		fill: white;
	}
	.subtitle {
		font: 400 14px &#x27;Segoe UI&#x27;, Ubuntu, Sans-Serif;
		fill: #ffffffcc;
	}


					/* Animations */
					@keyframes scaleInAnimation {
						from {
							transform: translate(-5px, 5px) scale(0);
						}
						to {
							transform: translate(-5px, 5px) scale(1);
						}
					}
					@keyframes fadeInAnimation {
						from {
							opacity: 0;
						}
						to {
							opacity: 1;
						}
					}
				</style><rect x="0.5" y="0.5" rx="4.5" height="99%" stroke="#E4E2E2" width="784" fill="#151515" stroke-opacity="0"></rect><g transform="translate(25, 35)"><g transform="translate(0, 0)"><text x="0" y="0" class="header">Coding History of the last two weeks</text></g></g><g transform="translate(0, 55)"><svg x="25"><g transform="translate(0, 0)"><g transform="translate(0, 0)"><svg x="7" y="-20" height="240"><mask id="mask-2023-10-05"><rect x="0" y="170.12392167602354" width="16" height="34.87607832397645" fill="white" rx="5"></rect></mask><rect rx="5" ry="5" x="0" y="25" width="16" height="180" fill="#ddd"></rect><rect mask="url(#mask-2023-10-05)" width="16" fill="#00ADD8" y="179.26810899630289" x="0" height="25.73189100369711px"></rect><rect mask="url(#mask-2023-10-05)" width="16" fill="#b276b2" y="170.12392167602354" x="0" height="9.144187320279338px"></rect><text transform="rotate(90, 4, 79.12392167602354)" letter-spacing="5" y="79.12392167602354" x="4" rotate="-90" class="xp-txt">1415 XP</text></svg><text x="2" y="198" class="subtitle">Oct</text><text x="6" y="214" class="subtitle">05</text></g><g transform="translate(40, 0)"><svg x="7" y="-20" height="240"><mask id="mask-2023-10-06"><rect x="0" y="119.91715733260304" width="16" height="85.08284266739696" fill="white" rx="5"></rect></mask><rect rx="5" ry="5" x="0" y="25" width="16" height="180" fill="#ddd"></rect><rect mask="url(#mask-2023-10-06)" width="16" fill="#dea584" y="142.5434752841298" x="0" height="62.45652471587019px"></rect><rect mask="url(#mask-2023-10-06)" width="16" fill="#3e4053" y="142.4941804737779" x="0" height="0.049294810351910176px"></rect><rect mask="url(#mask-2023-10-06)" width="16" fill="#b276b2" y="119.91715733260304" x="0" height="22.57702314117486px"></rect><text transform="rotate(90, 4, 28.91715733260304)" letter-spacing="5" y="28.91715733260304" x="4" rotate="-90" class="xp-txt">3452 XP</text></svg><text x="2" y="198" class="subtitle">Oct</text><text x="6" y="214" class="subtitle">06</text></g><g transform="translate(80, 0)"><svg x="7" y="-20" height="240"><mask id="mask-2023-10-07"><rect x="0" y="154.49746679446804" width="16" height="50.502533205531975" fill="white" rx="5"></rect></mask><rect rx="5" ry="5" x="0" y="25" width="16" height="180" fill="#ddd"></rect><rect mask="url(#mask-2023-10-07)" width="16" fill="#dea584" y="191.83828563603998" x="0" height="13.161714363960016px"></rect><rect mask="url(#mask-2023-10-07)" width="16" fill="#3572A5" y="190.21155689442693" x="0" height="1.6267287416130358px"></rect><rect mask="url(#mask-2023-10-07)" width="16" fill="#b07219" y="183.45816787621524" x="0" height="6.753389018211694px"></rect><rect mask="url(#mask-2023-10-07)" width="16" fill="#3e4053" y="182.4476242640011" x="0" height="1.0105436122141587px"></rect><rect mask="url(#mask-2023-10-07)" width="16" fill="#b276b2" y="154.49746679446804" x="0" height="27.950157469533067px"></rect><text transform="rotate(90, 4, 63.49746679446804)" letter-spacing="5" y="63.49746679446804" x="4" rotate="-90" class="xp-txt">2049 XP</text></svg><text x="2" y="198" class="subtitle">Oct</text><text x="6" y="214" class="subtitle">07</text></g><g transform="translate(120, 0)"><svg x="7" y="-20" height="240"><mask id="mask-2023-10-08"><rect x="0" y="178.23291797891278" width="16" height="26.767082021087223" fill="white" rx="5"></rect></mask><rect rx="5" ry="5" x="0" y="25" width="16" height="180" fill="#ddd"></rect><rect mask="url(#mask-2023-10-08)" width="16" fill="#dea584" y="192.13405449815144" x="0" height="12.865945501848556px"></rect><rect mask="url(#mask-2023-10-08)" width="16" fill="#b07219" y="184.88771737642065" x="0" height="7.246337121730796px"></rect><rect mask="url(#mask-2023-10-08)" width="16" fill="#3e4053" y="184.78912775571683" x="0" height="0.09858962070382035px"></rect><rect mask="url(#mask-2023-10-08)" width="16" fill="#3e4053" y="184.17294262631796" x="0" height="0.6161851293988772px"></rect><rect mask="url(#mask-2023-10-08)" width="16" fill="#b276b2" y="178.23291797891278" x="0" height="5.940024647405176px"></rect><text transform="rotate(90, 4, 87.23291797891278)" letter-spacing="5" y="87.23291797891278" x="4" rotate="-90" class="xp-txt">1086 XP</text></svg><text x="2" y="198" class="subtitle">Oct</text><text x="6" y="214" class="subtitle">08</text></g><g transform="translate(160, 0)"><svg x="7" y="-20" height="240"><mask id="mask-2023-10-09"><rect x="0" y="159.74736409694646" width="16" height="45.25263590305354" fill="white" rx="5"></rect></mask><rect rx="5" ry="5" x="0" y="25" width="16" height="180" fill="#ddd"></rect><rect mask="url(#mask-2023-10-09)" width="16" fill="#083fa1" y="204.0141037929618" x="0" height="0.9858962070382035px"></rect><rect mask="url(#mask-2023-10-09)" width="16" fill="#3572A5" y="185.60249212652334" x="0" height="18.41161166643845px"></rect><rect mask="url(#mask-2023-10-09)" width="16" fill="#3e4053" y="183.08845679857592" x="0" height="2.514035327947419px"></rect><rect mask="url(#mask-2023-10-09)" width="16" fill="#b276b2" y="159.74736409694646" x="0" height="23.341092701629467px"></rect><text transform="rotate(90, 4, 68.74736409694646)" letter-spacing="5" y="68.74736409694646" x="4" rotate="-90" class="xp-txt">1836 XP</text></svg><text x="2" y="198" class="subtitle">Oct</text><text x="6" y="214" class="subtitle">09</text></g><g transform="translate(200, 0)"><svg x="7" y="-20" height="240"><mask id="mask-2023-10-10"><rect x="0" y="186.14473504039435" width="16" height="18.85526495960564" fill="white" rx="5"></rect></mask><rect rx="5" ry="5" x="0" y="25" width="16" height="180" fill="#ddd"></rect><rect mask="url(#mask-2023-10-10)" width="16" fill="#3572A5" y="204.43310968095304" x="0" height="0.566890319046967px"></rect><rect mask="url(#mask-2023-10-10)" width="16" fill="#3e4053" y="204.40846227577708" x="0" height="0.024647405175955088px"></rect><rect mask="url(#mask-2023-10-10)" width="16" fill="#b276b2" y="186.14473504039435" x="0" height="18.26372723538272px"></rect><text transform="rotate(90, 4, 108.14473504039435)" letter-spacing="5" y="108.14473504039435" x="4" rotate="-90" class="xp-txt">765 XP</text></svg><text x="2" y="198" class="subtitle">Oct</text><text x="6" y="214" class="subtitle">10</text></g><g transform="translate(240, 0)"><svg x="7" y="-20" height="240"><mask id="mask-2023-10-11"><rect x="0" y="203.02820758592358" width="16" height="1.971792414076407" fill="white" rx="5"></rect></mask><rect rx="5" ry="5" x="0" y="25" width="16" height="180" fill="#ddd"></rect><rect mask="url(#mask-2023-10-11)" width="16" fill="#b276b2" y="203.02820758592358" x="0" height="1.971792414076407px"></rect><text transform="rotate(90, 4, 138.02820758592358)" letter-spacing="5" y="138.02820758592358" x="4" rotate="-90" class="xp-txt">80 XP</text></svg><text x="2" y="198" class="subtitle">Oct</text><text x="6" y="214" class="subtitle">11</text></g><g transform="translate(280, 0)"><svg x="7" y="-20" height="240"><mask id="mask-2023-10-12"><rect x="0" y="103.9702861837601" width="16" height="101.0297138162399" fill="white" rx="5"></rect></mask><rect rx="5" ry="5" x="0" y="25" width="16" height="180" fill="#ddd"></rect><rect mask="url(#mask-2023-10-12)" width="16" fill="#083fa1" y="115.50527180610707" x="0" height="89.49472819389293px"></rect><rect mask="url(#mask-2023-10-12)" width="16" fill="#b276b2" y="103.9702861837601" x="0" height="11.53498562234698px"></rect><text transform="rotate(90, 4, 119.9702861837601)" letter-spacing="5" y="119.9702861837601" x="4" rotate="-90" class="xp-txt xp-txt-invert">4099 XP</text></svg><text x="2" y="198" class="subtitle">Oct</text><text x="6" y="214" class="subtitle">12</text></g><g transform="translate(320, 0)"><svg x="7" y="-20" height="240"><mask id="mask-2023-10-13"><rect x="0" y="205" width="16" height="0" fill="white" rx="5"></rect></mask><rect rx="5" ry="5" x="0" y="25" width="16" height="180" fill="#ddd"></rect><text transform="rotate(90, 4, 153)" letter-spacing="5" y="153" x="4" rotate="-90" class="xp-txt">0 XP</text></svg><text x="2" y="198" class="subtitle">Oct</text><text x="6" y="214" class="subtitle">13</text></g><g transform="translate(360, 0)"><svg x="7" y="-20" height="240"><mask id="mask-2023-10-14"><rect x="0" y="25" width="16" height="180" fill="white" rx="5"></rect></mask><rect rx="5" ry="5" x="0" y="25" width="16" height="180" fill="#ddd"></rect><rect mask="url(#mask-2023-10-14)" width="16" fill="#00B4AB" y="40.577160071203615" x="0" height="164.42283992879638px"></rect><rect mask="url(#mask-2023-10-14)" width="16" fill="#083fa1" y="40.207448993564284" x="0" height="0.3697110776393263px"></rect><rect mask="url(#mask-2023-10-14)" width="16" fill="#b276b2" y="25" x="0" height="15.207448993564288px"></rect><text transform="rotate(90, 4, 41)" letter-spacing="5" y="41" x="4" rotate="-90" class="xp-txt xp-txt-invert">7303 XP</text></svg><text x="2" y="198" class="subtitle">Oct</text><text x="6" y="214" class="subtitle">14</text></g><g transform="translate(400, 0)"><svg x="7" y="-20" height="240"><mask id="mask-2023-10-15"><rect x="0" y="169.1626728741613" width="16" height="35.8373271258387" fill="white" rx="5"></rect></mask><rect rx="5" ry="5" x="0" y="25" width="16" height="180" fill="#ddd"></rect><rect mask="url(#mask-2023-10-15)" width="16" fill="#00B4AB" y="172.19430371080378" x="0" height="32.80569628919622px"></rect><rect mask="url(#mask-2023-10-15)" width="16" fill="#b276b2" y="169.1626728741613" x="0" height="3.0316308366424756px"></rect><text transform="rotate(90, 4, 78.1626728741613)" letter-spacing="5" y="78.1626728741613" x="4" rotate="-90" class="xp-txt">1454 XP</text></svg><text x="2" y="198" class="subtitle">Oct</text><text x="6" y="214" class="subtitle">15</text></g><g transform="translate(440, 0)"><svg x="7" y="-20" height="240"><mask id="mask-2023-10-17"><rect x="0" y="205" width="16" height="0" fill="white" rx="5"></rect></mask><rect rx="5" ry="5" x="0" y="25" width="16" height="180" fill="#ddd"></rect><text transform="rotate(90, 4, 153)" letter-spacing="5" y="153" x="4" rotate="-90" class="xp-txt">0 XP</text></svg><text x="2" y="198" class="subtitle">Oct</text><text x="6" y="214" class="subtitle">17</text></g><g transform="translate(480, 0)"><svg x="7" y="-20" height="240"><mask id="mask-2023-10-18"><rect x="0" y="202.46131726687662" width="16" height="2.538682733123374" fill="white" rx="5"></rect></mask><rect rx="5" ry="5" x="0" y="25" width="16" height="180" fill="#ddd"></rect><rect mask="url(#mask-2023-10-18)" width="16" fill="#b276b2" y="202.46131726687662" x="0" height="2.538682733123374px"></rect><text transform="rotate(90, 4, 124.46131726687662)" letter-spacing="5" y="124.46131726687662" x="4" rotate="-90" class="xp-txt">103 XP</text></svg><text x="2" y="198" class="subtitle">Oct</text><text x="6" y="214" class="subtitle">18</text></g></g><g transform="translate(568, 0)"><g transform="translate(0, 0)"><rect rx="5" x="2" y="7" height="12" width="12" fill="#00B4AB"></rect><text x="18" y="18" class="lang-name">Dart</text></g><g transform="translate(0, 20)"><rect rx="5" x="2" y="7" height="12" width="12" fill="#083fa1"></rect><text x="18" y="18" class="lang-name">Markdown</text></g><g transform="translate(0, 40)"><rect rx="5" x="2" y="7" height="12" width="12" fill="#dea584"></rect><text x="18" y="18" class="lang-name">Rust</text></g><g transform="translate(0, 60)"><rect rx="5" x="2" y="7" height="12" width="12" fill="#00ADD8"></rect><text x="18" y="18" class="lang-name">Go</text></g><g transform="translate(0, 80)"><rect rx="5" x="2" y="7" height="12" width="12" fill="#3572A5"></rect><text x="18" y="18" class="lang-name">Python</text></g><g transform="translate(0, 100)"><rect rx="5" x="2" y="7" height="12" width="12" fill="#b07219"></rect><text x="18" y="18" class="lang-name">Java</text></g><g transform="translate(0, 120)"><rect rx="5" x="2" y="7" height="12" width="12" fill="#3e4053"></rect><text x="18" y="18" class="lang-name">CSV</text></g><g transform="translate(0, 140)"><rect rx="5" x="2" y="7" height="12" width="12" fill="#3e4053"></rect><text x="18" y="18" class="lang-name">TOML</text></g><g transform="translate(0, 160)"><rect rx="5" x="2" y="7" height="12" width="12" fill="#3e4053"></rect><text x="18" y="18" class="lang-name">Other</text></g></g></svg></g></svg>