<svg width="785" height="300" viewBox="0 0 785 300" fill="none" xmlns="http://www.w3.org/2000/svg"><style>
					.header {
						font: 600 18px &#x27;Segoe UI&#x27;, Ubuntu, Sans-Serif;
						fill: #3d858f;
						animation: fadeInAnimation 0.8s ease-in-out forwards;
					}
					
	.lang-name {
		font: 400 16px &#x27;Segoe UI&#x27;, Ubuntu, Sans-Serif;
		fill: #ffffffcc;
	}
	.xp-txt {
		font: 400 12px &#x27;Segoe UI&#x27;, Ubuntu, Sans-Serif;
		fill: black;
	}
	.xp-txt-invert {
		font: 600 12px &#x27;Segoe UI&#x27;, Ubuntu, Sans-Serif;
		fill: white;
	}
	.subtitle {
		font: 400 14px &#x27;Segoe UI&#x27;, Ubuntu, Sans-Serif;
		fill: #ffffffcc;
	}


					/* Animations */
					@keyframes scaleInAnimation {
						from {
							transform: translate(-5px, 5px) scale(0);
						}
						to {
							transform: translate(-5px, 5px) scale(1);
						}
					}
					@keyframes fadeInAnimation {
						from {
							opacity: 0;
						}
						to {
							opacity: 1;
						}
					}
				</style><rect x="0.5" y="0.5" rx="4.5" height="99%" stroke="#E4E2E2" width="784" fill="#151515" stroke-opacity="0"></rect><g transform="translate(25, 35)"><g transform="translate(0, 0)"><text x="0" y="0" class="header">Coding History of the last two weeks</text></g></g><g transform="translate(0, 55)"><svg x="25"><g transform="translate(0, 0)"><g transform="translate(0, 0)"><svg x="7" y="-20" height="240"><mask id="mask-2024-02-23"><rect x="0" y="176.22791900043086" width="16" height="28.77208099956915" fill="white" rx="5"></rect></mask><rect rx="5" ry="5" x="0" y="25" width="16" height="180" fill="#ddd"></rect><rect mask="url(#mask-2024-02-23)" width="16" fill="#00ADD8" y="182.22533390779836" x="0" height="22.774666092201638px"></rect><rect mask="url(#mask-2024-02-23)" width="16" fill="#b276b2" y="176.22791900043086" x="0" height="5.997414907367514px"></rect><text transform="rotate(90, 4, 85.22791900043086)" letter-spacing="5" y="85.22791900043086" x="4" rotate="-90" class="xp-txt">1113 XP</text></svg><text x="2" y="198" class="subtitle">Feb</text><text x="6" y="214" class="subtitle">23</text></g><g transform="translate(40, 0)"><svg x="7" y="-20" height="240"><mask id="mask-2024-02-24"><rect x="0" y="123.6212839293408" width="16" height="81.3787160706592" fill="white" rx="5"></rect></mask><rect rx="5" ry="5" x="0" y="25" width="16" height="180" fill="#ddd"></rect><rect mask="url(#mask-2024-02-24)" width="16" fill="#00ADD8" y="148.877638948729" x="0" height="56.12236105127101px"></rect><rect mask="url(#mask-2024-02-24)" width="16" fill="#3e4053" y="126.36148211977596" x="0" height="22.516156828953036px"></rect><rect mask="url(#mask-2024-02-24)" width="16" fill="#b276b2" y="123.6212839293408" x="0" height="2.7401981904351573px"></rect><text transform="rotate(90, 4, 32.621283929340805)" letter-spacing="5" y="32.621283929340805" x="4" rotate="-90" class="xp-txt">3148 XP</text></svg><text x="2" y="198" class="subtitle">Feb</text><text x="6" y="214" class="subtitle">24</text></g><g transform="translate(80, 0)"><svg x="7" y="-20" height="240"><mask id="mask-2024-02-25"><rect x="0" y="58.19258940112021" width="16" height="146.80741059887978" fill="white" rx="5"></rect></mask><rect rx="5" ry="5" x="0" y="25" width="16" height="180" fill="#ddd"></rect><rect mask="url(#mask-2024-02-25)" width="16" fill="#00ADD8" y="87.42998707453684" x="0" height="117.57001292546316px"></rect><rect mask="url(#mask-2024-02-25)" width="16" fill="#3e4053" y="75.12494614390349" x="0" height="12.305040930633348px"></rect><rect mask="url(#mask-2024-02-25)" width="16" fill="#b276b2" y="58.19258940112021" x="0" height="16.932356742783284px"></rect><text transform="rotate(90, 4, 74.19258940112022)" letter-spacing="5" y="74.19258940112022" x="4" rotate="-90" class="xp-txt xp-txt-invert">5679 XP</text></svg><text x="2" y="198" class="subtitle">Feb</text><text x="6" y="214" class="subtitle">25</text></g><g transform="translate(120, 0)"><svg x="7" y="-20" height="240"><mask id="mask-2024-02-26"><rect x="0" y="170.7733735458854" width="16" height="34.22662645411461" fill="white" rx="5"></rect></mask><rect rx="5" ry="5" x="0" y="25" width="16" height="180" fill="#ddd"></rect><rect mask="url(#mask-2024-02-26)" width="16" fill="#b276b2" y="170.7733735458854" x="0" height="34.22662645411461px"></rect><text transform="rotate(90, 4, 79.77337354588539)" letter-spacing="5" y="79.77337354588539" x="4" rotate="-90" class="xp-txt">1324 XP</text></svg><text x="2" y="198" class="subtitle">Feb</text><text x="6" y="214" class="subtitle">26</text></g><g transform="translate(160, 0)"><svg x="7" y="-20" height="240"><mask id="mask-2024-02-27"><rect x="0" y="163.09564842740198" width="16" height="41.90435157259802" fill="white" rx="5"></rect></mask><rect rx="5" ry="5" x="0" y="25" width="16" height="180" fill="#ddd"></rect><rect mask="url(#mask-2024-02-27)" width="16" fill="#3e4053" y="204.94829814735027" x="0" height="0.05170185264971995px"></rect><rect mask="url(#mask-2024-02-27)" width="16" fill="#b276b2" y="163.09564842740198" x="0" height="41.852649719948296px"></rect><text transform="rotate(90, 4, 72.09564842740198)" letter-spacing="5" y="72.09564842740198" x="4" rotate="-90" class="xp-txt">1621 XP</text></svg><text x="2" y="198" class="subtitle">Feb</text><text x="6" y="214" class="subtitle">27</text></g><g transform="translate(200, 0)"><svg x="7" y="-20" height="240"><mask id="mask-2024-02-28"><rect x="0" y="105.6031882809134" width="16" height="99.3968117190866" fill="white" rx="5"></rect></mask><rect rx="5" ry="5" x="0" y="25" width="16" height="180" fill="#ddd"></rect><rect mask="url(#mask-2024-02-28)" width="16" fill="#3572A5" y="170.61826798793624" x="0" height="34.381732012063765px"></rect><rect mask="url(#mask-2024-02-28)" width="16" fill="#3e4053" y="155.85738905644118" x="0" height="14.760878931495045px"></rect><rect mask="url(#mask-2024-02-28)" width="16" fill="#3e4053" y="155.80568720379148" x="0" height="0.05170185264971995px"></rect><rect mask="url(#mask-2024-02-28)" width="16" fill="#b276b2" y="105.6031882809134" x="0" height="50.20249892287807px"></rect><text transform="rotate(90, 4, 121.6031882809134)" letter-spacing="5" y="121.6031882809134" x="4" rotate="-90" class="xp-txt xp-txt-invert">3845 XP</text></svg><text x="2" y="198" class="subtitle">Feb</text><text x="6" y="214" class="subtitle">28</text></g><g transform="translate(240, 0)"><svg x="7" y="-20" height="240"><mask id="mask-2024-02-29"><rect x="0" y="198.48556656613528" width="16" height="6.514433433864713" fill="white" rx="5"></rect></mask><rect rx="5" ry="5" x="0" y="25" width="16" height="180" fill="#ddd"></rect><rect mask="url(#mask-2024-02-29)" width="16" fill="#b276b2" y="198.48556656613528" x="0" height="6.514433433864713px"></rect><text transform="rotate(90, 4, 120.48556656613528)" letter-spacing="5" y="120.48556656613528" x="4" rotate="-90" class="xp-txt">252 XP</text></svg><text x="2" y="198" class="subtitle">Feb</text><text x="6" y="214" class="subtitle">29</text></g><g transform="translate(280, 0)"><svg x="7" y="-20" height="240"><mask id="mask-2024-03-01"><rect x="0" y="189.30848772081" width="16" height="15.691512279190004" fill="white" rx="5"></rect></mask><rect rx="5" ry="5" x="0" y="25" width="16" height="180" fill="#ddd"></rect><rect mask="url(#mask-2024-03-01)" width="16" fill="#3e4053" y="202.90607496768635" x="0" height="2.093925032313658px"></rect><rect mask="url(#mask-2024-03-01)" width="16" fill="#3e4053" y="192.74666092201636" x="0" height="10.159414045669969px"></rect><rect mask="url(#mask-2024-03-01)" width="16" fill="#3e4053" y="192.69495906936666" x="0" height="0.05170185264971995px"></rect><rect mask="url(#mask-2024-03-01)" width="16" fill="#b276b2" y="189.30848772081" x="0" height="3.3864713485566567px"></rect><text transform="rotate(90, 4, 111.30848772081)" letter-spacing="5" y="111.30848772081" x="4" rotate="-90" class="xp-txt">607 XP</text></svg><text x="2" y="198" class="subtitle">Mar</text><text x="6" y="214" class="subtitle">01</text></g><g transform="translate(320, 0)"><svg x="7" y="-20" height="240"><mask id="mask-2024-03-03"><rect x="0" y="205" width="16" height="0" fill="white" rx="5"></rect></mask><rect rx="5" ry="5" x="0" y="25" width="16" height="180" fill="#ddd"></rect><text transform="rotate(90, 4, 153)" letter-spacing="5" y="153" x="4" rotate="-90" class="xp-txt">0 XP</text></svg><text x="2" y="198" class="subtitle">Mar</text><text x="6" y="214" class="subtitle">03</text></g><g transform="translate(360, 0)"><svg x="7" y="-20" height="240"><mask id="mask-2024-03-04"><rect x="0" y="62.30288668677294" width="16" height="142.69711331322705" fill="white" rx="5"></rect></mask><rect rx="5" ry="5" x="0" y="25" width="16" height="180" fill="#ddd"></rect><rect mask="url(#mask-2024-03-04)" width="16" fill="#3572A5" y="180.15725980180957" x="0" height="24.842740198190434px"></rect><rect mask="url(#mask-2024-03-04)" width="16" fill="#dea584" y="170.28220594571306" x="0" height="9.87505385609651px"></rect><rect mask="url(#mask-2024-03-04)" width="16" fill="#3e4053" y="165.3446790176648" x="0" height="4.937526928048255px"></rect><rect mask="url(#mask-2024-03-04)" width="16" fill="#3e4053" y="159.57992244722104" x="0" height="5.764756570443774px"></rect><rect mask="url(#mask-2024-03-04)" width="16" fill="#b276b2" y="62.30288668677294" x="0" height="97.27703576044809px"></rect><text transform="rotate(90, 4, 78.30288668677295)" letter-spacing="5" y="78.30288668677295" x="4" rotate="-90" class="xp-txt xp-txt-invert">5520 XP</text></svg><text x="2" y="198" class="subtitle">Mar</text><text x="6" y="214" class="subtitle">04</text></g><g transform="translate(400, 0)"><svg x="7" y="-20" height="240"><mask id="mask-2024-03-05"><rect x="0" y="106.19775958638517" width="16" height="98.80224041361483" fill="white" rx="5"></rect></mask><rect rx="5" ry="5" x="0" y="25" width="16" height="180" fill="#ddd"></rect><rect mask="url(#mask-2024-03-05)" width="16" fill="#3572A5" y="204.3537268418785" x="0" height="0.6462731581214993px"></rect><rect mask="url(#mask-2024-03-05)" width="16" fill="#dea584" y="174.36665230504093" x="0" height="29.98707453683757px"></rect><rect mask="url(#mask-2024-03-05)" width="16" fill="#3e4053" y="171.57475226195606" x="0" height="2.791900043084877px"></rect><rect mask="url(#mask-2024-03-05)" width="16" fill="#3e4053" y="171.52305040930634" x="0" height="0.05170185264971995px"></rect><rect mask="url(#mask-2024-03-05)" width="16" fill="#b276b2" y="106.19775958638517" x="0" height="65.32529082292116px"></rect><text transform="rotate(90, 4, 122.19775958638517)" letter-spacing="5" y="122.19775958638517" x="4" rotate="-90" class="xp-txt xp-txt-invert">3822 XP</text></svg><text x="2" y="198" class="subtitle">Mar</text><text x="6" y="214" class="subtitle">05</text></g><g transform="translate(440, 0)"><svg x="7" y="-20" height="240"><mask id="mask-2024-03-06"><rect x="0" y="25" width="16" height="180" fill="white" rx="5"></rect></mask><rect rx="5" ry="5" x="0" y="25" width="16" height="180" fill="#ddd"></rect><rect mask="url(#mask-2024-03-06)" width="16" fill="#00ADD8" y="199.41619991383024" x="0" height="5.583800086169754px"></rect><rect mask="url(#mask-2024-03-06)" width="16" fill="#3572A5" y="134.86643688065487" x="0" height="64.54976303317535px"></rect><rect mask="url(#mask-2024-03-06)" width="16" fill="#dea584" y="126.30978026712624" x="0" height="8.556656613528652px"></rect><rect mask="url(#mask-2024-03-06)" width="16" fill="#3e4053" y="108.86040499784576" x="0" height="17.449375269280484px"></rect><rect mask="url(#mask-2024-03-06)" width="16" fill="#3e4053" y="105.39638087031452" x="0" height="3.4640241275312365px"></rect><rect mask="url(#mask-2024-03-06)" width="16" fill="#b276b2" y="25" x="0" height="80.39638087031452px"></rect><text transform="rotate(90, 4, 41)" letter-spacing="5" y="41" x="4" rotate="-90" class="xp-txt xp-txt-invert">6963 XP</text></svg><text x="2" y="198" class="subtitle">Mar</text><text x="6" y="214" class="subtitle">06</text></g><g transform="translate(480, 0)"><svg x="7" y="-20" height="240"><mask id="mask-2024-03-07"><rect x="0" y="106.48211977595864" width="16" height="98.51788022404136" fill="white" rx="5"></rect></mask><rect rx="5" ry="5" x="0" y="25" width="16" height="180" fill="#ddd"></rect><rect mask="url(#mask-2024-03-07)" width="16" fill="#3572A5" y="164.02628177509695" x="0" height="40.97371822490306px"></rect><rect mask="url(#mask-2024-03-07)" width="16" fill="#b276b2" y="106.48211977595864" x="0" height="57.5441619991383px"></rect><text transform="rotate(90, 4, 122.48211977595864)" letter-spacing="5" y="122.48211977595864" x="4" rotate="-90" class="xp-txt xp-txt-invert">3811 XP</text></svg><text x="2" y="198" class="subtitle">Mar</text><text x="6" y="214" class="subtitle">07</text></g></g><g transform="translate(568, 0)"><g transform="translate(0, 0)"><rect rx="5" x="2" y="7" height="12" width="12" fill="#00ADD8"></rect><text x="18" y="18" class="lang-name">Go</text></g><g transform="translate(0, 20)"><rect rx="5" x="2" y="7" height="12" width="12" fill="#3572A5"></rect><text x="18" y="18" class="lang-name">Python</text></g><g transform="translate(0, 40)"><rect rx="5" x="2" y="7" height="12" width="12" fill="#dea584"></rect><text x="18" y="18" class="lang-name">Rust</text></g><g transform="translate(0, 60)"><rect rx="5" x="2" y="7" height="12" width="12" fill="#3e4053"></rect><text x="18" y="18" class="lang-name">proto3</text></g><g transform="translate(0, 80)"><rect rx="5" x="2" y="7" height="12" width="12" fill="#3e4053"></rect><text x="18" y="18" class="lang-name">XML</text></g><g transform="translate(0, 100)"><rect rx="5" x="2" y="7" height="12" width="12" fill="#3e4053"></rect><text x="18" y="18" class="lang-name">Docker</text></g><g transform="translate(0, 120)"><rect rx="5" x="2" y="7" height="12" width="12" fill="#3e4053"></rect><text x="18" y="18" class="lang-name">Garmin Monkey C</text></g><g transform="translate(0, 140)"><rect rx="5" x="2" y="7" height="12" width="12" fill="#3e4053"></rect><text x="18" y="18" class="lang-name">VS Code Input</text></g><g transform="translate(0, 160)"><rect rx="5" x="2" y="7" height="12" width="12" fill="#3e4053"></rect><text x="18" y="18" class="lang-name">Other</text></g></g></svg></g></svg>