<svg width="550" height="340" viewBox="0 0 550 340" fill="none" xmlns="http://www.w3.org/2000/svg"><style>
					.header {
						font: 600 18px &#x27;Segoe UI&#x27;, Ubuntu, Sans-Serif;
						fill: #3d858f;
						animation: fadeInAnimation 0.8s ease-in-out forwards;
					}
					
		.lang-name {
			font: 400 11px &#x27;Segoe UI&#x27;, Ubuntu, Sans-Serif;
			fill: #ffffffcc;
		}
	

					/* Animations */
					@keyframes scaleInAnimation {
						from {
							transform: translate(-5px, 5px) scale(0);
						}
						to {
							transform: translate(-5px, 5px) scale(1);
						}
					}
					@keyframes fadeInAnimation {
						from {
							opacity: 0;
						}
						to {
							opacity: 1;
						}
					}
				</style><rect x="0.5" y="0.5" rx="4.5" height="99%" stroke="#E4E2E2" width="549" fill="#151515" stroke-opacity="0"></rect><g transform="translate(25, 35)"><g transform="translate(0, 0)"><text x="0" y="0" class="header">Most Coded Languages</text></g></g><g transform="translate(0, 55)"><svg x="25"><mask id="rect-mask"><rect x="0" y="0" width="500" height="8" fill="white" rx="5"></rect></mask><rect mask="url(#rect-mask)" data-testid="lang-progress" x="0" y="0" width="157.91" height="8" fill="#3572A5"></rect><rect mask="url(#rect-mask)" data-testid="lang-progress" x="157.91" y="0" width="112.69" height="8" fill="#00B4AB"></rect><rect mask="url(#rect-mask)" data-testid="lang-progress" x="270.6" y="0" width="77.73" height="8" fill="#00ADD8"></rect><rect mask="url(#rect-mask)" data-testid="lang-progress" x="348.33000000000004" y="0" width="38.61" height="8" fill="#083fa1"></rect><rect mask="url(#rect-mask)" data-testid="lang-progress" x="386.94000000000005" y="0" width="24.21" height="8" fill="#178600"></rect><rect mask="url(#rect-mask)" data-testid="lang-progress" x="411.15000000000003" y="0" width="12.67" height="8" fill="#dea584"></rect><rect mask="url(#rect-mask)" data-testid="lang-progress" x="423.82000000000005" y="0" width="10.46" height="8" fill="#427819"></rect><rect mask="url(#rect-mask)" data-testid="lang-progress" x="434.28000000000003" y="0" width="18.939999999999998" height="8" fill="#3e4053"></rect><rect mask="url(#rect-mask)" data-testid="lang-progress" x="443.22" y="0" width="18.42" height="8" fill="#cb171e"></rect><rect mask="url(#rect-mask)" data-testid="lang-progress" x="451.64000000000004" y="0" width="17.17" height="8" fill="#3e4053"></rect><rect mask="url(#rect-mask)" data-testid="lang-progress" x="458.81000000000006" y="0" width="16.36" height="8" fill="#f1e05a"></rect><rect mask="url(#rect-mask)" data-testid="lang-progress" x="465.1700000000001" y="0" width="16.1" height="8" fill="#2c3e50"></rect><rect mask="url(#rect-mask)" data-testid="lang-progress" x="471.2700000000001" y="0" width="14.14" height="8" fill="#f7931e"></rect><rect mask="url(#rect-mask)" data-testid="lang-progress" x="475.4100000000001" y="0" width="13.85" height="8" fill="#3e4053"></rect><rect mask="url(#rect-mask)" data-testid="lang-progress" x="479.2600000000001" y="0" width="13.82" height="8" fill="#e34c26"></rect><rect mask="url(#rect-mask)" data-testid="lang-progress" x="483.0800000000001" y="0" width="13.67" height="8" fill="#563d7c"></rect><rect mask="url(#rect-mask)" data-testid="lang-progress" x="486.7500000000001" y="0" width="13.55" height="8" fill="#2b7489"></rect><rect mask="url(#rect-mask)" data-testid="lang-progress" x="490.3000000000001" y="0" width="13.370000000000001" height="8" fill="#3e4053"></rect><rect mask="url(#rect-mask)" data-testid="lang-progress" x="493.67000000000013" y="0" width="13.18" height="8" fill="#f34b7d"></rect><rect mask="url(#rect-mask)" data-testid="lang-progress" x="496.85000000000014" y="0" width="13.17" height="8" fill="#3be133"></rect><g transform="translate(0, 25)"><circle cx="5" cy="6" r="5" fill="#3572A5"></circle><text data-testid="lang-name" x="15" y="10" class="lang-name">Python 31.58%</text></g><g transform="translate(150, 25)"><circle cx="5" cy="6" r="5" fill="#00B4AB"></circle><text data-testid="lang-name" x="15" y="10" class="lang-name">Dart 22.54%</text></g><g transform="translate(0, 50)"><circle cx="5" cy="6" r="5" fill="#00ADD8"></circle><text data-testid="lang-name" x="15" y="10" class="lang-name">Go 15.55%</text></g><g transform="translate(150, 50)"><circle cx="5" cy="6" r="5" fill="#083fa1"></circle><text data-testid="lang-name" x="15" y="10" class="lang-name">Markdown 7.72%</text></g><g transform="translate(0, 75)"><circle cx="5" cy="6" r="5" fill="#178600"></circle><text data-testid="lang-name" x="15" y="10" class="lang-name">C# 4.84%</text></g><g transform="translate(150, 75)"><circle cx="5" cy="6" r="5" fill="#dea584"></circle><text data-testid="lang-name" x="15" y="10" class="lang-name">Rust 2.53%</text></g><g transform="translate(0, 100)"><circle cx="5" cy="6" r="5" fill="#427819"></circle><text data-testid="lang-name" x="15" y="10" class="lang-name">Makefile 2.09%</text></g><g transform="translate(150, 100)"><circle cx="5" cy="6" r="5" fill="#3e4053"></circle><text data-testid="lang-name" x="15" y="10" class="lang-name">VS Code Input 1.79%</text></g><g transform="translate(0, 125)"><circle cx="5" cy="6" r="5" fill="#cb171e"></circle><text data-testid="lang-name" x="15" y="10" class="lang-name">YAML 1.68%</text></g><g transform="translate(150, 125)"><circle cx="5" cy="6" r="5" fill="#3e4053"></circle><text data-testid="lang-name" x="15" y="10" class="lang-name">JSON 1.43%</text></g><g transform="translate(0, 150)"><circle cx="5" cy="6" r="5" fill="#f1e05a"></circle><text data-testid="lang-name" x="15" y="10" class="lang-name">JavaScript 1.27%</text></g><g transform="translate(150, 150)"><circle cx="5" cy="6" r="5" fill="#2c3e50"></circle><text data-testid="lang-name" x="15" y="10" class="lang-name">Vue 1.22%</text></g><g transform="translate(0, 175)"><circle cx="5" cy="6" r="5" fill="#f7931e"></circle><text data-testid="lang-name" x="15" y="10" class="lang-name">Handlebars 0.83%</text></g><g transform="translate(150, 175)"><circle cx="5" cy="6" r="5" fill="#3e4053"></circle><text data-testid="lang-name" x="15" y="10" class="lang-name">Docker 0.77%</text></g><g transform="translate(0, 200)"><circle cx="5" cy="6" r="5" fill="#e34c26"></circle><text data-testid="lang-name" x="15" y="10" class="lang-name">HTML 0.76%</text></g><g transform="translate(150, 200)"><circle cx="5" cy="6" r="5" fill="#563d7c"></circle><text data-testid="lang-name" x="15" y="10" class="lang-name">CSS 0.73%</text></g><g transform="translate(0, 225)"><circle cx="5" cy="6" r="5" fill="#2b7489"></circle><text data-testid="lang-name" x="15" y="10" class="lang-name">TypeScript 0.71%</text></g><g transform="translate(150, 225)"><circle cx="5" cy="6" r="5" fill="#3e4053"></circle><text data-testid="lang-name" x="15" y="10" class="lang-name">TOML 0.67%</text></g><g transform="translate(0, 250)"><circle cx="5" cy="6" r="5" fill="#f34b7d"></circle><text data-testid="lang-name" x="15" y="10" class="lang-name">C++ 0.64%</text></g><g transform="translate(150, 250)"><circle cx="5" cy="6" r="5" fill="#3be133"></circle><text data-testid="lang-name" x="15" y="10" class="lang-name">OCaml 0.63%</text></g></svg></g></svg>