<svg width="785" height="300" viewBox="0 0 785 300" fill="none" xmlns="http://www.w3.org/2000/svg"><style>
					.header {
						font: 600 18px &#x27;Segoe UI&#x27;, Ubuntu, Sans-Serif;
						fill: #3d858f;
						animation: fadeInAnimation 0.8s ease-in-out forwards;
					}
					
	.lang-name {
		font: 400 16px &#x27;Segoe UI&#x27;, Ubuntu, Sans-Serif;
		fill: #ffffffcc;
	}
	.xp-txt {
		font: 400 12px &#x27;Segoe UI&#x27;, Ubuntu, Sans-Serif;
		fill: black;
	}
	.xp-txt-invert {
		font: 600 12px &#x27;Segoe UI&#x27;, Ubuntu, Sans-Serif;
		fill: white;
	}
	.subtitle {
		font: 400 14px &#x27;Segoe UI&#x27;, Ubuntu, Sans-Serif;
		fill: #ffffffcc;
	}


					/* Animations */
					@keyframes scaleInAnimation {
						from {
							transform: translate(-5px, 5px) scale(0);
						}
						to {
							transform: translate(-5px, 5px) scale(1);
						}
					}
					@keyframes fadeInAnimation {
						from {
							opacity: 0;
						}
						to {
							opacity: 1;
						}
					}
				</style><rect x="0.5" y="0.5" rx="4.5" height="99%" stroke="#E4E2E2" width="784" fill="#151515" stroke-opacity="0"></rect><g transform="translate(25, 35)"><g transform="translate(0, 0)"><text x="0" y="0" class="header">Coding History of the last two weeks</text></g></g><g transform="translate(0, 55)"><svg x="25"><g transform="translate(0, 0)"><g transform="translate(0, 0)"><svg x="7" y="-20" height="240"><mask id="mask-2023-10-30"><rect x="0" y="25" width="16" height="180" fill="white" rx="5"></rect></mask><rect rx="5" ry="5" x="0" y="25" width="16" height="180" fill="#ddd"></rect><rect mask="url(#mask-2023-10-30)" width="16" fill="#3572A5" y="204.21705089169205" x="0" height="0.7829491083079599px"></rect><rect mask="url(#mask-2023-10-30)" width="16" fill="#a270ba" y="132.26402783819051" x="0" height="71.95302305350152px"></rect><rect mask="url(#mask-2023-10-30)" width="16" fill="#083fa1" y="88.81035232709874" x="0" height="43.45367551109178px"></rect><rect mask="url(#mask-2023-10-30)" width="16" fill="#3e4053" y="87.00956937799043" x="0" height="1.800782949108308px"></rect><rect mask="url(#mask-2023-10-30)" width="16" fill="#b276b2" y="25" x="0" height="62.00956937799043px"></rect><text transform="rotate(90, 4, 41)" letter-spacing="5" y="41" x="4" rotate="-90" class="xp-txt xp-txt-invert">2299 XP</text></svg><text x="2" y="198" class="subtitle">Oct</text><text x="6" y="214" class="subtitle">30</text></g><g transform="translate(40, 0)"><svg x="7" y="-20" height="240"><mask id="mask-2023-10-31"><rect x="0" y="190.59373640713355" width="16" height="14.406263592866464" fill="white" rx="5"></rect></mask><rect rx="5" ry="5" x="0" y="25" width="16" height="180" fill="#ddd"></rect><rect mask="url(#mask-2023-10-31)" width="16" fill="#b276b2" y="190.59373640713355" x="0" height="14.406263592866464px"></rect><text transform="rotate(90, 4, 112.59373640713355)" letter-spacing="5" y="112.59373640713355" x="4" rotate="-90" class="xp-txt">184 XP</text></svg><text x="2" y="198" class="subtitle">Oct</text><text x="6" y="214" class="subtitle">31</text></g><g transform="translate(80, 0)"><svg x="7" y="-20" height="240"><mask id="mask-2023-11-01"><rect x="0" y="205" width="16" height="0" fill="white" rx="5"></rect></mask><rect rx="5" ry="5" x="0" y="25" width="16" height="180" fill="#ddd"></rect><text transform="rotate(90, 4, 153)" letter-spacing="5" y="153" x="4" rotate="-90" class="xp-txt">0 XP</text></svg><text x="2" y="198" class="subtitle">Nov</text><text x="6" y="214" class="subtitle">01</text></g><g transform="translate(120, 0)"><svg x="7" y="-20" height="240"><mask id="mask-2023-11-02"><rect x="0" y="35.021748586341886" width="16" height="169.9782514136581" fill="white" rx="5"></rect></mask><rect rx="5" ry="5" x="0" y="25" width="16" height="180" fill="#ddd"></rect><rect mask="url(#mask-2023-11-02)" width="16" fill="#3572A5" y="102.12048716833405" x="0" height="102.87951283166595px"></rect><rect mask="url(#mask-2023-11-02)" width="16" fill="#083fa1" y="101.80730752501087" x="0" height="0.313179643323184px"></rect><rect mask="url(#mask-2023-11-02)" width="16" fill="#3e4053" y="94.91735537190083" x="0" height="6.889952153110048px"></rect><rect mask="url(#mask-2023-11-02)" width="16" fill="#3e4053" y="94.60417572857764" x="0" height="0.313179643323184px"></rect><rect mask="url(#mask-2023-11-02)" width="16" fill="#3e4053" y="93.3514571552849" x="0" height="1.252718573292736px"></rect><rect mask="url(#mask-2023-11-02)" width="16" fill="#b276b2" y="35.021748586341886" x="0" height="58.32970856894302px"></rect><text transform="rotate(90, 4, 51.021748586341886)" letter-spacing="5" y="51.021748586341886" x="4" rotate="-90" class="xp-txt xp-txt-invert">2171 XP</text></svg><text x="2" y="198" class="subtitle">Nov</text><text x="6" y="214" class="subtitle">02</text></g><g transform="translate(160, 0)"><svg x="7" y="-20" height="240"><mask id="mask-2023-11-03"><rect x="0" y="132.02914310569813" width="16" height="72.97085689430187" fill="white" rx="5"></rect></mask><rect rx="5" ry="5" x="0" y="25" width="16" height="180" fill="#ddd"></rect><rect mask="url(#mask-2023-11-03)" width="16" fill="#b276b2" y="132.02914310569813" x="0" height="72.97085689430187px"></rect><text transform="rotate(90, 4, 54.029143105698125)" letter-spacing="5" y="54.029143105698125" x="4" rotate="-90" class="xp-txt">932 XP</text></svg><text x="2" y="198" class="subtitle">Nov</text><text x="6" y="214" class="subtitle">03</text></g><g transform="translate(200, 0)"><svg x="7" y="-20" height="240"><mask id="mask-2023-11-04"><rect x="0" y="204.53023053501522" width="16" height="0.469769464984776" fill="white" rx="5"></rect></mask><rect rx="5" ry="5" x="0" y="25" width="16" height="180" fill="#ddd"></rect><rect mask="url(#mask-2023-11-04)" width="16" fill="#b276b2" y="204.53023053501522" x="0" height="0.469769464984776px"></rect><text transform="rotate(90, 4, 152.53023053501522)" letter-spacing="5" y="152.53023053501522" x="4" rotate="-90" class="xp-txt">6 XP</text></svg><text x="2" y="198" class="subtitle">Nov</text><text x="6" y="214" class="subtitle">04</text></g><g transform="translate(240, 0)"><svg x="7" y="-20" height="240"><mask id="mask-2023-11-06"><rect x="0" y="205" width="16" height="0" fill="white" rx="5"></rect></mask><rect rx="5" ry="5" x="0" y="25" width="16" height="180" fill="#ddd"></rect><text transform="rotate(90, 4, 153)" letter-spacing="5" y="153" x="4" rotate="-90" class="xp-txt">0 XP</text></svg><text x="2" y="198" class="subtitle">Nov</text><text x="6" y="214" class="subtitle">06</text></g><g transform="translate(280, 0)"><svg x="7" y="-20" height="240"><mask id="mask-2023-11-07"><rect x="0" y="201.55502392344496" width="16" height="3.444976076555024" fill="white" rx="5"></rect></mask><rect rx="5" ry="5" x="0" y="25" width="16" height="180" fill="#ddd"></rect><rect mask="url(#mask-2023-11-07)" width="16" fill="#b276b2" y="201.55502392344496" x="0" height="3.444976076555024px"></rect><text transform="rotate(90, 4, 136.55502392344496)" letter-spacing="5" y="136.55502392344496" x="4" rotate="-90" class="xp-txt">44 XP</text></svg><text x="2" y="198" class="subtitle">Nov</text><text x="6" y="214" class="subtitle">07</text></g><g transform="translate(320, 0)"><svg x="7" y="-20" height="240"><mask id="mask-2023-11-08"><rect x="0" y="205" width="16" height="0" fill="white" rx="5"></rect></mask><rect rx="5" ry="5" x="0" y="25" width="16" height="180" fill="#ddd"></rect><text transform="rotate(90, 4, 153)" letter-spacing="5" y="153" x="4" rotate="-90" class="xp-txt">0 XP</text></svg><text x="2" y="198" class="subtitle">Nov</text><text x="6" y="214" class="subtitle">08</text></g><g transform="translate(360, 0)"><svg x="7" y="-20" height="240"><mask id="mask-2023-11-09"><rect x="0" y="203.35580687255327" width="16" height="1.6441931274467159" fill="white" rx="5"></rect></mask><rect rx="5" ry="5" x="0" y="25" width="16" height="180" fill="#ddd"></rect><rect mask="url(#mask-2023-11-09)" width="16" fill="#b276b2" y="203.35580687255327" x="0" height="1.6441931274467159px"></rect><text transform="rotate(90, 4, 138.35580687255327)" letter-spacing="5" y="138.35580687255327" x="4" rotate="-90" class="xp-txt">21 XP</text></svg><text x="2" y="198" class="subtitle">Nov</text><text x="6" y="214" class="subtitle">09</text></g><g transform="translate(400, 0)"><svg x="7" y="-20" height="240"><mask id="mask-2023-11-10"><rect x="0" y="199.83253588516746" width="16" height="5.167464114832536" fill="white" rx="5"></rect></mask><rect rx="5" ry="5" x="0" y="25" width="16" height="180" fill="#ddd"></rect><rect mask="url(#mask-2023-11-10)" width="16" fill="#b276b2" y="199.83253588516746" x="0" height="5.167464114832536px"></rect><text transform="rotate(90, 4, 134.83253588516746)" letter-spacing="5" y="134.83253588516746" x="4" rotate="-90" class="xp-txt">66 XP</text></svg><text x="2" y="198" class="subtitle">Nov</text><text x="6" y="214" class="subtitle">10</text></g><g transform="translate(440, 0)"><svg x="7" y="-20" height="240"><mask id="mask-2023-11-11"><rect x="0" y="202.9643323183993" width="16" height="2.035667681600696" fill="white" rx="5"></rect></mask><rect rx="5" ry="5" x="0" y="25" width="16" height="180" fill="#ddd"></rect><rect mask="url(#mask-2023-11-11)" width="16" fill="#b276b2" y="202.9643323183993" x="0" height="2.035667681600696px"></rect><text transform="rotate(90, 4, 137.9643323183993)" letter-spacing="5" y="137.9643323183993" x="4" rotate="-90" class="xp-txt">26 XP</text></svg><text x="2" y="198" class="subtitle">Nov</text><text x="6" y="214" class="subtitle">11</text></g><g transform="translate(480, 0)"><svg x="7" y="-20" height="240"><mask id="mask-2023-11-12"><rect x="0" y="118.7973031752936" width="16" height="86.2026968247064" fill="white" rx="5"></rect></mask><rect rx="5" ry="5" x="0" y="25" width="16" height="180" fill="#ddd"></rect><rect mask="url(#mask-2023-11-12)" width="16" fill="#3572A5" y="196.935624184428" x="0" height="8.064375815571989px"></rect><rect mask="url(#mask-2023-11-12)" width="16" fill="#083fa1" y="181.9030013049152" x="0" height="15.032622879512832px"></rect><rect mask="url(#mask-2023-11-12)" width="16" fill="#3e4053" y="180.96346237494564" x="0" height="0.939538929969552px"></rect><rect mask="url(#mask-2023-11-12)" width="16" fill="#b276b2" y="118.7973031752936" x="0" height="62.16615919965202px"></rect><text transform="rotate(90, 4, 134.79730317529362)" letter-spacing="5" y="134.79730317529362" x="4" rotate="-90" class="xp-txt xp-txt-invert">1101 XP</text></svg><text x="2" y="198" class="subtitle">Nov</text><text x="6" y="214" class="subtitle">12</text></g></g><g transform="translate(568, 0)"><g transform="translate(0, 0)"><rect rx="5" x="2" y="7" height="12" width="12" fill="#3572A5"></rect><text x="18" y="18" class="lang-name">Python</text></g><g transform="translate(0, 20)"><rect rx="5" x="2" y="7" height="12" width="12" fill="#a270ba"></rect><text x="18" y="18" class="lang-name">Julia</text></g><g transform="translate(0, 40)"><rect rx="5" x="2" y="7" height="12" width="12" fill="#083fa1"></rect><text x="18" y="18" class="lang-name">Markdown</text></g><g transform="translate(0, 60)"><rect rx="5" x="2" y="7" height="12" width="12" fill="#3e4053"></rect><text x="18" y="18" class="lang-name">Docker</text></g><g transform="translate(0, 80)"><rect rx="5" x="2" y="7" height="12" width="12" fill="#3e4053"></rect><text x="18" y="18" class="lang-name">JSON</text></g><g transform="translate(0, 100)"><rect rx="5" x="2" y="7" height="12" width="12" fill="#3e4053"></rect><text x="18" y="18" class="lang-name">TOML</text></g><g transform="translate(0, 120)"><rect rx="5" x="2" y="7" height="12" width="12" fill="#3e4053"></rect><text x="18" y="18" class="lang-name">Log</text></g><g transform="translate(0, 140)"><rect rx="5" x="2" y="7" height="12" width="12" fill="#3e4053"></rect><text x="18" y="18" class="lang-name">Other</text></g></g></svg></g></svg>