<svg width="825" height="300" viewBox="0 0 825 300" fill="none" xmlns="http://www.w3.org/2000/svg"><style>
					.header {
						font: 600 18px &#x27;Segoe UI&#x27;, Ubuntu, Sans-Serif;
						fill: #3d858f;
						animation: fadeInAnimation 0.8s ease-in-out forwards;
					}
					
	.lang-name {
		font: 400 16px &#x27;Segoe UI&#x27;, Ubuntu, Sans-Serif;
		fill: #ffffffcc;
	}
	.xp-txt {
		font: 400 12px &#x27;Segoe UI&#x27;, Ubuntu, Sans-Serif;
		fill: black;
	}
	.xp-txt-invert {
		font: 600 12px &#x27;Segoe UI&#x27;, Ubuntu, Sans-Serif;
		fill: white;
	}
	.subtitle {
		font: 400 14px &#x27;Segoe UI&#x27;, Ubuntu, Sans-Serif;
		fill: #ffffffcc;
	}


					/* Animations */
					@keyframes scaleInAnimation {
						from {
							transform: translate(-5px, 5px) scale(0);
						}
						to {
							transform: translate(-5px, 5px) scale(1);
						}
					}
					@keyframes fadeInAnimation {
						from {
							opacity: 0;
						}
						to {
							opacity: 1;
						}
					}
				</style><rect x="0.5" y="0.5" rx="4.5" height="99%" stroke="#E4E2E2" width="824" fill="#151515" stroke-opacity="0"></rect><g transform="translate(25, 35)"><g transform="translate(0, 0)"><text x="0" y="0" class="header">Coding History of the last two weeks</text></g></g><g transform="translate(0, 55)"><svg x="25"><g transform="translate(0, 0)"><g transform="translate(0, 0)"><svg x="7" y="-20" height="240"><mask id="mask-2024-01-10"><rect x="0" y="183.3008495752124" width="16" height="21.699150424787607" fill="white" rx="5"></rect></mask><rect rx="5" ry="5" x="0" y="25" width="16" height="180" fill="#ddd"></rect><rect mask="url(#mask-2024-01-10)" width="16" fill="#4F5D95" y="199.75262368815592" x="0" height="5.247376311844078px"></rect><rect mask="url(#mask-2024-01-10)" width="16" fill="#b276b2" y="183.3008495752124" x="0" height="16.45177411294353px"></rect><text transform="rotate(90, 4, 92.3008495752124)" letter-spacing="5" y="92.3008495752124" x="4" rotate="-90" class="xp-txt">2171 XP</text></svg><text x="2" y="198" class="subtitle">Jan</text><text x="6" y="214" class="subtitle">10</text></g><g transform="translate(40, 0)"><svg x="7" y="-20" height="240"><mask id="mask-2024-01-11"><rect x="0" y="188.1584207896052" width="16" height="16.8415792103948" fill="white" rx="5"></rect></mask><rect rx="5" ry="5" x="0" y="25" width="16" height="180" fill="#ddd"></rect><rect mask="url(#mask-2024-01-11)" width="16" fill="#3e4053" y="204.880059970015" x="0" height="0.1199400299850075px"></rect><rect mask="url(#mask-2024-01-11)" width="16" fill="#b276b2" y="188.1584207896052" x="0" height="16.721639180409795px"></rect><text transform="rotate(90, 4, 97.1584207896052)" letter-spacing="5" y="97.1584207896052" x="4" rotate="-90" class="xp-txt">1685 XP</text></svg><text x="2" y="198" class="subtitle">Jan</text><text x="6" y="214" class="subtitle">11</text></g><g transform="translate(80, 0)"><svg x="7" y="-20" height="240"><mask id="mask-2024-01-12"><rect x="0" y="193.36581709145426" width="16" height="11.634182908545727" fill="white" rx="5"></rect></mask><rect rx="5" ry="5" x="0" y="25" width="16" height="180" fill="#ddd"></rect><rect mask="url(#mask-2024-01-12)" width="16" fill="#b276b2" y="193.36581709145426" x="0" height="11.634182908545727px"></rect><text transform="rotate(90, 4, 102.36581709145426)" letter-spacing="5" y="102.36581709145426" x="4" rotate="-90" class="xp-txt">1164 XP</text></svg><text x="2" y="198" class="subtitle">Jan</text><text x="6" y="214" class="subtitle">12</text></g><g transform="translate(120, 0)"><svg x="7" y="-20" height="240"><mask id="mask-2024-01-13"><rect x="0" y="106.72913543228385" width="16" height="98.27086456771615" fill="white" rx="5"></rect></mask><rect rx="5" ry="5" x="0" y="25" width="16" height="180" fill="#ddd"></rect><rect mask="url(#mask-2024-01-13)" width="16" fill="#3572A5" y="122.12143928035982" x="0" height="82.87856071964018px"></rect><rect mask="url(#mask-2024-01-13)" width="16" fill="#00B4AB" y="122.08145927036482" x="0" height="0.0399800099950025px"></rect><rect mask="url(#mask-2024-01-13)" width="16" fill="#3e4053" y="117.51374312843578" x="0" height="4.5677161419290355px"></rect><rect mask="url(#mask-2024-01-13)" width="16" fill="#b276b2" y="106.72913543228385" x="0" height="10.784607696151925px"></rect><text transform="rotate(90, 4, 122.72913543228385)" letter-spacing="5" y="122.72913543228385" x="4" rotate="-90" class="xp-txt xp-txt-invert">9832 XP</text></svg><text x="2" y="198" class="subtitle">Jan</text><text x="6" y="214" class="subtitle">13</text></g><g transform="translate(160, 0)"><svg x="7" y="-20" height="240"><mask id="mask-2024-01-14"><rect x="0" y="99.63268365817092" width="16" height="105.36731634182908" fill="white" rx="5"></rect></mask><rect rx="5" ry="5" x="0" y="25" width="16" height="180" fill="#ddd"></rect><rect mask="url(#mask-2024-01-14)" width="16" fill="#3572A5" y="112.56621689155422" x="0" height="92.43378310844578px"></rect><rect mask="url(#mask-2024-01-14)" width="16" fill="#b276b2" y="99.63268365817092" x="0" height="12.933533233383308px"></rect><text transform="rotate(90, 4, 115.63268365817092)" letter-spacing="5" y="115.63268365817092" x="4" rotate="-90" class="xp-txt xp-txt-invert">10542 XP</text></svg><text x="2" y="198" class="subtitle">Jan</text><text x="6" y="214" class="subtitle">14</text></g><g transform="translate(200, 0)"><svg x="7" y="-20" height="240"><mask id="mask-2024-01-15"><rect x="0" y="203.88055972013993" width="16" height="1.11944027986007" fill="white" rx="5"></rect></mask><rect rx="5" ry="5" x="0" y="25" width="16" height="180" fill="#ddd"></rect><rect mask="url(#mask-2024-01-15)" width="16" fill="#b276b2" y="203.88055972013993" x="0" height="1.11944027986007px"></rect><text transform="rotate(90, 4, 125.88055972013993)" letter-spacing="5" y="125.88055972013993" x="4" rotate="-90" class="xp-txt">112 XP</text></svg><text x="2" y="198" class="subtitle">Jan</text><text x="6" y="214" class="subtitle">15</text></g><g transform="translate(240, 0)"><svg x="7" y="-20" height="240"><mask id="mask-2024-01-16"><rect x="0" y="150.4472763618191" width="16" height="54.55272363818091" fill="white" rx="5"></rect></mask><rect rx="5" ry="5" x="0" y="25" width="16" height="180" fill="#ddd"></rect><rect mask="url(#mask-2024-01-16)" width="16" fill="#3572A5" y="185.56971514242878" x="0" height="19.430284857571216px"></rect><rect mask="url(#mask-2024-01-16)" width="16" fill="#3e4053" y="185.33983008495753" x="0" height="0.22988505747126436px"></rect><rect mask="url(#mask-2024-01-16)" width="16" fill="#b276b2" y="150.4472763618191" x="0" height="34.892553723138434px"></rect><text transform="rotate(90, 4, 59.44727636181909)" letter-spacing="5" y="59.44727636181909" x="4" rotate="-90" class="xp-txt">5458 XP</text></svg><text x="2" y="198" class="subtitle">Jan</text><text x="6" y="214" class="subtitle">16</text></g><g transform="translate(280, 0)"><svg x="7" y="-20" height="240"><mask id="mask-2024-01-17"><rect x="0" y="186.54922538730634" width="16" height="18.450774612693653" fill="white" rx="5"></rect></mask><rect rx="5" ry="5" x="0" y="25" width="16" height="180" fill="#ddd"></rect><rect mask="url(#mask-2024-01-17)" width="16" fill="#3572A5" y="195.5047476261869" x="0" height="9.495252373813093px"></rect><rect mask="url(#mask-2024-01-17)" width="16" fill="#b276b2" y="186.54922538730634" x="0" height="8.95552223888056px"></rect><text transform="rotate(90, 4, 95.54922538730634)" letter-spacing="5" y="95.54922538730634" x="4" rotate="-90" class="xp-txt">1846 XP</text></svg><text x="2" y="198" class="subtitle">Jan</text><text x="6" y="214" class="subtitle">17</text></g><g transform="translate(320, 0)"><svg x="7" y="-20" height="240"><mask id="mask-2024-01-18"><rect x="0" y="201.95152423788105" width="16" height="3.0484757621189407" fill="white" rx="5"></rect></mask><rect rx="5" ry="5" x="0" y="25" width="16" height="180" fill="#ddd"></rect><rect mask="url(#mask-2024-01-18)" width="16" fill="#b276b2" y="201.95152423788105" x="0" height="3.0484757621189407px"></rect><text transform="rotate(90, 4, 123.95152423788105)" letter-spacing="5" y="123.95152423788105" x="4" rotate="-90" class="xp-txt">305 XP</text></svg><text x="2" y="198" class="subtitle">Jan</text><text x="6" y="214" class="subtitle">18</text></g><g transform="translate(360, 0)"><svg x="7" y="-20" height="240"><mask id="mask-2024-01-19"><rect x="0" y="162.64117941029485" width="16" height="42.35882058970515" fill="white" rx="5"></rect></mask><rect rx="5" ry="5" x="0" y="25" width="16" height="180" fill="#ddd"></rect><rect mask="url(#mask-2024-01-19)" width="16" fill="#3572A5" y="167.53873063468265" x="0" height="37.46126936531734px"></rect><rect mask="url(#mask-2024-01-19)" width="16" fill="#b276b2" y="162.64117941029485" x="0" height="4.897551224387806px"></rect><text transform="rotate(90, 4, 71.64117941029485)" letter-spacing="5" y="71.64117941029485" x="4" rotate="-90" class="xp-txt">4238 XP</text></svg><text x="2" y="198" class="subtitle">Jan</text><text x="6" y="214" class="subtitle">19</text></g><g transform="translate(400, 0)"><svg x="7" y="-20" height="240"><mask id="mask-2024-01-20"><rect x="0" y="176.2743628185907" width="16" height="28.725637181409294" fill="white" rx="5"></rect></mask><rect rx="5" ry="5" x="0" y="25" width="16" height="180" fill="#ddd"></rect><rect mask="url(#mask-2024-01-20)" width="16" fill="#00B4AB" y="177.5937031484258" x="0" height="27.40629685157421px"></rect><rect mask="url(#mask-2024-01-20)" width="16" fill="#b276b2" y="176.2743628185907" x="0" height="1.3193403298350825px"></rect><text transform="rotate(90, 4, 85.2743628185907)" letter-spacing="5" y="85.2743628185907" x="4" rotate="-90" class="xp-txt">2874 XP</text></svg><text x="2" y="198" class="subtitle">Jan</text><text x="6" y="214" class="subtitle">20</text></g><g transform="translate(440, 0)"><svg x="7" y="-20" height="240"><mask id="mask-2024-01-21"><rect x="0" y="205" width="16" height="0" fill="white" rx="5"></rect></mask><rect rx="5" ry="5" x="0" y="25" width="16" height="180" fill="#ddd"></rect><text transform="rotate(90, 4, 153)" letter-spacing="5" y="153" x="4" rotate="-90" class="xp-txt">0 XP</text></svg><text x="2" y="198" class="subtitle">Jan</text><text x="6" y="214" class="subtitle">21</text></g><g transform="translate(480, 0)"><svg x="7" y="-20" height="240"><mask id="mask-2024-01-22"><rect x="0" y="188.61819090454773" width="16" height="16.381809095452272" fill="white" rx="5"></rect></mask><rect rx="5" ry="5" x="0" y="25" width="16" height="180" fill="#ddd"></rect><rect mask="url(#mask-2024-01-22)" width="16" fill="#3572A5" y="195.99450274862568" x="0" height="9.005497251374313px"></rect><rect mask="url(#mask-2024-01-22)" width="16" fill="#3e4053" y="195.49475262368816" x="0" height="0.49975012493753124px"></rect><rect mask="url(#mask-2024-01-22)" width="16" fill="#083fa1" y="195.3648175912044" x="0" height="0.12993503248375812px"></rect><rect mask="url(#mask-2024-01-22)" width="16" fill="#3e4053" y="193.33583208395802" x="0" height="2.028985507246377px"></rect><rect mask="url(#mask-2024-01-22)" width="16" fill="#b276b2" y="188.61819090454773" x="0" height="4.717641179410295px"></rect><text transform="rotate(90, 4, 97.61819090454773)" letter-spacing="5" y="97.61819090454773" x="4" rotate="-90" class="xp-txt">1639 XP</text></svg><text x="2" y="198" class="subtitle">Jan</text><text x="6" y="214" class="subtitle">22</text></g><g transform="translate(520, 0)"><svg x="7" y="-20" height="240"><mask id="mask-2024-01-23"><rect x="0" y="25" width="16" height="180" fill="white" rx="5"></rect></mask><rect rx="5" ry="5" x="0" y="25" width="16" height="180" fill="#ddd"></rect><rect mask="url(#mask-2024-01-23)" width="16" fill="#3572A5" y="79.85257371314343" x="0" height="125.14742628685657px"></rect><rect mask="url(#mask-2024-01-23)" width="16" fill="#3e4053" y="53.57571214392804" x="0" height="26.27686156921539px"></rect><rect mask="url(#mask-2024-01-23)" width="16" fill="#3e4053" y="48.80809595202399" x="0" height="4.767616191904048px"></rect><rect mask="url(#mask-2024-01-23)" width="16" fill="#3e4053" y="48.47826086956522" x="0" height="0.32983508245877063px"></rect><rect mask="url(#mask-2024-01-23)" width="16" fill="#083fa1" y="45.41979010494752" x="0" height="3.058470764617691px"></rect><rect mask="url(#mask-2024-01-23)" width="16" fill="#3e4053" y="44.95002498750625" x="0" height="0.46976511744127936px"></rect><rect mask="url(#mask-2024-01-23)" width="16" fill="#b276b2" y="25" x="0" height="19.950024987506247px"></rect><text transform="rotate(90, 4, 41)" letter-spacing="5" y="41" x="4" rotate="-90" class="xp-txt xp-txt-invert">18009 XP</text></svg><text x="2" y="198" class="subtitle">Jan</text><text x="6" y="214" class="subtitle">23</text></g></g><g transform="translate(600, 0)"><g transform="translate(0, 0)"><rect rx="5" x="2" y="7" height="12" width="12" fill="#3572A5"></rect><text x="18" y="18" class="lang-name">Python</text></g><g transform="translate(0, 20)"><rect rx="5" x="2" y="7" height="12" width="12" fill="#00B4AB"></rect><text x="18" y="18" class="lang-name">Dart</text></g><g transform="translate(0, 40)"><rect rx="5" x="2" y="7" height="12" width="12" fill="#3e4053"></rect><text x="18" y="18" class="lang-name">CSV</text></g><g transform="translate(0, 60)"><rect rx="5" x="2" y="7" height="12" width="12" fill="#3e4053"></rect><text x="18" y="18" class="lang-name">JSON</text></g><g transform="translate(0, 80)"><rect rx="5" x="2" y="7" height="12" width="12" fill="#4F5D95"></rect><text x="18" y="18" class="lang-name">PHP</text></g><g transform="translate(0, 100)"><rect rx="5" x="2" y="7" height="12" width="12" fill="#3e4053"></rect><text x="18" y="18" class="lang-name">Git</text></g><g transform="translate(0, 120)"><rect rx="5" x="2" y="7" height="12" width="12" fill="#083fa1"></rect><text x="18" y="18" class="lang-name">Markdown</text></g><g transform="translate(0, 140)"><rect rx="5" x="2" y="7" height="12" width="12" fill="#3e4053"></rect><text x="18" y="18" class="lang-name">TOML</text></g><g transform="translate(0, 160)"><rect rx="5" x="2" y="7" height="12" width="12" fill="#3e4053"></rect><text x="18" y="18" class="lang-name">Other</text></g></g></svg></g></svg>