<svg width="825" height="300" viewBox="0 0 825 300" fill="none" xmlns="http://www.w3.org/2000/svg"><style>
					.header {
						font: 600 18px &#x27;Segoe UI&#x27;, Ubuntu, Sans-Serif;
						fill: #3d858f;
						animation: fadeInAnimation 0.8s ease-in-out forwards;
					}
					
	.lang-name {
		font: 400 16px &#x27;Segoe UI&#x27;, Ubuntu, Sans-Serif;
		fill: #ffffffcc;
	}
	.xp-txt {
		font: 400 12px &#x27;Segoe UI&#x27;, Ubuntu, Sans-Serif;
		fill: black;
	}
	.xp-txt-invert {
		font: 600 12px &#x27;Segoe UI&#x27;, Ubuntu, Sans-Serif;
		fill: white;
	}
	.subtitle {
		font: 400 14px &#x27;Segoe UI&#x27;, Ubuntu, Sans-Serif;
		fill: #ffffffcc;
	}


					/* Animations */
					@keyframes scaleInAnimation {
						from {
							transform: translate(-5px, 5px) scale(0);
						}
						to {
							transform: translate(-5px, 5px) scale(1);
						}
					}
					@keyframes fadeInAnimation {
						from {
							opacity: 0;
						}
						to {
							opacity: 1;
						}
					}
				</style><rect x="0.5" y="0.5" rx="4.5" height="99%" stroke="#E4E2E2" width="824" fill="#151515" stroke-opacity="0"></rect><g transform="translate(25, 35)"><g transform="translate(0, 0)"><text x="0" y="0" class="header">Coding History of the last two weeks</text></g></g><g transform="translate(0, 55)"><svg x="25"><g transform="translate(0, 0)"><g transform="translate(0, 0)"><svg x="7" y="-20" height="240"><mask id="mask-2024-01-29"><rect x="0" y="34.79376919701623" width="16" height="170.20623080298375" fill="white" rx="5"></rect></mask><rect rx="5" ry="5" x="0" y="25" width="16" height="180" fill="#ddd"></rect><rect mask="url(#mask-2024-01-29)" width="16" fill="#3572A5" y="159.7433084686266" x="0" height="45.25669153137341px"></rect><rect mask="url(#mask-2024-01-29)" width="16" fill="#3e4053" y="120.46292233435717" x="0" height="39.28038613426941px"></rect><rect mask="url(#mask-2024-01-29)" width="16" fill="#3e4053" y="115.17112768758227" x="0" height="5.2917946467749015px"></rect><rect mask="url(#mask-2024-01-29)" width="16" fill="#3e4053" y="104.74550241333918" x="0" height="10.425625274243089px"></rect><rect mask="url(#mask-2024-01-29)" width="16" fill="#3e4053" y="97.9530495831505" x="0" height="6.7924528301886795px"></rect><rect mask="url(#mask-2024-01-29)" width="16" fill="#b276b2" y="34.79376919701623" x="0" height="63.15928038613427px"></rect><text transform="rotate(90, 4, 50.79376919701623)" letter-spacing="5" y="50.79376919701623" x="4" rotate="-90" class="xp-txt xp-txt-invert">6465 XP</text></svg><text x="2" y="198" class="subtitle">Jan</text><text x="6" y="214" class="subtitle">29</text></g><g transform="translate(40, 0)"><svg x="7" y="-20" height="240"><mask id="mask-2024-01-30"><rect x="0" y="25" width="16" height="180" fill="white" rx="5"></rect></mask><rect rx="5" ry="5" x="0" y="25" width="16" height="180" fill="#ddd"></rect><rect mask="url(#mask-2024-01-30)" width="16" fill="#3572A5" y="67.88723124177271" x="0" height="137.1127687582273px"></rect><rect mask="url(#mask-2024-01-30)" width="16" fill="#3e4053" y="51.27468187801668" x="0" height="16.612549363756035px"></rect><rect mask="url(#mask-2024-01-30)" width="16" fill="#3e4053" y="46.772707327775336" x="0" height="4.501974550241334px"></rect><rect mask="url(#mask-2024-01-30)" width="16" fill="#3e4053" y="46.035541904344015" x="0" height="0.7371654234313295px"></rect><rect mask="url(#mask-2024-01-30)" width="16" fill="#3e4053" y="44.3505923650724" x="0" height="1.6849495392716103px"></rect><rect mask="url(#mask-2024-01-30)" width="16" fill="#b276b2" y="25" x="0" height="19.3505923650724px"></rect><text transform="rotate(90, 4, 41)" letter-spacing="5" y="41" x="4" rotate="-90" class="xp-txt xp-txt-invert">6837 XP</text></svg><text x="2" y="198" class="subtitle">Jan</text><text x="6" y="214" class="subtitle">30</text></g><g transform="translate(80, 0)"><svg x="7" y="-20" height="240"><mask id="mask-2024-01-31"><rect x="0" y="119.14655550680123" width="16" height="85.85344449319877" fill="white" rx="5"></rect></mask><rect rx="5" ry="5" x="0" y="25" width="16" height="180" fill="#ddd"></rect><rect mask="url(#mask-2024-01-31)" width="16" fill="#3e4053" y="127.75559455901711" x="0" height="77.24440544098289px"></rect><rect mask="url(#mask-2024-01-31)" width="16" fill="#3e4053" y="126.78148310662571" x="0" height="0.9741114523913997px"></rect><rect mask="url(#mask-2024-01-31)" width="16" fill="#3e4053" y="119.27819218955682" x="0" height="7.50329091706889px"></rect><rect mask="url(#mask-2024-01-31)" width="16" fill="#b276b2" y="119.14655550680123" x="0" height="0.13163668275559456px"></rect><text transform="rotate(90, 4, 28.146555506801235)" letter-spacing="5" y="28.146555506801235" x="4" rotate="-90" class="xp-txt">3261 XP</text></svg><text x="2" y="198" class="subtitle">Jan</text><text x="6" y="214" class="subtitle">31</text></g><g transform="translate(120, 0)"><svg x="7" y="-20" height="240"><mask id="mask-2024-02-01"><rect x="0" y="203.20974111452392" width="16" height="1.790258885476086" fill="white" rx="5"></rect></mask><rect rx="5" ry="5" x="0" y="25" width="16" height="180" fill="#ddd"></rect><rect mask="url(#mask-2024-02-01)" width="16" fill="#b276b2" y="203.20974111452392" x="0" height="1.790258885476086px"></rect><text transform="rotate(90, 4, 138.20974111452392)" letter-spacing="5" y="138.20974111452392" x="4" rotate="-90" class="xp-txt">68 XP</text></svg><text x="2" y="198" class="subtitle">Feb</text><text x="6" y="214" class="subtitle">01</text></g><g transform="translate(160, 0)"><svg x="7" y="-20" height="240"><mask id="mask-2024-02-02"><rect x="0" y="205" width="16" height="0" fill="white" rx="5"></rect></mask><rect rx="5" ry="5" x="0" y="25" width="16" height="180" fill="#ddd"></rect><text transform="rotate(90, 4, 153)" letter-spacing="5" y="153" x="4" rotate="-90" class="xp-txt">0 XP</text></svg><text x="2" y="198" class="subtitle">Feb</text><text x="6" y="214" class="subtitle">02</text></g><g transform="translate(200, 0)"><svg x="7" y="-20" height="240"><mask id="mask-2024-02-03"><rect x="0" y="163.40280824923212" width="16" height="41.597191750767884" fill="white" rx="5"></rect></mask><rect rx="5" ry="5" x="0" y="25" width="16" height="180" fill="#ddd"></rect><rect mask="url(#mask-2024-02-03)" width="16" fill="#dea584" y="182.56910925844667" x="0" height="22.430890741553313px"></rect><rect mask="url(#mask-2024-02-03)" width="16" fill="#3e4053" y="182.51645458534446" x="0" height="0.05265467310223782px"></rect><rect mask="url(#mask-2024-02-03)" width="16" fill="#b276b2" y="163.40280824923212" x="0" height="19.11364633611233px"></rect><text transform="rotate(90, 4, 72.40280824923212)" letter-spacing="5" y="72.40280824923212" x="4" rotate="-90" class="xp-txt">1580 XP</text></svg><text x="2" y="198" class="subtitle">Feb</text><text x="6" y="214" class="subtitle">03</text></g><g transform="translate(240, 0)"><svg x="7" y="-20" height="240"><mask id="mask-2024-02-04"><rect x="0" y="205" width="16" height="0" fill="white" rx="5"></rect></mask><rect rx="5" ry="5" x="0" y="25" width="16" height="180" fill="#ddd"></rect><text transform="rotate(90, 4, 153)" letter-spacing="5" y="153" x="4" rotate="-90" class="xp-txt">0 XP</text></svg><text x="2" y="198" class="subtitle">Feb</text><text x="6" y="214" class="subtitle">04</text></g><g transform="translate(280, 0)"><svg x="7" y="-20" height="240"><mask id="mask-2024-02-05"><rect x="0" y="184.2540587977183" width="16" height="20.745941202281703" fill="white" rx="5"></rect></mask><rect rx="5" ry="5" x="0" y="25" width="16" height="180" fill="#ddd"></rect><rect mask="url(#mask-2024-02-05)" width="16" fill="#3e4053" y="201.2088635366389" x="0" height="3.791136463361123px"></rect><rect mask="url(#mask-2024-02-05)" width="16" fill="#3e4053" y="196.15401491882403" x="0" height="5.054848617814831px"></rect><rect mask="url(#mask-2024-02-05)" width="16" fill="#3e4053" y="195.20623080298375" x="0" height="0.9477841158402808px"></rect><rect mask="url(#mask-2024-02-05)" width="16" fill="#b276b2" y="184.2540587977183" x="0" height="10.952172005265467px"></rect><text transform="rotate(90, 4, 106.2540587977183)" letter-spacing="5" y="106.2540587977183" x="4" rotate="-90" class="xp-txt">788 XP</text></svg><text x="2" y="198" class="subtitle">Feb</text><text x="6" y="214" class="subtitle">05</text></g><g transform="translate(320, 0)"><svg x="7" y="-20" height="240"><mask id="mask-2024-02-06"><rect x="0" y="201.682755594559" width="16" height="3.317244405440983" fill="white" rx="5"></rect></mask><rect rx="5" ry="5" x="0" y="25" width="16" height="180" fill="#ddd"></rect><rect mask="url(#mask-2024-02-06)" width="16" fill="#b276b2" y="201.682755594559" x="0" height="3.317244405440983px"></rect><text transform="rotate(90, 4, 123.68275559455901)" letter-spacing="5" y="123.68275559455901" x="4" rotate="-90" class="xp-txt">126 XP</text></svg><text x="2" y="198" class="subtitle">Feb</text><text x="6" y="214" class="subtitle">06</text></g><g transform="translate(360, 0)"><svg x="7" y="-20" height="240"><mask id="mask-2024-02-07"><rect x="0" y="197.99692847740238" width="16" height="7.00307152259763" fill="white" rx="5"></rect></mask><rect rx="5" ry="5" x="0" y="25" width="16" height="180" fill="#ddd"></rect><rect mask="url(#mask-2024-02-07)" width="16" fill="#b276b2" y="197.99692847740238" x="0" height="7.00307152259763px"></rect><text transform="rotate(90, 4, 119.99692847740238)" letter-spacing="5" y="119.99692847740238" x="4" rotate="-90" class="xp-txt">266 XP</text></svg><text x="2" y="198" class="subtitle">Feb</text><text x="6" y="214" class="subtitle">07</text></g><g transform="translate(400, 0)"><svg x="7" y="-20" height="240"><mask id="mask-2024-02-08"><rect x="0" y="190.62527424308908" width="16" height="14.374725756910927" fill="white" rx="5"></rect></mask><rect rx="5" ry="5" x="0" y="25" width="16" height="180" fill="#ddd"></rect><rect mask="url(#mask-2024-02-08)" width="16" fill="#3e4053" y="204.5787626151821" x="0" height="0.42123738481790257px"></rect><rect mask="url(#mask-2024-02-08)" width="16" fill="#b276b2" y="190.62527424308908" x="0" height="13.953488372093023px"></rect><text transform="rotate(90, 4, 112.62527424308908)" letter-spacing="5" y="112.62527424308908" x="4" rotate="-90" class="xp-txt">546 XP</text></svg><text x="2" y="198" class="subtitle">Feb</text><text x="6" y="214" class="subtitle">08</text></g><g transform="translate(440, 0)"><svg x="7" y="-20" height="240"><mask id="mask-2024-02-09"><rect x="0" y="190.75691092584466" width="16" height="14.243089074155332" fill="white" rx="5"></rect></mask><rect rx="5" ry="5" x="0" y="25" width="16" height="180" fill="#ddd"></rect><rect mask="url(#mask-2024-02-09)" width="16" fill="#b276b2" y="190.75691092584466" x="0" height="14.243089074155332px"></rect><text transform="rotate(90, 4, 112.75691092584466)" letter-spacing="5" y="112.75691092584466" x="4" rotate="-90" class="xp-txt">541 XP</text></svg><text x="2" y="198" class="subtitle">Feb</text><text x="6" y="214" class="subtitle">09</text></g><g transform="translate(480, 0)"><svg x="7" y="-20" height="240"><mask id="mask-2024-02-10"><rect x="0" y="172.8543220710838" width="16" height="32.14567792891619" fill="white" rx="5"></rect></mask><rect rx="5" ry="5" x="0" y="25" width="16" height="180" fill="#ddd"></rect><rect mask="url(#mask-2024-02-10)" width="16" fill="#3e4053" y="204.78938130759104" x="0" height="0.21061869240895129px"></rect><rect mask="url(#mask-2024-02-10)" width="16" fill="#b276b2" y="172.8543220710838" x="0" height="31.93505923650724px"></rect><text transform="rotate(90, 4, 81.8543220710838)" letter-spacing="5" y="81.8543220710838" x="4" rotate="-90" class="xp-txt">1221 XP</text></svg><text x="2" y="198" class="subtitle">Feb</text><text x="6" y="214" class="subtitle">10</text></g><g transform="translate(520, 0)"><svg x="7" y="-20" height="240"><mask id="mask-2024-02-11"><rect x="0" y="195.258885476086" width="16" height="9.741114523913998" fill="white" rx="5"></rect></mask><rect rx="5" ry="5" x="0" y="25" width="16" height="180" fill="#ddd"></rect><rect mask="url(#mask-2024-02-11)" width="16" fill="#b276b2" y="195.258885476086" x="0" height="9.741114523913998px"></rect><text transform="rotate(90, 4, 117.258885476086)" letter-spacing="5" y="117.258885476086" x="4" rotate="-90" class="xp-txt">370 XP</text></svg><text x="2" y="198" class="subtitle">Feb</text><text x="6" y="214" class="subtitle">11</text></g></g><g transform="translate(600, 0)"><g transform="translate(0, 0)"><rect rx="5" x="2" y="7" height="12" width="12" fill="#3572A5"></rect><text x="18" y="18" class="lang-name">Python</text></g><g transform="translate(0, 20)"><rect rx="5" x="2" y="7" height="12" width="12" fill="#3e4053"></rect><text x="18" y="18" class="lang-name">Garmin Monkey C</text></g><g transform="translate(0, 40)"><rect rx="5" x="2" y="7" height="12" width="12" fill="#3e4053"></rect><text x="18" y="18" class="lang-name">CSV</text></g><g transform="translate(0, 60)"><rect rx="5" x="2" y="7" height="12" width="12" fill="#dea584"></rect><text x="18" y="18" class="lang-name">Rust</text></g><g transform="translate(0, 80)"><rect rx="5" x="2" y="7" height="12" width="12" fill="#3e4053"></rect><text x="18" y="18" class="lang-name">JSON</text></g><g transform="translate(0, 100)"><rect rx="5" x="2" y="7" height="12" width="12" fill="#3e4053"></rect><text x="18" y="18" class="lang-name">Docker</text></g><g transform="translate(0, 120)"><rect rx="5" x="2" y="7" height="12" width="12" fill="#3e4053"></rect><text x="18" y="18" class="lang-name">VS Code Input</text></g><g transform="translate(0, 140)"><rect rx="5" x="2" y="7" height="12" width="12" fill="#3e4053"></rect><text x="18" y="18" class="lang-name">XML</text></g><g transform="translate(0, 160)"><rect rx="5" x="2" y="7" height="12" width="12" fill="#3e4053"></rect><text x="18" y="18" class="lang-name">Other</text></g></g></svg></g></svg>