<svg width="825" height="300" viewBox="0 0 825 300" fill="none" xmlns="http://www.w3.org/2000/svg"><style>
					.header {
						font: 600 18px &#x27;Segoe UI&#x27;, Ubuntu, Sans-Serif;
						fill: #3d858f;
						animation: fadeInAnimation 0.8s ease-in-out forwards;
					}
					
	.lang-name {
		font: 400 16px &#x27;Segoe UI&#x27;, Ubuntu, Sans-Serif;
		fill: #ffffffcc;
	}
	.xp-txt {
		font: 400 12px &#x27;Segoe UI&#x27;, Ubuntu, Sans-Serif;
		fill: black;
	}
	.xp-txt-invert {
		font: 600 12px &#x27;Segoe UI&#x27;, Ubuntu, Sans-Serif;
		fill: white;
	}
	.subtitle {
		font: 400 14px &#x27;Segoe UI&#x27;, Ubuntu, Sans-Serif;
		fill: #ffffffcc;
	}


					/* Animations */
					@keyframes scaleInAnimation {
						from {
							transform: translate(-5px, 5px) scale(0);
						}
						to {
							transform: translate(-5px, 5px) scale(1);
						}
					}
					@keyframes fadeInAnimation {
						from {
							opacity: 0;
						}
						to {
							opacity: 1;
						}
					}
				</style><rect x="0.5" y="0.5" rx="4.5" height="99%" stroke="#E4E2E2" width="824" fill="#151515" stroke-opacity="0"></rect><g transform="translate(25, 35)"><g transform="translate(0, 0)"><text x="0" y="0" class="header">Coding History of the last two weeks</text></g></g><g transform="translate(0, 55)"><svg x="25"><g transform="translate(0, 0)"><g transform="translate(0, 0)"><svg x="7" y="-20" height="240"><mask id="mask-2024-02-01"><rect x="0" y="202.2357723577236" width="16" height="2.7642276422764227" fill="white" rx="5"></rect></mask><rect rx="5" ry="5" x="0" y="25" width="16" height="180" fill="#ddd"></rect><rect mask="url(#mask-2024-02-01)" width="16" fill="#b276b2" y="202.2357723577236" x="0" height="2.7642276422764227px"></rect><text transform="rotate(90, 4, 137.2357723577236)" letter-spacing="5" y="137.2357723577236" x="4" rotate="-90" class="xp-txt">68 XP</text></svg><text x="2" y="198" class="subtitle">Feb</text><text x="6" y="214" class="subtitle">01</text></g><g transform="translate(40, 0)"><svg x="7" y="-20" height="240"><mask id="mask-2024-02-02"><rect x="0" y="205" width="16" height="0" fill="white" rx="5"></rect></mask><rect rx="5" ry="5" x="0" y="25" width="16" height="180" fill="#ddd"></rect><text transform="rotate(90, 4, 153)" letter-spacing="5" y="153" x="4" rotate="-90" class="xp-txt">0 XP</text></svg><text x="2" y="198" class="subtitle">Feb</text><text x="6" y="214" class="subtitle">02</text></g><g transform="translate(80, 0)"><svg x="7" y="-20" height="240"><mask id="mask-2024-02-03"><rect x="0" y="140.77235772357722" width="16" height="64.22764227642277" fill="white" rx="5"></rect></mask><rect rx="5" ry="5" x="0" y="25" width="16" height="180" fill="#ddd"></rect><rect mask="url(#mask-2024-02-03)" width="16" fill="#dea584" y="170.3658536585366" x="0" height="34.63414634146341px"></rect><rect mask="url(#mask-2024-02-03)" width="16" fill="#00B4AB" y="159.95934959349594" x="0" height="10.40650406504065px"></rect><rect mask="url(#mask-2024-02-03)" width="16" fill="#3e4053" y="159.8780487804878" x="0" height="0.08130081300813008px"></rect><rect mask="url(#mask-2024-02-03)" width="16" fill="#b276b2" y="140.77235772357722" x="0" height="19.10569105691057px"></rect><text transform="rotate(90, 4, 49.772357723577215)" letter-spacing="5" y="49.772357723577215" x="4" rotate="-90" class="xp-txt">1580 XP</text></svg><text x="2" y="198" class="subtitle">Feb</text><text x="6" y="214" class="subtitle">03</text></g><g transform="translate(120, 0)"><svg x="7" y="-20" height="240"><mask id="mask-2024-02-04"><rect x="0" y="205" width="16" height="0" fill="white" rx="5"></rect></mask><rect rx="5" ry="5" x="0" y="25" width="16" height="180" fill="#ddd"></rect><text transform="rotate(90, 4, 153)" letter-spacing="5" y="153" x="4" rotate="-90" class="xp-txt">0 XP</text></svg><text x="2" y="198" class="subtitle">Feb</text><text x="6" y="214" class="subtitle">04</text></g><g transform="translate(160, 0)"><svg x="7" y="-20" height="240"><mask id="mask-2024-02-05"><rect x="0" y="172.96747967479675" width="16" height="32.03252032520325" fill="white" rx="5"></rect></mask><rect rx="5" ry="5" x="0" y="25" width="16" height="180" fill="#ddd"></rect><rect mask="url(#mask-2024-02-05)" width="16" fill="#3e4053" y="197.1951219512195" x="0" height="7.804878048780488px"></rect><rect mask="url(#mask-2024-02-05)" width="16" fill="#3e4053" y="195.73170731707316" x="0" height="1.4634146341463414px"></rect><rect mask="url(#mask-2024-02-05)" width="16" fill="#3e4053" y="189.8780487804878" x="0" height="5.853658536585366px"></rect><rect mask="url(#mask-2024-02-05)" width="16" fill="#b276b2" y="172.96747967479675" x="0" height="16.910569105691057px"></rect><text transform="rotate(90, 4, 94.96747967479675)" letter-spacing="5" y="94.96747967479675" x="4" rotate="-90" class="xp-txt">788 XP</text></svg><text x="2" y="198" class="subtitle">Feb</text><text x="6" y="214" class="subtitle">05</text></g><g transform="translate(200, 0)"><svg x="7" y="-20" height="240"><mask id="mask-2024-02-06"><rect x="0" y="199.8780487804878" width="16" height="5.121951219512195" fill="white" rx="5"></rect></mask><rect rx="5" ry="5" x="0" y="25" width="16" height="180" fill="#ddd"></rect><rect mask="url(#mask-2024-02-06)" width="16" fill="#b276b2" y="199.8780487804878" x="0" height="5.121951219512195px"></rect><text transform="rotate(90, 4, 121.8780487804878)" letter-spacing="5" y="121.8780487804878" x="4" rotate="-90" class="xp-txt">126 XP</text></svg><text x="2" y="198" class="subtitle">Feb</text><text x="6" y="214" class="subtitle">06</text></g><g transform="translate(240, 0)"><svg x="7" y="-20" height="240"><mask id="mask-2024-02-07"><rect x="0" y="194.1869918699187" width="16" height="10.8130081300813" fill="white" rx="5"></rect></mask><rect rx="5" ry="5" x="0" y="25" width="16" height="180" fill="#ddd"></rect><rect mask="url(#mask-2024-02-07)" width="16" fill="#b276b2" y="194.1869918699187" x="0" height="10.8130081300813px"></rect><text transform="rotate(90, 4, 116.1869918699187)" letter-spacing="5" y="116.1869918699187" x="4" rotate="-90" class="xp-txt">266 XP</text></svg><text x="2" y="198" class="subtitle">Feb</text><text x="6" y="214" class="subtitle">07</text></g><g transform="translate(280, 0)"><svg x="7" y="-20" height="240"><mask id="mask-2024-02-08"><rect x="0" y="182.8048780487805" width="16" height="22.195121951219512" fill="white" rx="5"></rect></mask><rect rx="5" ry="5" x="0" y="25" width="16" height="180" fill="#ddd"></rect><rect mask="url(#mask-2024-02-08)" width="16" fill="#3e4053" y="204.34959349593495" x="0" height="0.6504065040650406px"></rect><rect mask="url(#mask-2024-02-08)" width="16" fill="#b276b2" y="182.8048780487805" x="0" height="21.54471544715447px"></rect><text transform="rotate(90, 4, 104.8048780487805)" letter-spacing="5" y="104.8048780487805" x="4" rotate="-90" class="xp-txt">546 XP</text></svg><text x="2" y="198" class="subtitle">Feb</text><text x="6" y="214" class="subtitle">08</text></g><g transform="translate(320, 0)"><svg x="7" y="-20" height="240"><mask id="mask-2024-02-09"><rect x="0" y="183.0081300813008" width="16" height="21.991869918699187" fill="white" rx="5"></rect></mask><rect rx="5" ry="5" x="0" y="25" width="16" height="180" fill="#ddd"></rect><rect mask="url(#mask-2024-02-09)" width="16" fill="#b276b2" y="183.0081300813008" x="0" height="21.991869918699187px"></rect><text transform="rotate(90, 4, 105.0081300813008)" letter-spacing="5" y="105.0081300813008" x="4" rotate="-90" class="xp-txt">541 XP</text></svg><text x="2" y="198" class="subtitle">Feb</text><text x="6" y="214" class="subtitle">09</text></g><g transform="translate(360, 0)"><svg x="7" y="-20" height="240"><mask id="mask-2024-02-10"><rect x="0" y="155.3658536585366" width="16" height="49.63414634146341" fill="white" rx="5"></rect></mask><rect rx="5" ry="5" x="0" y="25" width="16" height="180" fill="#ddd"></rect><rect mask="url(#mask-2024-02-10)" width="16" fill="#3e4053" y="204.6747967479675" x="0" height="0.3252032520325203px"></rect><rect mask="url(#mask-2024-02-10)" width="16" fill="#00ADD8" y="194.0650406504065" x="0" height="10.609756097560975px"></rect><rect mask="url(#mask-2024-02-10)" width="16" fill="#b276b2" y="155.3658536585366" x="0" height="38.699186991869915px"></rect><text transform="rotate(90, 4, 64.3658536585366)" letter-spacing="5" y="64.3658536585366" x="4" rotate="-90" class="xp-txt">1221 XP</text></svg><text x="2" y="198" class="subtitle">Feb</text><text x="6" y="214" class="subtitle">10</text></g><g transform="translate(400, 0)"><svg x="7" y="-20" height="240"><mask id="mask-2024-02-11"><rect x="0" y="189.95934959349594" width="16" height="15.040650406504065" fill="white" rx="5"></rect></mask><rect rx="5" ry="5" x="0" y="25" width="16" height="180" fill="#ddd"></rect><rect mask="url(#mask-2024-02-11)" width="16" fill="#b276b2" y="189.95934959349594" x="0" height="15.040650406504065px"></rect><text transform="rotate(90, 4, 111.95934959349594)" letter-spacing="5" y="111.95934959349594" x="4" rotate="-90" class="xp-txt">370 XP</text></svg><text x="2" y="198" class="subtitle">Feb</text><text x="6" y="214" class="subtitle">11</text></g><g transform="translate(440, 0)"><svg x="7" y="-20" height="240"><mask id="mask-2024-02-12"><rect x="0" y="134.7967479674797" width="16" height="70.20325203252033" fill="white" rx="5"></rect></mask><rect rx="5" ry="5" x="0" y="25" width="16" height="180" fill="#ddd"></rect><rect mask="url(#mask-2024-02-12)" width="16" fill="#b276b2" y="134.7967479674797" x="0" height="70.20325203252033px"></rect><text transform="rotate(90, 4, 43.79674796747969)" letter-spacing="5" y="43.79674796747969" x="4" rotate="-90" class="xp-txt">1727 XP</text></svg><text x="2" y="198" class="subtitle">Feb</text><text x="6" y="214" class="subtitle">12</text></g><g transform="translate(480, 0)"><svg x="7" y="-20" height="240"><mask id="mask-2024-02-13"><rect x="0" y="198.8211382113821" width="16" height="6.178861788617886" fill="white" rx="5"></rect></mask><rect rx="5" ry="5" x="0" y="25" width="16" height="180" fill="#ddd"></rect><rect mask="url(#mask-2024-02-13)" width="16" fill="#b276b2" y="198.8211382113821" x="0" height="6.178861788617886px"></rect><text transform="rotate(90, 4, 120.8211382113821)" letter-spacing="5" y="120.8211382113821" x="4" rotate="-90" class="xp-txt">152 XP</text></svg><text x="2" y="198" class="subtitle">Feb</text><text x="6" y="214" class="subtitle">13</text></g><g transform="translate(520, 0)"><svg x="7" y="-20" height="240"><mask id="mask-2024-02-14"><rect x="0" y="25" width="16" height="180" fill="white" rx="5"></rect></mask><rect rx="5" ry="5" x="0" y="25" width="16" height="180" fill="#ddd"></rect><rect mask="url(#mask-2024-02-14)" width="16" fill="#083fa1" y="152.9268292682927" x="0" height="52.073170731707314px"></rect><rect mask="url(#mask-2024-02-14)" width="16" fill="#3572A5" y="119.71544715447155" x="0" height="33.21138211382114px"></rect><rect mask="url(#mask-2024-02-14)" width="16" fill="#3e4053" y="117.07317073170732" x="0" height="2.6422764227642275px"></rect><rect mask="url(#mask-2024-02-14)" width="16" fill="#3e4053" y="112.6829268292683" x="0" height="4.390243902439025px"></rect><rect mask="url(#mask-2024-02-14)" width="16" fill="#b276b2" y="25" x="0" height="87.6829268292683px"></rect><text transform="rotate(90, 4, 41)" letter-spacing="5" y="41" x="4" rotate="-90" class="xp-txt xp-txt-invert">4428 XP</text></svg><text x="2" y="198" class="subtitle">Feb</text><text x="6" y="214" class="subtitle">14</text></g></g><g transform="translate(600, 0)"><g transform="translate(0, 0)"><rect rx="5" x="2" y="7" height="12" width="12" fill="#083fa1"></rect><text x="18" y="18" class="lang-name">Markdown</text></g><g transform="translate(0, 20)"><rect rx="5" x="2" y="7" height="12" width="12" fill="#dea584"></rect><text x="18" y="18" class="lang-name">Rust</text></g><g transform="translate(0, 40)"><rect rx="5" x="2" y="7" height="12" width="12" fill="#3572A5"></rect><text x="18" y="18" class="lang-name">Python</text></g><g transform="translate(0, 60)"><rect rx="5" x="2" y="7" height="12" width="12" fill="#3e4053"></rect><text x="18" y="18" class="lang-name">JSON</text></g><g transform="translate(0, 80)"><rect rx="5" x="2" y="7" height="12" width="12" fill="#00ADD8"></rect><text x="18" y="18" class="lang-name">Go</text></g><g transform="translate(0, 100)"><rect rx="5" x="2" y="7" height="12" width="12" fill="#00B4AB"></rect><text x="18" y="18" class="lang-name">Dart</text></g><g transform="translate(0, 120)"><rect rx="5" x="2" y="7" height="12" width="12" fill="#3e4053"></rect><text x="18" y="18" class="lang-name">VS Code Input</text></g><g transform="translate(0, 140)"><rect rx="5" x="2" y="7" height="12" width="12" fill="#3e4053"></rect><text x="18" y="18" class="lang-name">CSV</text></g><g transform="translate(0, 160)"><rect rx="5" x="2" y="7" height="12" width="12" fill="#3e4053"></rect><text x="18" y="18" class="lang-name">Other</text></g></g></svg></g></svg>