<svg width="785" height="300" viewBox="0 0 785 300" fill="none" xmlns="http://www.w3.org/2000/svg"><style>
					.header {
						font: 600 18px &#x27;Segoe UI&#x27;, Ubuntu, Sans-Serif;
						fill: #3d858f;
						animation: fadeInAnimation 0.8s ease-in-out forwards;
					}
					
	.lang-name {
		font: 400 16px &#x27;Segoe UI&#x27;, Ubuntu, Sans-Serif;
		fill: #ffffffcc;
	}
	.xp-txt {
		font: 400 12px &#x27;Segoe UI&#x27;, Ubuntu, Sans-Serif;
		fill: black;
	}
	.xp-txt-invert {
		font: 600 12px &#x27;Segoe UI&#x27;, Ubuntu, Sans-Serif;
		fill: white;
	}
	.subtitle {
		font: 400 14px &#x27;Segoe UI&#x27;, Ubuntu, Sans-Serif;
		fill: #ffffffcc;
	}


					/* Animations */
					@keyframes scaleInAnimation {
						from {
							transform: translate(-5px, 5px) scale(0);
						}
						to {
							transform: translate(-5px, 5px) scale(1);
						}
					}
					@keyframes fadeInAnimation {
						from {
							opacity: 0;
						}
						to {
							opacity: 1;
						}
					}
				</style><rect x="0.5" y="0.5" rx="4.5" height="99%" stroke="#E4E2E2" width="784" fill="#151515" stroke-opacity="0"></rect><g transform="translate(25, 35)"><g transform="translate(0, 0)"><text x="0" y="0" class="header">Coding History of the last two weeks</text></g></g><g transform="translate(0, 55)"><svg x="25"><g transform="translate(0, 0)"><g transform="translate(0, 0)"><svg x="7" y="-20" height="240"><mask id="mask-2023-11-02"><rect x="0" y="25" width="16" height="180" fill="white" rx="5"></rect></mask><rect rx="5" ry="5" x="0" y="25" width="16" height="180" fill="#ddd"></rect><rect mask="url(#mask-2023-11-02)" width="16" fill="#3572A5" y="96.05481345002303" x="0" height="108.94518654997697px"></rect><rect mask="url(#mask-2023-11-02)" width="16" fill="#083fa1" y="95.72316904652234" x="0" height="0.3316444035006909px"></rect><rect mask="url(#mask-2023-11-02)" width="16" fill="#3e4053" y="88.42699216950714" x="0" height="7.2961768770152px"></rect><rect mask="url(#mask-2023-11-02)" width="16" fill="#3e4053" y="87.10041455550439" x="0" height="1.3265776140027636px"></rect><rect mask="url(#mask-2023-11-02)" width="16" fill="#3e4053" y="86.76877015200368" x="0" height="0.3316444035006909px"></rect><rect mask="url(#mask-2023-11-02)" width="16" fill="#b276b2" y="25" x="0" height="61.76877015200368px"></rect><text transform="rotate(90, 4, 41)" letter-spacing="5" y="41" x="4" rotate="-90" class="xp-txt xp-txt-invert">2171 XP</text></svg><text x="2" y="198" class="subtitle">Nov</text><text x="6" y="214" class="subtitle">02</text></g><g transform="translate(40, 0)"><svg x="7" y="-20" height="240"><mask id="mask-2023-11-03"><rect x="0" y="127.72685398433902" width="16" height="77.27314601566098" fill="white" rx="5"></rect></mask><rect rx="5" ry="5" x="0" y="25" width="16" height="180" fill="#ddd"></rect><rect mask="url(#mask-2023-11-03)" width="16" fill="#b276b2" y="127.72685398433902" x="0" height="77.27314601566098px"></rect><text transform="rotate(90, 4, 49.726853984339016)" letter-spacing="5" y="49.726853984339016" x="4" rotate="-90" class="xp-txt">932 XP</text></svg><text x="2" y="198" class="subtitle">Nov</text><text x="6" y="214" class="subtitle">03</text></g><g transform="translate(80, 0)"><svg x="7" y="-20" height="240"><mask id="mask-2023-11-04"><rect x="0" y="204.50253339474895" width="16" height="0.49746660525103636" fill="white" rx="5"></rect></mask><rect rx="5" ry="5" x="0" y="25" width="16" height="180" fill="#ddd"></rect><rect mask="url(#mask-2023-11-04)" width="16" fill="#b276b2" y="204.50253339474895" x="0" height="0.49746660525103636px"></rect><text transform="rotate(90, 4, 152.50253339474895)" letter-spacing="5" y="152.50253339474895" x="4" rotate="-90" class="xp-txt">6 XP</text></svg><text x="2" y="198" class="subtitle">Nov</text><text x="6" y="214" class="subtitle">04</text></g><g transform="translate(120, 0)"><svg x="7" y="-20" height="240"><mask id="mask-2023-11-06"><rect x="0" y="205" width="16" height="0" fill="white" rx="5"></rect></mask><rect rx="5" ry="5" x="0" y="25" width="16" height="180" fill="#ddd"></rect><text transform="rotate(90, 4, 153)" letter-spacing="5" y="153" x="4" rotate="-90" class="xp-txt">0 XP</text></svg><text x="2" y="198" class="subtitle">Nov</text><text x="6" y="214" class="subtitle">06</text></g><g transform="translate(160, 0)"><svg x="7" y="-20" height="240"><mask id="mask-2023-11-07"><rect x="0" y="201.3519115614924" width="16" height="3.6480884385076" fill="white" rx="5"></rect></mask><rect rx="5" ry="5" x="0" y="25" width="16" height="180" fill="#ddd"></rect><rect mask="url(#mask-2023-11-07)" width="16" fill="#b276b2" y="201.3519115614924" x="0" height="3.6480884385076px"></rect><text transform="rotate(90, 4, 136.3519115614924)" letter-spacing="5" y="136.3519115614924" x="4" rotate="-90" class="xp-txt">44 XP</text></svg><text x="2" y="198" class="subtitle">Nov</text><text x="6" y="214" class="subtitle">07</text></g><g transform="translate(200, 0)"><svg x="7" y="-20" height="240"><mask id="mask-2023-11-08"><rect x="0" y="205" width="16" height="0" fill="white" rx="5"></rect></mask><rect rx="5" ry="5" x="0" y="25" width="16" height="180" fill="#ddd"></rect><text transform="rotate(90, 4, 153)" letter-spacing="5" y="153" x="4" rotate="-90" class="xp-txt">0 XP</text></svg><text x="2" y="198" class="subtitle">Nov</text><text x="6" y="214" class="subtitle">08</text></g><g transform="translate(240, 0)"><svg x="7" y="-20" height="240"><mask id="mask-2023-11-09"><rect x="0" y="203.25886688162137" width="16" height="1.7411331183786274" fill="white" rx="5"></rect></mask><rect rx="5" ry="5" x="0" y="25" width="16" height="180" fill="#ddd"></rect><rect mask="url(#mask-2023-11-09)" width="16" fill="#b276b2" y="203.25886688162137" x="0" height="1.7411331183786274px"></rect><text transform="rotate(90, 4, 138.25886688162137)" letter-spacing="5" y="138.25886688162137" x="4" rotate="-90" class="xp-txt">21 XP</text></svg><text x="2" y="198" class="subtitle">Nov</text><text x="6" y="214" class="subtitle">09</text></g><g transform="translate(280, 0)"><svg x="7" y="-20" height="240"><mask id="mask-2023-11-10"><rect x="0" y="199.5278673422386" width="16" height="5.4721326577614" fill="white" rx="5"></rect></mask><rect rx="5" ry="5" x="0" y="25" width="16" height="180" fill="#ddd"></rect><rect mask="url(#mask-2023-11-10)" width="16" fill="#b276b2" y="199.5278673422386" x="0" height="5.4721326577614px"></rect><text transform="rotate(90, 4, 134.5278673422386)" letter-spacing="5" y="134.5278673422386" x="4" rotate="-90" class="xp-txt">66 XP</text></svg><text x="2" y="198" class="subtitle">Nov</text><text x="6" y="214" class="subtitle">10</text></g><g transform="translate(320, 0)"><svg x="7" y="-20" height="240"><mask id="mask-2023-11-11"><rect x="0" y="202.8443113772455" width="16" height="2.155688622754491" fill="white" rx="5"></rect></mask><rect rx="5" ry="5" x="0" y="25" width="16" height="180" fill="#ddd"></rect><rect mask="url(#mask-2023-11-11)" width="16" fill="#b276b2" y="202.8443113772455" x="0" height="2.155688622754491px"></rect><text transform="rotate(90, 4, 137.8443113772455)" letter-spacing="5" y="137.8443113772455" x="4" rotate="-90" class="xp-txt">26 XP</text></svg><text x="2" y="198" class="subtitle">Nov</text><text x="6" y="214" class="subtitle">11</text></g><g transform="translate(360, 0)"><svg x="7" y="-20" height="240"><mask id="mask-2023-11-12"><rect x="0" y="113.71487793643482" width="16" height="91.28512206356518" fill="white" rx="5"></rect></mask><rect rx="5" ry="5" x="0" y="25" width="16" height="180" fill="#ddd"></rect><rect mask="url(#mask-2023-11-12)" width="16" fill="#3572A5" y="196.46015660985722" x="0" height="8.539843390142792px"></rect><rect mask="url(#mask-2023-11-12)" width="16" fill="#083fa1" y="180.54122524182404" x="0" height="15.918931368033164px"></rect><rect mask="url(#mask-2023-11-12)" width="16" fill="#3e4053" y="179.54629203132197" x="0" height="0.9949332105020727px"></rect><rect mask="url(#mask-2023-11-12)" width="16" fill="#b276b2" y="113.71487793643482" x="0" height="65.83141409488715px"></rect><text transform="rotate(90, 4, 129.71487793643482)" letter-spacing="5" y="129.71487793643482" x="4" rotate="-90" class="xp-txt xp-txt-invert">1101 XP</text></svg><text x="2" y="198" class="subtitle">Nov</text><text x="6" y="214" class="subtitle">12</text></g><g transform="translate(400, 0)"><svg x="7" y="-20" height="240"><mask id="mask-2023-11-13"><rect x="0" y="27.072777521879317" width="16" height="177.92722247812068" fill="white" rx="5"></rect></mask><rect rx="5" ry="5" x="0" y="25" width="16" height="180" fill="#ddd"></rect><rect mask="url(#mask-2023-11-13)" width="16" fill="#3e4053" y="203.83924458774757" x="0" height="1.1607554122524182px"></rect><rect mask="url(#mask-2023-11-13)" width="16" fill="#b276b2" y="27.072777521879317" x="0" height="176.76646706586826px"></rect><text transform="rotate(90, 4, 43.07277752187932)" letter-spacing="5" y="43.07277752187932" x="4" rotate="-90" class="xp-txt xp-txt-invert">2146 XP</text></svg><text x="2" y="198" class="subtitle">Nov</text><text x="6" y="214" class="subtitle">13</text></g><g transform="translate(440, 0)"><svg x="7" y="-20" height="240"><mask id="mask-2023-11-14"><rect x="0" y="64.38277291570705" width="16" height="140.61722708429295" fill="white" rx="5"></rect></mask><rect rx="5" ry="5" x="0" y="25" width="16" height="180" fill="#ddd"></rect><rect mask="url(#mask-2023-11-14)" width="16" fill="#3572A5" y="204.6683555964993" x="0" height="0.3316444035006909px"></rect><rect mask="url(#mask-2023-11-14)" width="16" fill="#b276b2" y="64.38277291570705" x="0" height="140.28558268079226px"></rect><text transform="rotate(90, 4, 80.38277291570705)" letter-spacing="5" y="80.38277291570705" x="4" rotate="-90" class="xp-txt xp-txt-invert">1696 XP</text></svg><text x="2" y="198" class="subtitle">Nov</text><text x="6" y="214" class="subtitle">14</text></g><g transform="translate(480, 0)"><svg x="7" y="-20" height="240"><mask id="mask-2023-11-15"><rect x="0" y="167.2754491017964" width="16" height="37.724550898203596" fill="white" rx="5"></rect></mask><rect rx="5" ry="5" x="0" y="25" width="16" height="180" fill="#ddd"></rect><rect mask="url(#mask-2023-11-15)" width="16" fill="#b276b2" y="167.2754491017964" x="0" height="37.724550898203596px"></rect><text transform="rotate(90, 4, 89.2754491017964)" letter-spacing="5" y="89.2754491017964" x="4" rotate="-90" class="xp-txt">455 XP</text></svg><text x="2" y="198" class="subtitle">Nov</text><text x="6" y="214" class="subtitle">15</text></g></g><g transform="translate(568, 0)"><g transform="translate(0, 0)"><rect rx="5" x="2" y="7" height="12" width="12" fill="#3572A5"></rect><text x="18" y="18" class="lang-name">Python</text></g><g transform="translate(0, 20)"><rect rx="5" x="2" y="7" height="12" width="12" fill="#083fa1"></rect><text x="18" y="18" class="lang-name">Markdown</text></g><g transform="translate(0, 40)"><rect rx="5" x="2" y="7" height="12" width="12" fill="#3e4053"></rect><text x="18" y="18" class="lang-name">Docker</text></g><g transform="translate(0, 60)"><rect rx="5" x="2" y="7" height="12" width="12" fill="#3e4053"></rect><text x="18" y="18" class="lang-name">TOML</text></g><g transform="translate(0, 80)"><rect rx="5" x="2" y="7" height="12" width="12" fill="#3e4053"></rect><text x="18" y="18" class="lang-name">Log</text></g><g transform="translate(0, 100)"><rect rx="5" x="2" y="7" height="12" width="12" fill="#3e4053"></rect><text x="18" y="18" class="lang-name">JSON</text></g><g transform="translate(0, 120)"><rect rx="5" x="2" y="7" height="12" width="12" fill="#3e4053"></rect><text x="18" y="18" class="lang-name">Other</text></g></g></svg></g></svg>