<svg width="785" height="300" viewBox="0 0 785 300" fill="none" xmlns="http://www.w3.org/2000/svg"><style>
					.header {
						font: 600 18px &#x27;Segoe UI&#x27;, Ubuntu, Sans-Serif;
						fill: #3d858f;
						animation: fadeInAnimation 0.8s ease-in-out forwards;
					}
					
	.lang-name {
		font: 400 16px &#x27;Segoe UI&#x27;, Ubuntu, Sans-Serif;
		fill: #ffffffcc;
	}
	.xp-txt {
		font: 400 12px &#x27;Segoe UI&#x27;, Ubuntu, Sans-Serif;
		fill: black;
	}
	.xp-txt-invert {
		font: 600 12px &#x27;Segoe UI&#x27;, Ubuntu, Sans-Serif;
		fill: white;
	}
	.subtitle {
		font: 400 14px &#x27;Segoe UI&#x27;, Ubuntu, Sans-Serif;
		fill: #ffffffcc;
	}


					/* Animations */
					@keyframes scaleInAnimation {
						from {
							transform: translate(-5px, 5px) scale(0);
						}
						to {
							transform: translate(-5px, 5px) scale(1);
						}
					}
					@keyframes fadeInAnimation {
						from {
							opacity: 0;
						}
						to {
							opacity: 1;
						}
					}
				</style><rect x="0.5" y="0.5" rx="4.5" height="99%" stroke="#E4E2E2" width="784" fill="#151515" stroke-opacity="0"></rect><g transform="translate(25, 35)"><g transform="translate(0, 0)"><text x="0" y="0" class="header">Coding History of the last two weeks</text></g></g><g transform="translate(0, 55)"><svg x="25"><g transform="translate(0, 0)"><g transform="translate(0, 0)"><svg x="7" y="-20" height="240"><mask id="mask-2024-02-20"><rect x="0" y="25" width="16" height="180" fill="white" rx="5"></rect></mask><rect rx="5" ry="5" x="0" y="25" width="16" height="180" fill="#ddd"></rect><rect mask="url(#mask-2024-02-20)" width="16" fill="#3572A5" y="100.38745387453875" x="0" height="104.61254612546125px"></rect><rect mask="url(#mask-2024-02-20)" width="16" fill="#3e4053" y="68.93531582374646" x="0" height="31.45213805079227px"></rect><rect mask="url(#mask-2024-02-20)" width="16" fill="#3e4053" y="51.216626872151075" x="0" height="17.7186889515954px"></rect><rect mask="url(#mask-2024-02-20)" width="16" fill="#3e4053" y="48.247232472324725" x="0" height="2.969394399826351px"></rect><rect mask="url(#mask-2024-02-20)" width="16" fill="#3e4053" y="45.31690905144346" x="0" height="2.9303234208812676px"></rect><rect mask="url(#mask-2024-02-20)" width="16" fill="#b276b2" y="25" x="0" height="20.316909051443456px"></rect><text transform="rotate(90, 4, 41)" letter-spacing="5" y="41" x="4" rotate="-90" class="xp-txt xp-txt-invert">9214 XP</text></svg><text x="2" y="198" class="subtitle">Feb</text><text x="6" y="214" class="subtitle">20</text></g><g transform="translate(40, 0)"><svg x="7" y="-20" height="240"><mask id="mask-2024-02-21"><rect x="0" y="153.8560885608856" width="16" height="51.14391143911439" fill="white" rx="5"></rect></mask><rect rx="5" ry="5" x="0" y="25" width="16" height="180" fill="#ddd"></rect><rect mask="url(#mask-2024-02-21)" width="16" fill="#3572A5" y="165.88995007597134" x="0" height="39.11004992402865px"></rect><rect mask="url(#mask-2024-02-21)" width="16" fill="#3e4053" y="164.91317560234427" x="0" height="0.9767744736270892px"></rect><rect mask="url(#mask-2024-02-21)" width="16" fill="#3e4053" y="164.1903624918602" x="0" height="0.7228131104840461px"></rect><rect mask="url(#mask-2024-02-21)" width="16" fill="#3e4053" y="162.49077490774908" x="0" height="1.6995875841111352px"></rect><rect mask="url(#mask-2024-02-21)" width="16" fill="#3e4053" y="161.67028434990232" x="0" height="0.820490557846755px"></rect><rect mask="url(#mask-2024-02-21)" width="16" fill="#b276b2" y="153.8560885608856" x="0" height="7.814195789016714px"></rect><text transform="rotate(90, 4, 62.85608856088561)" letter-spacing="5" y="62.85608856088561" x="4" rotate="-90" class="xp-txt">2618 XP</text></svg><text x="2" y="198" class="subtitle">Feb</text><text x="6" y="214" class="subtitle">21</text></g><g transform="translate(80, 0)"><svg x="7" y="-20" height="240"><mask id="mask-2024-02-22"><rect x="0" y="201.5422183633601" width="16" height="3.4577816366398957" fill="white" rx="5"></rect></mask><rect rx="5" ry="5" x="0" y="25" width="16" height="180" fill="#ddd"></rect><rect mask="url(#mask-2024-02-22)" width="16" fill="#b276b2" y="201.5422183633601" x="0" height="3.4577816366398957px"></rect><text transform="rotate(90, 4, 123.54221836336009)" letter-spacing="5" y="123.54221836336009" x="4" rotate="-90" class="xp-txt">177 XP</text></svg><text x="2" y="198" class="subtitle">Feb</text><text x="6" y="214" class="subtitle">22</text></g><g transform="translate(120, 0)"><svg x="7" y="-20" height="240"><mask id="mask-2024-02-23"><rect x="0" y="183.257000217061" width="16" height="21.742999782939005" fill="white" rx="5"></rect></mask><rect rx="5" ry="5" x="0" y="25" width="16" height="180" fill="#ddd"></rect><rect mask="url(#mask-2024-02-23)" width="16" fill="#00ADD8" y="187.7892337746907" x="0" height="17.21076622530931px"></rect><rect mask="url(#mask-2024-02-23)" width="16" fill="#b276b2" y="183.257000217061" x="0" height="4.532233557629694px"></rect><text transform="rotate(90, 4, 92.257000217061)" letter-spacing="5" y="92.257000217061" x="4" rotate="-90" class="xp-txt">1113 XP</text></svg><text x="2" y="198" class="subtitle">Feb</text><text x="6" y="214" class="subtitle">23</text></g><g transform="translate(160, 0)"><svg x="7" y="-20" height="240"><mask id="mask-2024-02-24"><rect x="0" y="143.50227914043847" width="16" height="61.49772085956154" fill="white" rx="5"></rect></mask><rect rx="5" ry="5" x="0" y="25" width="16" height="180" fill="#ddd"></rect><rect mask="url(#mask-2024-02-24)" width="16" fill="#00ADD8" y="162.5884523551118" x="0" height="42.411547644888216px"></rect><rect mask="url(#mask-2024-02-24)" width="16" fill="#3e4053" y="145.5730410245279" x="0" height="17.015411330583895px"></rect><rect mask="url(#mask-2024-02-24)" width="16" fill="#b276b2" y="143.50227914043847" x="0" height="2.0707618840894293px"></rect><text transform="rotate(90, 4, 52.502279140438475)" letter-spacing="5" y="52.502279140438475" x="4" rotate="-90" class="xp-txt">3148 XP</text></svg><text x="2" y="198" class="subtitle">Feb</text><text x="6" y="214" class="subtitle">24</text></g><g transform="translate(200, 0)"><svg x="7" y="-20" height="240"><mask id="mask-2024-02-25"><rect x="0" y="94.05795528543521" width="16" height="110.94204471456479" fill="white" rx="5"></rect></mask><rect rx="5" ry="5" x="0" y="25" width="16" height="180" fill="#ddd"></rect><rect mask="url(#mask-2024-02-25)" width="16" fill="#00ADD8" y="116.15259387887997" x="0" height="88.84740612112003px"></rect><rect mask="url(#mask-2024-02-25)" width="16" fill="#3e4053" y="106.85370088995008" x="0" height="9.29889298892989px"></rect><rect mask="url(#mask-2024-02-25)" width="16" fill="#3e4053" y="106.814629911005" x="0" height="0.039070978945083566px"></rect><rect mask="url(#mask-2024-02-25)" width="16" fill="#b276b2" y="94.05795528543521" x="0" height="12.756674625569785px"></rect><text transform="rotate(90, 4, 110.05795528543521)" letter-spacing="5" y="110.05795528543521" x="4" rotate="-90" class="xp-txt xp-txt-invert">5679 XP</text></svg><text x="2" y="198" class="subtitle">Feb</text><text x="6" y="214" class="subtitle">25</text></g><g transform="translate(240, 0)"><svg x="7" y="-20" height="240"><mask id="mask-2024-02-26"><rect x="0" y="179.13501193835467" width="16" height="25.864988061645324" fill="white" rx="5"></rect></mask><rect rx="5" ry="5" x="0" y="25" width="16" height="180" fill="#ddd"></rect><rect mask="url(#mask-2024-02-26)" width="16" fill="#b276b2" y="179.13501193835467" x="0" height="25.864988061645324px"></rect><text transform="rotate(90, 4, 88.13501193835467)" letter-spacing="5" y="88.13501193835467" x="4" rotate="-90" class="xp-txt">1324 XP</text></svg><text x="2" y="198" class="subtitle">Feb</text><text x="6" y="214" class="subtitle">26</text></g><g transform="translate(280, 0)"><svg x="7" y="-20" height="240"><mask id="mask-2024-02-27"><rect x="0" y="173.33297156500976" width="16" height="31.667028434990232" fill="white" rx="5"></rect></mask><rect rx="5" ry="5" x="0" y="25" width="16" height="180" fill="#ddd"></rect><rect mask="url(#mask-2024-02-27)" width="16" fill="#3e4053" y="204.9609290210549" x="0" height="0.039070978945083566px"></rect><rect mask="url(#mask-2024-02-27)" width="16" fill="#b276b2" y="173.33297156500976" x="0" height="31.62795745604515px"></rect><text transform="rotate(90, 4, 82.33297156500976)" letter-spacing="5" y="82.33297156500976" x="4" rotate="-90" class="xp-txt">1621 XP</text></svg><text x="2" y="198" class="subtitle">Feb</text><text x="6" y="214" class="subtitle">27</text></g><g transform="translate(320, 0)"><svg x="7" y="-20" height="240"><mask id="mask-2024-02-28"><rect x="0" y="129.88604297807683" width="16" height="75.11395702192316" fill="white" rx="5"></rect></mask><rect rx="5" ry="5" x="0" y="25" width="16" height="180" fill="#ddd"></rect><rect mask="url(#mask-2024-02-28)" width="16" fill="#3572A5" y="179.01779900151942" x="0" height="25.98220099848057px"></rect><rect mask="url(#mask-2024-02-28)" width="16" fill="#3e4053" y="167.86303451269808" x="0" height="11.154764488821359px"></rect><rect mask="url(#mask-2024-02-28)" width="16" fill="#3e4053" y="164.83503364445409" x="0" height="3.0280008682439767px"></rect><rect mask="url(#mask-2024-02-28)" width="16" fill="#3e4053" y="164.795962665509" x="0" height="0.039070978945083566px"></rect><rect mask="url(#mask-2024-02-28)" width="16" fill="#b276b2" y="129.88604297807683" x="0" height="34.909919687432165px"></rect><text transform="rotate(90, 4, 38.88604297807683)" letter-spacing="5" y="38.88604297807683" x="4" rotate="-90" class="xp-txt">3845 XP</text></svg><text x="2" y="198" class="subtitle">Feb</text><text x="6" y="214" class="subtitle">28</text></g><g transform="translate(360, 0)"><svg x="7" y="-20" height="240"><mask id="mask-2024-02-29"><rect x="0" y="200.07705665291948" width="16" height="4.92294334708053" fill="white" rx="5"></rect></mask><rect rx="5" ry="5" x="0" y="25" width="16" height="180" fill="#ddd"></rect><rect mask="url(#mask-2024-02-29)" width="16" fill="#b276b2" y="200.07705665291948" x="0" height="4.92294334708053px"></rect><text transform="rotate(90, 4, 122.07705665291948)" letter-spacing="5" y="122.07705665291948" x="4" rotate="-90" class="xp-txt">252 XP</text></svg><text x="2" y="198" class="subtitle">Feb</text><text x="6" y="214" class="subtitle">29</text></g><g transform="translate(400, 0)"><svg x="7" y="-20" height="240"><mask id="mask-2024-03-01"><rect x="0" y="193.14195789016713" width="16" height="11.858042109832864" fill="white" rx="5"></rect></mask><rect rx="5" ry="5" x="0" y="25" width="16" height="180" fill="#ddd"></rect><rect mask="url(#mask-2024-03-01)" width="16" fill="#3e4053" y="204.9609290210549" x="0" height="0.039070978945083566px"></rect><rect mask="url(#mask-2024-03-01)" width="16" fill="#b276b2" y="193.14195789016713" x="0" height="11.81897113088778px"></rect><text transform="rotate(90, 4, 115.14195789016713)" letter-spacing="5" y="115.14195789016713" x="4" rotate="-90" class="xp-txt">607 XP</text></svg><text x="2" y="198" class="subtitle">Mar</text><text x="6" y="214" class="subtitle">01</text></g><g transform="translate(440, 0)"><svg x="7" y="-20" height="240"><mask id="mask-2024-03-03"><rect x="0" y="205" width="16" height="0" fill="white" rx="5"></rect></mask><rect rx="5" ry="5" x="0" y="25" width="16" height="180" fill="#ddd"></rect><text transform="rotate(90, 4, 153)" letter-spacing="5" y="153" x="4" rotate="-90" class="xp-txt">0 XP</text></svg><text x="2" y="198" class="subtitle">Mar</text><text x="6" y="214" class="subtitle">03</text></g><g transform="translate(480, 0)"><svg x="7" y="-20" height="240"><mask id="mask-2024-03-04"><rect x="0" y="97.16409811156934" width="16" height="107.83590188843066" fill="white" rx="5"></rect></mask><rect rx="5" ry="5" x="0" y="25" width="16" height="180" fill="#ddd"></rect><rect mask="url(#mask-2024-03-04)" width="16" fill="#3572A5" y="186.22639461688735" x="0" height="18.773605383112656px"></rect><rect mask="url(#mask-2024-03-04)" width="16" fill="#3e4053" y="185.9333622747992" x="0" height="0.2930323420881268px"></rect><rect mask="url(#mask-2024-03-04)" width="16" fill="#3e4053" y="182.20208378554375" x="0" height="3.7312784892554807px"></rect><rect mask="url(#mask-2024-03-04)" width="16" fill="#3e4053" y="180.6001736487953" x="0" height="1.6019101367484263px"></rect><rect mask="url(#mask-2024-03-04)" width="16" fill="#3e4053" y="176.2437594964185" x="0" height="4.356414152376818px"></rect><rect mask="url(#mask-2024-03-04)" width="16" fill="#b276b2" y="97.16409811156934" x="0" height="79.07966138484915px"></rect><text transform="rotate(90, 4, 113.16409811156934)" letter-spacing="5" y="113.16409811156934" x="4" rotate="-90" class="xp-txt xp-txt-invert">5520 XP</text></svg><text x="2" y="198" class="subtitle">Mar</text><text x="6" y="214" class="subtitle">04</text></g></g><g transform="translate(568, 0)"><g transform="translate(0, 0)"><rect rx="5" x="2" y="7" height="12" width="12" fill="#3572A5"></rect><text x="18" y="18" class="lang-name">Python</text></g><g transform="translate(0, 20)"><rect rx="5" x="2" y="7" height="12" width="12" fill="#00ADD8"></rect><text x="18" y="18" class="lang-name">Go</text></g><g transform="translate(0, 40)"><rect rx="5" x="2" y="7" height="12" width="12" fill="#3e4053"></rect><text x="18" y="18" class="lang-name">TOML</text></g><g transform="translate(0, 60)"><rect rx="5" x="2" y="7" height="12" width="12" fill="#3e4053"></rect><text x="18" y="18" class="lang-name">proto3</text></g><g transform="translate(0, 80)"><rect rx="5" x="2" y="7" height="12" width="12" fill="#3e4053"></rect><text x="18" y="18" class="lang-name">CSV</text></g><g transform="translate(0, 100)"><rect rx="5" x="2" y="7" height="12" width="12" fill="#3e4053"></rect><text x="18" y="18" class="lang-name">Docker</text></g><g transform="translate(0, 120)"><rect rx="5" x="2" y="7" height="12" width="12" fill="#3e4053"></rect><text x="18" y="18" class="lang-name">JSON</text></g><g transform="translate(0, 140)"><rect rx="5" x="2" y="7" height="12" width="12" fill="#3e4053"></rect><text x="18" y="18" class="lang-name">VS Code Input</text></g><g transform="translate(0, 160)"><rect rx="5" x="2" y="7" height="12" width="12" fill="#3e4053"></rect><text x="18" y="18" class="lang-name">Other</text></g></g></svg></g></svg>