<svg width="745" height="300" viewBox="0 0 745 300" fill="none" xmlns="http://www.w3.org/2000/svg"><style>
					.header {
						font: 600 18px &#x27;Segoe UI&#x27;, Ubuntu, Sans-Serif;
						fill: #3d858f;
						animation: fadeInAnimation 0.8s ease-in-out forwards;
					}
					
	.lang-name {
		font: 400 16px &#x27;Segoe UI&#x27;, Ubuntu, Sans-Serif;
		fill: #ffffffcc;
	}
	.xp-txt {
		font: 400 12px &#x27;Segoe UI&#x27;, Ubuntu, Sans-Serif;
		fill: black;
	}
	.xp-txt-invert {
		font: 600 12px &#x27;Segoe UI&#x27;, Ubuntu, Sans-Serif;
		fill: white;
	}
	.subtitle {
		font: 400 14px &#x27;Segoe UI&#x27;, Ubuntu, Sans-Serif;
		fill: #ffffffcc;
	}


					/* Animations */
					@keyframes scaleInAnimation {
						from {
							transform: translate(-5px, 5px) scale(0);
						}
						to {
							transform: translate(-5px, 5px) scale(1);
						}
					}
					@keyframes fadeInAnimation {
						from {
							opacity: 0;
						}
						to {
							opacity: 1;
						}
					}
				</style><rect x="0.5" y="0.5" rx="4.5" height="99%" stroke="#E4E2E2" width="744" fill="#151515" stroke-opacity="0"></rect><g transform="translate(25, 35)"><g transform="translate(0, 0)"><text x="0" y="0" class="header">Coding History of the last two weeks</text></g></g><g transform="translate(0, 55)"><svg x="25"><g transform="translate(0, 0)"><g transform="translate(0, 0)"><svg x="7" y="-20" height="240"><mask id="mask-2024-03-10"><rect x="0" y="205" width="16" height="0" fill="white" rx="5"></rect></mask><rect rx="5" ry="5" x="0" y="25" width="16" height="180" fill="#ddd"></rect><text transform="rotate(90, 4, 153)" letter-spacing="5" y="153" x="4" rotate="-90" class="xp-txt">0 XP</text></svg><text x="2" y="198" class="subtitle">Mar</text><text x="6" y="214" class="subtitle">10</text></g><g transform="translate(40, 0)"><svg x="7" y="-20" height="240"><mask id="mask-2024-03-11"><rect x="0" y="204.19237240605722" width="16" height="0.807627593942793" fill="white" rx="5"></rect></mask><rect rx="5" ry="5" x="0" y="25" width="16" height="180" fill="#ddd"></rect><rect mask="url(#mask-2024-03-11)" width="16" fill="#b276b2" y="204.19237240605722" x="0" height="0.807627593942793px"></rect><text transform="rotate(90, 4, 139.19237240605722)" letter-spacing="5" y="139.19237240605722" x="4" rotate="-90" class="xp-txt">24 XP</text></svg><text x="2" y="198" class="subtitle">Mar</text><text x="6" y="214" class="subtitle">11</text></g><g transform="translate(80, 0)"><svg x="7" y="-20" height="240"><mask id="mask-2024-03-13"><rect x="0" y="205" width="16" height="0" fill="white" rx="5"></rect></mask><rect rx="5" ry="5" x="0" y="25" width="16" height="180" fill="#ddd"></rect><text transform="rotate(90, 4, 153)" letter-spacing="5" y="153" x="4" rotate="-90" class="xp-txt">0 XP</text></svg><text x="2" y="198" class="subtitle">Mar</text><text x="6" y="214" class="subtitle">13</text></g><g transform="translate(120, 0)"><svg x="7" y="-20" height="240"><mask id="mask-2024-03-14"><rect x="0" y="204.3942793045429" width="16" height="0.6057206954570948" fill="white" rx="5"></rect></mask><rect rx="5" ry="5" x="0" y="25" width="16" height="180" fill="#ddd"></rect><rect mask="url(#mask-2024-03-14)" width="16" fill="#b276b2" y="204.3942793045429" x="0" height="0.6057206954570948px"></rect><text transform="rotate(90, 4, 139.3942793045429)" letter-spacing="5" y="139.3942793045429" x="4" rotate="-90" class="xp-txt">18 XP</text></svg><text x="2" y="198" class="subtitle">Mar</text><text x="6" y="214" class="subtitle">14</text></g><g transform="translate(160, 0)"><svg x="7" y="-20" height="240"><mask id="mask-2024-03-15"><rect x="0" y="185.17947279865396" width="16" height="19.820527201346046" fill="white" rx="5"></rect></mask><rect rx="5" ry="5" x="0" y="25" width="16" height="180" fill="#ddd"></rect><rect mask="url(#mask-2024-03-15)" width="16" fill="#b276b2" y="185.17947279865396" x="0" height="19.820527201346046px"></rect><text transform="rotate(90, 4, 107.17947279865396)" letter-spacing="5" y="107.17947279865396" x="4" rotate="-90" class="xp-txt">589 XP</text></svg><text x="2" y="198" class="subtitle">Mar</text><text x="6" y="214" class="subtitle">15</text></g><g transform="translate(200, 0)"><svg x="7" y="-20" height="240"><mask id="mask-2024-03-16"><rect x="0" y="200.92821088053842" width="16" height="4.071789119461582" fill="white" rx="5"></rect></mask><rect rx="5" ry="5" x="0" y="25" width="16" height="180" fill="#ddd"></rect><rect mask="url(#mask-2024-03-16)" width="16" fill="#b276b2" y="200.92821088053842" x="0" height="4.071789119461582px"></rect><text transform="rotate(90, 4, 122.92821088053842)" letter-spacing="5" y="122.92821088053842" x="4" rotate="-90" class="xp-txt">121 XP</text></svg><text x="2" y="198" class="subtitle">Mar</text><text x="6" y="214" class="subtitle">16</text></g><g transform="translate(240, 0)"><svg x="7" y="-20" height="240"><mask id="mask-2024-03-17"><rect x="0" y="205" width="16" height="0" fill="white" rx="5"></rect></mask><rect rx="5" ry="5" x="0" y="25" width="16" height="180" fill="#ddd"></rect><text transform="rotate(90, 4, 153)" letter-spacing="5" y="153" x="4" rotate="-90" class="xp-txt">0 XP</text></svg><text x="2" y="198" class="subtitle">Mar</text><text x="6" y="214" class="subtitle">17</text></g><g transform="translate(280, 0)"><svg x="7" y="-20" height="240"><mask id="mask-2024-03-18"><rect x="0" y="167.10880538418397" width="16" height="37.89119461581604" fill="white" rx="5"></rect></mask><rect rx="5" ry="5" x="0" y="25" width="16" height="180" fill="#ddd"></rect><rect mask="url(#mask-2024-03-18)" width="16" fill="#3572A5" y="197.12563095905776" x="0" height="7.8743690409422324px"></rect><rect mask="url(#mask-2024-03-18)" width="16" fill="#3e4053" y="196.9573752103197" x="0" height="0.16825574873808188px"></rect><rect mask="url(#mask-2024-03-18)" width="16" fill="#3e4053" y="196.7891194615816" x="0" height="0.16825574873808188px"></rect><rect mask="url(#mask-2024-03-18)" width="16" fill="#3e4053" y="196.25070106561975" x="0" height="0.538418395961862px"></rect><rect mask="url(#mask-2024-03-18)" width="16" fill="#b276b2" y="167.10880538418397" x="0" height="29.141895681435784px"></rect><text transform="rotate(90, 4, 76.10880538418397)" letter-spacing="5" y="76.10880538418397" x="4" rotate="-90" class="xp-txt">1126 XP</text></svg><text x="2" y="198" class="subtitle">Mar</text><text x="6" y="214" class="subtitle">18</text></g><g transform="translate(320, 0)"><svg x="7" y="-20" height="240"><mask id="mask-2024-03-19"><rect x="0" y="25" width="16" height="180" fill="white" rx="5"></rect></mask><rect rx="5" ry="5" x="0" y="25" width="16" height="180" fill="#ddd"></rect><rect mask="url(#mask-2024-03-19)" width="16" fill="#cb171e" y="186.3236118900729" x="0" height="18.67638810992709px"></rect><rect mask="url(#mask-2024-03-19)" width="16" fill="#3572A5" y="183.26135726303983" x="0" height="3.06225462703309px"></rect><rect mask="url(#mask-2024-03-19)" width="16" fill="#3e4053" y="178.18003365114976" x="0" height="5.081323611890073px"></rect><rect mask="url(#mask-2024-03-19)" width="16" fill="#f34b7d" y="167.51261918115534" x="0" height="10.667414469994391px"></rect><rect mask="url(#mask-2024-03-19)" width="16" fill="#3e4053" y="157.24901850813237" x="0" height="10.263600673022996px"></rect><rect mask="url(#mask-2024-03-19)" width="16" fill="#3e4053" y="154.75883342680874" x="0" height="2.4901850813236117px"></rect><rect mask="url(#mask-2024-03-19)" width="16" fill="#b276b2" y="25" x="0" height="129.75883342680874px"></rect><text transform="rotate(90, 4, 41)" letter-spacing="5" y="41" x="4" rotate="-90" class="xp-txt xp-txt-invert">5349 XP</text></svg><text x="2" y="198" class="subtitle">Mar</text><text x="6" y="214" class="subtitle">19</text></g><g transform="translate(360, 0)"><svg x="7" y="-20" height="240"><mask id="mask-2024-03-20"><rect x="0" y="140.2551878855861" width="16" height="64.7448121144139" fill="white" rx="5"></rect></mask><rect rx="5" ry="5" x="0" y="25" width="16" height="180" fill="#ddd"></rect><rect mask="url(#mask-2024-03-20)" width="16" fill="#3572A5" y="199.4139091418957" x="0" height="5.586090858104319px"></rect><rect mask="url(#mask-2024-03-20)" width="16" fill="#3e4053" y="199.34660684240046" x="0" height="0.06730229949523275px"></rect><rect mask="url(#mask-2024-03-20)" width="16" fill="#f34b7d" y="198.97644419517667" x="0" height="0.3701626472237802px"></rect><rect mask="url(#mask-2024-03-20)" width="16" fill="#3e4053" y="198.74088614694335" x="0" height="0.23555804823331464px"></rect><rect mask="url(#mask-2024-03-20)" width="16" fill="#3e4053" y="198.47167694896243" x="0" height="0.269209197980931px"></rect><rect mask="url(#mask-2024-03-20)" width="16" fill="#b276b2" y="140.2551878855861" x="0" height="58.21648906337633px"></rect><text transform="rotate(90, 4, 49.25518788558611)" letter-spacing="5" y="49.25518788558611" x="4" rotate="-90" class="xp-txt">1924 XP</text></svg><text x="2" y="198" class="subtitle">Mar</text><text x="6" y="214" class="subtitle">20</text></g><g transform="translate(400, 0)"><svg x="7" y="-20" height="240"><mask id="mask-2024-03-21"><rect x="0" y="80.86090858104319" width="16" height="124.13909141895681" fill="white" rx="5"></rect></mask><rect rx="5" ry="5" x="0" y="25" width="16" height="180" fill="#ddd"></rect><rect mask="url(#mask-2024-03-21)" width="16" fill="#00B4AB" y="110.97868760515985" x="0" height="94.02131239484015px"></rect><rect mask="url(#mask-2024-03-21)" width="16" fill="#cb171e" y="110.81043185642176" x="0" height="0.16825574873808188px"></rect><rect mask="url(#mask-2024-03-21)" width="16" fill="#3572A5" y="106.90689848569826" x="0" height="3.9035333707235px"></rect><rect mask="url(#mask-2024-03-21)" width="16" fill="#3e4053" y="100.17666853617499" x="0" height="6.730229949523276px"></rect><rect mask="url(#mask-2024-03-21)" width="16" fill="#3e4053" y="100.04206393718452" x="0" height="0.1346045989904655px"></rect><rect mask="url(#mask-2024-03-21)" width="16" fill="#b276b2" y="80.86090858104319" x="0" height="19.181155356141335px"></rect><text transform="rotate(90, 4, 96.86090858104319)" letter-spacing="5" y="96.86090858104319" x="4" rotate="-90" class="xp-txt xp-txt-invert">3689 XP</text></svg><text x="2" y="198" class="subtitle">Mar</text><text x="6" y="214" class="subtitle">21</text></g><g transform="translate(440, 0)"><svg x="7" y="-20" height="240"><mask id="mask-2024-03-22"><rect x="0" y="87.6920919798093" width="16" height="117.3079080201907" fill="white" rx="5"></rect></mask><rect rx="5" ry="5" x="0" y="25" width="16" height="180" fill="#ddd"></rect><rect mask="url(#mask-2024-03-22)" width="16" fill="#00B4AB" y="99.57094784071789" x="0" height="105.42905215928211px"></rect><rect mask="url(#mask-2024-03-22)" width="16" fill="#cb171e" y="97.78743690409422" x="0" height="1.7835109366236679px"></rect><rect mask="url(#mask-2024-03-22)" width="16" fill="#3e4053" y="94.01850813236119" x="0" height="3.768928771733034px"></rect><rect mask="url(#mask-2024-03-22)" width="16" fill="#b276b2" y="87.6920919798093" x="0" height="6.326416152551879px"></rect><text transform="rotate(90, 4, 103.6920919798093)" letter-spacing="5" y="103.6920919798093" x="4" rotate="-90" class="xp-txt xp-txt-invert">3486 XP</text></svg><text x="2" y="198" class="subtitle">Mar</text><text x="6" y="214" class="subtitle">22</text></g></g><g transform="translate(536, 0)"><g transform="translate(0, 0)"><rect rx="5" x="2" y="7" height="12" width="12" fill="#00B4AB"></rect><text x="18" y="18" class="lang-name">Dart</text></g><g transform="translate(0, 20)"><rect rx="5" x="2" y="7" height="12" width="12" fill="#cb171e"></rect><text x="18" y="18" class="lang-name">YAML</text></g><g transform="translate(0, 40)"><rect rx="5" x="2" y="7" height="12" width="12" fill="#3572A5"></rect><text x="18" y="18" class="lang-name">Python</text></g><g transform="translate(0, 60)"><rect rx="5" x="2" y="7" height="12" width="12" fill="#3e4053"></rect><text x="18" y="18" class="lang-name">VS Code Input</text></g><g transform="translate(0, 80)"><rect rx="5" x="2" y="7" height="12" width="12" fill="#f34b7d"></rect><text x="18" y="18" class="lang-name">C++</text></g><g transform="translate(0, 100)"><rect rx="5" x="2" y="7" height="12" width="12" fill="#3e4053"></rect><text x="18" y="18" class="lang-name">Docker</text></g><g transform="translate(0, 120)"><rect rx="5" x="2" y="7" height="12" width="12" fill="#3e4053"></rect><text x="18" y="18" class="lang-name">TOML</text></g><g transform="translate(0, 140)"><rect rx="5" x="2" y="7" height="12" width="12" fill="#3e4053"></rect><text x="18" y="18" class="lang-name">JSON</text></g><g transform="translate(0, 160)"><rect rx="5" x="2" y="7" height="12" width="12" fill="#3e4053"></rect><text x="18" y="18" class="lang-name">Other</text></g></g></svg></g></svg>