<svg width="745" height="300" viewBox="0 0 745 300" fill="none" xmlns="http://www.w3.org/2000/svg"><style>
					.header {
						font: 600 18px &#x27;Segoe UI&#x27;, Ubuntu, Sans-Serif;
						fill: #3d858f;
						animation: fadeInAnimation 0.8s ease-in-out forwards;
					}
					
	.lang-name {
		font: 400 16px &#x27;Segoe UI&#x27;, Ubuntu, Sans-Serif;
		fill: #ffffffcc;
	}
	.xp-txt {
		font: 400 12px &#x27;Segoe UI&#x27;, Ubuntu, Sans-Serif;
		fill: black;
	}
	.xp-txt-invert {
		font: 600 12px &#x27;Segoe UI&#x27;, Ubuntu, Sans-Serif;
		fill: white;
	}
	.subtitle {
		font: 400 14px &#x27;Segoe UI&#x27;, Ubuntu, Sans-Serif;
		fill: #ffffffcc;
	}


					/* Animations */
					@keyframes scaleInAnimation {
						from {
							transform: translate(-5px, 5px) scale(0);
						}
						to {
							transform: translate(-5px, 5px) scale(1);
						}
					}
					@keyframes fadeInAnimation {
						from {
							opacity: 0;
						}
						to {
							opacity: 1;
						}
					}
				</style><rect x="0.5" y="0.5" rx="4.5" height="99%" stroke="#E4E2E2" width="744" fill="#151515" stroke-opacity="0"></rect><g transform="translate(25, 35)"><g transform="translate(0, 0)"><text x="0" y="0" class="header">Coding History of the last two weeks</text></g></g><g transform="translate(0, 55)"><svg x="25"><g transform="translate(0, 0)"><g transform="translate(0, 0)"><svg x="7" y="-20" height="240"><mask id="mask-2023-11-15"><rect x="0" y="175.59245960502693" width="16" height="29.40754039497307" fill="white" rx="5"></rect></mask><rect rx="5" ry="5" x="0" y="25" width="16" height="180" fill="#ddd"></rect><rect mask="url(#mask-2023-11-15)" width="16" fill="#b276b2" y="175.59245960502693" x="0" height="29.40754039497307px"></rect><text transform="rotate(90, 4, 97.59245960502693)" letter-spacing="5" y="97.59245960502693" x="4" rotate="-90" class="xp-txt">455 XP</text></svg><text x="2" y="198" class="subtitle">Nov</text><text x="6" y="214" class="subtitle">15</text></g><g transform="translate(40, 0)"><svg x="7" y="-20" height="240"><mask id="mask-2023-11-16"><rect x="0" y="205" width="16" height="0" fill="white" rx="5"></rect></mask><rect rx="5" ry="5" x="0" y="25" width="16" height="180" fill="#ddd"></rect><text transform="rotate(90, 4, 153)" letter-spacing="5" y="153" x="4" rotate="-90" class="xp-txt">0 XP</text></svg><text x="2" y="198" class="subtitle">Nov</text><text x="6" y="214" class="subtitle">16</text></g><g transform="translate(80, 0)"><svg x="7" y="-20" height="240"><mask id="mask-2023-11-17"><rect x="0" y="194.78815080789946" width="16" height="10.211849192100539" fill="white" rx="5"></rect></mask><rect rx="5" ry="5" x="0" y="25" width="16" height="180" fill="#ddd"></rect><rect mask="url(#mask-2023-11-17)" width="16" fill="#b276b2" y="194.78815080789946" x="0" height="10.211849192100539px"></rect><text transform="rotate(90, 4, 116.78815080789946)" letter-spacing="5" y="116.78815080789946" x="4" rotate="-90" class="xp-txt">158 XP</text></svg><text x="2" y="198" class="subtitle">Nov</text><text x="6" y="214" class="subtitle">17</text></g><g transform="translate(120, 0)"><svg x="7" y="-20" height="240"><mask id="mask-2023-11-18"><rect x="0" y="197.05026929982046" width="16" height="7.949730700179534" fill="white" rx="5"></rect></mask><rect rx="5" ry="5" x="0" y="25" width="16" height="180" fill="#ddd"></rect><rect mask="url(#mask-2023-11-18)" width="16" fill="#b276b2" y="197.05026929982046" x="0" height="7.949730700179534px"></rect><text transform="rotate(90, 4, 119.05026929982046)" letter-spacing="5" y="119.05026929982046" x="4" rotate="-90" class="xp-txt">123 XP</text></svg><text x="2" y="198" class="subtitle">Nov</text><text x="6" y="214" class="subtitle">18</text></g><g transform="translate(160, 0)"><svg x="7" y="-20" height="240"><mask id="mask-2023-11-19"><rect x="0" y="172.29622980251347" width="16" height="32.703770197486534" fill="white" rx="5"></rect></mask><rect rx="5" ry="5" x="0" y="25" width="16" height="180" fill="#ddd"></rect><rect mask="url(#mask-2023-11-19)" width="16" fill="#b276b2" y="172.29622980251347" x="0" height="32.703770197486534px"></rect><text transform="rotate(90, 4, 94.29622980251347)" letter-spacing="5" y="94.29622980251347" x="4" rotate="-90" class="xp-txt">506 XP</text></svg><text x="2" y="198" class="subtitle">Nov</text><text x="6" y="214" class="subtitle">19</text></g><g transform="translate(200, 0)"><svg x="7" y="-20" height="240"><mask id="mask-2023-11-20"><rect x="0" y="163.05385996409336" width="16" height="41.946140035906645" fill="white" rx="5"></rect></mask><rect rx="5" ry="5" x="0" y="25" width="16" height="180" fill="#ddd"></rect><rect mask="url(#mask-2023-11-20)" width="16" fill="#b276b2" y="163.05385996409336" x="0" height="41.946140035906645px"></rect><text transform="rotate(90, 4, 85.05385996409336)" letter-spacing="5" y="85.05385996409336" x="4" rotate="-90" class="xp-txt">649 XP</text></svg><text x="2" y="198" class="subtitle">Nov</text><text x="6" y="214" class="subtitle">20</text></g><g transform="translate(240, 0)"><svg x="7" y="-20" height="240"><mask id="mask-2023-11-21"><rect x="0" y="25" width="16" height="180" fill="white" rx="5"></rect></mask><rect rx="5" ry="5" x="0" y="25" width="16" height="180" fill="#ddd"></rect><rect mask="url(#mask-2023-11-21)" width="16" fill="#3572A5" y="146.12028725314184" x="0" height="58.87971274685817px"></rect><rect mask="url(#mask-2023-11-21)" width="16" fill="#b276b2" y="25" x="0" height="121.12028725314183px"></rect><text transform="rotate(90, 4, 41)" letter-spacing="5" y="41" x="4" rotate="-90" class="xp-txt xp-txt-invert">2785 XP</text></svg><text x="2" y="198" class="subtitle">Nov</text><text x="6" y="214" class="subtitle">21</text></g><g transform="translate(280, 0)"><svg x="7" y="-20" height="240"><mask id="mask-2023-11-22"><rect x="0" y="135.84380610412927" width="16" height="69.15619389587074" fill="white" rx="5"></rect></mask><rect rx="5" ry="5" x="0" y="25" width="16" height="180" fill="#ddd"></rect><rect mask="url(#mask-2023-11-22)" width="16" fill="#b276b2" y="135.84380610412927" x="0" height="69.15619389587074px"></rect><text transform="rotate(90, 4, 44.84380610412927)" letter-spacing="5" y="44.84380610412927" x="4" rotate="-90" class="xp-txt">1070 XP</text></svg><text x="2" y="198" class="subtitle">Nov</text><text x="6" y="214" class="subtitle">22</text></g><g transform="translate(320, 0)"><svg x="7" y="-20" height="240"><mask id="mask-2023-11-23"><rect x="0" y="202.2854578096948" width="16" height="2.7145421903052065" fill="white" rx="5"></rect></mask><rect rx="5" ry="5" x="0" y="25" width="16" height="180" fill="#ddd"></rect><rect mask="url(#mask-2023-11-23)" width="16" fill="#b276b2" y="202.2854578096948" x="0" height="2.7145421903052065px"></rect><text transform="rotate(90, 4, 137.2854578096948)" letter-spacing="5" y="137.2854578096948" x="4" rotate="-90" class="xp-txt">42 XP</text></svg><text x="2" y="198" class="subtitle">Nov</text><text x="6" y="214" class="subtitle">23</text></g><g transform="translate(360, 0)"><svg x="7" y="-20" height="240"><mask id="mask-2023-11-24"><rect x="0" y="202.80251346499102" width="16" height="2.1974865350089767" fill="white" rx="5"></rect></mask><rect rx="5" ry="5" x="0" y="25" width="16" height="180" fill="#ddd"></rect><rect mask="url(#mask-2023-11-24)" width="16" fill="#b276b2" y="202.80251346499102" x="0" height="2.1974865350089767px"></rect><text transform="rotate(90, 4, 137.80251346499102)" letter-spacing="5" y="137.80251346499102" x="4" rotate="-90" class="xp-txt">34 XP</text></svg><text x="2" y="198" class="subtitle">Nov</text><text x="6" y="214" class="subtitle">24</text></g><g transform="translate(400, 0)"><svg x="7" y="-20" height="240"><mask id="mask-2023-11-26"><rect x="0" y="205" width="16" height="0" fill="white" rx="5"></rect></mask><rect rx="5" ry="5" x="0" y="25" width="16" height="180" fill="#ddd"></rect><text transform="rotate(90, 4, 153)" letter-spacing="5" y="153" x="4" rotate="-90" class="xp-txt">0 XP</text></svg><text x="2" y="198" class="subtitle">Nov</text><text x="6" y="214" class="subtitle">26</text></g><g transform="translate(440, 0)"><svg x="7" y="-20" height="240"><mask id="mask-2023-11-27"><rect x="0" y="182.89587073608618" width="16" height="22.104129263913823" fill="white" rx="5"></rect></mask><rect rx="5" ry="5" x="0" y="25" width="16" height="180" fill="#ddd"></rect><rect mask="url(#mask-2023-11-27)" width="16" fill="#b276b2" y="182.89587073608618" x="0" height="22.104129263913823px"></rect><text transform="rotate(90, 4, 104.89587073608618)" letter-spacing="5" y="104.89587073608618" x="4" rotate="-90" class="xp-txt">342 XP</text></svg><text x="2" y="198" class="subtitle">Nov</text><text x="6" y="214" class="subtitle">27</text></g></g><g transform="translate(536, 0)"><g transform="translate(0, 0)"><rect rx="5" x="2" y="7" height="12" width="12" fill="#3572A5"></rect><text x="18" y="18" class="lang-name">Python</text></g><g transform="translate(0, 20)"><rect rx="5" x="2" y="7" height="12" width="12" fill="#3e4053"></rect><text x="18" y="18" class="lang-name">Other</text></g></g></svg></g></svg>