<svg width="550" height="340" viewBox="0 0 550 340" fill="none" xmlns="http://www.w3.org/2000/svg"><style>
					.header {
						font: 600 18px &#x27;Segoe UI&#x27;, Ubuntu, Sans-Serif;
						fill: #3d858f;
						animation: fadeInAnimation 0.8s ease-in-out forwards;
					}
					
		.lang-name {
			font: 400 11px &#x27;Segoe UI&#x27;, Ubuntu, Sans-Serif;
			fill: #ffffffcc;
		}
	

					/* Animations */
					@keyframes scaleInAnimation {
						from {
							transform: translate(-5px, 5px) scale(0);
						}
						to {
							transform: translate(-5px, 5px) scale(1);
						}
					}
					@keyframes fadeInAnimation {
						from {
							opacity: 0;
						}
						to {
							opacity: 1;
						}
					}
				</style><rect x="0.5" y="0.5" rx="4.5" height="99%" stroke="#E4E2E2" width="549" fill="#151515" stroke-opacity="0"></rect><g transform="translate(25, 35)"><g transform="translate(0, 0)"><text x="0" y="0" class="header">Most Coded Languages</text></g></g><g transform="translate(0, 55)"><svg x="25"><mask id="rect-mask"><rect x="0" y="0" width="500" height="8" fill="white" rx="5"></rect></mask><rect mask="url(#rect-mask)" data-testid="lang-progress" x="0" y="0" width="190.21" height="8" fill="#3572A5"></rect><rect mask="url(#rect-mask)" data-testid="lang-progress" x="190.21" y="0" width="90.77" height="8" fill="#00B4AB"></rect><rect mask="url(#rect-mask)" data-testid="lang-progress" x="280.98" y="0" width="44.17" height="8" fill="#00ADD8"></rect><rect mask="url(#rect-mask)" data-testid="lang-progress" x="325.15000000000003" y="0" width="40.39" height="8" fill="#083fa1"></rect><rect mask="url(#rect-mask)" data-testid="lang-progress" x="365.54" y="0" width="33.87" height="8" fill="#178600"></rect><rect mask="url(#rect-mask)" data-testid="lang-progress" x="399.41" y="0" width="16.99" height="8" fill="#dea584"></rect><rect mask="url(#rect-mask)" data-testid="lang-progress" x="416.40000000000003" y="0" width="19.46" height="8" fill="#427819"></rect><rect mask="url(#rect-mask)" data-testid="lang-progress" x="425.86" y="0" width="18.84" height="8" fill="#3e4053"></rect><rect mask="url(#rect-mask)" data-testid="lang-progress" x="434.7" y="0" width="18.54" height="8" fill="#2c3e50"></rect><rect mask="url(#rect-mask)" data-testid="lang-progress" x="443.24" y="0" width="18.52" height="8" fill="#cb171e"></rect><rect mask="url(#rect-mask)" data-testid="lang-progress" x="451.76" y="0" width="17.67" height="8" fill="#3e4053"></rect><rect mask="url(#rect-mask)" data-testid="lang-progress" x="459.43" y="0" width="15.34" height="8" fill="#e34c26"></rect><rect mask="url(#rect-mask)" data-testid="lang-progress" x="464.77" y="0" width="15.11" height="8" fill="#563d7c"></rect><rect mask="url(#rect-mask)" data-testid="lang-progress" x="469.88" y="0" width="15.01" height="8" fill="#f1e05a"></rect><rect mask="url(#rect-mask)" data-testid="lang-progress" x="474.89" y="0" width="14.969999999999999" height="8" fill="#2b7489"></rect><rect mask="url(#rect-mask)" data-testid="lang-progress" x="479.86" y="0" width="14.85" height="8" fill="#3e4053"></rect><rect mask="url(#rect-mask)" data-testid="lang-progress" x="484.71000000000004" y="0" width="14.43" height="8" fill="#3be133"></rect><rect mask="url(#rect-mask)" data-testid="lang-progress" x="489.14000000000004" y="0" width="14.14" height="8" fill="#3e4053"></rect><rect mask="url(#rect-mask)" data-testid="lang-progress" x="493.28000000000003" y="0" width="13.57" height="8" fill="#3e4053"></rect><rect mask="url(#rect-mask)" data-testid="lang-progress" x="496.85" y="0" width="13.129999999999999" height="8" fill="#3e4053"></rect><g transform="translate(0, 25)"><circle cx="5" cy="6" r="5" fill="#3572A5"></circle><text data-testid="lang-name" x="15" y="10" class="lang-name">Python 38.04%</text></g><g transform="translate(150, 25)"><circle cx="5" cy="6" r="5" fill="#00B4AB"></circle><text data-testid="lang-name" x="15" y="10" class="lang-name">Dart 18.15%</text></g><g transform="translate(0, 50)"><circle cx="5" cy="6" r="5" fill="#00ADD8"></circle><text data-testid="lang-name" x="15" y="10" class="lang-name">Go 8.83%</text></g><g transform="translate(150, 50)"><circle cx="5" cy="6" r="5" fill="#083fa1"></circle><text data-testid="lang-name" x="15" y="10" class="lang-name">Markdown 8.08%</text></g><g transform="translate(0, 75)"><circle cx="5" cy="6" r="5" fill="#178600"></circle><text data-testid="lang-name" x="15" y="10" class="lang-name">C# 6.77%</text></g><g transform="translate(150, 75)"><circle cx="5" cy="6" r="5" fill="#dea584"></circle><text data-testid="lang-name" x="15" y="10" class="lang-name">Rust 3.4%</text></g><g transform="translate(0, 100)"><circle cx="5" cy="6" r="5" fill="#427819"></circle><text data-testid="lang-name" x="15" y="10" class="lang-name">Makefile 1.89%</text></g><g transform="translate(150, 100)"><circle cx="5" cy="6" r="5" fill="#3e4053"></circle><text data-testid="lang-name" x="15" y="10" class="lang-name">VS Code Input 1.77%</text></g><g transform="translate(0, 125)"><circle cx="5" cy="6" r="5" fill="#2c3e50"></circle><text data-testid="lang-name" x="15" y="10" class="lang-name">Vue 1.71%</text></g><g transform="translate(150, 125)"><circle cx="5" cy="6" r="5" fill="#cb171e"></circle><text data-testid="lang-name" x="15" y="10" class="lang-name">YAML 1.7%</text></g><g transform="translate(0, 150)"><circle cx="5" cy="6" r="5" fill="#3e4053"></circle><text data-testid="lang-name" x="15" y="10" class="lang-name">JSON 1.53%</text></g><g transform="translate(150, 150)"><circle cx="5" cy="6" r="5" fill="#e34c26"></circle><text data-testid="lang-name" x="15" y="10" class="lang-name">HTML 1.07%</text></g><g transform="translate(0, 175)"><circle cx="5" cy="6" r="5" fill="#563d7c"></circle><text data-testid="lang-name" x="15" y="10" class="lang-name">CSS 1.02%</text></g><g transform="translate(150, 175)"><circle cx="5" cy="6" r="5" fill="#f1e05a"></circle><text data-testid="lang-name" x="15" y="10" class="lang-name">JavaScript 1%</text></g><g transform="translate(0, 200)"><circle cx="5" cy="6" r="5" fill="#2b7489"></circle><text data-testid="lang-name" x="15" y="10" class="lang-name">TypeScript 0.99%</text></g><g transform="translate(150, 200)"><circle cx="5" cy="6" r="5" fill="#3e4053"></circle><text data-testid="lang-name" x="15" y="10" class="lang-name">Docker 0.97%</text></g><g transform="translate(0, 225)"><circle cx="5" cy="6" r="5" fill="#3be133"></circle><text data-testid="lang-name" x="15" y="10" class="lang-name">OCaml 0.89%</text></g><g transform="translate(150, 225)"><circle cx="5" cy="6" r="5" fill="#3e4053"></circle><text data-testid="lang-name" x="15" y="10" class="lang-name">TOML 0.83%</text></g><g transform="translate(0, 250)"><circle cx="5" cy="6" r="5" fill="#3e4053"></circle><text data-testid="lang-name" x="15" y="10" class="lang-name">CSV 0.71%</text></g><g transform="translate(150, 250)"><circle cx="5" cy="6" r="5" fill="#3e4053"></circle><text data-testid="lang-name" x="15" y="10" class="lang-name">proto3 0.63%</text></g></svg></g></svg>