<svg width="465" height="300" viewBox="0 0 465 300" fill="none" xmlns="http://www.w3.org/2000/svg"><style>
					.header {
						font: 600 18px &#x27;Segoe UI&#x27;, Ubuntu, Sans-Serif;
						fill: #3d858f;
						animation: fadeInAnimation 0.8s ease-in-out forwards;
					}
					
	.lang-name {
		font: 400 16px &#x27;Segoe UI&#x27;, Ubuntu, Sans-Serif;
		fill: #ffffffcc;
	}
	.xp-txt {
		font: 400 12px &#x27;Segoe UI&#x27;, Ubuntu, Sans-Serif;
		fill: black;
	}
	.xp-txt-invert {
		font: 600 12px &#x27;Segoe UI&#x27;, Ubuntu, Sans-Serif;
		fill: white;
	}
	.subtitle {
		font: 400 14px &#x27;Segoe UI&#x27;, Ubuntu, Sans-Serif;
		fill: #ffffffcc;
	}


					/* Animations */
					@keyframes scaleInAnimation {
						from {
							transform: translate(-5px, 5px) scale(0);
						}
						to {
							transform: translate(-5px, 5px) scale(1);
						}
					}
					@keyframes fadeInAnimation {
						from {
							opacity: 0;
						}
						to {
							opacity: 1;
						}
					}
				</style><rect x="0.5" y="0.5" rx="4.5" height="99%" stroke="#E4E2E2" width="464" fill="#151515" stroke-opacity="0"></rect><g transform="translate(25, 35)"><g transform="translate(0, 0)"><text x="0" y="0" class="header">Coding History of the last two weeks</text></g></g><g transform="translate(0, 55)"><svg x="25"><g transform="translate(0, 0)"><g transform="translate(0, 0)"><svg x="7" y="-20" height="240"><mask id="mask-2026-09-02"><rect x="0" y="25" width="16" height="180" fill="white" rx="5"></rect></mask><rect rx="5" ry="5" x="0" y="25" width="16" height="180" fill="#ddd"></rect><rect mask="url(#mask-2026-09-02)" width="16" fill="#083fa1" y="81.92358584187892" x="0" height="123.07641415812107px"></rect><rect mask="url(#mask-2026-09-02)" width="16" fill="#3e4053" y="28.274892490903078" x="0" height="53.648693350975854px"></rect><rect mask="url(#mask-2026-09-02)" width="16" fill="#3e4053" y="27.262652993714852" x="0" height="1.0122394971882236px"></rect><rect mask="url(#mask-2026-09-02)" width="16" fill="#3e4053" y="26.071782997022826" x="0" height="1.1908699966920278px"></rect><rect mask="url(#mask-2026-09-02)" width="16" fill="#3572A5" y="25.47634799867681" x="0" height="0.5954349983460139px"></rect><rect mask="url(#mask-2026-09-02)" width="16" fill="#3e4053" y="25.238173999338407" x="0" height="0.23817399933840555px"></rect><rect mask="url(#mask-2026-09-02)" width="16" fill="#b276b2" y="25" x="0" height="0.23817399933840555px"></rect><text transform="rotate(90, 4, 41)" letter-spacing="5" y="41" x="4" rotate="-90" class="xp-txt xp-txt-invert">3023 XP</text></svg><text x="2" y="198" class="subtitle">Sep</text><text x="6" y="214" class="subtitle">02</text></g><g transform="translate(40, 0)"><svg x="7" y="-20" height="240"><mask id="mask-2026-09-06"><rect x="0" y="205" width="16" height="0" fill="white" rx="5"></rect></mask><rect rx="5" ry="5" x="0" y="25" width="16" height="180" fill="#ddd"></rect><text transform="rotate(90, 4, 153)" letter-spacing="5" y="153" x="4" rotate="-90" class="xp-txt">0 XP</text></svg><text x="2" y="198" class="subtitle">Sep</text><text x="6" y="214" class="subtitle">06</text></g><g transform="translate(80, 0)"><svg x="7" y="-20" height="240"><mask id="mask-2026-09-07"><rect x="0" y="126.70029771749917" width="16" height="78.29970228250083" fill="white" rx="5"></rect></mask><rect rx="5" ry="5" x="0" y="25" width="16" height="180" fill="#ddd"></rect><rect mask="url(#mask-2026-09-07)" width="16" fill="#083fa1" y="164.45087661263645" x="0" height="40.549123387363544px"></rect><rect mask="url(#mask-2026-09-07)" width="16" fill="#3e4053" y="134.50049619583194" x="0" height="29.9503804168045px"></rect><rect mask="url(#mask-2026-09-07)" width="16" fill="#3e4053" y="130.27290770757526" x="0" height="4.227588488256699px"></rect><rect mask="url(#mask-2026-09-07)" width="16" fill="#3e4053" y="126.81938471716838" x="0" height="3.4535229904068805px"></rect><rect mask="url(#mask-2026-09-07)" width="16" fill="#b276b2" y="126.70029771749917" x="0" height="0.11908699966920278px"></rect><text transform="rotate(90, 4, 35.70029771749917)" letter-spacing="5" y="35.70029771749917" x="4" rotate="-90" class="xp-txt">1315 XP</text></svg><text x="2" y="198" class="subtitle">Sep</text><text x="6" y="214" class="subtitle">07</text></g><g transform="translate(120, 0)"><svg x="7" y="-20" height="240"><mask id="mask-2026-09-13"><rect x="0" y="205" width="16" height="0" fill="white" rx="5"></rect></mask><rect rx="5" ry="5" x="0" y="25" width="16" height="180" fill="#ddd"></rect><text transform="rotate(90, 4, 153)" letter-spacing="5" y="153" x="4" rotate="-90" class="xp-txt">0 XP</text></svg><text x="2" y="198" class="subtitle">Sep</text><text x="6" y="214" class="subtitle">13</text></g><g transform="translate(160, 0)"><svg x="7" y="-20" height="240"><mask id="mask-2026-09-14"><rect x="0" y="190.76910353953028" width="16" height="14.230896460469731" fill="white" rx="5"></rect></mask><rect rx="5" ry="5" x="0" y="25" width="16" height="180" fill="#ddd"></rect><rect mask="url(#mask-2026-09-14)" width="16" fill="#3e4053" y="192.5554085345683" x="0" height="12.44459146543169px"></rect><rect mask="url(#mask-2026-09-14)" width="16" fill="#3e4053" y="190.88819053919948" x="0" height="1.6672179953688389px"></rect><rect mask="url(#mask-2026-09-14)" width="16" fill="#b276b2" y="190.76910353953028" x="0" height="0.11908699966920278px"></rect><text transform="rotate(90, 4, 112.76910353953028)" letter-spacing="5" y="112.76910353953028" x="4" rotate="-90" class="xp-txt">239 XP</text></svg><text x="2" y="198" class="subtitle">Sep</text><text x="6" y="214" class="subtitle">14</text></g></g><g transform="translate(285, 0)"><g transform="translate(0, 0)"><rect rx="5" x="2" y="7" height="12" width="12" fill="#083fa1"></rect><text x="18" y="18" class="lang-name">Markdown</text></g><g transform="translate(0, 20)"><rect rx="5" x="2" y="7" height="12" width="12" fill="#3e4053"></rect><text x="18" y="18" class="lang-name">VS Code Input</text></g><g transform="translate(0, 40)"><rect rx="5" x="2" y="7" height="12" width="12" fill="#3e4053"></rect><text x="18" y="18" class="lang-name">TOML</text></g><g transform="translate(0, 60)"><rect rx="5" x="2" y="7" height="12" width="12" fill="#3e4053"></rect><text x="18" y="18" class="lang-name">CSV</text></g><g transform="translate(0, 80)"><rect rx="5" x="2" y="7" height="12" width="12" fill="#3e4053"></rect><text x="18" y="18" class="lang-name">Git</text></g><g transform="translate(0, 100)"><rect rx="5" x="2" y="7" height="12" width="12" fill="#3e4053"></rect><text x="18" y="18" class="lang-name">Docker</text></g><g transform="translate(0, 120)"><rect rx="5" x="2" y="7" height="12" width="12" fill="#3572A5"></rect><text x="18" y="18" class="lang-name">Python</text></g><g transform="translate(0, 140)"><rect rx="5" x="2" y="7" height="12" width="12" fill="#3e4053"></rect><text x="18" y="18" class="lang-name">Shell Script</text></g><g transform="translate(0, 160)"><rect rx="5" x="2" y="7" height="12" width="12" fill="#3e4053"></rect><text x="18" y="18" class="lang-name">Other</text></g></g></svg></g></svg>