<svg width="368.09375px" height="111.2px" xmlns="http://www.w3.org/2000/svg" viewBox="65.953125 19.4 368.09375 111.2" style="background: rgba(0, 0, 0, 0);" preserveAspectRatio="xMidYMid"><defs><filter id="editing-extrusion" x="-100%" y="-100%" width="300%" height="300%"><feFlood result="color1" flood-color="#444"></feFlood><feConvolveMatrix order="2,2" divisor="1" kernelMatrix="1 0 0 1" in="SourceAlpha" result="extrude"></feConvolveMatrix><feComposite in="color1" in2="extrude" result="comp-extrude" operator="in"></feComposite><feOffset dx="1" dy="1" in="comp-extrude" result="offset-extrude"></feOffset><feMerge><feMergeNode in="offset-extrude"></feMergeNode><feMergeNode in="SourceGraphic"></feMergeNode></feMerge></filter></defs><g filter="url(#editing-extrusion)"><g transform="translate(123.24998903274536, 96.63000106811523)"><path d="M26.37 0L22.34-11.65L9.47-11.65L5.44 0L1.02 0L15.74-40.58L16.26-40.58L30.98 0L26.37 0ZM10.69-15.10L21.18-15.10L15.94-30.34L10.69-15.10ZM49.02 0.70L49.02 0.70Q46.40 0.70 44.16-0.48L44.16-0.48L44.16-0.48Q41.92-1.66 40.38-3.84L40.38-3.84L38.78 0L35.84 0L35.84-42.56L41.09-42.56L41.09-42.11L41.09-42.11Q40.70-41.73 40.61-41.28L40.61-41.28L40.61-41.28Q40.51-40.83 40.51-39.74L40.51-39.74L40.51-24.77L40.51-24.77Q41.92-27.14 44.32-28.54L44.32-28.54L44.32-28.54Q46.72-29.95 49.22-29.95L49.22-29.95L49.22-29.95Q54.72-29.95 57.98-26.11L57.98-26.11L57.98-26.11Q61.25-22.27 61.25-14.91L61.25-14.91L61.25-14.91Q61.25-9.92 59.52-6.37L59.52-6.37L59.52-6.37Q57.79-2.82 54.98-1.06L54.98-1.06L54.98-1.06Q52.16 0.70 49.02 0.70L49.02 0.70ZM48.45-3.39L48.45-3.39Q51.90-3.39 54.21-6.11L54.21-6.11L54.21-6.11Q56.51-8.83 56.51-14.66L56.51-14.66L56.51-14.66Q56.51-20.29 54.37-23.14L54.37-23.14L54.37-23.14Q52.22-25.98 48.58-25.98L48.58-25.98L48.58-25.98Q44.99-25.98 42.75-22.78L42.75-22.78L42.75-22.78Q40.51-19.58 40.51-14.53L40.51-14.53L40.51-14.53Q40.51-3.39 48.45-3.39L48.45-3.39ZM80 0.51L80 0.51Q76.10 0.51 73.02-1.41L73.02-1.41L73.02-1.41Q69.95-3.33 68.22-6.78L68.22-6.78L68.22-6.78Q66.50-10.24 66.50-14.66L66.50-14.66L66.50-14.66Q66.50-19.07 68.22-22.53L68.22-22.53L68.22-22.53Q69.95-25.98 73.02-27.94L73.02-27.94L73.02-27.94Q76.10-29.89 80-29.89L80-29.89L80-29.89Q83.90-29.89 86.98-27.94L86.98-27.94L86.98-27.94Q90.05-25.98 91.78-22.53L91.78-22.53L91.78-22.53Q93.50-19.07 93.50-14.66L93.50-14.66L93.50-14.66Q93.50-10.24 91.78-6.78L91.78-6.78L91.78-6.78Q90.05-3.33 86.98-1.41L86.98-1.41L86.98-1.41Q83.90 0.51 80 0.51L80 0.51ZM80-3.33L80-3.33Q82.50-3.33 84.45-4.80L84.45-4.80L84.45-4.80Q86.40-6.27 87.52-8.86L87.52-8.86L87.52-8.86Q88.64-11.46 88.64-14.72L88.64-14.72L88.64-14.72Q88.64-19.71 86.21-22.88L86.21-22.88L86.21-22.88Q83.78-26.05 80-26.05L80-26.05L80-26.05Q76.22-26.05 73.79-22.88L73.79-22.88L73.79-22.88Q71.36-19.71 71.36-14.72L71.36-14.72L71.36-14.72Q71.36-11.46 72.48-8.86L72.48-8.86L72.48-8.86Q73.60-6.27 75.55-4.80L75.55-4.80L75.55-4.80Q77.50-3.33 80-3.33L80-3.33ZM110.14 0.70L110.14 0.70Q105.54 0.70 102.78-2.72L102.78-2.72L102.78-2.72Q100.03-6.14 100.10-12.93L100.10-12.93L100.16-29.25L104.64-29.25L104.64-12.93L104.64-12.93Q104.64-7.68 106.46-5.34L106.46-5.34L106.46-5.34Q108.29-3.01 111.30-3.01L111.30-3.01L111.30-3.01Q114.62-3.01 116.90-5.60L116.90-5.60L116.90-5.60Q119.17-8.19 119.17-13.12L119.17-13.12L119.17-29.25L123.65-29.25L123.65-4.54L123.65-4.54Q123.65-3.01 123.74-2.02L123.74-2.02L123.74-2.02Q123.84-1.02 124.29 0L124.29 0L119.87 0L119.87 0Q119.42-0.96 119.33-1.98L119.33-1.98L119.33-1.98Q119.23-3.01 119.23-4.48L119.23-4.48L119.23-4.48Q117.82-2.05 115.42-0.67L115.42-0.67L115.42-0.67Q113.02 0.70 110.14 0.70L110.14 0.70ZM155.01-6.34L156.42-2.69L156.42-2.69Q152.19 0.45 147.14 0.45L147.14 0.45L147.14 0.45Q142.27 0.45 140.26-2.50L140.26-2.50L140.26-2.50Q138.24-5.44 138.24-12.10L138.24-12.10L138.24-12.10Q138.24-13.18 138.37-15.87L138.37-15.87L138.94-25.47L132.48-25.47L132.48-29.25L139.20-29.25L139.65-37.06L144.77-37.89L145.41-37.95L145.47-37.57L145.47-37.57Q145.02-36.93 144.80-36.48L144.80-36.48L144.80-36.48Q144.58-36.03 144.51-35.07L144.51-35.07L143.81-29.25L153.54-29.25L153.54-25.47L143.55-25.47L142.98-15.55L142.98-15.55Q142.85-12.99 142.85-12.16L142.85-12.16L142.85-12.16Q142.85-7.04 144.03-5.22L144.03-5.22L144.03-5.22Q145.22-3.39 147.84-3.39L147.84-3.39L147.84-3.39Q149.76-3.39 151.36-4.10L151.36-4.10L151.36-4.10Q152.96-4.80 155.01-6.34L155.01-6.34ZM194.62 0L194.62-39.87L198.14-39.87L208-20.35L218.05-39.94L221.44-39.94L221.44 0L217.22 0L217.22-30.08L208.58-14.02L206.85-14.02L198.78-29.89L198.78 0L194.62 0ZM241.41 0.64L241.41 0.64Q234.88 0.64 231.01-3.33L231.01-3.33L231.01-3.33Q227.14-7.30 227.14-14.53L227.14-14.53L227.14-14.53Q227.14-19.33 228.93-22.82L228.93-22.82L228.93-22.82Q230.72-26.30 233.76-28.13L233.76-28.13L233.76-28.13Q236.80-29.95 240.58-29.95L240.58-29.95L240.58-29.95Q245.89-29.95 249.18-26.43L249.18-26.43L249.18-26.43Q252.48-22.91 252.48-16.06L252.48-16.06L252.48-16.06Q252.48-15.36 252.35-13.95L252.35-13.95L231.55-13.95L231.55-13.95Q231.81-8.58 234.56-5.82L234.56-5.82L234.56-5.82Q237.31-3.07 241.54-3.07L241.54-3.07L241.54-3.07Q246.14-3.07 249.09-6.34L249.09-6.34L251.65-3.84L251.65-3.84Q247.94 0.64 241.41 0.64L241.41 0.64ZM231.74-17.54L247.81-17.54L247.81-17.54Q247.81-21.63 245.73-24.03L245.73-24.03L245.73-24.03Q243.65-26.43 240.26-26.43L240.26-26.43L240.26-26.43Q237.06-26.43 234.69-24.19L234.69-24.19L234.69-24.19Q232.32-21.95 231.74-17.54L231.74-17.54Z" fill="#ccc"></path></g></g><style>text {
  font-size: 64px;
  font-family: Arial Black;
  dominant-baseline: central;
  text-anchor: middle;
}</style></svg>