<svg width="264.81875px" height="105.2px" xmlns="http://www.w3.org/2000/svg" viewBox="117.59062499999999 22.4 264.81875 105.2" style="background: rgba(0, 0, 0, 0);" preserveAspectRatio="xMidYMid"><defs><filter id="editing-extrusion" x="-100%" y="-100%" width="300%" height="300%"><feFlood result="color1" flood-color="#444444"></feFlood><feConvolveMatrix order="3,3" divisor="1" kernelMatrix="1 0 0 0 1 0 0 0 1" in="SourceAlpha" result="extrude"></feConvolveMatrix><feComposite in="color1" in2="extrude" result="comp-extrude" operator="in"></feComposite><feOffset dx="1.5" dy="1.5" in="comp-extrude" result="offset-extrude"></feOffset><feMerge><feMergeNode in="offset-extrude"></feMergeNode><feMergeNode in="SourceGraphic"></feMergeNode></feMerge></filter></defs><g filter="url(#editing-extrusion)"><g transform="translate(157.75002098083496, 95.01000213623047)"><path d="M14.28-18.48L14.28-18.48Q12.90-18.48 11.82-19.50L11.82-19.50L11.82-19.50Q10.74-20.52 10.74-21.90L10.74-21.90L10.74-21.90Q10.74-23.34 11.79-24.36L11.79-24.36L11.79-24.36Q12.84-25.38 14.28-25.38L14.28-25.38L14.28-25.38Q15.72-25.38 16.80-24.36L16.80-24.36L16.80-24.36Q17.88-23.34 17.88-21.90L17.88-21.90L17.88-21.90Q17.88-20.52 16.80-19.50L16.80-19.50L16.80-19.50Q15.72-18.48 14.28-18.48L14.28-18.48ZM14.28 0.66L14.28 0.66Q12.78 0.66 11.76-0.33L11.76-0.33L11.76-0.33Q10.74-1.32 10.74-2.76L10.74-2.76L10.74-2.76Q10.74-4.20 11.79-5.22L11.79-5.22L11.79-5.22Q12.84-6.24 14.28-6.24L14.28-6.24L14.28-6.24Q15.72-6.24 16.80-5.22L16.80-5.22L16.80-5.22Q17.88-4.20 17.88-2.76L17.88-2.76L17.88-2.76Q17.88-1.38 16.83-0.36L16.83-0.36L16.83-0.36Q15.78 0.66 14.28 0.66L14.28 0.66ZM33.24 0.06L33.24-37.38L41.94-37.38L41.94-37.38Q46.56-37.38 49.26-36.15L49.26-36.15L49.26-36.15Q51.96-34.92 53.94-32.28L53.94-32.28L53.94-32.28Q57.60-27.36 57.60-18.48L57.60-18.48L57.60-18.48Q57.24-9.42 53.40-4.65L53.40-4.65L53.40-4.65Q49.56 0.12 41.22 0.06L41.22 0.06L33.24 0.06ZM37.20-3.24L41.04-3.24L41.04-3.24Q53.40-3.24 53.40-18.24L53.40-18.24L53.40-18.24Q53.34-25.86 50.58-29.85L50.58-29.85L50.58-29.85Q47.82-33.84 41.70-33.84L41.70-33.84L37.20-33.84L37.20-3.24ZM75 0.48L75 0.48Q71.34 0.48 68.46-1.32L68.46-1.32L68.46-1.32Q65.58-3.12 63.96-6.36L63.96-6.36L63.96-6.36Q62.34-9.60 62.34-13.74L62.34-13.74L62.34-13.74Q62.34-17.88 63.96-21.12L63.96-21.12L63.96-21.12Q65.58-24.36 68.46-26.19L68.46-26.19L68.46-26.19Q71.34-28.02 75-28.02L75-28.02L75-28.02Q78.66-28.02 81.54-26.19L81.54-26.19L81.54-26.19Q84.42-24.36 86.04-21.12L86.04-21.12L86.04-21.12Q87.66-17.88 87.66-13.74L87.66-13.74L87.66-13.74Q87.66-9.60 86.04-6.36L86.04-6.36L86.04-6.36Q84.42-3.12 81.54-1.32L81.54-1.32L81.54-1.32Q78.66 0.48 75 0.48L75 0.48ZM75-3.12L75-3.12Q77.34-3.12 79.17-4.50L79.17-4.50L79.17-4.50Q81-5.88 82.05-8.31L82.05-8.31L82.05-8.31Q83.10-10.74 83.10-13.80L83.10-13.80L83.10-13.80Q83.10-18.48 80.82-21.45L80.82-21.45L80.82-21.45Q78.54-24.42 75-24.42L75-24.42L75-24.42Q71.46-24.42 69.18-21.45L69.18-21.45L69.18-21.45Q66.90-18.48 66.90-13.80L66.90-13.80L66.90-13.80Q66.90-10.74 67.95-8.31L67.95-8.31L67.95-8.31Q69-5.88 70.83-4.50L70.83-4.50L70.83-4.50Q72.66-3.12 75-3.12L75-3.12ZM92.28 0L92.28-27.42L96.24-27.42L96.24-24.72L96.24-24.72Q97.20-26.22 98.70-27.15L98.70-27.15L98.70-27.15Q100.20-28.08 101.82-28.08L101.82-28.08L101.82-28.08Q103.62-28.08 104.97-26.94L104.97-26.94L104.97-26.94Q106.32-25.80 106.68-24.06L106.68-24.06L106.68-24.06Q107.46-25.86 109.14-26.97L109.14-26.97L109.14-26.97Q110.82-28.08 112.86-28.08L112.86-28.08L112.86-28.08Q115.56-28.08 116.91-26.13L116.91-26.13L116.91-26.13Q118.26-24.18 118.14-21.06L118.14-21.06L118.14 0L114.18 0L114.18-19.44L114.18-19.44Q114.18-22.86 113.52-23.88L113.52-23.88L113.52-23.88Q112.86-24.90 111.60-24.90L111.60-24.90L111.60-24.90Q110.52-24.90 109.50-23.88L109.50-23.88L109.50-23.88Q108.48-22.86 107.85-21.27L107.85-21.27L107.85-21.27Q107.22-19.68 107.22-18.12L107.22-18.12L107.22 0L103.20 0L103.20-19.08L103.20-19.08Q103.20-22.44 102.57-23.61L102.57-23.61L102.57-23.61Q101.94-24.78 100.20-24.78L100.20-24.78L100.20-24.78Q99.30-24.78 98.37-23.97L98.37-23.97L98.37-23.97Q97.44-23.16 96.84-21.69L96.84-21.69L96.84-21.69Q96.24-20.22 96.24-18.30L96.24-18.30L96.24 0L92.28 0ZM134.64-28.02L134.64-28.02Q140.52-28.02 143.61-24.96L143.61-24.96L143.61-24.96Q146.70-21.90 146.70-14.58L146.70-14.58L146.70 0L142.02 0L142.02-4.20L142.02-4.20Q139.50 0.66 132.66 0.66L132.66 0.66L132.66 0.66Q128.10 0.66 125.52-1.41L125.52-1.41L125.52-1.41Q122.94-3.48 122.94-6.90L122.94-6.90L122.94-6.90Q122.94-9.78 124.80-11.94L124.80-11.94L124.80-11.94Q126.66-14.10 129.81-15.27L129.81-15.27L129.81-15.27Q132.96-16.44 136.74-16.44L136.74-16.44L136.74-16.44Q140.16-16.44 142.92-16.08L142.92-16.08L142.92-16.08Q142.56-20.70 140.49-22.59L140.49-22.59L140.49-22.59Q138.42-24.48 134.34-24.48L134.34-24.48L134.34-24.48Q132.30-24.48 130.41-23.70L130.41-23.70L130.41-23.70Q128.52-22.92 126.96-21.42L126.96-21.42L124.86-24.18L124.86-24.18Q128.70-28.02 134.64-28.02L134.64-28.02ZM133.08-2.64L133.08-2.64Q137.52-2.64 140.10-5.25L140.10-5.25L140.10-5.25Q142.68-7.86 142.92-12.78L142.92-12.78L142.92-12.78Q140.22-13.20 137.10-13.20L137.10-13.20L137.10-13.20Q132.54-13.20 129.90-11.70L129.90-11.70L129.90-11.70Q127.26-10.20 127.26-7.14L127.26-7.14L127.26-7.14Q127.26-2.64 133.08-2.64L133.08-2.64ZM156 0L156-3.48L163.02-3.48L163.02-23.94L156.36-23.94L156.36-27.42L167.34-27.42L167.34-3.48L173.76-3.48L173.76 0L156 0ZM164.94-33.18L164.94-33.18Q163.68-33.18 162.78-34.08L162.78-34.08L162.78-34.08Q161.88-34.98 161.88-36.24L161.88-36.24L161.88-36.24Q161.88-37.56 162.75-38.46L162.75-38.46L162.75-38.46Q163.62-39.36 164.94-39.36L164.94-39.36L164.94-39.36Q166.20-39.36 167.13-38.43L167.13-38.43L167.13-38.43Q168.06-37.50 168.06-36.24L168.06-36.24L168.06-36.24Q168.06-34.98 167.13-34.08L167.13-34.08L167.13-34.08Q166.20-33.18 164.94-33.18L164.94-33.18Z" fill="#ccc"></path></g></g><style>text {
  font-size: 64px;
  font-family: Arial Black;
  dominant-baseline: central;
  text-anchor: middle;
}</style></svg>