<svg width="958.4187499999999px" height="105.2px" xmlns="http://www.w3.org/2000/svg" viewBox="-229.20937499999997 22.4 958.4187499999999 105.2" style="background: rgba(0, 0, 0, 0);" preserveAspectRatio="xMidYMid"><defs><filter id="editing-extrusion" x="-100%" y="-100%" width="300%" height="300%"><feFlood result="color1" flood-color="#444"></feFlood><feConvolveMatrix order="1,1" divisor="1" kernelMatrix="1" in="SourceAlpha" result="extrude"></feConvolveMatrix><feComposite in="color1" in2="extrude" result="comp-extrude" operator="in"></feComposite><feOffset dx="0.5" dy="0.5" in="comp-extrude" result="offset-extrude"></feOffset><feMerge><feMergeNode in="offset-extrude"></feMergeNode><feMergeNode in="SourceGraphic"></feMergeNode></feMerge></filter></defs><g filter="url(#editing-extrusion)"><g transform="translate(-94.76002979278564, 95.31000328063965)"><path d="M14.82 0.60L14.82 0.60Q7.56 0.60 3.12-4.14L3.12-4.14L5.28-7.92L5.52-8.46L5.94-8.22L5.94-8.22Q6-8.04 6.09-7.62L6.09-7.62L6.09-7.62Q6.18-7.20 6.39-6.81L6.39-6.81L6.39-6.81Q6.60-6.42 7.08-6.06L7.08-6.06L7.08-6.06Q10.44-3.18 15.42-3.18L15.42-3.18L15.42-3.18Q18.72-3.18 20.94-5.04L20.94-5.04L20.94-5.04Q23.16-6.90 23.16-9.60L23.16-9.60L23.16-9.60Q23.16-11.34 22.47-12.51L22.47-12.51L22.47-12.51Q21.78-13.68 19.98-14.82L19.98-14.82L19.98-14.82Q18.18-15.96 14.58-17.52L14.58-17.52L14.58-17.52Q9.06-19.68 6.69-22.44L6.69-22.44L6.69-22.44Q4.32-25.20 4.32-28.62L4.32-28.62L4.32-28.62Q4.32-32.82 7.38-35.34L7.38-35.34L7.38-35.34Q10.44-37.86 15.72-37.86L15.72-37.86L15.72-37.86Q18.78-37.86 21.45-36.63L21.45-36.63L21.45-36.63Q24.12-35.40 26.10-33.18L26.10-33.18L23.40-29.58L23.04-29.82L23.04-29.82Q23.04-29.94 22.95-30.36L22.95-30.36L22.95-30.36Q22.86-30.78 22.62-31.17L22.62-31.17L22.62-31.17Q22.38-31.56 21.96-31.98L21.96-31.98L21.96-31.98Q20.58-33.30 18.96-33.84L18.96-33.84L18.96-33.84Q17.34-34.38 15.06-34.38L15.06-34.38L15.06-34.38Q12.18-34.38 10.41-32.79L10.41-32.79L10.41-32.79Q8.64-31.20 8.64-28.92L8.64-28.92L8.64-28.92Q8.64-27.18 9.39-25.89L9.39-25.89L9.39-25.89Q10.14-24.60 12.12-23.37L12.12-23.37L12.12-23.37Q14.10-22.14 17.88-20.64L17.88-20.64L17.88-20.64Q23.22-18.42 25.26-16.08L25.26-16.08L25.26-16.08Q27.30-13.74 27.30-10.20L27.30-10.20L27.30-10.20Q27.30-7.44 25.95-4.98L25.95-4.98L25.95-4.98Q24.60-2.52 21.78-0.96L21.78-0.96L21.78-0.96Q18.96 0.60 14.82 0.60L14.82 0.60ZM53.16 0.24L41.94-13.74L38.34-10.38L38.34 0L33.96 0L33.96-39.90L38.88-39.90L38.88-39.48L38.88-39.48Q38.52-39.12 38.43-38.70L38.43-38.70L38.43-38.70Q38.34-38.28 38.34-37.26L38.34-37.26L38.34-14.82L52.08-27.54L52.08-27.54Q53.58-27.24 55.26-27.24L55.26-27.24L56.82-27.24L45.30-16.38L58.74 0L53.16 0.24ZM66 0L66-3.48L73.02-3.48L73.02-23.94L66.36-23.94L66.36-27.42L77.34-27.42L77.34-3.48L83.76-3.48L83.76 0L66 0ZM74.94-33.18L74.94-33.18Q73.68-33.18 72.78-34.08L72.78-34.08L72.78-34.08Q71.88-34.98 71.88-36.24L71.88-36.24L71.88-36.24Q71.88-37.56 72.75-38.46L72.75-38.46L72.75-38.46Q73.62-39.36 74.94-39.36L74.94-39.36L74.94-39.36Q76.20-39.36 77.13-38.43L77.13-38.43L77.13-38.43Q78.06-37.50 78.06-36.24L78.06-36.24L78.06-36.24Q78.06-34.98 77.13-34.08L77.13-34.08L77.13-34.08Q76.20-33.18 74.94-33.18L74.94-33.18ZM94.74 0L94.74-3.48L102.84-3.48L102.84-36.42L95.10-36.42L95.10-39.90L107.22-39.90L107.22-3.48L115.26-3.48L115.26 0L94.74 0ZM124.74 0L124.74-3.48L132.84-3.48L132.84-36.42L125.10-36.42L125.10-39.90L137.22-39.90L137.22-3.48L145.26-3.48L145.26 0L124.74 0ZM165.06 0.60L165.06 0.60Q158.10 0.60 153.42-3.72L153.42-3.72L155.82-7.80L156.18-8.34L156.54-8.10L156.54-8.10Q156.54-7.98 156.63-7.56L156.63-7.56L156.63-7.56Q156.72-7.14 156.96-6.72L156.96-6.72L156.96-6.72Q157.20-6.30 157.62-5.88L157.62-5.88L157.62-5.88Q159-4.50 160.77-3.75L160.77-3.75L160.77-3.75Q162.54-3 165.18-3L165.18-3L165.18-3Q168.42-3 170.28-4.17L170.28-4.17L170.28-4.17Q172.14-5.34 172.14-7.38L172.14-7.38L172.14-7.38Q172.14-9.12 170.64-10.26L170.64-10.26L170.64-10.26Q169.14-11.40 165.24-12.66L165.24-12.66L165.24-12.66Q154.92-15.60 154.92-21.18L154.92-21.18L154.92-21.18Q154.92-24.36 157.53-26.22L157.53-26.22L157.53-26.22Q160.14-28.08 165-28.08L165-28.08L165-28.08Q168.72-28.08 171.27-27.03L171.27-27.03L171.27-27.03Q173.82-25.98 175.92-23.76L175.92-23.76L173.46-20.76L173.04-20.28L172.74-20.58L172.74-20.58Q172.68-21.24 172.47-21.66L172.47-21.66L172.47-21.66Q172.26-22.08 171.60-22.62L171.60-22.62L171.60-22.62Q170.22-23.70 168.51-24.27L168.51-24.27L168.51-24.27Q166.80-24.84 165.12-24.84L165.12-24.84L165.12-24.84Q162.54-24.84 160.89-23.94L160.89-23.94L160.89-23.94Q159.24-23.04 159.24-21.42L159.24-21.42L159.24-21.42Q159.24-19.92 160.92-18.66L160.92-18.66L160.92-18.66Q162.60-17.40 166.98-16.14L166.98-16.14L166.98-16.14Q172.14-14.58 174.27-12.75L174.27-12.75L174.27-12.75Q176.40-10.92 176.40-7.98L176.40-7.98L176.40-7.98Q176.40-4.26 173.49-1.83L173.49-1.83L173.49-1.83Q170.58 0.60 165.06 0.60L165.06 0.60ZM234.96 0.72L231.66-4.56L231.66-4.56Q229.80-2.16 227.10-0.78L227.10-0.78L227.10-0.78Q224.40 0.60 221.52 0.60L221.52 0.60L221.52 0.60Q218.88 0.60 216.72-0.63L216.72-0.63L216.72-0.63Q214.56-1.86 213.36-3.93L213.36-3.93L213.36-3.93Q212.16-6 212.16-8.46L212.16-8.46L212.16-8.46Q212.16-12.18 214.20-15.39L214.20-15.39L214.20-15.39Q216.24-18.60 219.72-20.58L219.72-20.58L219.72-20.58Q215.46-25.74 215.46-29.88L215.46-29.88L215.46-29.88Q215.46-32.10 216.57-33.90L216.57-33.90L216.57-33.90Q217.68-35.70 219.57-36.72L219.57-36.72L219.57-36.72Q221.46-37.74 223.68-37.74L223.68-37.74L223.68-37.74Q226.02-37.74 227.88-36.63L227.88-36.63L227.88-36.63Q229.74-35.52 230.76-33.72L230.76-33.72L230.76-33.72Q231.78-31.92 231.78-29.88L231.78-29.88L231.78-29.88Q231.78-26.94 229.95-24L229.95-24L229.95-24Q228.12-21.06 225.30-19.80L225.30-19.80L232.02-10.38L232.02-10.38Q233.46-12.12 234.03-13.41L234.03-13.41L234.03-13.41Q234.60-14.70 234.72-16.44L234.72-16.44L234.72-16.44Q234.72-16.80 234.96-17.04L234.96-17.04L238.86-14.34L238.86-14.34Q236.64-10.44 234.30-7.38L234.30-7.38L238.50-1.92L234.96 0.72ZM223.26-22.38L223.26-22.38Q225.36-23.40 226.59-25.44L226.59-25.44L226.59-25.44Q227.82-27.48 227.82-29.52L227.82-29.52L227.82-29.52Q227.82-31.50 226.59-32.85L226.59-32.85L226.59-32.85Q225.36-34.20 223.74-34.20L223.74-34.20L223.74-34.20Q222-34.20 220.80-32.97L220.80-32.97L220.80-32.97Q219.60-31.74 219.60-29.82L219.60-29.82L219.60-29.82Q219.60-26.94 223.26-22.38L223.26-22.38ZM221.94-3.24L221.94-3.24Q225.78-3.24 229.44-7.38L229.44-7.38L221.82-17.76L221.82-17.76Q219.48-16.32 218.10-13.92L218.10-13.92L218.10-13.92Q216.72-11.52 216.72-9.12L216.72-9.12L216.72-9.12Q216.72-6.66 218.25-4.95L218.25-4.95L218.25-4.95Q219.78-3.24 221.94-3.24L221.94-3.24ZM274.68 0L274.68-37.44L296.22-37.44L296.22-33.78L278.88-33.78L278.88-22.02L292.86-22.02L292.86-18.36L278.88-18.36L278.88 0L274.68 0ZM314.64-28.02L314.64-28.02Q320.52-28.02 323.61-24.96L323.61-24.96L323.61-24.96Q326.70-21.90 326.70-14.58L326.70-14.58L326.70 0L322.02 0L322.02-4.20L322.02-4.20Q319.50 0.66 312.66 0.66L312.66 0.66L312.66 0.66Q308.10 0.66 305.52-1.41L305.52-1.41L305.52-1.41Q302.94-3.48 302.94-6.90L302.94-6.90L302.94-6.90Q302.94-9.78 304.80-11.94L304.80-11.94L304.80-11.94Q306.66-14.10 309.81-15.27L309.81-15.27L309.81-15.27Q312.96-16.44 316.74-16.44L316.74-16.44L316.74-16.44Q320.16-16.44 322.92-16.08L322.92-16.08L322.92-16.08Q322.56-20.70 320.49-22.59L320.49-22.59L320.49-22.59Q318.42-24.48 314.34-24.48L314.34-24.48L314.34-24.48Q312.30-24.48 310.41-23.70L310.41-23.70L310.41-23.70Q308.52-22.92 306.96-21.42L306.96-21.42L304.86-24.18L304.86-24.18Q308.70-28.02 314.64-28.02L314.64-28.02ZM313.08-2.64L313.08-2.64Q317.52-2.64 320.10-5.25L320.10-5.25L320.10-5.25Q322.68-7.86 322.92-12.78L322.92-12.78L322.92-12.78Q320.22-13.20 317.10-13.20L317.10-13.20L317.10-13.20Q312.54-13.20 309.90-11.70L309.90-11.70L309.90-11.70Q307.26-10.20 307.26-7.14L307.26-7.14L307.26-7.14Q307.26-2.64 313.08-2.64L313.08-2.64ZM353.22-27.42L357.30-27.42L357.30-27.42Q356.34-22.56 353.28-15.42L353.28-15.42L346.62 0L343.26 0L332.40-27.42L336.72-27.42L345.18-5.94L349.62-16.08L349.62-16.08Q352.38-22.32 353.22-27.42L353.22-27.42ZM375 0.48L375 0.48Q371.34 0.48 368.46-1.32L368.46-1.32L368.46-1.32Q365.58-3.12 363.96-6.36L363.96-6.36L363.96-6.36Q362.34-9.60 362.34-13.74L362.34-13.74L362.34-13.74Q362.34-17.88 363.96-21.12L363.96-21.12L363.96-21.12Q365.58-24.36 368.46-26.19L368.46-26.19L368.46-26.19Q371.34-28.02 375-28.02L375-28.02L375-28.02Q378.66-28.02 381.54-26.19L381.54-26.19L381.54-26.19Q384.42-24.36 386.04-21.12L386.04-21.12L386.04-21.12Q387.66-17.88 387.66-13.74L387.66-13.74L387.66-13.74Q387.66-9.60 386.04-6.36L386.04-6.36L386.04-6.36Q384.42-3.12 381.54-1.32L381.54-1.32L381.54-1.32Q378.66 0.48 375 0.48L375 0.48ZM375-3.12L375-3.12Q377.34-3.12 379.17-4.50L379.17-4.50L379.17-4.50Q381-5.88 382.05-8.31L382.05-8.31L382.05-8.31Q383.10-10.74 383.10-13.80L383.10-13.80L383.10-13.80Q383.10-18.48 380.82-21.45L380.82-21.45L380.82-21.45Q378.54-24.42 375-24.42L375-24.42L375-24.42Q371.46-24.42 369.18-21.45L369.18-21.45L369.18-21.45Q366.90-18.48 366.90-13.80L366.90-13.80L366.90-13.80Q366.90-10.74 367.95-8.31L367.95-8.31L367.95-8.31Q369-5.88 370.83-4.50L370.83-4.50L370.83-4.50Q372.66-3.12 375-3.12L375-3.12ZM410.22-28.08L410.22-28.08Q414.60-28.08 417.48-25.08L417.48-25.08L415.56-21.72L415.32-21.18L414.90-21.42L414.90-21.42Q414.72-22.08 414.48-22.47L414.48-22.47L414.48-22.47Q414.24-22.86 413.46-23.34L413.46-23.34L413.46-23.34Q411.90-24.36 409.92-24.36L409.92-24.36L409.92-24.36Q407.76-24.36 405.84-23.28L405.84-23.28L405.84-23.28Q403.92-22.20 402.72-20.01L402.72-20.01L402.72-20.01Q401.52-17.82 401.52-14.52L401.52-14.52L401.52 0.06L397.14 0.06L397.14-27.42L401.64-27.42L401.52-22.38L401.52-22.38Q402.66-25.08 405.03-26.58L405.03-26.58L405.03-26.58Q407.40-28.08 410.22-28.08L410.22-28.08ZM426 0L426-3.48L433.02-3.48L433.02-23.94L426.36-23.94L426.36-27.42L437.34-27.42L437.34-3.48L443.76-3.48L443.76 0L426 0ZM434.94-33.18L434.94-33.18Q433.68-33.18 432.78-34.08L432.78-34.08L432.78-34.08Q431.88-34.98 431.88-36.24L431.88-36.24L431.88-36.24Q431.88-37.56 432.75-38.46L432.75-38.46L432.75-38.46Q433.62-39.36 434.94-39.36L434.94-39.36L434.94-39.36Q436.20-39.36 437.13-38.43L437.13-38.43L437.13-38.43Q438.06-37.50 438.06-36.24L438.06-36.24L438.06-36.24Q438.06-34.98 437.13-34.08L437.13-34.08L437.13-34.08Q436.20-33.18 434.94-33.18L434.94-33.18ZM475.32-5.94L476.64-2.52L476.64-2.52Q472.68 0.42 467.94 0.42L467.94 0.42L467.94 0.42Q463.38 0.42 461.49-2.34L461.49-2.34L461.49-2.34Q459.60-5.10 459.60-11.34L459.60-11.34L459.60-11.34Q459.60-12.36 459.72-14.88L459.72-14.88L460.26-23.88L454.20-23.88L454.20-27.42L460.50-27.42L460.92-34.74L465.72-35.52L466.32-35.58L466.38-35.22L466.38-35.22Q465.96-34.62 465.75-34.20L465.75-34.20L465.75-34.20Q465.54-33.78 465.48-32.88L465.48-32.88L464.82-27.42L473.94-27.42L473.94-23.88L464.58-23.88L464.04-14.58L464.04-14.58Q463.92-12.18 463.92-11.40L463.92-11.40L463.92-11.40Q463.92-6.60 465.03-4.89L465.03-4.89L465.03-4.89Q466.14-3.18 468.60-3.18L468.60-3.18L468.60-3.18Q470.40-3.18 471.90-3.84L471.90-3.84L471.90-3.84Q473.40-4.50 475.32-5.94L475.32-5.94ZM496.32 0.60L496.32 0.60Q490.20 0.60 486.57-3.12L486.57-3.12L486.57-3.12Q482.94-6.84 482.94-13.62L482.94-13.62L482.94-13.62Q482.94-18.12 484.62-21.39L484.62-21.39L484.62-21.39Q486.30-24.66 489.15-26.37L489.15-26.37L489.15-26.37Q492-28.08 495.54-28.08L495.54-28.08L495.54-28.08Q500.52-28.08 503.61-24.78L503.61-24.78L503.61-24.78Q506.70-21.48 506.70-15.06L506.70-15.06L506.70-15.06Q506.70-14.40 506.58-13.08L506.58-13.08L487.08-13.08L487.08-13.08Q487.32-8.04 489.90-5.46L489.90-5.46L489.90-5.46Q492.48-2.88 496.44-2.88L496.44-2.88L496.44-2.88Q500.76-2.88 503.52-5.94L503.52-5.94L505.92-3.60L505.92-3.60Q502.44 0.60 496.32 0.60L496.32 0.60ZM487.26-16.44L502.32-16.44L502.32-16.44Q502.32-20.28 500.37-22.53L500.37-22.53L500.37-22.53Q498.42-24.78 495.24-24.78L495.24-24.78L495.24-24.78Q492.24-24.78 490.02-22.68L490.02-22.68L490.02-22.68Q487.80-20.58 487.26-16.44L487.26-16.44ZM552.48 0L552.48-33.66L541.86-33.66L541.86-37.44L567.78-37.44L567.78-33.66L556.74-33.66L556.74 0L552.48 0ZM585 0.48L585 0.48Q581.34 0.48 578.46-1.32L578.46-1.32L578.46-1.32Q575.58-3.12 573.96-6.36L573.96-6.36L573.96-6.36Q572.34-9.60 572.34-13.74L572.34-13.74L572.34-13.74Q572.34-17.88 573.96-21.12L573.96-21.12L573.96-21.12Q575.58-24.36 578.46-26.19L578.46-26.19L578.46-26.19Q581.34-28.02 585-28.02L585-28.02L585-28.02Q588.66-28.02 591.54-26.19L591.54-26.19L591.54-26.19Q594.42-24.36 596.04-21.12L596.04-21.12L596.04-21.12Q597.66-17.88 597.66-13.74L597.66-13.74L597.66-13.74Q597.66-9.60 596.04-6.36L596.04-6.36L596.04-6.36Q594.42-3.12 591.54-1.32L591.54-1.32L591.54-1.32Q588.66 0.48 585 0.48L585 0.48ZM585-3.12L585-3.12Q587.34-3.12 589.17-4.50L589.17-4.50L589.17-4.50Q591-5.88 592.05-8.31L592.05-8.31L592.05-8.31Q593.10-10.74 593.10-13.80L593.10-13.80L593.10-13.80Q593.10-18.48 590.82-21.45L590.82-21.45L590.82-21.45Q588.54-24.42 585-24.42L585-24.42L585-24.42Q581.46-24.42 579.18-21.45L579.18-21.45L579.18-21.45Q576.90-18.48 576.90-13.80L576.90-13.80L576.90-13.80Q576.90-10.74 577.95-8.31L577.95-8.31L577.95-8.31Q579-5.88 580.83-4.50L580.83-4.50L580.83-4.50Q582.66-3.12 585-3.12L585-3.12ZM615 0.48L615 0.48Q611.34 0.48 608.46-1.32L608.46-1.32L608.46-1.32Q605.58-3.12 603.96-6.36L603.96-6.36L603.96-6.36Q602.34-9.60 602.34-13.74L602.34-13.74L602.34-13.74Q602.34-17.88 603.96-21.12L603.96-21.12L603.96-21.12Q605.58-24.36 608.46-26.19L608.46-26.19L608.46-26.19Q611.34-28.02 615-28.02L615-28.02L615-28.02Q618.66-28.02 621.54-26.19L621.54-26.19L621.54-26.19Q624.42-24.36 626.04-21.12L626.04-21.12L626.04-21.12Q627.66-17.88 627.66-13.74L627.66-13.74L627.66-13.74Q627.66-9.60 626.04-6.36L626.04-6.36L626.04-6.36Q624.42-3.12 621.54-1.32L621.54-1.32L621.54-1.32Q618.66 0.48 615 0.48L615 0.48ZM615-3.12L615-3.12Q617.34-3.12 619.17-4.50L619.17-4.50L619.17-4.50Q621-5.88 622.05-8.31L622.05-8.31L622.05-8.31Q623.10-10.74 623.10-13.80L623.10-13.80L623.10-13.80Q623.10-18.48 620.82-21.45L620.82-21.45L620.82-21.45Q618.54-24.42 615-24.42L615-24.42L615-24.42Q611.46-24.42 609.18-21.45L609.18-21.45L609.18-21.45Q606.90-18.48 606.90-13.80L606.90-13.80L606.90-13.80Q606.90-10.74 607.95-8.31L607.95-8.31L607.95-8.31Q609-5.88 610.83-4.50L610.83-4.50L610.83-4.50Q612.66-3.12 615-3.12L615-3.12ZM634.74 0L634.74-3.48L642.84-3.48L642.84-36.42L635.10-36.42L635.10-39.90L647.22-39.90L647.22-3.48L655.26-3.48L655.26 0L634.74 0ZM675.06 0.60L675.06 0.60Q668.10 0.60 663.42-3.72L663.42-3.72L665.82-7.80L666.18-8.34L666.54-8.10L666.54-8.10Q666.54-7.98 666.63-7.56L666.63-7.56L666.63-7.56Q666.72-7.14 666.96-6.72L666.96-6.72L666.96-6.72Q667.20-6.30 667.62-5.88L667.62-5.88L667.62-5.88Q669-4.50 670.77-3.75L670.77-3.75L670.77-3.75Q672.54-3 675.18-3L675.18-3L675.18-3Q678.42-3 680.28-4.17L680.28-4.17L680.28-4.17Q682.14-5.34 682.14-7.38L682.14-7.38L682.14-7.38Q682.14-9.12 680.64-10.26L680.64-10.26L680.64-10.26Q679.14-11.40 675.24-12.66L675.24-12.66L675.24-12.66Q664.92-15.60 664.92-21.18L664.92-21.18L664.92-21.18Q664.92-24.36 667.53-26.22L667.53-26.22L667.53-26.22Q670.14-28.08 675-28.08L675-28.08L675-28.08Q678.72-28.08 681.27-27.03L681.27-27.03L681.27-27.03Q683.82-25.98 685.92-23.76L685.92-23.76L683.46-20.76L683.04-20.28L682.74-20.58L682.74-20.58Q682.68-21.24 682.47-21.66L682.47-21.66L682.47-21.66Q682.26-22.08 681.60-22.62L681.60-22.62L681.60-22.62Q680.22-23.70 678.51-24.27L678.51-24.27L678.51-24.27Q676.80-24.84 675.12-24.84L675.12-24.84L675.12-24.84Q672.54-24.84 670.89-23.94L670.89-23.94L670.89-23.94Q669.24-23.04 669.24-21.42L669.24-21.42L669.24-21.42Q669.24-19.92 670.92-18.66L670.92-18.66L670.92-18.66Q672.60-17.40 676.98-16.14L676.98-16.14L676.98-16.14Q682.14-14.58 684.27-12.75L684.27-12.75L684.27-12.75Q686.40-10.92 686.40-7.98L686.40-7.98L686.40-7.98Q686.40-4.26 683.49-1.83L683.49-1.83L683.49-1.83Q680.58 0.60 675.06 0.60L675.06 0.60Z" fill="#ccc"></path></g></g><style>text {
  font-size: 64px;
  font-family: Arial Black;
  dominant-baseline: central;
  text-anchor: middle;
}</style></svg>