<svg width="264.81875px" height="105.2px" xmlns="http://www.w3.org/2000/svg" viewBox="117.59062499999999 22.4 264.81875 105.2" style="background: rgba(0, 0, 0, 0);" preserveAspectRatio="xMidYMid"><defs><filter id="editing-extrusion" x="-100%" y="-100%" width="300%" height="300%"><feFlood result="color1" flood-color="#444444"></feFlood><feConvolveMatrix order="3,3" divisor="1" kernelMatrix="1 0 0 0 1 0 0 0 1" in="SourceAlpha" result="extrude"></feConvolveMatrix><feComposite in="color1" in2="extrude" result="comp-extrude" operator="in"></feComposite><feOffset dx="1.5" dy="1.5" in="comp-extrude" result="offset-extrude"></feOffset><feMerge><feMergeNode in="offset-extrude"></feMergeNode><feMergeNode in="SourceGraphic"></feMergeNode></feMerge></filter></defs><g filter="url(#editing-extrusion)"><g transform="translate(160.24001598358154, 95.25000190734863)"><path d="M14.82 0.60L14.82 0.60Q7.56 0.60 3.12-4.14L3.12-4.14L5.28-7.92L5.52-8.46L5.94-8.22L5.94-8.22Q6-8.04 6.09-7.62L6.09-7.62L6.09-7.62Q6.18-7.20 6.39-6.81L6.39-6.81L6.39-6.81Q6.60-6.42 7.08-6.06L7.08-6.06L7.08-6.06Q10.44-3.18 15.42-3.18L15.42-3.18L15.42-3.18Q18.72-3.18 20.94-5.04L20.94-5.04L20.94-5.04Q23.16-6.90 23.16-9.60L23.16-9.60L23.16-9.60Q23.16-11.34 22.47-12.51L22.47-12.51L22.47-12.51Q21.78-13.68 19.98-14.82L19.98-14.82L19.98-14.82Q18.18-15.96 14.58-17.52L14.58-17.52L14.58-17.52Q9.06-19.68 6.69-22.44L6.69-22.44L6.69-22.44Q4.32-25.20 4.32-28.62L4.32-28.62L4.32-28.62Q4.32-32.82 7.38-35.34L7.38-35.34L7.38-35.34Q10.44-37.86 15.72-37.86L15.72-37.86L15.72-37.86Q18.78-37.86 21.45-36.63L21.45-36.63L21.45-36.63Q24.12-35.40 26.10-33.18L26.10-33.18L23.40-29.58L23.04-29.82L23.04-29.82Q23.04-29.94 22.95-30.36L22.95-30.36L22.95-30.36Q22.86-30.78 22.62-31.17L22.62-31.17L22.62-31.17Q22.38-31.56 21.96-31.98L21.96-31.98L21.96-31.98Q20.58-33.30 18.96-33.84L18.96-33.84L18.96-33.84Q17.34-34.38 15.06-34.38L15.06-34.38L15.06-34.38Q12.18-34.38 10.41-32.79L10.41-32.79L10.41-32.79Q8.64-31.20 8.64-28.92L8.64-28.92L8.64-28.92Q8.64-27.18 9.39-25.89L9.39-25.89L9.39-25.89Q10.14-24.60 12.12-23.37L12.12-23.37L12.12-23.37Q14.10-22.14 17.88-20.64L17.88-20.64L17.88-20.64Q23.22-18.42 25.26-16.08L25.26-16.08L25.26-16.08Q27.30-13.74 27.30-10.20L27.30-10.20L27.30-10.20Q27.30-7.44 25.95-4.98L25.95-4.98L25.95-4.98Q24.60-2.52 21.78-0.96L21.78-0.96L21.78-0.96Q18.96 0.60 14.82 0.60L14.82 0.60ZM53.16 0.24L41.94-13.74L38.34-10.38L38.34 0L33.96 0L33.96-39.90L38.88-39.90L38.88-39.48L38.88-39.48Q38.52-39.12 38.43-38.70L38.43-38.70L38.43-38.70Q38.34-38.28 38.34-37.26L38.34-37.26L38.34-14.82L52.08-27.54L52.08-27.54Q53.58-27.24 55.26-27.24L55.26-27.24L56.82-27.24L45.30-16.38L58.74 0L53.16 0.24ZM66 0L66-3.48L73.02-3.48L73.02-23.94L66.36-23.94L66.36-27.42L77.34-27.42L77.34-3.48L83.76-3.48L83.76 0L66 0ZM74.94-33.18L74.94-33.18Q73.68-33.18 72.78-34.08L72.78-34.08L72.78-34.08Q71.88-34.98 71.88-36.24L71.88-36.24L71.88-36.24Q71.88-37.56 72.75-38.46L72.75-38.46L72.75-38.46Q73.62-39.36 74.94-39.36L74.94-39.36L74.94-39.36Q76.20-39.36 77.13-38.43L77.13-38.43L77.13-38.43Q78.06-37.50 78.06-36.24L78.06-36.24L78.06-36.24Q78.06-34.98 77.13-34.08L77.13-34.08L77.13-34.08Q76.20-33.18 74.94-33.18L74.94-33.18ZM94.74 0L94.74-3.48L102.84-3.48L102.84-36.42L95.10-36.42L95.10-39.90L107.22-39.90L107.22-3.48L115.26-3.48L115.26 0L94.74 0ZM124.74 0L124.74-3.48L132.84-3.48L132.84-36.42L125.10-36.42L125.10-39.90L137.22-39.90L137.22-3.48L145.26-3.48L145.26 0L124.74 0ZM165.06 0.60L165.06 0.60Q158.10 0.60 153.42-3.72L153.42-3.72L155.82-7.80L156.18-8.34L156.54-8.10L156.54-8.10Q156.54-7.98 156.63-7.56L156.63-7.56L156.63-7.56Q156.72-7.14 156.96-6.72L156.96-6.72L156.96-6.72Q157.20-6.30 157.62-5.88L157.62-5.88L157.62-5.88Q159-4.50 160.77-3.75L160.77-3.75L160.77-3.75Q162.54-3 165.18-3L165.18-3L165.18-3Q168.42-3 170.28-4.17L170.28-4.17L170.28-4.17Q172.14-5.34 172.14-7.38L172.14-7.38L172.14-7.38Q172.14-9.12 170.64-10.26L170.64-10.26L170.64-10.26Q169.14-11.40 165.24-12.66L165.24-12.66L165.24-12.66Q154.92-15.60 154.92-21.18L154.92-21.18L154.92-21.18Q154.92-24.36 157.53-26.22L157.53-26.22L157.53-26.22Q160.14-28.08 165-28.08L165-28.08L165-28.08Q168.72-28.08 171.27-27.03L171.27-27.03L171.27-27.03Q173.82-25.98 175.92-23.76L175.92-23.76L173.46-20.76L173.04-20.28L172.74-20.58L172.74-20.58Q172.68-21.24 172.47-21.66L172.47-21.66L172.47-21.66Q172.26-22.08 171.60-22.62L171.60-22.62L171.60-22.62Q170.22-23.70 168.51-24.27L168.51-24.27L168.51-24.27Q166.80-24.84 165.12-24.84L165.12-24.84L165.12-24.84Q162.54-24.84 160.89-23.94L160.89-23.94L160.89-23.94Q159.24-23.04 159.24-21.42L159.24-21.42L159.24-21.42Q159.24-19.92 160.92-18.66L160.92-18.66L160.92-18.66Q162.60-17.40 166.98-16.14L166.98-16.14L166.98-16.14Q172.14-14.58 174.27-12.75L174.27-12.75L174.27-12.75Q176.40-10.92 176.40-7.98L176.40-7.98L176.40-7.98Q176.40-4.26 173.49-1.83L173.49-1.83L173.49-1.83Q170.58 0.60 165.06 0.60L165.06 0.60Z" fill="#ccc"></path></g></g><style>text {
  font-size: 64px;
  font-family: Arial Black;
  dominant-baseline: central;
  text-anchor: middle;
}</style></svg>