<svg width="224.01874999999998px" height="105.2px" xmlns="http://www.w3.org/2000/svg" viewBox="137.99062500000002 22.4 224.01874999999998 105.2" style="background: rgba(0, 0, 0, 0);" preserveAspectRatio="xMidYMid"><defs><filter id="editing-extrusion" x="-100%" y="-100%" width="300%" height="300%"><feFlood result="color1" flood-color="#444444"></feFlood><feConvolveMatrix order="3,3" divisor="1" kernelMatrix="1 0 0 0 1 0 0 0 1" in="SourceAlpha" result="extrude"></feConvolveMatrix><feComposite in="color1" in2="extrude" result="comp-extrude" operator="in"></feComposite><feOffset dx="1.5" dy="1.5" in="comp-extrude" result="offset-extrude"></feOffset><feMerge><feMergeNode in="offset-extrude"></feMergeNode><feMergeNode in="SourceGraphic"></feMergeNode></feMerge></filter></defs><g filter="url(#editing-extrusion)"><g transform="translate(175.24001598358154, 94.26000213623047)"><path d="M14.82 0.60L14.82 0.60Q7.56 0.60 3.12-4.14L3.12-4.14L5.28-7.92L5.52-8.46L5.94-8.22L5.94-8.22Q6-8.04 6.09-7.62L6.09-7.62L6.09-7.62Q6.18-7.20 6.39-6.81L6.39-6.81L6.39-6.81Q6.60-6.42 7.08-6.06L7.08-6.06L7.08-6.06Q10.44-3.18 15.42-3.18L15.42-3.18L15.42-3.18Q18.72-3.18 20.94-5.04L20.94-5.04L20.94-5.04Q23.16-6.90 23.16-9.60L23.16-9.60L23.16-9.60Q23.16-11.34 22.47-12.51L22.47-12.51L22.47-12.51Q21.78-13.68 19.98-14.82L19.98-14.82L19.98-14.82Q18.18-15.96 14.58-17.52L14.58-17.52L14.58-17.52Q9.06-19.68 6.69-22.44L6.69-22.44L6.69-22.44Q4.32-25.20 4.32-28.62L4.32-28.62L4.32-28.62Q4.32-32.82 7.38-35.34L7.38-35.34L7.38-35.34Q10.44-37.86 15.72-37.86L15.72-37.86L15.72-37.86Q18.78-37.86 21.45-36.63L21.45-36.63L21.45-36.63Q24.12-35.40 26.10-33.18L26.10-33.18L23.40-29.58L23.04-29.82L23.04-29.82Q23.04-29.94 22.95-30.36L22.95-30.36L22.95-30.36Q22.86-30.78 22.62-31.17L22.62-31.17L22.62-31.17Q22.38-31.56 21.96-31.98L21.96-31.98L21.96-31.98Q20.58-33.30 18.96-33.84L18.96-33.84L18.96-33.84Q17.34-34.38 15.06-34.38L15.06-34.38L15.06-34.38Q12.18-34.38 10.41-32.79L10.41-32.79L10.41-32.79Q8.64-31.20 8.64-28.92L8.64-28.92L8.64-28.92Q8.64-27.18 9.39-25.89L9.39-25.89L9.39-25.89Q10.14-24.60 12.12-23.37L12.12-23.37L12.12-23.37Q14.10-22.14 17.88-20.64L17.88-20.64L17.88-20.64Q23.22-18.42 25.26-16.08L25.26-16.08L25.26-16.08Q27.30-13.74 27.30-10.20L27.30-10.20L27.30-10.20Q27.30-7.44 25.95-4.98L25.95-4.98L25.95-4.98Q24.60-2.52 21.78-0.96L21.78-0.96L21.78-0.96Q18.96 0.60 14.82 0.60L14.82 0.60ZM55.32-5.94L56.64-2.52L56.64-2.52Q52.68 0.42 47.94 0.42L47.94 0.42L47.94 0.42Q43.38 0.42 41.49-2.34L41.49-2.34L41.49-2.34Q39.60-5.10 39.60-11.34L39.60-11.34L39.60-11.34Q39.60-12.36 39.72-14.88L39.72-14.88L40.26-23.88L34.20-23.88L34.20-27.42L40.50-27.42L40.92-34.74L45.72-35.52L46.32-35.58L46.38-35.22L46.38-35.22Q45.96-34.62 45.75-34.20L45.75-34.20L45.75-34.20Q45.54-33.78 45.48-32.88L45.48-32.88L44.82-27.42L53.94-27.42L53.94-23.88L44.58-23.88L44.04-14.58L44.04-14.58Q43.92-12.18 43.92-11.40L43.92-11.40L43.92-11.40Q43.92-6.60 45.03-4.89L45.03-4.89L45.03-4.89Q46.14-3.18 48.60-3.18L48.60-3.18L48.60-3.18Q50.40-3.18 51.90-3.84L51.90-3.84L51.90-3.84Q53.40-4.50 55.32-5.94L55.32-5.94ZM74.64-28.02L74.64-28.02Q80.52-28.02 83.61-24.96L83.61-24.96L83.61-24.96Q86.70-21.90 86.70-14.58L86.70-14.58L86.70 0L82.02 0L82.02-4.20L82.02-4.20Q79.50 0.66 72.66 0.66L72.66 0.66L72.66 0.66Q68.10 0.66 65.52-1.41L65.52-1.41L65.52-1.41Q62.94-3.48 62.94-6.90L62.94-6.90L62.94-6.90Q62.94-9.78 64.80-11.94L64.80-11.94L64.80-11.94Q66.66-14.10 69.81-15.27L69.81-15.27L69.81-15.27Q72.96-16.44 76.74-16.44L76.74-16.44L76.74-16.44Q80.16-16.44 82.92-16.08L82.92-16.08L82.92-16.08Q82.56-20.70 80.49-22.59L80.49-22.59L80.49-22.59Q78.42-24.48 74.34-24.48L74.34-24.48L74.34-24.48Q72.30-24.48 70.41-23.70L70.41-23.70L70.41-23.70Q68.52-22.92 66.96-21.42L66.96-21.42L64.86-24.18L64.86-24.18Q68.70-28.02 74.64-28.02L74.64-28.02ZM73.08-2.64L73.08-2.64Q77.52-2.64 80.10-5.25L80.10-5.25L80.10-5.25Q82.68-7.86 82.92-12.78L82.92-12.78L82.92-12.78Q80.22-13.20 77.10-13.20L77.10-13.20L77.10-13.20Q72.54-13.20 69.90-11.70L69.90-11.70L69.90-11.70Q67.26-10.20 67.26-7.14L67.26-7.14L67.26-7.14Q67.26-2.64 73.08-2.64L73.08-2.64ZM115.32-5.94L116.64-2.52L116.64-2.52Q112.68 0.42 107.94 0.42L107.94 0.42L107.94 0.42Q103.38 0.42 101.49-2.34L101.49-2.34L101.49-2.34Q99.60-5.10 99.60-11.34L99.60-11.34L99.60-11.34Q99.60-12.36 99.72-14.88L99.72-14.88L100.26-23.88L94.20-23.88L94.20-27.42L100.50-27.42L100.92-34.74L105.72-35.52L106.32-35.58L106.38-35.22L106.38-35.22Q105.96-34.62 105.75-34.20L105.75-34.20L105.75-34.20Q105.54-33.78 105.48-32.88L105.48-32.88L104.82-27.42L113.94-27.42L113.94-23.88L104.58-23.88L104.04-14.58L104.04-14.58Q103.92-12.18 103.92-11.40L103.92-11.40L103.92-11.40Q103.92-6.60 105.03-4.89L105.03-4.89L105.03-4.89Q106.14-3.18 108.60-3.18L108.60-3.18L108.60-3.18Q110.40-3.18 111.90-3.84L111.90-3.84L111.90-3.84Q113.40-4.50 115.32-5.94L115.32-5.94ZM135.06 0.60L135.06 0.60Q128.10 0.60 123.42-3.72L123.42-3.72L125.82-7.80L126.18-8.34L126.54-8.10L126.54-8.10Q126.54-7.98 126.63-7.56L126.63-7.56L126.63-7.56Q126.72-7.14 126.96-6.72L126.96-6.72L126.96-6.72Q127.20-6.30 127.62-5.88L127.62-5.88L127.62-5.88Q129-4.50 130.77-3.75L130.77-3.75L130.77-3.75Q132.54-3 135.18-3L135.18-3L135.18-3Q138.42-3 140.28-4.17L140.28-4.17L140.28-4.17Q142.14-5.34 142.14-7.38L142.14-7.38L142.14-7.38Q142.14-9.12 140.64-10.26L140.64-10.26L140.64-10.26Q139.14-11.40 135.24-12.66L135.24-12.66L135.24-12.66Q124.92-15.60 124.92-21.18L124.92-21.18L124.92-21.18Q124.92-24.36 127.53-26.22L127.53-26.22L127.53-26.22Q130.14-28.08 135-28.08L135-28.08L135-28.08Q138.72-28.08 141.27-27.03L141.27-27.03L141.27-27.03Q143.82-25.98 145.92-23.76L145.92-23.76L143.46-20.76L143.04-20.28L142.74-20.58L142.74-20.58Q142.68-21.24 142.47-21.66L142.47-21.66L142.47-21.66Q142.26-22.08 141.60-22.62L141.60-22.62L141.60-22.62Q140.22-23.70 138.51-24.27L138.51-24.27L138.51-24.27Q136.80-24.84 135.12-24.84L135.12-24.84L135.12-24.84Q132.54-24.84 130.89-23.94L130.89-23.94L130.89-23.94Q129.24-23.04 129.24-21.42L129.24-21.42L129.24-21.42Q129.24-19.92 130.92-18.66L130.92-18.66L130.92-18.66Q132.60-17.40 136.98-16.14L136.98-16.14L136.98-16.14Q142.14-14.58 144.27-12.75L144.27-12.75L144.27-12.75Q146.40-10.92 146.40-7.98L146.40-7.98L146.40-7.98Q146.40-4.26 143.49-1.83L143.49-1.83L143.49-1.83Q140.58 0.60 135.06 0.60L135.06 0.60Z" fill="#ccc"></path></g></g><style>text {
  font-size: 64px;
  font-family: Arial Black;
  dominant-baseline: central;
  text-anchor: middle;
}</style></svg>