<svg width="632.01875px" height="105.2px" xmlns="http://www.w3.org/2000/svg" viewBox="-66.00937499999998 22.4 632.01875 105.2" style="background: rgba(0, 0, 0, 0);" preserveAspectRatio="xMidYMid"><defs><filter id="editing-extrusion" x="-100%" y="-100%" width="300%" height="300%"><feFlood result="color1" flood-color="#444"></feFlood><feConvolveMatrix order="1,1" divisor="1" kernelMatrix="1" in="SourceAlpha" result="extrude"></feConvolveMatrix><feComposite in="color1" in2="extrude" result="comp-extrude" operator="in"></feComposite><feOffset dx="0.5" dy="0.5" in="comp-extrude" result="offset-extrude"></feOffset><feMerge><feMergeNode in="offset-extrude"></feMergeNode><feMergeNode in="SourceGraphic"></feMergeNode></feMerge></filter></defs><g filter="url(#editing-extrusion)"><g transform="translate(25.23998737335205, 95.04000282287598)"><path d="M14.82 0.60L14.82 0.60Q7.56 0.60 3.12-4.14L3.12-4.14L5.28-7.92L5.52-8.46L5.94-8.22L5.94-8.22Q6-8.04 6.09-7.62L6.09-7.62L6.09-7.62Q6.18-7.20 6.39-6.81L6.39-6.81L6.39-6.81Q6.60-6.42 7.08-6.06L7.08-6.06L7.08-6.06Q10.44-3.18 15.42-3.18L15.42-3.18L15.42-3.18Q18.72-3.18 20.94-5.04L20.94-5.04L20.94-5.04Q23.16-6.90 23.16-9.60L23.16-9.60L23.16-9.60Q23.16-11.34 22.47-12.51L22.47-12.51L22.47-12.51Q21.78-13.68 19.98-14.82L19.98-14.82L19.98-14.82Q18.18-15.96 14.58-17.52L14.58-17.52L14.58-17.52Q9.06-19.68 6.69-22.44L6.69-22.44L6.69-22.44Q4.32-25.20 4.32-28.62L4.32-28.62L4.32-28.62Q4.32-32.82 7.38-35.34L7.38-35.34L7.38-35.34Q10.44-37.86 15.72-37.86L15.72-37.86L15.72-37.86Q18.78-37.86 21.45-36.63L21.45-36.63L21.45-36.63Q24.12-35.40 26.10-33.18L26.10-33.18L23.40-29.58L23.04-29.82L23.04-29.82Q23.04-29.94 22.95-30.36L22.95-30.36L22.95-30.36Q22.86-30.78 22.62-31.17L22.62-31.17L22.62-31.17Q22.38-31.56 21.96-31.98L21.96-31.98L21.96-31.98Q20.58-33.30 18.96-33.84L18.96-33.84L18.96-33.84Q17.34-34.38 15.06-34.38L15.06-34.38L15.06-34.38Q12.18-34.38 10.41-32.79L10.41-32.79L10.41-32.79Q8.64-31.20 8.64-28.92L8.64-28.92L8.64-28.92Q8.64-27.18 9.39-25.89L9.39-25.89L9.39-25.89Q10.14-24.60 12.12-23.37L12.12-23.37L12.12-23.37Q14.10-22.14 17.88-20.64L17.88-20.64L17.88-20.64Q23.22-18.42 25.26-16.08L25.26-16.08L25.26-16.08Q27.30-13.74 27.30-10.20L27.30-10.20L27.30-10.20Q27.30-7.44 25.95-4.98L25.95-4.98L25.95-4.98Q24.60-2.52 21.78-0.96L21.78-0.96L21.78-0.96Q18.96 0.60 14.82 0.60L14.82 0.60ZM55.32-5.94L56.64-2.52L56.64-2.52Q52.68 0.42 47.94 0.42L47.94 0.42L47.94 0.42Q43.38 0.42 41.49-2.34L41.49-2.34L41.49-2.34Q39.60-5.10 39.60-11.34L39.60-11.34L39.60-11.34Q39.60-12.36 39.72-14.88L39.72-14.88L40.26-23.88L34.20-23.88L34.20-27.42L40.50-27.42L40.92-34.74L45.72-35.52L46.32-35.58L46.38-35.22L46.38-35.22Q45.96-34.62 45.75-34.20L45.75-34.20L45.75-34.20Q45.54-33.78 45.48-32.88L45.48-32.88L44.82-27.42L53.94-27.42L53.94-23.88L44.58-23.88L44.04-14.58L44.04-14.58Q43.92-12.18 43.92-11.40L43.92-11.40L43.92-11.40Q43.92-6.60 45.03-4.89L45.03-4.89L45.03-4.89Q46.14-3.18 48.60-3.18L48.60-3.18L48.60-3.18Q50.40-3.18 51.90-3.84L51.90-3.84L51.90-3.84Q53.40-4.50 55.32-5.94L55.32-5.94ZM74.64-28.02L74.64-28.02Q80.52-28.02 83.61-24.96L83.61-24.96L83.61-24.96Q86.70-21.90 86.70-14.58L86.70-14.58L86.70 0L82.02 0L82.02-4.20L82.02-4.20Q79.50 0.66 72.66 0.66L72.66 0.66L72.66 0.66Q68.10 0.66 65.52-1.41L65.52-1.41L65.52-1.41Q62.94-3.48 62.94-6.90L62.94-6.90L62.94-6.90Q62.94-9.78 64.80-11.94L64.80-11.94L64.80-11.94Q66.66-14.10 69.81-15.27L69.81-15.27L69.81-15.27Q72.96-16.44 76.74-16.44L76.74-16.44L76.74-16.44Q80.16-16.44 82.92-16.08L82.92-16.08L82.92-16.08Q82.56-20.70 80.49-22.59L80.49-22.59L80.49-22.59Q78.42-24.48 74.34-24.48L74.34-24.48L74.34-24.48Q72.30-24.48 70.41-23.70L70.41-23.70L70.41-23.70Q68.52-22.92 66.96-21.42L66.96-21.42L64.86-24.18L64.86-24.18Q68.70-28.02 74.64-28.02L74.64-28.02ZM73.08-2.64L73.08-2.64Q77.52-2.64 80.10-5.25L80.10-5.25L80.10-5.25Q82.68-7.86 82.92-12.78L82.92-12.78L82.92-12.78Q80.22-13.20 77.10-13.20L77.10-13.20L77.10-13.20Q72.54-13.20 69.90-11.70L69.90-11.70L69.90-11.70Q67.26-10.20 67.26-7.14L67.26-7.14L67.26-7.14Q67.26-2.64 73.08-2.64L73.08-2.64ZM115.32-5.94L116.64-2.52L116.64-2.52Q112.68 0.42 107.94 0.42L107.94 0.42L107.94 0.42Q103.38 0.42 101.49-2.34L101.49-2.34L101.49-2.34Q99.60-5.10 99.60-11.34L99.60-11.34L99.60-11.34Q99.60-12.36 99.72-14.88L99.72-14.88L100.26-23.88L94.20-23.88L94.20-27.42L100.50-27.42L100.92-34.74L105.72-35.52L106.32-35.58L106.38-35.22L106.38-35.22Q105.96-34.62 105.75-34.20L105.75-34.20L105.75-34.20Q105.54-33.78 105.48-32.88L105.48-32.88L104.82-27.42L113.94-27.42L113.94-23.88L104.58-23.88L104.04-14.58L104.04-14.58Q103.92-12.18 103.92-11.40L103.92-11.40L103.92-11.40Q103.92-6.60 105.03-4.89L105.03-4.89L105.03-4.89Q106.14-3.18 108.60-3.18L108.60-3.18L108.60-3.18Q110.40-3.18 111.90-3.84L111.90-3.84L111.90-3.84Q113.40-4.50 115.32-5.94L115.32-5.94ZM135.06 0.60L135.06 0.60Q128.10 0.60 123.42-3.72L123.42-3.72L125.82-7.80L126.18-8.34L126.54-8.10L126.54-8.10Q126.54-7.98 126.63-7.56L126.63-7.56L126.63-7.56Q126.72-7.14 126.96-6.72L126.96-6.72L126.96-6.72Q127.20-6.30 127.62-5.88L127.62-5.88L127.62-5.88Q129-4.50 130.77-3.75L130.77-3.75L130.77-3.75Q132.54-3 135.18-3L135.18-3L135.18-3Q138.42-3 140.28-4.17L140.28-4.17L140.28-4.17Q142.14-5.34 142.14-7.38L142.14-7.38L142.14-7.38Q142.14-9.12 140.64-10.26L140.64-10.26L140.64-10.26Q139.14-11.40 135.24-12.66L135.24-12.66L135.24-12.66Q124.92-15.60 124.92-21.18L124.92-21.18L124.92-21.18Q124.92-24.36 127.53-26.22L127.53-26.22L127.53-26.22Q130.14-28.08 135-28.08L135-28.08L135-28.08Q138.72-28.08 141.27-27.03L141.27-27.03L141.27-27.03Q143.82-25.98 145.92-23.76L145.92-23.76L143.46-20.76L143.04-20.28L142.74-20.58L142.74-20.58Q142.68-21.24 142.47-21.66L142.47-21.66L142.47-21.66Q142.26-22.08 141.60-22.62L141.60-22.62L141.60-22.62Q140.22-23.70 138.51-24.27L138.51-24.27L138.51-24.27Q136.80-24.84 135.12-24.84L135.12-24.84L135.12-24.84Q132.54-24.84 130.89-23.94L130.89-23.94L130.89-23.94Q129.24-23.04 129.24-21.42L129.24-21.42L129.24-21.42Q129.24-19.92 130.92-18.66L130.92-18.66L130.92-18.66Q132.60-17.40 136.98-16.14L136.98-16.14L136.98-16.14Q142.14-14.58 144.27-12.75L144.27-12.75L144.27-12.75Q146.40-10.92 146.40-7.98L146.40-7.98L146.40-7.98Q146.40-4.26 143.49-1.83L143.49-1.83L143.49-1.83Q140.58 0.60 135.06 0.60L135.06 0.60ZM204.96 0.72L201.66-4.56L201.66-4.56Q199.80-2.16 197.10-0.78L197.10-0.78L197.10-0.78Q194.40 0.60 191.52 0.60L191.52 0.60L191.52 0.60Q188.88 0.60 186.72-0.63L186.72-0.63L186.72-0.63Q184.56-1.86 183.36-3.93L183.36-3.93L183.36-3.93Q182.16-6 182.16-8.46L182.16-8.46L182.16-8.46Q182.16-12.18 184.20-15.39L184.20-15.39L184.20-15.39Q186.24-18.60 189.72-20.58L189.72-20.58L189.72-20.58Q185.46-25.74 185.46-29.88L185.46-29.88L185.46-29.88Q185.46-32.10 186.57-33.90L186.57-33.90L186.57-33.90Q187.68-35.70 189.57-36.72L189.57-36.72L189.57-36.72Q191.46-37.74 193.68-37.74L193.68-37.74L193.68-37.74Q196.02-37.74 197.88-36.63L197.88-36.63L197.88-36.63Q199.74-35.52 200.76-33.72L200.76-33.72L200.76-33.72Q201.78-31.92 201.78-29.88L201.78-29.88L201.78-29.88Q201.78-26.94 199.95-24L199.95-24L199.95-24Q198.12-21.06 195.30-19.80L195.30-19.80L202.02-10.38L202.02-10.38Q203.46-12.12 204.03-13.41L204.03-13.41L204.03-13.41Q204.60-14.70 204.72-16.44L204.72-16.44L204.72-16.44Q204.72-16.80 204.96-17.04L204.96-17.04L208.86-14.34L208.86-14.34Q206.64-10.44 204.30-7.38L204.30-7.38L208.50-1.92L204.96 0.72ZM193.26-22.38L193.26-22.38Q195.36-23.40 196.59-25.44L196.59-25.44L196.59-25.44Q197.82-27.48 197.82-29.52L197.82-29.52L197.82-29.52Q197.82-31.50 196.59-32.85L196.59-32.85L196.59-32.85Q195.36-34.20 193.74-34.20L193.74-34.20L193.74-34.20Q192-34.20 190.80-32.97L190.80-32.97L190.80-32.97Q189.60-31.74 189.60-29.82L189.60-29.82L189.60-29.82Q189.60-26.94 193.26-22.38L193.26-22.38ZM191.94-3.24L191.94-3.24Q195.78-3.24 199.44-7.38L199.44-7.38L191.82-17.76L191.82-17.76Q189.48-16.32 188.10-13.92L188.10-13.92L188.10-13.92Q186.72-11.52 186.72-9.12L186.72-9.12L186.72-9.12Q186.72-6.66 188.25-4.95L188.25-4.95L188.25-4.95Q189.78-3.24 191.94-3.24L191.94-3.24ZM242.46 0L242.46-37.38L245.76-37.38L255-19.08L264.42-37.44L267.60-37.44L267.60 0L263.64 0L263.64-28.20L255.54-13.14L253.92-13.14L246.36-28.02L246.36 0L242.46 0ZM286.32 0.60L286.32 0.60Q280.20 0.60 276.57-3.12L276.57-3.12L276.57-3.12Q272.94-6.84 272.94-13.62L272.94-13.62L272.94-13.62Q272.94-18.12 274.62-21.39L274.62-21.39L274.62-21.39Q276.30-24.66 279.15-26.37L279.15-26.37L279.15-26.37Q282-28.08 285.54-28.08L285.54-28.08L285.54-28.08Q290.52-28.08 293.61-24.78L293.61-24.78L293.61-24.78Q296.70-21.48 296.70-15.06L296.70-15.06L296.70-15.06Q296.70-14.40 296.58-13.08L296.58-13.08L277.08-13.08L277.08-13.08Q277.32-8.04 279.90-5.46L279.90-5.46L279.90-5.46Q282.48-2.88 286.44-2.88L286.44-2.88L286.44-2.88Q290.76-2.88 293.52-5.94L293.52-5.94L295.92-3.60L295.92-3.60Q292.44 0.60 286.32 0.60L286.32 0.60ZM277.26-16.44L292.32-16.44L292.32-16.44Q292.32-20.28 290.37-22.53L290.37-22.53L290.37-22.53Q288.42-24.78 285.24-24.78L285.24-24.78L285.24-24.78Q282.24-24.78 280.02-22.68L280.02-22.68L280.02-22.68Q277.80-20.58 277.26-16.44L277.26-16.44ZM325.32-5.94L326.64-2.52L326.64-2.52Q322.68 0.42 317.94 0.42L317.94 0.42L317.94 0.42Q313.38 0.42 311.49-2.34L311.49-2.34L311.49-2.34Q309.60-5.10 309.60-11.34L309.60-11.34L309.60-11.34Q309.60-12.36 309.72-14.88L309.72-14.88L310.26-23.88L304.20-23.88L304.20-27.42L310.50-27.42L310.92-34.74L315.72-35.52L316.32-35.58L316.38-35.22L316.38-35.22Q315.96-34.62 315.75-34.20L315.75-34.20L315.75-34.20Q315.54-33.78 315.48-32.88L315.48-32.88L314.82-27.42L323.94-27.42L323.94-23.88L314.58-23.88L314.04-14.58L314.04-14.58Q313.92-12.18 313.92-11.40L313.92-11.40L313.92-11.40Q313.92-6.60 315.03-4.89L315.03-4.89L315.03-4.89Q316.14-3.18 318.60-3.18L318.60-3.18L318.60-3.18Q320.40-3.18 321.90-3.84L321.90-3.84L321.90-3.84Q323.40-4.50 325.32-5.94L325.32-5.94ZM350.22-28.08L350.22-28.08Q354.60-28.08 357.48-25.08L357.48-25.08L355.56-21.72L355.32-21.18L354.90-21.42L354.90-21.42Q354.72-22.08 354.48-22.47L354.48-22.47L354.48-22.47Q354.24-22.86 353.46-23.34L353.46-23.34L353.46-23.34Q351.90-24.36 349.92-24.36L349.92-24.36L349.92-24.36Q347.76-24.36 345.84-23.28L345.84-23.28L345.84-23.28Q343.92-22.20 342.72-20.01L342.72-20.01L342.72-20.01Q341.52-17.82 341.52-14.52L341.52-14.52L341.52 0.06L337.14 0.06L337.14-27.42L341.64-27.42L341.52-22.38L341.52-22.38Q342.66-25.08 345.03-26.58L345.03-26.58L345.03-26.58Q347.40-28.08 350.22-28.08L350.22-28.08ZM366 0L366-3.48L373.02-3.48L373.02-23.94L366.36-23.94L366.36-27.42L377.34-27.42L377.34-3.48L383.76-3.48L383.76 0L366 0ZM374.94-33.18L374.94-33.18Q373.68-33.18 372.78-34.08L372.78-34.08L372.78-34.08Q371.88-34.98 371.88-36.24L371.88-36.24L371.88-36.24Q371.88-37.56 372.75-38.46L372.75-38.46L372.75-38.46Q373.62-39.36 374.94-39.36L374.94-39.36L374.94-39.36Q376.20-39.36 377.13-38.43L377.13-38.43L377.13-38.43Q378.06-37.50 378.06-36.24L378.06-36.24L378.06-36.24Q378.06-34.98 377.13-34.08L377.13-34.08L377.13-34.08Q376.20-33.18 374.94-33.18L374.94-33.18ZM407.10 0.66L407.10 0.66Q403.14 0.66 400.02-1.20L400.02-1.20L400.02-1.20Q396.90-3.06 395.13-6.33L395.13-6.33L395.13-6.33Q393.36-9.60 393.36-13.68L393.36-13.68L393.36-13.68Q393.36-17.76 395.13-21L395.13-21L395.13-21Q396.90-24.24 400.02-26.10L400.02-26.10L400.02-26.10Q403.14-27.96 407.04-27.96L407.04-27.96L407.04-27.96Q410.34-27.96 413.04-26.61L413.04-26.61L413.04-26.61Q415.74-25.26 417.42-22.86L417.42-22.86L414.72-20.22L414.30-19.80L414-20.10L414-20.10Q414-20.64 413.79-21.09L413.79-21.09L413.79-21.09Q413.58-21.54 412.86-22.14L412.86-22.14L412.86-22.14Q411.60-23.28 410.10-23.79L410.10-23.79L410.10-23.79Q408.60-24.30 406.56-24.30L406.56-24.30L406.56-24.30Q404.22-24.30 402.21-23.01L402.21-23.01L402.21-23.01Q400.20-21.72 399-19.38L399-19.38L399-19.38Q397.80-17.04 397.80-13.98L397.80-13.98L397.80-13.98Q397.80-10.92 399.03-8.46L399.03-8.46L399.03-8.46Q400.26-6 402.45-4.62L402.45-4.62L402.45-4.62Q404.64-3.24 407.34-3.24L407.34-3.24L407.34-3.24Q411.48-3.24 414.48-6.60L414.48-6.60L417-3.66L417-3.66Q412.98 0.66 407.10 0.66L407.10 0.66ZM435.06 0.60L435.06 0.60Q428.10 0.60 423.42-3.72L423.42-3.72L425.82-7.80L426.18-8.34L426.54-8.10L426.54-8.10Q426.54-7.98 426.63-7.56L426.63-7.56L426.63-7.56Q426.72-7.14 426.96-6.72L426.96-6.72L426.96-6.72Q427.20-6.30 427.62-5.88L427.62-5.88L427.62-5.88Q429-4.50 430.77-3.75L430.77-3.75L430.77-3.75Q432.54-3 435.18-3L435.18-3L435.18-3Q438.42-3 440.28-4.17L440.28-4.17L440.28-4.17Q442.14-5.34 442.14-7.38L442.14-7.38L442.14-7.38Q442.14-9.12 440.64-10.26L440.64-10.26L440.64-10.26Q439.14-11.40 435.24-12.66L435.24-12.66L435.24-12.66Q424.92-15.60 424.92-21.18L424.92-21.18L424.92-21.18Q424.92-24.36 427.53-26.22L427.53-26.22L427.53-26.22Q430.14-28.08 435-28.08L435-28.08L435-28.08Q438.72-28.08 441.27-27.03L441.27-27.03L441.27-27.03Q443.82-25.98 445.92-23.76L445.92-23.76L443.46-20.76L443.04-20.28L442.74-20.58L442.74-20.58Q442.68-21.24 442.47-21.66L442.47-21.66L442.47-21.66Q442.26-22.08 441.60-22.62L441.60-22.62L441.60-22.62Q440.22-23.70 438.51-24.27L438.51-24.27L438.51-24.27Q436.80-24.84 435.12-24.84L435.12-24.84L435.12-24.84Q432.54-24.84 430.89-23.94L430.89-23.94L430.89-23.94Q429.24-23.04 429.24-21.42L429.24-21.42L429.24-21.42Q429.24-19.92 430.92-18.66L430.92-18.66L430.92-18.66Q432.60-17.40 436.98-16.14L436.98-16.14L436.98-16.14Q442.14-14.58 444.27-12.75L444.27-12.75L444.27-12.75Q446.40-10.92 446.40-7.98L446.40-7.98L446.40-7.98Q446.40-4.26 443.49-1.83L443.49-1.83L443.49-1.83Q440.58 0.60 435.06 0.60L435.06 0.60Z" fill="#ccc"></path></g></g><style>text {
  font-size: 64px;
  font-family: Arial Black;
  dominant-baseline: central;
  text-anchor: middle;
}</style></svg>